<svg xmlns="http://www.w3.org/2000/svg" width="258.93" height="154.402" viewBox="0 0 258.93 154.402"><defs><style>.cls-1{fill:#1b333f;}</style></defs><g id="レイヤー_2" data-name="レイヤー 2"><g id="レイヤー_1-2" data-name="レイヤー 1"><path class="cls-1" d="M32.247,95.938a26.5,26.5,0,0,0-4.072,1.434,33.794,33.794,0,0,1-3.348,1.312,11.1,11.1,0,0,0-1.956.746c-1.32.553-1.379.646-1.662,1.6-.136.519-.464,1.648-.689,2.511-2.3,7.489-5.411,19.822-6.176,24.079-.489,2.808-1.069,5.96-1.52,7.688a13.167,13.167,0,0,0-.058,1.413c-.062.506-.139.931-.3.876-.145.024-.248.289-.194.61a11.113,11.113,0,0,1-.156,2.586c-.184,1.1-.367,3.528-.546,5.54a23.52,23.52,0,0,1-.489,4.128c-.017.333-.125,1.012-.116,1.5.02,2.308-.765,2.936-2.331,2.047a7.388,7.388,0,0,0-.962-.413A5.061,5.061,0,0,1,6.381,153c-.673-.463-.959-.827-.928-1.08.045-.173.148-1.759.223-3.5a103.152,103.152,0,0,1,1.476-11.89,5.755,5.755,0,0,0,.14-.931c.049-.587.611-3.406,1.187-6.146.1-.264.468-2.06.878-4.028,1.377-6.343,3.886-16.1,5.554-21.167l.27-1.036-.7.283c-3.06,1.263-11.15,6.188-11.245,6.946-.076.426-.641.605-.709.2-.041-.242-.041-.242-.217.037-.293.462-.524.419-.606-.063-.04-.24-.226-.457-.37-.432-.29.049-.729-.784-1.264-2.179-.181-.629-.123-.722,1.274-1.7A89.8,89.8,0,0,1,12.47,99.959,37.322,37.322,0,0,0,16.1,98.105c.872-.561,2.217-3.6,2.6-5.725.091-.346.194-.61.267-.623.144-.025.189-.2.148-.439s.09-.344.248-.289c.389.1.624-.271.294-.463-.158-.055-.141-.388-.05-.734a2.136,2.136,0,0,0,.139-.932,9.67,9.67,0,0,1,.519-1.326,3.48,3.48,0,0,0,.477-1.566c-.054-.321.153-.852.785-1.95.118-.185.252-.7.415-1.061.09-.346.433-1.394.743-2.19a7.125,7.125,0,0,0,.424-1.888.59.59,0,0,1,.28-.543c.144-.024.248-.289.221-.449a1.624,1.624,0,0,1,.311-.8,37.627,37.627,0,0,0,2.354-5.849,1.7,1.7,0,0,1,1.038-1.332A2.306,2.306,0,0,0,28.041,69c.59-1.339,2.827-7,2.786-7.242a3.69,3.69,0,0,1,.5-.993c.221-.451,1.2-2.6,2.17-4.744,1.907-4.534,4.93-10.826,5.783-12.375a23.755,23.755,0,0,0,1.237-2.355c2.563-5.058,7.008-12.169,8.643-13.933,2.158-2.182,3.881-2.557,5.368-1.243a3.989,3.989,0,0,0,1.1.8c.362-.061,1.393.754,2.063,1.631.784,1.105,1.35,3.567,1.339,6.129a15.28,15.28,0,0,0,.134,2.535,14.075,14.075,0,0,1-.053,2.32c-.066.92-.257,4.171-.4,7.25-.419,5.849-.414,6.757-.96,12.3-.577,7.114-1.642,24.051-1.8,28.783-.076,1.746-.19,4.573-.324,6.411-.253,5.079-.46,11.3-.451,11.8a2.6,2.6,0,0,1-.152.853,2.112,2.112,0,0,0-.022.745,40.083,40.083,0,0,1,.058,4.283c-.193,6.306-.032,9,.553,12.452.574,3.37,1.327,6.048,1.761,5.975.144-.025.416.259.614.556.127.308.426.753.54.981.384.513.534,1.4.286,1.685a2.02,2.02,0,0,1-1.116.436c-.954.08-2.749-.853-4.238-2.168a2.3,2.3,0,0,1-.951-1.654,6.521,6.521,0,0,0-.774-1.932c-1.752-3.747-2.181-11.515-1.585-27.713.057-1.413.068-3.973.157-5.639a26.559,26.559,0,0,1,.209-3.585c.163-.358.122-.6-.037-.655-.33-.191-5.45.762-6.784,1.237-2.449.911-3.606,1.107-3.66.787-.028-.16-.127-.309-.271-.284-.073.012-.132.1-.1.265.068.4-.8.962-2.223,1.368a19.94,19.94,0,0,0-2.579,1.016C34.086,95.377,32.956,95.734,32.247,95.938Zm-19.08,23.878c1.95-7.347,3.117-11.425,3.4-11.968a7.907,7.907,0,0,0,.239-.784c.031-.252.149-.438.293-.462.072-.012.09-.346.035-.666s.05-.587.267-.623c.144-.026.261-.21.207-.532a5.368,5.368,0,0,1,.437-1.807,12.8,12.8,0,0,0,.491-1.487,1.338,1.338,0,0,0-.551.259c-.407.235-.732.95-1.407,3.541-1.572,5.632-3.4,12.795-3.68,14.245-.239.783-.433,1.394-.577,1.418s-.172-.136-.095-.561c.2-1.024.011-1.241-.2-.3-.252.7-.225.864.019.987.475.167.43.339-.187,2.838-.527,2.153-.6,2.579-.427,2.3C11.486,126.127,12.266,123.271,13.167,119.816Zm-1.671,2.43c.055.32.055.32.217-.037a2.789,2.789,0,0,0,.136-.519c-.014-.08-.1-.148-.231-.043A.668.668,0,0,0,11.5,122.246Zm.7-3.338c.014.08.1.149.231.043s.19-.2.177-.277-.086-.068-.231-.044S12.166,118.748,12.193,118.908Zm.3-.876c.055.321.321-.3.668-1.764.239-.784.54-2.073.707-2.844s.689-2.511,1.049-3.893c1.632-5.725,2.051-7.2,1.906-7.175C16.459,102.418,12.382,117.391,12.491,118.032Zm2.79-4.6c-.208.53-.167.77.095.56a.956.956,0,0,0,.135-.518C15.457,113.153,15.371,113.085,15.281,113.432Zm1.969-1.987a.251.251,0,0,0-.259-.2,27.258,27.258,0,0,0-1.73,5.577c-.135.519.131-.1.46-1.233a21.231,21.231,0,0,1,1.425-3.874C17.218,111.7,17.277,111.606,17.25,111.445Zm.341-2.369c-.289.049-.763,1.2-.681,1.685.095.56.475.167.7-.7C17.952,109.015,18.025,109,17.591,109.076Zm2.452-8.341c-.159-.055-.452.408-.691,1.191-.136.518-.613,2.085-1.046,3.479-.419,1.475-.807,2.7-.78,2.857.055.321.449.007.773-.709.149-.438.316-1.209.451-1.728a22.316,22.316,0,0,1,.752-3.016A13.473,13.473,0,0,0,20.043,100.735ZM19.17,95.6c.193-.612.626-2.005.955-3.135a53.957,53.957,0,0,1,2.317-6.5,1.621,1.621,0,0,0,.18-.692c.112-1.092-.284-.364-1,1.574-.329,1.128-.789,2.362-.879,2.708-.325.715-1.817,5.508-2.145,6.637C18.285,97.4,18.8,96.9,19.17,95.6Zm2.176-2.517c.194-.61.55-1.579.73-2.271.626-2,1.384-4.114,4.067-11.09.726-1.858,1.321-3.61,1.366-3.782a1.385,1.385,0,0,1,.641-.6c.42-.154.714-.617,1.174-1.851,1.944-5.2,3.423-8.753,4.073-10.183a7.422,7.422,0,0,0,.739-1.778,1.23,1.23,0,0,1,.455-.82A6.285,6.285,0,0,0,35.417,59a3.238,3.238,0,0,1,.5-1.405.681.681,0,0,0,.208-.531,10.148,10.148,0,0,1,.681-1.684A11.7,11.7,0,0,0,37.992,52.7a8.131,8.131,0,0,1,.668-1.764c.1-.266.325-.715.487-1.074.253-.7,2.432-4.953,5.049-9.689,2.532-4.806,6.048-9.943,8.089-11.941.962-.906.18-.691-.913.321a9.291,9.291,0,0,1-1.179.943c-.144.025-.221-.871-.046-1.147.059-.093.072-.013.027.16-.148.437-.018.333,1.017-.586.524-.419,1.106-.931,1.31-1.048.479-.246.483-.66-.1-.561-.94.16-3.974,3.316-3.662,3.841.127.308-.383.809-.772.709-.317-.111-5.087,7.716-6.576,10.776A16.962,16.962,0,0,1,40.028,44.1a8.113,8.113,0,0,0-.854,1.547c-.311.8-1.565,3.486-2.7,5.99-1.254,2.689-1.994,4.466-1.822,4.6.113.229.041.242-.118.186-.086-.068-.347.141-.451.407-.163.358-.578,1.419-1.019,2.319-.429.981-.609,1.672-.478,1.568.2-.118.361-.062.4.179a.333.333,0,0,1-.234.369c-.145.025-.349.142-.421.154-.42.154-.993,1.159-1.619,3.164-.7,2.018-2.165,5.65-2.563,6.379a.851.851,0,0,1-.582.512,4.4,4.4,0,0,0-1.322,2.288,44.3,44.3,0,0,1-2.06,5.385c-.29.049-1.242,2.77-1.412,3.955-.279,1.863.245,1.444.786-.629.6-2.166.924-2.881,1.11-2.665a8.95,8.95,0,0,1-.572,2.326c-.474,1.153-1.353,3.862-2.052,5.879-.685,2.1-1.293,3.769-1.352,3.862-.145.024-.19.2-.163.356a12.073,12.073,0,0,1-.586,2.247,14.942,14.942,0,0,0-.553,1.993c.027.16.3.03.565-.179a9.284,9.284,0,0,0,.6-1.259C20.769,94.5,21.138,93.616,21.346,93.085Zm1.468-.992c.965-2.641,1.077-3.733.32-1.622a37.66,37.66,0,0,0-1.609,4.977c.041.241.361-.06.438-.487C22.007,94.788,22.381,93.487,22.814,92.093Zm17.924-3.542c3.185-.954,7.538-1.611,8.79-1.246.475.167.936.254.923.174,0,0,.276-4.5.6-10.008.344-5.424.708-11.594.887-13.606.3-3.93.84-10.378,1.22-15.147a20.287,20.287,0,0,0,.137-3.572,29.219,29.219,0,0,1,.46-5.609,37.348,37.348,0,0,0,.444-3.956c.093-2.079-.245-5.818-.606-5.757-.073.013-.249.29-.425.568-.28.543-.686.777-.551.258.221-.45-.551.259-.877.974l-.351.556.438-.488c.176-.277.438-.486.524-.419a4.185,4.185,0,0,1-.69,1.191c-.5.579-1.1,1.425-1.4,1.808-.236.369-.484.659-.57.59-.289.05-.8.549-.758.79s-.018.332-.163.358a2.938,2.938,0,0,0-1.16,1.93c.068.4-.27,1.037-.528.833-.086-.068-.144.025.027.161.127.308.069.4-.279.543a.7.7,0,0,0-.511.5c-.045.172.041.241.231.043.131-.1.086.068-.09.345a.669.669,0,0,1-.438.488c-.245-.123-1.4,1.807-1.467,2.312-.059.093.2-.116.411-.647.293-.462.6-.845.686-.777A12.88,12.88,0,0,1,43.6,45.392a.617.617,0,0,0-.293.462,10.525,10.525,0,0,1-.772,2.03c-3.067,6.464-3.275,6.994-7.149,16.154-.9,2.135-1.642,3.912-1.628,3.992a12.351,12.351,0,0,1-1.4,3.127c-.218.037-.245-.124-.02-.987a5.569,5.569,0,0,0,.189-1.518c-.15-.882,1.266-3.93,1.7-4a12.022,12.022,0,0,0,1.669-3.75c-.014-.08-.172-.136-.389-.1-.433.074-2.856,5.52-4.934,11.239-1.366,3.781-1.529,4.14-2.093,4.318-.349.142-.849,1.135-1.873,3.868a63.691,63.691,0,0,0-2.664,7.964,37.093,37.093,0,0,0,1.822-4.6c1.961-5.533,2.345-6.342,2.661-6.23.172.135,1.535-1.913,1.467-2.313A8.794,8.794,0,0,1,31,72.378c.289-.05.167.55-.766,2.936C29.548,77,29.107,77.9,28.759,78.041a2.7,2.7,0,0,0-.993,2.48c.128.308-.084,1.252-.752,3.016-1.127,3-1.01,2.814-1.429,2.967-.218.037-.308.383-.312.8.091.975-.815,3.523-1.19,3.505-.158-.057-.2.116-.148.437a7.452,7.452,0,0,1-.535,2.981c-.073.011-.259-.2-.3-.446-.141-.388-.2-.3-.366.475l-.225.864.564-.178c.289-.049,2.1-.77,3.986-1.5C32.016,91.52,37.71,89.561,40.738,88.551ZM25.619,85.838c.105-.266.371-.888.578-1.419.222-.45.622-1.592.934-2.387a7.736,7.736,0,0,0,.478-1.567,32.84,32.84,0,0,0-1.985,4.96C25.561,85.931,25.516,86.1,25.619,85.838ZM35.685,59.7a.7.7,0,0,0-.149.438.136.136,0,0,0,.23.044.458.458,0,0,0,.149-.439C35.9,59.658,35.816,59.59,35.685,59.7Zm.979-1.24c-.045.174-.032.253.041.24a29.188,29.188,0,0,0,1.814-3.774,26.465,26.465,0,0,1,1.051-2.572c.956-1.814,1.434-3.38,1.163-3.664-.086-.069-.222.45-.4,1.14-.154.852-.271,1.037-.456.822s-.259-.2-.118.184c.041.24,0,.413-.149.438s-.261.21-.221.45a3.423,3.423,0,0,1-.622,1.592,32.471,32.471,0,0,0-1.855,3.534c-.811,1.789-1.019,2.319-.761,2.523.343.272.578-.1.366-.474a.413.413,0,0,1,.062-.506C36.71,58.282,36.782,58.271,36.664,58.455Zm5.129-11.849a1.557,1.557,0,0,0-.483.66c-.09.345-.121.6-.049.586a1.634,1.634,0,0,0,.41-.648C41.834,46.847,41.865,46.594,41.793,46.606Zm2.486-4.632a19.815,19.815,0,0,0-2.192,4.17,11.072,11.072,0,0,0,1.159-1.931c.442-.9.943-1.894,1.047-2.159C44.514,41.6,44.514,41.6,44.279,41.974Zm1.25-2.277c-.293.463-.221.45.19-.2.293-.463.6-.845.573-1.005C46.251,38.254,46.016,38.624,45.529,39.7ZM48.16,88.445a1.627,1.627,0,0,0-.637.191c-.145.024.086.068.375.019C48.26,88.594,48.318,88.5,48.16,88.445Zm3.977,28.214c-.119-6.831.2-18.11.57-23.786.067-.92-.019-.987-.728-.784-.421.153-.48.246-.343,1.049.259,1.524.229,3.1-.06,3.146s-.49,2.807-.475,5.529c.066,2.134-.025,6.855-.181,9.44-.169,2.5-.145,3.079.171,3.19.388.1.6.889.39,1.42-.221.45-.221.45-.344-.272-.082-.482-.2-.71-.254-.617-.234.37-.177,3.332.16,5.751.245,1.444.381,2.246.385,1.833-.05-.735.2-1.025.438-.488a5.03,5.03,0,0,1,.259,1.525,7.7,7.7,0,0,0,.4,1.913c.154.469.2-.117-.065-2.136C52.345,121.823,52.144,118.887,52.137,116.659Zm-.829-21.073c.041.241.1.149.2-.116a3.975,3.975,0,0,0,.008-.827c-.041-.242-.1-.149-.131.105A4.815,4.815,0,0,0,51.308,95.586Zm.7-10.767a3.849,3.849,0,0,0-.138.932,2.215,2.215,0,0,1-.2,1.024,1.074,1.074,0,0,0-.267.623,9.572,9.572,0,0,0,1.435,2.315,8.92,8.92,0,0,0,.166-2.092c.04-1.079.033-3.307.136-4.892.115-1.5.172-4.239.247-5.986s.213-4,.339-5.01c.211-2.264.589-8.354.5-8.421a5.2,5.2,0,0,0-.306,1.7,12.56,12.56,0,0,1-.5,2.314,2.146,2.146,0,0,0-.211.944,39.055,39.055,0,0,1-.317,4.263,38.835,38.835,0,0,0-.317,4.264,2.144,2.144,0,0,1-.139.932,8.242,8.242,0,0,0-.35,3.2,2.452,2.452,0,0,1-.156,1.264c-.132.105-.1.266.008.494a.463.463,0,0,1-.121.6c-.19.2-.163.359.05.735A1.381,1.381,0,0,1,52.007,84.819Zm2.061,17.81c-.344-.272-.4.727-.206,3.171a1.74,1.74,0,0,1-.049.587,4.093,4.093,0,0,0-.016,1.653c.073,1.309-.039,2.4-.328,2.449-.072.013-.082-.481-.163-.962.035-.667-.006-.907-.209-.791-.118.186-.145.026-.186-.215.032-.253.149-.438.307-.382.289-.049.221-.45-.082-.482a4.62,4.62,0,0,1-.069-1.721c.083-2.574.133-3.16-.084-3.122s-.217.037-.231,4.331c.011,1.814.035,3.709-.042,4.133a74.3,74.3,0,0,0,.769,14.151c.444,1.739,1.146,3.683,1.337,3.486-.014-.08-.223-.87-.518-1.727a13.025,13.025,0,0,1-.555-3.7c-.059-1.228-.219-2.605-.3-3.086-.095-.561-.1-1.055.026-1.161.059-.091.158.057.213.378.164.962.244.123.277-3.184.062-1.826.144-5.72.187-8.534A46.43,46.43,0,0,0,54.068,102.629Zm1.74-33.974c-.068-.4-.415,1.062-.333,1.543.041.241.023.574-.108.679a5.8,5.8,0,0,0-.139.932,14.318,14.318,0,0,1-.12,1.919c-.1,1.172-.2,4.492-.208,6.225,0,.413-.107.679-.193.611-.316-.112-.349-1.178-.213-4.751.232-4.332.187-4.159.024-3.8a16.132,16.132,0,0,0-.407,4.608,9.258,9.258,0,0,1-.148,1.759,10.5,10.5,0,0,0-.088,1.666c.009.493.1,1.469.151,2.2,0,1.32.4,1.5.475.167a1.344,1.344,0,0,1,.153-.851c.248-.291.244.124.146,1.3a5.274,5.274,0,0,0-.1,1.586c0,.413-.108.679-.469.741-.494.166-.9,1.72-.586,2.246a1.835,1.835,0,0,1-.17,1.183,4.488,4.488,0,0,0-.148,1.759,2.953,2.953,0,0,1,.046,1.148,5.171,5.171,0,0,0-.021,2.067c.1,1.469.17,1.869.386,1.833.29-.05.457.5.359,1.672.036.654-.036.667-.19.2-.126-.309-.3-.444-.488-.247a.349.349,0,0,0-.135.519c.1.148.127.308-.045.172q-.217.038-.094.759a5.382,5.382,0,0,1-.134,1.838q-.521,2.195-.107,2a2.448,2.448,0,0,0,.315-1.209c.026-1.16.432-2.715.6-2.579a3.884,3.884,0,0,1,.042,1.562c-.075,1.746-.02,2.066.269,2.017.145-.024.238-2.1.48-9,.111-2.413.269-6.732.558-12.477.04-1.079.15-3.492.284-5.33C55.738,71.31,55.849,68.9,55.808,68.655ZM54.054,83.729c-.085-.068-.071.012-.044.172.014.08-.118.186-.2.118-.158-.056-.19.2-.121.6l.095.562.194-.611C54.122,84.13,54.14,83.8,54.054,83.729Zm.672-16.623a5.122,5.122,0,0,1-.175,1.6,4.35,4.35,0,0,0-.116,1.506c.1,1.055.389.1.541-2.073a18.617,18.617,0,0,0,.1-2.492C54.978,65.083,54.617,66.465,54.726,67.106Zm.412-3.7a1.444,1.444,0,0,0,.081-.839c-.194-.709-.194-.709-.244-.123C54.894,63.28,54.949,63.6,55.138,63.4Zm0,.414c-.086-.068-.13.105-.09.345.113.229.127.309.172.137A.563.563,0,0,0,55.134,63.818Zm.053-2.32a1.607,1.607,0,0,0,.212-.944c-.011-.493-.024-.573-.128-.309C55.077,60.856,55.025,61.856,55.187,61.5Zm.3-2.2a1.7,1.7,0,0,0,.081-.84c-.069-.4-.069-.4-.245-.123a3.142,3.142,0,0,0-.008.827C55.379,59.567,55.379,59.567,55.483,59.3Zm.007-2.148c.113.228.185.216.275-.129a3.915,3.915,0,0,0,.009-.827.167.167,0,0,0-.186-.217C55.371,56.019,55.277,56.777,55.49,57.154ZM56.5,48.232c-.113-.228-.446,1.315-.545,2.487-.049.586-.2,1.85-.345,2.783-.22,1.77-.238,2.1.11,1.961a15.254,15.254,0,0,0,.512-3.553A24.171,24.171,0,0,0,56.5,48.232Zm-.714,19.437c-.073.012-.131.1-.09.345.127.309.127.309.172.135A.569.569,0,0,0,55.789,67.669Zm.575-8.435a5.394,5.394,0,0,0-.234,1.691c-.094.759-.183,2.425-.281,3.6-.152,2.172-.133,3.159.044,2.882a22.4,22.4,0,0,0,.242-2.518c.07-1.332.2-2.758.2-3.171-.009-.494.1-1.172.117-1.506C56.609,59.358,56.526,58.877,56.364,59.234Zm.309-3.437c-.172-.135-.315,1.21-.22,1.771.041.242.158.056.266-.623A2.548,2.548,0,0,0,56.673,55.8Zm-.183,2.426c-.086-.069-.059.091-.018.333s.054.321.086.068A.4.4,0,0,0,56.49,58.223ZM57.144,52a9.778,9.778,0,0,0-.436,3.128c.055.321.177-.277.3-1.289A10.987,10.987,0,0,0,57.144,52Z"/><path class="cls-1" d="M114.666,84.488a1.7,1.7,0,0,1-.839,1.628c-.466.327-.945.573-1.1.518a4.239,4.239,0,0,1-.53-1.809c-.246-1.444-.359-1.672-.761-1.851-1.194-.457-4.877,1.077-7.785,3.221-1.325.968-2.855,2.467-2.8,2.787a55.144,55.144,0,0,1-1.619,8.86,111.768,111.768,0,0,1-4.512,13.726c-.311.8-1.357,2.955-2.314,4.768-2.622,5.15-4.554,7.79-6.952,9.436a6.287,6.287,0,0,1-5.2,1.378,4.953,4.953,0,0,1-3.393-1.569,12.59,12.59,0,0,0-1.415-1.327c-.946-.747-1.059-.976-1.023-1.643a1.442,1.442,0,0,0-.322-1.018c-.272-.284-.3-.445-.109-.642a.682.682,0,0,0-.209-.79,1.731,1.731,0,0,1-.34-2c.22-.451.22-.451.239.536.078.9.092.976.326.606a1.306,1.306,0,0,0,.14-.933c-.041-.24.063-.506.135-.517.217-.037.371.431.449,1.327.145,1.3.435,1.246,1.071-.265a84.091,84.091,0,0,1,6.4-11.817c4.68-7.483,8.369-12.484,12.162-16.431,2.276-2.367,2.114-2.01,2.335-6.835.178-3.331-.137-6.5-.724-6.892a1.281,1.281,0,0,1-.4-.593c-.232-1.363-1.445-2.809-2.24-2.673-1.012.172-3.415,2.231-5.257,4.525-1.783,2.2-4.37,6.686-4.26,7.328.054.32-.831,2.122-1,1.986-.014-.08-.072.013-.045.173a25.55,25.55,0,0,1-1.218,3.343c-3.788,9.228-5.368,15.687-4.876,19.9.128,1.629-.026,2.48-.572,2.326a.508.508,0,0,0-.393.315c-.28.543-1.071.264-2.419-.663l-1.19-.871-.58-2.543a21.582,21.582,0,0,1-.616-4.929c-.117-4.191.183-12.5.643-18.1a16.8,16.8,0,0,0,.02-3.387,2.5,2.5,0,0,1,.13-1.425,8.735,8.735,0,0,0,.5-2.315,126.311,126.311,0,0,1,2.608-15.3c.135-.518.748-2.6,1.288-4.675a62.964,62.964,0,0,1,2.993-9.093c1.1-2.745,3.459-8.1,4.24-9.636.162-.357.736-1.363,1.237-2.356,3.681-7.229,7.865-14.13,8.66-14.266.507-.086.972-.412.931-.653a.263.263,0,0,0-.33-.192c-.723.123-.326-.6.97-1.733a7.232,7.232,0,0,1,3.963-2.077,1.979,1.979,0,0,1,2.017.483,3.7,3.7,0,0,1,2.158,3.512c.219,2.6-.45,6.1-2.448,12.3-2.009,6.119-4.422,12.059-9.9,24.05-4.8,10.722-9.227,18.82-12.3,22.644a4.22,4.22,0,0,0-1.1,1.838c-.018.333-.221,1.77-.35,3.2-.116,1.505-.214,2.678-.214,2.678a7.567,7.567,0,0,0,.753-1.7,31.46,31.46,0,0,1,2.106-4.238c.163-.357.488-1.073.826-1.708,2.229-4.837,5.764-8.986,8.941-10.434,1.319-.555,4.411-.75,5.316-.242a10.388,10.388,0,0,0,1.451.66A7.2,7.2,0,0,1,99.465,75.6c.625,1.048.721,1.61,1.311,4.646l.586,3.45,1.206-.783c3.908-2.4,7.176-2.87,10.02-1.455C114.226,82.334,114.8,83.063,114.666,84.488ZM73.6,84.534c-.275.128-.379.394-.284.956a6.491,6.491,0,0,1-.071,1.332,13.678,13.678,0,0,1-.287,1.369c-.167.772-.278,3.185-.486,8.09-.089,1.666-.093,6.454-.052,6.695a14.71,14.71,0,0,0,.679-3c-.041-1.562.224-7.88.318-8.639.076-.426.192-1.932.264-3.264.129-1.425.187-2.838.218-3.091C73.966,84.473,73.88,84.4,73.6,84.534Zm.269,12.087c-.082-.481-.154-.469-.23-.043a11.288,11.288,0,0,0-.1,1.173l-.021.746.252-.7A3.261,3.261,0,0,0,73.873,96.621ZM73.7,82.454c.272.284.6-.845.825-3.029.185-1.1.4-2.875.588-3.98.2-1.023.4-2.462.508-3.14a70.725,70.725,0,0,1,1.765-7.564c.527-2.153.95-4.041.936-4.121s2.177-6.89,2.993-9.093c.149-.438.568-1.913.87-3.2A44.841,44.841,0,0,1,84.1,42.964c1.818-4.188,1.231-3.263-1,1.573-1.682,3.671-2.364,5.355-4.455,10.993-.654,1.845-2.622,9.525-3.514,13.474a8.633,8.633,0,0,0-.408,3.288c.127.309.082.481.01.494-.145.025-.19.2-.077.426a3.629,3.629,0,0,1-.234,1.69,11.837,11.837,0,0,0-.366,4.85,1.02,1.02,0,0,1-.049.586C73.659,80.48,73.5,82.158,73.7,82.454Zm-.049-9.483c.068.4.293-.463.491-1.488a6.706,6.706,0,0,1,.247-1.61c.136-.518,1.328-5.756,1.423-6.516.09-.344.049-.585-.024-.573C75.5,62.834,73.525,72.248,73.648,72.971Zm.219,21.423c-.054-.321-.127-.309-.117.185-.095.759.014,1.4.136.8A5.421,5.421,0,0,0,73.867,94.394Zm.007-2.148c-.086-.067-.059.093-.018.334s.054.32.1.148Q74,92.349,73.874,92.246Zm.151-2.172a5.529,5.529,0,0,0-.1,1.172c.01.494.037.655.154.47a9.17,9.17,0,0,0,.085-1.252C74.229,89.958,74.129,89.809,74.025,90.074Zm.359-2.7c-.081-.481-.081-.481-.157-.056-.032.253-.081.84-.1,1.173l-.022.746.193-.61A3.677,3.677,0,0,0,74.384,87.372Zm.212-.943c-.086-.069-.258-.2-.258-.2-.072.012-.117.184-.1.265a.246.246,0,0,0,.258.2C74.637,86.669,74.695,86.576,74.6,86.429Zm.447-5.69a7.3,7.3,0,0,0,.585-2.245c.463-2.968.859-5.015,1.786-9.631.823-4.349,1.1-6.213.75-5.658a28.717,28.717,0,0,0-.964,3.961c-.482,1.981-.878,4.028-1,4.628a24.043,24.043,0,0,0-.413,2.381c-.167.771-.247,1.61-.337,1.956A17.969,17.969,0,0,0,75.1,78.42c-.14.931-.193,1.931-.282,2.276C74.735,81.122,74.808,81.109,75.043,80.739Zm1.22-19.522a3.124,3.124,0,0,0,.429-.981c.09-.344.167-.771.094-.758-.086-.068-.235.37-.442.9C76.209,60.9,76.205,61.31,76.263,61.217Zm5.048,61.214a28.723,28.723,0,0,0,4.506-4.563,76.447,76.447,0,0,0,4.76-9.64c.636-1.512,1.227-2.851,1.344-3.036.263-.21.489.247.254.618a.453.453,0,0,0-.135.518c.11.642,2.975-8.761,3.317-11.129.122-.6-.137-.8-.345-.272-.044.173-1.1,1.425-2.194,2.849a175.031,175.031,0,0,0-12.145,19.151c-1.606,3.244-2.761,6.082-2.679,6.563S80.118,123.294,81.311,122.431ZM90.33,36.293a130.344,130.344,0,0,0-5.9,12.146c-1.449,3.3-1.6,3.738-1.276,3.435.379-.394.271.284-.261,1.53A45.121,45.121,0,0,0,80.6,61.8a1.837,1.837,0,0,1-.139.931,30.64,30.64,0,0,0-1.08,5.466c-.278,1.864-1.047,6.533-1.2,7.386-.139.931.4.179,2.109-2.918.956-1.813,2.31-4.354,2.973-5.7s1.34-2.622,1.516-2.9l.47-.74c.148-.439,3.441-7.766,4.339-9.488.266-.622.753-1.7,1.064-2.492.325-.715,1.183-2.677,1.891-4.2,1.506-3.393,4.279-10.715,5.072-13.491.135-.518.581-1.833.91-2.962.96-3.546,1.405-6.181,1.232-7.637-.16-1.377-.16-1.377-.611-.969-1.5,1.244-3.391,4.125-6.157,9.3C92.225,33,90.961,35.194,90.33,36.293Zm4.911,61.731a42.744,42.744,0,0,1-2.366,7.088,2,2,0,0,0-.239.784,1.513,1.513,0,0,1-.587.925c-.275.129-.32.3-.162.358.317.112.109.642-1.342,4.355-.52,1.326-1.228,2.85-1.449,3.3a16.376,16.376,0,0,0-1.177,2.264c.082.481-3.192,4.423-4.605,5.735-1.37,1.142-3.4,2.313-3.732,2.121-.173-.137-.231-.044-.263.209-.093.759,1.448,1.074,2.636.625a5.1,5.1,0,0,1,1.071-.265l.506-.085-.547-.155c-.533-.075-.474-.167.763-1.2a9.753,9.753,0,0,1,1.468-.992,2.211,2.211,0,0,0,.556-.673c.176-.277.835-1.214,1.363-2.047a57.177,57.177,0,0,0,5.053-10.1c.357-.969.668-1.765.726-1.857a.337.337,0,0,1,.231.043c.158.056.05.735-.378,1.715-.357.969-.681,1.685-.668,1.765.069.4,1.71-3.51,2.188-5.077.283-.957.582-1.832.64-1.924.208-.532.257-1.117.039-1.081a.834.834,0,0,0-.279.543c-.09.345-.222.451-.248.29-.1-.562-.344-.272-.876.974-.812,1.789-.777,1.122.084-1.253.731-2.269,2.7-9.044,2.875-10.228C96.751,92.9,96.246,94.305,95.241,98.024ZM83.015,50.165a27.65,27.65,0,0,1,1.209-2.517c.045-.172.09-.345.018-.333a46.065,46.065,0,0,0-2.287,4.928A17.266,17.266,0,0,0,83.015,50.165Zm1.773,73.9c-.185-.215-.9.4-.858.641s.185.217.637-.19C84.77,124.4,84.874,124.137,84.788,124.068Zm.6-79.177c.1-.266.018-.333-.113-.229a.661.661,0,0,0-.076.426C85.257,45.409,85.388,45.3,85.392,44.891Zm.137,78.721c-.335.222-.379.4-.09.346a.4.4,0,0,0,.32-.3C85.818,123.564,85.732,123.5,85.529,123.612Zm1.369-1.14c-.014-.08-.217.037-.466.327-.582.512-.555.672.041.24C86.735,122.83,86.925,122.633,86.9,122.472Zm10.23-22.539a41.871,41.871,0,0,0-1.671,5.484c.013.08-.1.265-.307.382-.145.025-.249.29-.222.45.041.241,0,.413-.149.439s-.2.117-.1.264a2.316,2.316,0,0,1-.4,1.142,3.036,3.036,0,0,0-.519,1.326,3.021,3.021,0,0,1-.446,1.314,3.673,3.673,0,0,0-.632,1.1,1.017,1.017,0,0,1-.4.729c-.249.289-.452.406-.335.22.059-.092.032-.253-.04-.24a3.527,3.527,0,0,0-.523,1.739,4.8,4.8,0,0,1-.329,1.13,3.928,3.928,0,0,0-.429.981,2.167,2.167,0,0,1-1.115,1.757c-.216.038-.347.142-.334.222.055.321-.753,1.7-.984,1.653-.144.025-.2.117-.176.278a2.7,2.7,0,0,1-.473,1.153l-.514.913.5-.58c.307-.382,1.1-1.424,1.756-2.362,2.126-3.25,5.695-10.707,5.355-11.392a.4.4,0,0,1,.235-.371.534.534,0,0,0,.221-.45,1.315,1.315,0,0,1,.3-.876C95.981,105,97.566,99.445,97.128,99.933ZM93.9,106.341c.144-.025.127.308.051.734a2.44,2.44,0,0,1-.4.729,1.245,1.245,0,0,0-.479.246c-.2.117-.362.061-.375-.019A3.36,3.36,0,0,1,93.9,106.341Zm.506,4.289c-.158-.056-.217.037-.248.29-.09.346-.018.333.172.136A.681.681,0,0,0,94.408,110.63Zm1.068-8.6c-.013-.08-.2.118-.366.475s-.239.783-.152.852C95.143,103.572,95.558,102.511,95.476,102.029Zm.315-1.209a2.185,2.185,0,0,0,.166-.771c-.085-.068-.175.277-.324.715C95.377,101.881,95.521,101.856,95.791,100.82Z"/><path class="cls-1" d="M130.273,68.216c.014.08.525.9,1.064,1.883a16.4,16.4,0,0,1,2.067,6.912,9.948,9.948,0,0,1-.216,4.411,23.3,23.3,0,0,1-3.663,8.218,10.756,10.756,0,0,1-4.531,3.988c-.9.4-1.843.974-2.118,1.1a3.487,3.487,0,0,1-2.689.375c-1.14-.137-3.275-1.755-3.339-2.57a3.531,3.531,0,0,0-.842-1.013c-1.7-1.691-3.013-7.659-2.514-11.292a36.765,36.765,0,0,1,6-15.052l1.143-1.6-.643-.717c-.358-.351-.584-.808-.525-.9.09-.345,1.36-.314,2.165.045.647.3.877.346,1.343.019a2.735,2.735,0,0,1,2.5-.177c.792.278,2.624,1.866,2.633,2.359.123.722,4.516.306,9.568-1.049A65.108,65.108,0,0,0,147.1,59.99l.868-.147.578-.1c.073-.012.448.007.52-.006a.615.615,0,0,1,.375.019.251.251,0,0,1,.159.057.215.215,0,0,1,.158.054l.072-.012.172.136c-.217.037-.348.142-.492.166-.7.283-1.248.542-1.162.611a7.07,7.07,0,0,0,1.826-.641,527758309566.669,527758309566.669,0,0,1,.172.136c.013.08.127.308.2.3a3.685,3.685,0,0,0,.141.388c-.1-.148.041.24.054.321s.082.481.095.562a3.771,3.771,0,0,1,0,.413l-.059.092c.014.08-.044.173-.031.253-.058.093-.058.093-.045.174l-.072.011a.44.44,0,0,1-.1.266l-.073.012.014.08c-6.656,2.865-13.923,4.76-18.646,4.985A4.425,4.425,0,0,0,130.273,68.216Zm-1.97.665c-.67-.877-.828-.932-1.479-.821a1.5,1.5,0,0,1-.909-.094c-.1-.149-.33-.192-.56-.235-.434.074-.905-.506-.77-1.025-.027-.16-.054-.32-.185-.216a25.384,25.384,0,0,0-2.713,4.175,5.467,5.467,0,0,1-.6,1.259c-.836,1.215-2.891,7.508-3.349,10.061-.581,3.153-.433,7.09.374,8.769.253.617.325.6,1.555.4a7.984,7.984,0,0,0,3.366-1.645,16.41,16.41,0,0,0,5.084-5.983C130.789,78.693,130.9,72.319,128.3,68.881Zm18.888-7.5a2.691,2.691,0,0,0,.885-.482c.189-.2-1.274.382-1.464.58C146.481,61.582,146.77,61.532,147.191,61.379Z"/><path class="cls-1" d="M193.021,60.522c.535,2.716.527,3.542-.04,5.455a63.367,63.367,0,0,1-2.8,6.749,27.18,27.18,0,0,0-1.137,2.5c-.28.542-1.191,2.182-2.13,3.663-.866,1.467-1.791,3.028-2.071,3.571a15.106,15.106,0,0,1-3.4,3.633,3.014,3.014,0,0,0-.772.708c-.163.358-1.988,1-3,1.171A4.977,4.977,0,0,1,176,87.766c-.475-.167-1.022-.322-1.049-.483a.82.82,0,0,0-.475-.167c-.651.111-2.479-1.889-3.2-3.5-1.033-2.135-1.433-5.369-1.265-9.194a13.265,13.265,0,0,0,.12-1.919c-.158-.056-4,8.438-5.4,11.979-.9,2.134-1.313,2.782-2.492,3.726a3.1,3.1,0,0,1-1.7.948,3.786,3.786,0,0,1-2.609-.464,1.07,1.07,0,0,0-.633-.223.865.865,0,0,1-.646-.3c-1.829-2-2.109-2.777-2.229-5.234-.195-5.084.51-10.57,2.378-18.4,1.338-5.262,1.577-6.046,2.29-6.663.452-.406,1.333-.473,1.388-.152.027.16.272.283.488.246a1.83,1.83,0,0,1,1.122.47c.76.532.76.532.892,1.747a9.318,9.318,0,0,1-.467,3.381c-.243,1.2-.441,2.221-.441,2.221.014.08-.364,1.8-.788,3.683-.482,1.98-1.166,5.4-1.52,7.687a41.219,41.219,0,0,0-.648,8.448l-.022.746.339-.635a12.374,12.374,0,0,1,1.083-1.505,29.359,29.359,0,0,0,2.69-4.75c.383-.808,3.546-6.711,3.988-7.611a4.541,4.541,0,0,0,.6-1.258c.235-.371,1.016-1.906,1.751-3.27,2.135-4.077,2.356-4.527,2.852-6.427,1.783-6.577,2.464-8.26,3.477-8.433.289-.049.592-.018.691.131.028.16.344.271.575.314.447.007.619.143.972.909a2.569,2.569,0,0,1,.3,2.177,6.436,6.436,0,0,1-.572,2.326,65.325,65.325,0,0,0-3.277,14.424c-.66,5.313-.593,8.768.192,11.194.235.95.321,1.018.927,1.08.462.087.592-.018.71-.2a2.455,2.455,0,0,1,1-.666,14.12,14.12,0,0,0,4.209-3.688,112.3,112.3,0,0,0,7.7-12.452,43.994,43.994,0,0,0,2.481-5.539,22.862,22.862,0,0,1,.947-2.308C192.794,60.065,192.907,60.294,193.021,60.522Z"/><path class="cls-1" d="M218.974,23.26c-3.5,12.233-4,14.134-4.91,18.829-.611,3.405-1.683,8.045-2.192,9.864-1.392,4.943-3.925,22.871-4.643,32.651-.165,2.091-.366,4.85-.465,6.022-.77,7.725-.176,19.1,1.208,25.052.444,1.741,1.346,3.981,1.721,4a7.616,7.616,0,0,0,1.355-1.221c.628-.684,1.283-1.209,1.441-1.152.506-.087,1.929,3.468,1.622,3.85a2.333,2.333,0,0,0-.212.945c.05.734-1.359,1.633-2.471,1.658a8.7,8.7,0,0,1-1.772-.36c-.489-.247-1.221-.618-1.637-.876a2.453,2.453,0,0,0-1.122-.47,10.089,10.089,0,0,1-1.773-1.68c-2.5-2.877-3.7-7.79-4.328-17.589a126.3,126.3,0,0,1,.378-20.534c1.514-19.985,4.887-38.223,11.231-60.431l-.651.111c-.027-.161-10.466,2.768-10.873,3-.131.1-.059.091-12.133,3.465-10.019,2.776-15.912,4.438-20.648,5.9-1.984.585-7.352,1.828-7.945,1.846a2.4,2.4,0,0,1-1.56-1.3c-.041-.241-.141-.389-.272-.284-.361.061-.593-1.3-.273-1.6a5.153,5.153,0,0,0,.181-.691c.076-.426.076-.426,1.884-.733,1.735-.3,1.807-.307,2.376-.9a2.74,2.74,0,0,1,3.295-.313c.358.352.5.328,1.429.088.565-.178,3.069-.769,5.486-1.427s4.849-1.237,5.342-1.4c.506-.086.868-.147.881-.066s-.262.209-.551.258a4.522,4.522,0,0,0-1.057.344c-1.175.531,5.468-1.093,11.578-2.793,1.129-.357,4.836-1.317,8.179-2.215s7.484-1.933,9.192-2.388c1.7-.535,3.548-1.016,4.126-1.114a17.319,17.319,0,0,1,2-.5l.842-.309c1.342-4.354,4.235-13.6,4.768-14.842a8.667,8.667,0,0,0,.54-2.073A1.953,1.953,0,0,1,220.3.005c.953-.079,2.966.816,3.034,1.218-.045.173.271.283.633.221,1.184-.036,2.285,2.5,1.481,3.463a2.487,2.487,0,0,0-.369.889c.095.561-.929,3.294-1.871,5.187-.546,1.166-1.376,3.289-2.282,5.836,4.632-1.2,9.973-2.6,12.115-3.131,2.432-.58,5.238-1.138,11.24-2.159,7.738-1.315,8.027-1.364,9.528-1.289a8.4,8.4,0,0,1,3.888.991,2.549,2.549,0,0,1,.366.844c.055.322.182.63.413.673.33.192.511.821.431,1.66a4.944,4.944,0,0,1-2.132,2.344,1.6,1.6,0,0,0-.7.283,28.7,28.7,0,0,1-4.433,1.5,5.143,5.143,0,0,0-1.387.154c-.8.134-1.315.141-1.487,0a1.618,1.618,0,0,0-.678-.048c-.506.086-.561-.236,0-.414a19.141,19.141,0,0,0,4.034-2.089c-.041-.241,1.559-1.338,2.747-1.787.682-.364.8-.55.483-.661a128.222,128.222,0,0,0-13.772,1.268c-1.387.153-10.155,1.974-12.934,2.693-1.143.277-2.937.665-4.009.929-1.793.388-3.429.831-4.645,1.12C219.677,20.829,219.289,22.051,218.974,23.26Zm-19.031.1c-.027-.16-.17-.135-.23-.043a2.763,2.763,0,0,1-.985.333c-1.432.326-6.282,1.563-8.83,2.326-1.419.406-3.62,1.028-4.894,1.41a22.917,22.917,0,0,0-2.4.738A32.98,32.98,0,0,0,187.246,27c1.274-.382,3.619-1.028,5.111-1.447,1.635-.443,3.705-.959,4.762-1.3C199.623,23.66,199.971,23.518,199.943,23.357Zm1.013-.171c-.014-.081-.1-.148-.244-.123a.166.166,0,0,0-.118.184.169.169,0,0,0,.173.136C200.911,23.358,200.97,23.266,200.956,23.186Zm12.7,3.372a9.459,9.459,0,0,1-.839,1.628,74.619,74.619,0,0,0-3.068,10.838c.068.4-.035.667-.18.692-.072.012-.117.184-.077.426.082.48-.445,2.634-1.494,6.526a9.954,9.954,0,0,0-.527,2.154,5.914,5.914,0,0,1-.419,1.475c-.595,1.751-2.4,12.129-3.327,19.384-.395,3.369-.885,6.176-1.043,6.121a28.628,28.628,0,0,0-.673,5.231c-.492,5.863-.541,6.448-.166,6.467.29-.049.092.975-.156,1.265a13.088,13.088,0,0,0-.391,2.955c-.035,1.987-.043,2.814.256,3.259.426.752.381.924.064.814-.534-.074.141,10.459.7,12.428.208.789.54,2.3.716,3.344.515,3.462.563,1.556.171-5.559-.229-4.418-.291-8.287-.212-10.446.12-1.919.172-4.24.225-5.24-.018-.986.129-2.745.227-3.918.171-1.184.35-3.2.494-4.541.071-1.332.295-3.516.465-4.7.085-1.252.2-2.758.264-3.263.049-.586.13-1.426.192-1.932.4-2.461.885-6.176.9-6.509-.01-.493,1.618-10.18,2.688-16.14.76-3.843,3.746-16.485,5-20.908C214.14,25.9,214.2,25.392,213.656,26.558Zm-11.714-3.7a.167.167,0,0,0-.172-.137.53.53,0,0,0-.334.222c-.059.092.027.161.243.124C201.824,23.038,201.955,22.933,201.942,22.854Zm6.641,30.319c-.567,3.232-.675,3.912-.345,4.1.345.271.358.352-.018.332-.288.05-.572,1.006-1.076,3.734a144.3,144.3,0,0,0-2.006,15.775c-.157,1.266-.417,4.116-.627,6.38-.224,2.185-.443,5.276-.486,6.769-.031,1.573-.1,3.813-.109,5.053a29.734,29.734,0,0,0,.031,4.122c.175,2.777.453.914.409-3.289.042-2.813.109-3.733.43-4.035.379-.394.365-.474,0-.907s-.4-.592-.1-1.468a5.508,5.508,0,0,0,.265-1.944c-.064-.814.138-2.252.685-7.792a2.977,2.977,0,0,0-.015-1.4c-.158-.055-.213-.376-.195-.709.09-.346.279-.543.438-.488.33.192.5-1.406.461-4.288a4.659,4.659,0,0,1,.248-1.61,18.181,18.181,0,0,0,.507-3.141,43.817,43.817,0,0,1,1.065-6.867,8.835,8.835,0,0,0,.31-2.116,3.156,3.156,0,0,1,.189-1.518,6.809,6.809,0,0,0,.206-1.85c.053-1,.175-1.6.347-1.462s.158.054.031-.253a5.262,5.262,0,0,1,.594-3.073,4.28,4.28,0,0,0,.251-2.024c-.091-.975-.069-1.722.075-1.746s.307-.382.384-.808c0-.414.153-.851.239-.783a10.666,10.666,0,0,0,.584-3.566C211.288,41.074,209.712,47.12,208.583,53.173ZM204.418,22.1c-.217.037-.42.154-.407.234.027.161.244.124.578-.1C204.865,22.108,204.779,22.04,204.418,22.1Zm-.22,79.69c-.1-.147-.145.024-.149.439.055.32.141.388.172.135S204.284,101.86,204.2,101.792Zm.357,4.728c-.182-.63-.144.024.065,2.133.387,3.155.66,4.759.837,4.481a11.742,11.742,0,0,0-.392-2.739,17.958,17.958,0,0,1-.333-2.832A1.288,1.288,0,0,0,204.555,106.52Zm5.087-85.636c-.013-.08-4.5,1.095-4.632,1.2-.059.093.375.019.94-.16.578-.1,1.65-.363,2.359-.566A3.97,3.97,0,0,0,209.642,20.884Zm17.629-4.4c.348-.141.565-.178.506-.086s.245.124.679.05c.723-.123.723-.123.2-.117s-.592.019-.258-.2a5.639,5.639,0,0,1,1.4-.073,4.092,4.092,0,0,0,2.287-.554,30.848,30.848,0,0,1,3.344-.9c.217-.038.362-.062.348-.142-.041-.24-1.487,0-3.688.627-.926.24-2.359.566-3.141.781-1.866.4-2.083.437-2.273.635C226.62,16.6,226.91,16.546,227.271,16.484Zm9.594-2.208c.362-.061.81-.055.869-.147.144-.025,1.432-.326,2.878-.572,1.433-.326,2.648-.616,2.721-.628a63.265,63.265,0,0,0-6.725,1.143C236.115,14.238,236.129,14.318,236.865,14.276Zm7.191-1.469a3.074,3.074,0,0,0,1.1-.105c.506-.086.882-.067.9.013s.231.043.375.018c.289-.048.289-.048.132-.1-.317-.111-.317-.111-.041-.24a5.99,5.99,0,0,0-1.171.116C244.548,12.64,243.97,12.738,244.056,12.807Zm4.249-.393a2.129,2.129,0,0,1,1.17-.116,2.636,2.636,0,0,0,1.112-.025,25.144,25.144,0,0,1,4.651-.211c.837.105,1.257-.049.493-.167a19.2,19.2,0,0,0-7.915.272C246.9,12.487,247.22,12.6,248.305,12.414Z"/></g></g></svg>