<svg xmlns="http://www.w3.org/2000/svg" width="420" height="808.934" viewBox="0 0 420 808.934"><defs><style>.cls-1{opacity:0.5;}.cls-2{fill:#aac6d6;}</style></defs><g id="レイヤー_2" data-name="レイヤー 2"><g id="レイヤー_1-2" data-name="レイヤー 1"><g id="レイヤー_2-2" data-name="レイヤー 2"><g id="レイヤー_1-2-2" data-name="レイヤー 1-2"><g id="レイヤー_2-2-2" data-name="レイヤー 2-2"><g id="レイヤー_1-2-2-2" data-name="レイヤー 1-2-2"><g id="レイヤー_2-2-2-2" data-name="レイヤー 2-2-2"><g class="cls-1"><path class="cls-2" d="M418.011,806.321c-2.834,2.827-3.681-.459-7.683-.459s-4,1.222-8,1.222-4-.667-8-.667-4,1.555-8,1.555-4-.408-8.007-.408-4-.395-8.005-.395-4-1.453-8-1.453-4,2.5-8,2.5-4-.294-8.007-.294-4-1.958-8.006-1.958-4,.439-8,.439-4,.555-8.006.555-4-1.51-8.006-1.51-4-.111-8-.111-4-.262-8-.262-4,1.143-8.006,1.143-4-1.178-8.006-1.178-4,3.019-8.007,3.019-4-2.651-8-2.651-4,1.591-8.007,1.591-4,.878-8.007.878-4-.368-8.006-.368-4,.212-8.007.212-4,.238-8,.238-4,.111-8,.111-4-.5-8-.5-4-2.276-8.006-2.276-4,1.325-8,1.325-4,1.554-8,1.554-4-.26-8.006-.26-4-.777-8-.777-4-1.386-8.008-1.386-4,1.7-8,1.7-4,.517-8.006.517-4-2.751-8.007-2.751-4,.64-8.008.64-4-.832-8.008-.832-4,3.074-8.008,3.074-4.005-2.332-8.01-2.332-4,.542-8.01.542-4-1.1-8.008-1.1-4,2.917-8.01,2.917-4.006-1.9-8.012-1.9h-8c-4,0-4,.9-8.01.9s-4.005,1.087-8.01,1.087-4.005-.948-8.009-.948-4.005.268-8.011.268-4-1.76-8.008-1.76-4.007-.186-8.014-.186-4.01,2.477-8.016,2.477-6.049,2.284-8.894-.54c-2.827-2.808.691-4.86.691-8.844s1.256-3.985,1.256-7.969S.879,786.723.879,782.74s1.786-3.982,1.786-7.964.412-3.983.412-7.964-1.356-3.982-1.356-7.963-.973-3.981-.973-7.962.861-3.982.861-7.963,1.463-3.982,1.463-7.963S1.918,730.978,1.918,727s1.256-3.982,1.256-7.966-2.145-3.984-2.145-7.968S.9,707.075.9,703.091s-.524-3.984-.524-7.969.392-3.983.392-7.966.634-3.983.634-7.966S.367,675.209.367,671.226s1.47-3.981,1.47-7.964.574-3.982.574-7.964-.1-3.983-.1-7.966.069-3.983.069-7.967-.565-3.984-.565-7.969S.369,627.411.369,623.425s.4-3.983.4-7.968,1.342-3.983,1.342-7.967.563-3.982.563-7.966-1.444-3.983-1.444-7.965,1.817-3.983,1.817-7.966S.567,579.61.567,575.627s2.554-3.985,2.554-7.969-.2-3.986-.2-7.971-.35-3.984-.35-7.969-.908-3.984-.908-7.968.9-3.984.9-7.967-1.27-3.983-1.27-7.967-.132-3.984-.132-7.967-.279-3.984-.279-7.969,2.69-3.985,2.69-7.971-2-3.985-2-7.969,1.111-3.984,1.111-7.969S3.4,483.987,3.4,480,.713,476.02.713,472.036s1.074-3.984,1.074-7.969,1.479-3.986,1.479-7.971-2.11-3.986-2.11-7.971,1.1-3.984,1.1-7.968,1.073-3.984,1.073-7.969S.371,428.2.371,424.22s2.952-3.985,2.952-7.971-.227-3.986-.227-7.971-.653-3.985-.653-7.97-.938-3.985-.938-7.969,1.443-3.984,1.443-7.969-1.03-3.987-1.03-7.973-.808-3.985-.808-7.97.518-3.985.518-7.97-.6-3.985-.6-7.97.07-3.987.07-7.973.1-3.986.1-7.971,2.131-3.984,2.131-7.969S.722,324.588.722,320.6s1.63-3.985,1.63-7.971S.317,308.645.317,304.66,2.1,300.674,2.1,296.689s.749-3.987.749-7.973.231-3.985.231-7.97.022-3.987.022-7.973-2.22-3.986-2.22-7.97S2.3,260.817,2.3,256.831s1.136-3.986,1.136-7.973-.082-3.985-.082-7.971-.5-3.987-.5-7.975.061-3.983.061-7.967-.787-3.983-.787-7.965S.418,213,.418,209.01s2.821-3.986,2.821-7.972-2.65-3.984-2.65-7.968.46-3.985.46-7.969,1.033-3.986,1.033-7.973.417-3.985.417-7.969-.316-3.987-.316-7.973,1.308-3.986,1.308-7.971-2.764-3.99-2.764-7.973.931-3.986.931-7.972,1.549-3.987,1.549-7.974-.614-3.986-.614-7.972-1.081-3.987-1.081-7.974.644-3.989.644-7.977-.144-3.987-.144-7.974-.48-3.987-.48-7.974,1.355-3.988,1.355-7.977S.969,77.46.969,73.472,3.331,69.486,3.331,65.5,2.06,61.511,2.06,57.526s-.692-3.988-.692-7.975,1.98-3.989,1.98-7.976S2.31,37.587,2.31,33.6s.611-3.986.611-7.972-2-3.991-2-7.98S.639,13.657.639,9.66-.956,4.4,1.871,1.577s4.1-.485,8.1-.485,4,.911,8,.911,4.005-.127,8-.127,4-1.21,8-1.21,4,1.837,8.008,1.837,4-.282,8-.282,4-.483,8-.483,4-1.388,8-1.388,4,.728,8.008.728,4,1.933,8.005,1.933,4-.284,8-.284,4-1.87,8.007-1.87,4.007-.686,8-.686,4,1.569,8,1.569,4-.084,8-.084,4-1.222,8.007-1.222,4,1.469,8.005,1.469,4-1.759,8.009-1.759,4,1.484,8,1.484,4,1.365,8.006,1.365,4-1.918,8.007-1.918,4,.179,8.006.179,4,.856,8.008.856,4-1.132,8-1.132,4,2.232,8,2.232,4-.133,8.005-.133,4-.615,8-.615,4-1.261,8-1.261,4,.486,8,.486,4,1.048,8.006,1.048,4,.284,8,.284,4,.161,8.007.161,4.008-2.726,8-2.726S270.143,3,274.146,3s4-.2,8.006-.2,4-1.735,8.009-1.735,4-.435,8.007-.435,4,.919,8.009.919,4-.392,8.01-.392,4,.816,8.009.816S326.2.809,330.2.809s4,.848,8.009.848,4.006.946,8.012.946,4-.651,8.006-.651,4,.768,8.009.768,4-1.561,8.01-1.561,4,.834,8.01.834,4,.285,8.011.285,4-.245,8.007-.245,4.007-.25,8.014-.25,4.009.83,8.02.83,5.914-4.508,8.759-1.681c2.826,2.809-1.7,4.728-1.7,8.713s.162,3.984.162,7.968,1.285,3.982,1.285,7.966-2.074,3.982-2.074,7.964,2.381,3.982,2.381,7.963-1.089,3.982-1.089,7.964-.222,3.981-.222,7.963-.521,3.98-.521,7.962,1.294,3.982,1.294,7.964.383,3.982.383,7.964-1.191,3.984-1.191,7.966,1.818,3.984,1.818,7.969-.7,3.985-.7,7.97-1.768,3.985-1.768,7.968,2.718,3.984,2.718,7.967-1.954,3.982-1.954,7.965-.523,3.983-.523,7.964.456,3.983.456,7.964,1.769,3.983,1.769,7.965-1.842,3.982-1.842,7.966,1.2,3.983,1.2,7.967-.265,3.983-.265,7.968-.546,3.986-.546,7.971.18,3.985.18,7.969.261,3.983.261,7.966.659,3.984.659,7.966-2.258,3.983-2.258,7.966,1.362,3.982,1.362,7.965.808,3.984.808,7.968-1.462,3.983-1.462,7.968-.222,3.985-.222,7.971.709,3.985.709,7.97-1.3,3.984-1.3,7.967.976,3.983.976,7.967-.323,3.984-.323,7.966.756,3.984.756,7.968-.77,3.983-.77,7.968.159,3.985.159,7.971,2.2,3.985,2.2,7.97-.152,3.985-.152,7.969-1.214,3.983-1.214,7.967.418,3.984.418,7.968-1.213,3.984-1.213,7.968-.528,3.986-.528,7.972.011,3.985.011,7.97,2.345,3.985,2.345,7.97-.731,3.983-.731,7.967-2.051,3.985-2.051,7.969.074,3.986.074,7.971,1.349,3.986,1.349,7.972-.935,3.984-.935,7.968,1.679,3.985,1.679,7.97-1.719,3.985-1.719,7.97,1.91,3.986,1.91,7.972-2.034,3.985-2.034,7.971,1.9,3.984,1.9,7.968-.709,3.986-.709,7.971-1.191,3.986-1.191,7.972.155,3.986.155,7.971,1.513,3.985,1.513,7.97-1.816,3.986-1.816,7.972-.135,3.986-.135,7.971,1.726,3.985,1.726,7.97-.111,3.986-.111,7.972.282,3.986.282,7.972-1.838,3.985-1.838,7.971,1.887,3.986,1.887,7.972.291,3.986.291,7.972-1.332,3.986-1.332,7.971,1.594,3.987,1.594,7.973-2.513,3.986-2.513,7.972,1.1,3.986,1.1,7.973-1.035,3.984-1.035,7.967,1.1,3.983,1.1,7.967.454,3.984.454,7.968-1.231,3.986-1.231,7.972.942,3.984.942,7.968-1.326,3.985-1.326,7.97,1.016,3.987,1.016,7.973.486,3.985.486,7.97-.067,3.986-.067,7.973-.055,3.984-.055,7.97-.355,3.986-.355,7.972,1.036,3.986,1.036,7.972.9,3.987.9,7.975-.981,3.986-.981,7.972.651,3.988.651,7.975-1.49,3.987-1.49,7.975,1.423,3.987,1.423,7.974.333,3.988.333,7.976-2.988,3.987-2.988,7.975.095,3.988.095,7.977-.079,3.985-.079,7.971,2.051,3.987,2.051,7.975-.7,3.988-.7,7.975-.805,3.988-.805,7.975,1.907,3.989,1.907,7.977-1.14,3.986-1.14,7.974,1.737,3.989,1.737,7.979-2.325,4.091-1.554,8.009C419,802.7,420.838,803.5,418.011,806.321Z"/></g></g></g></g></g></g></g></g></svg>