<svg xmlns="http://www.w3.org/2000/svg" width="167.757" height="75.992" viewBox="0 0 167.757 75.992"><defs><style>.cls-1{fill:#1b333f;}</style></defs><g id="レイヤー_2" data-name="レイヤー 2"><g id="レイヤー_1-2" data-name="レイヤー 1"><g id="レイヤー_2-2" data-name="レイヤー 2"><path class="cls-1" d="M22,40.674a16.249,16.249,0,0,0-2.614.45,20.964,20.964,0,0,1-2.163.45,6.824,6.824,0,0,0-1.262.25c-.855.2-.9.25-1.17.8-.136.3-.452.95-.677,1.45C11.95,48.374,8.8,55.525,7.894,58.025c-.586,1.65-1.262,3.5-1.712,4.5a7.99,7.99,0,0,0-.181.85c-.089.3-.179.551-.27.5-.09,0-.18.151-.18.35a6.827,6.827,0,0,1-.36,1.551c-.226.65-.586,2.1-.9,3.3a14.587,14.587,0,0,1-.721,2.45c-.046.2-.181.6-.226.9-.225,1.4-.766,1.7-1.622,1a4.559,4.559,0,0,0-.541-.35,3.1,3.1,0,0,1-.721-.5c-.36-.35-.5-.6-.451-.75.046-.1.271-1.05.5-2.1a63.087,63.087,0,0,1,2.119-7.05,3.724,3.724,0,0,0,.179-.551c.09-.35.721-2,1.352-3.6.091-.15.5-1.2.946-2.35,1.487-3.7,4.011-9.351,5.543-12.251l.27-.6-.451.1c-1.982.45-7.389,2.6-7.524,3.05-.091.25-.451.3-.451.05,0-.15,0-.15-.135,0-.226.251-.36.2-.36-.1,0-.151-.091-.3-.181-.3-.18,0-.36-.55-.541-1.45-.045-.4,0-.45.946-.9a55.266,55.266,0,0,1,7.39-2.7A22.922,22.922,0,0,0,12,40.324a7.375,7.375,0,0,0,2.163-3.2c.09-.2.179-.35.224-.35.091,0,.136-.1.136-.25s.09-.2.18-.15c.225.1.406-.1.225-.25-.09-.05-.045-.25.045-.45a1.3,1.3,0,0,0,.181-.55,5.866,5.866,0,0,1,.45-.75,2.13,2.13,0,0,0,.451-.9c0-.2.18-.5.676-1.1.09-.1.225-.4.36-.6.09-.2.406-.8.676-1.251a4.352,4.352,0,0,0,.45-1.1.365.365,0,0,1,.226-.3c.09,0,.181-.15.181-.25a1.007,1.007,0,0,1,.269-.45,23.046,23.046,0,0,0,2.028-3.3c0-.25.5-.7.766-.7.09,0,.36-.25.541-.5.5-.75,2.433-3.95,2.433-4.1a2.226,2.226,0,0,1,.406-.55c.18-.25.991-1.45,1.8-2.65,1.622-2.55,4.1-6.051,4.776-6.9a14.494,14.494,0,0,0,.991-1.3A56.936,56.936,0,0,1,39.3.872c1.533-1.1,2.614-1.151,3.38-.2a2.458,2.458,0,0,0,.585.6c.226,0,.767.6,1.082,1.2a7.381,7.381,0,0,1,.18,3.85,9.4,9.4,0,0,0-.18,1.55,8.822,8.822,0,0,1-.27,1.4c-.135.55-.586,2.5-.992,4.35-.856,3.5-.946,4.051-1.847,7.351-1.081,4.25-3.47,14.4-4.056,17.251-.224,1.05-.585,2.75-.855,3.85-.676,3.05-1.443,6.8-1.488,7.1a1.614,1.614,0,0,1-.179.5,1.282,1.282,0,0,0-.091.45,24.7,24.7,0,0,1-.405,2.6,34.258,34.258,0,0,0-.947,7.6c0,2.1.181,3.8.45,3.8.091,0,.226.2.316.4.046.2.181.5.225.65.181.35.181.9,0,1.05a1.237,1.237,0,0,1-.72.15,4.639,4.639,0,0,1-2.343-1.75,1.41,1.41,0,0,1-.406-1.1,4.039,4.039,0,0,0-.27-1.251c-.677-2.45-.136-7.2,1.892-16.951.18-.85.451-2.4.677-3.4a16.219,16.219,0,0,1,.5-2.15c.134-.2.134-.35.045-.4a20.246,20.246,0,0,0-4.236.05c-1.577.3-2.3.3-2.3.1,0-.1-.044-.2-.135-.2-.045,0-.09.05-.09.15,0,.25-.586.5-1.487.6a12.172,12.172,0,0,0-1.667.35C23.169,40.524,22.448,40.624,22,40.674ZM7.984,53.175c1.937-4.25,3.064-6.6,3.29-6.9a4.563,4.563,0,0,0,.225-.45c.044-.149.135-.25.225-.25.045,0,.09-.2.09-.4s.091-.35.226-.35c.089,0,.18-.1.18-.3a3.315,3.315,0,0,1,.45-1.05,7.771,7.771,0,0,0,.451-.85.828.828,0,0,0-.361.1c-.27.1-.54.5-1.217,2-1.531,3.25-3.378,7.4-3.694,8.251-.225.45-.405.8-.5.8s-.09-.1,0-.35c.226-.6.136-.75-.09-.2-.225.4-.225.5-.09.6.271.15.226.25-.405,1.7-.541,1.25-.631,1.5-.5,1.35C6.317,56.825,7.083,55.175,7.984,53.175Zm-1.262,1.3c0,.2,0,.2.136,0a1.725,1.725,0,0,0,.135-.3c0-.05-.045-.1-.135-.05A.409.409,0,0,0,6.722,54.475Zm.767-1.95c0,.05.045.1.135.05s.135-.1.135-.15-.046-.05-.135-.05S7.489,52.425,7.489,52.525Zm.27-.5c0,.2.225-.15.585-1,.226-.451.541-1.2.722-1.65s.676-1.45,1.036-2.251c1.577-3.3,1.982-4.15,1.893-4.15A88.982,88.982,0,0,0,7.759,52.025Zm3.56-3.5c0-.051-.045-.151-.136-.151a16.78,16.78,0,0,0-1.622,3.2c-.135.3.091-.049.406-.7a13,13,0,0,1,1.261-2.2C11.274,48.675,11.319,48.625,11.319,48.525Zm-1.4,1c-.179.3-.179.45,0,.35a.591.591,0,0,0,.136-.3C10.057,49.375,10.012,49.324,9.921,49.525Zm1.848-2.4c-.18,0-.586.651-.586.95,0,.351.271.15.5-.35C12,47.124,12.04,47.124,11.769,47.124Zm2.343-4.8c-.09-.05-.316.2-.54.65-.136.3-.586,1.2-.991,2-.407.85-.767,1.55-.767,1.65,0,.2.27.051.541-.35.135-.25.315-.7.45-1a13.933,13.933,0,0,1,.767-1.75A8.18,8.18,0,0,0,14.112,42.324Zm0-3.2c.18-.35.586-1.15.9-1.8a33.338,33.338,0,0,1,2.073-3.7,1,1,0,0,0,.18-.4c.181-.65-.135-.25-.766.85-.315.651-.72,1.351-.811,1.551-.27.4-1.667,3.15-1.982,3.8C13.391,40.124,13.751,39.874,14.112,39.124Zm1.577-1.3c.181-.35.5-.9.676-1.3.586-1.15,1.261-2.35,3.605-6.3.631-1.05,1.171-2.05,1.217-2.15a.848.848,0,0,1,.45-.3c.271-.05.5-.3.9-1,1.711-2.95,2.973-4.95,3.514-5.75a4.521,4.521,0,0,0,.631-1,.755.755,0,0,1,.36-.45,3.887,3.887,0,0,0,.676-.95,2.011,2.011,0,0,1,.45-.8.414.414,0,0,0,.181-.3,6.282,6.282,0,0,1,.586-.95,7.216,7.216,0,0,0,.991-1.5,4.932,4.932,0,0,1,.586-1c.09-.15.27-.4.405-.6.226-.4,1.983-2.75,4.056-5.35a35.942,35.942,0,0,1,6.128-6.4c.676-.449.18-.4-.586.1a5.786,5.786,0,0,1-.811.45c-.09,0-.045-.551.09-.7.045-.05.045,0,0,.1-.135.25-.046.2.676-.25.361-.2.766-.451.9-.5.315-.1.36-.35,0-.35-.586,0-2.749,1.6-2.615,1.95.046.2-.315.45-.54.35-.18-.1-3.875,4.15-5.092,5.85a10.258,10.258,0,0,1-1.082,1.35,5.015,5.015,0,0,0-.675.85c-.271.45-1.307,1.95-2.253,3.35a10.589,10.589,0,0,0-1.577,2.6c.045.15,0,.15-.09.1-.045-.049-.226.051-.316.2-.134.2-.5.8-.856,1.3-.361.55-.54.95-.45.9.134-.05.225,0,.225.15a.206.206,0,0,1-.18.2c-.09,0-.226.05-.271.05-.27.05-.721.6-1.307,1.75-.63,1.15-1.892,3.2-2.208,3.6a.523.523,0,0,1-.405.25c-.225,0-1.036,1-1.036,1.25a27.09,27.09,0,0,1-1.8,3.051,7.14,7.14,0,0,0-1.261,2.25c-.361,1.1,0,.9.541-.3.585-1.25.856-1.65.946-1.5a5.447,5.447,0,0,1-.586,1.35c-.405.65-1.217,2.2-1.848,3.35-.631,1.2-1.171,2.151-1.216,2.2-.09,0-.135.1-.135.2a7.529,7.529,0,0,1-.586,1.3,8.874,8.874,0,0,0-.54,1.15c0,.1.179.05.36-.05a5.636,5.636,0,0,0,.495-.7C15.194,38.624,15.509,38.124,15.689,37.824Zm.991-.45c.857-1.5,1.037-2.15.361-.95a23.089,23.089,0,0,0-1.487,2.85c0,.15.226,0,.316-.25C15.915,38.924,16.275,38.174,16.68,37.374Zm11.22-.3c2.028-.25,4.731-.2,5.453.15.27.15.54.25.54.2,0,0,.631-2.7,1.4-6,.765-3.251,1.622-6.951,1.937-8.151.585-2.35,1.577-6.2,2.3-9.051a12.477,12.477,0,0,0,.45-2.149,17.842,17.842,0,0,1,.857-3.351,22.8,22.8,0,0,0,.675-2.35c.271-1.25.45-3.55.226-3.55-.045,0-.181.15-.316.3-.225.3-.5.4-.36.1.18-.25-.361.1-.631.5l-.27.3.315-.25c.135-.15.316-.25.361-.2a2.557,2.557,0,0,1-.542.65c-.36.3-.81.75-1.036.95-.18.2-.36.35-.405.3-.181,0-.541.25-.541.4s-.045.2-.135.2a1.808,1.808,0,0,0-.9,1.05c0,.25-.271.6-.406.45-.045-.05-.09,0,0,.1.046.2,0,.25-.225.3a.428.428,0,0,0-.36.25c-.045.1,0,.15.134.05.09-.05.045.05-.089.2a.411.411,0,0,1-.316.25c-.136-.1-1.036.95-1.127,1.25-.045.05.136-.05.316-.35.225-.25.451-.45.5-.4a7.923,7.923,0,0,1-1.622,2,.38.38,0,0,0-.226.25,6.344,6.344,0,0,1-.676,1.15c-2.523,3.6-2.7,3.9-5.993,9.051-.765,1.2-1.4,2.2-1.4,2.25a7.561,7.561,0,0,1-1.172,1.75c-.135,0-.135-.1.091-.6a3.464,3.464,0,0,0,.269-.9,4.6,4.6,0,0,1,1.443-2.25,7.42,7.42,0,0,0,1.4-2.1c0-.05-.09-.1-.225-.1-.27,0-2.3,3.05-4.145,6.3-1.217,2.15-1.353,2.35-1.713,2.4-.225.05-.631.6-1.532,2.15a39.033,39.033,0,0,0-2.433,4.551,22.77,22.77,0,0,0,1.577-2.6c1.757-3.151,2.073-3.6,2.253-3.5.09.1,1.126-1,1.126-1.25a5.434,5.434,0,0,1,.947-1.5c.18,0,.044.35-.766,1.7-.586.95-.946,1.451-1.172,1.5a1.656,1.656,0,0,0-.855,1.4c.044.2-.181.75-.767,1.751-.991,1.7-.9,1.6-1.171,1.65-.136,0-.226.2-.27.45-.045.6-.857,2.05-1.082,2-.09-.05-.135.05-.135.25a4.565,4.565,0,0,1-.631,1.75c-.045,0-.136-.15-.136-.3-.045-.25-.09-.2-.269.25l-.226.5.36-.05c.181,0,1.352-.25,2.569-.5C22.313,37.974,25.962,37.374,27.9,37.074Zm-8.876-3.2c.09-.151.315-.5.495-.8.181-.25.541-.9.812-1.35a4.689,4.689,0,0,0,.45-.9,20.236,20.236,0,0,0-1.712,2.8C18.979,33.924,18.934,34.024,19.024,33.874Zm8.786-14.8a.435.435,0,0,0-.135.25c0,.05.09.1.135.05a.282.282,0,0,0,.136-.25C27.946,19.073,27.9,19.023,27.81,19.073Zm.721-.65q-.067.15,0,.15a17.951,17.951,0,0,0,1.487-2.1,16.4,16.4,0,0,1,.9-1.449c.766-1,1.217-1.9,1.081-2.1-.044-.05-.179.25-.36.651-.18.5-.27.6-.36.449s-.135-.15-.09.1c0,.15-.045.25-.136.25s-.179.1-.179.25a2.1,2.1,0,0,1-.542.9,19.839,19.839,0,0,0-1.487,1.949c-.676,1-.855,1.3-.721,1.451.181.2.361,0,.271-.25a.254.254,0,0,1,.09-.3C28.577,18.323,28.622,18.323,28.531,18.423Zm3.38,36.852c.63-4.15,1.982-10.951,2.794-14.351.134-.55.089-.6-.361-.55-.27.05-.315.1-.315.6,0,.95-.181,1.9-.362,1.9a10.491,10.491,0,0,0-.855,3.3c-.181,1.3-.721,4.149-1.082,5.7-.36,1.5-.405,1.85-.225,1.95.225.1.271.6.09.9-.18.25-.18.25-.18-.2,0-.3-.045-.45-.09-.4a12.305,12.305,0,0,0-.5,3.5c0,.9,0,1.4.045,1.15.044-.45.224-.6.315-.25a3.107,3.107,0,0,1,0,.95,4.745,4.745,0,0,0,.045,1.2c.045.3.135-.05.18-1.3C31.505,58.425,31.685,56.625,31.911,55.275Zm2.613-8.3c-.18-.2-.316.4-.45,1.9a1.05,1.05,0,0,1-.091.349,2.525,2.525,0,0,0-.18,1c-.09.8-.27,1.45-.45,1.45-.046,0,0-.3,0-.6.09-.4.09-.549-.046-.5-.09.1-.09,0-.09-.149.045-.15.136-.25.226-.2.18,0,.18-.25,0-.3a2.843,2.843,0,0,1,.135-1.05c.315-1.551.4-1.9.27-1.9s-.135,0-.586,2.6c-.179,1.1-.36,2.251-.45,2.5a45.548,45.548,0,0,0-.991,8.65c.09,1.1.315,2.35.45,2.25,0-.049-.045-.549-.135-1.1a7.916,7.916,0,0,1,.045-2.3c.09-.75.135-1.6.135-1.9,0-.35.045-.65.136-.7.045-.05.089.05.089.25,0,.6.135.1.5-1.9.224-1.1.675-3.45.991-5.15A28.636,28.636,0,0,0,34.524,46.974Zm-2.117-9.2a1.022,1.022,0,0,0-.407.05c-.089,0,.045.05.226.05C32.452,37.874,32.5,37.824,32.407,37.774Zm.45-26a.956.956,0,0,0-.36.35c-.09.2-.136.35-.09.35s.179-.149.315-.35S32.9,11.772,32.857,11.772Zm1.982-2.55a12.178,12.178,0,0,0-1.756,2.3,6.761,6.761,0,0,0,.9-1.05c.361-.5.767-1.05.856-1.2C35.02,9.022,35.02,9.022,34.839,9.222Zm-1.261,33.2c0,.15.045.1.135-.05a2.418,2.418,0,0,0,.09-.5c0-.15-.045-.1-.09.05A2.834,2.834,0,0,0,33.578,42.424Zm5.5-15.851c0-.25-.361.6-.361.9,0,.15-.045.35-.134.4a3.527,3.527,0,0,0-.181.55,8.5,8.5,0,0,1-.271,1.15c-.179.7-.585,2.7-.765,3.75-.045.25-.135.4-.181.351-.18-.1-.09-.75.361-2.9.585-2.6.54-2.5.406-2.3a9.9,9.9,0,0,0-.721,2.75,5.891,5.891,0,0,1-.27,1.051,6.249,6.249,0,0,0-.226,1c-.045.3-.09.9-.135,1.35-.136.8.09.949.27.15a.824.824,0,0,1,.18-.5c.181-.15.135.1-.045.8a3.253,3.253,0,0,0-.225.951c-.045.25-.135.4-.361.4-.315.05-.72.95-.585,1.3a1.135,1.135,0,0,1-.225.7,2.745,2.745,0,0,0-.271,1.05,1.808,1.808,0,0,1-.09.7,3.184,3.184,0,0,0-.225,1.25c-.091.9-.091,1.15.045,1.15.18,0,.226.35.045,1.05-.045.4-.09.4-.135.1-.046-.2-.136-.3-.27-.2a.214.214,0,0,0-.136.3c.045.1.045.2-.045.1q-.135,0-.135.45a3.309,3.309,0,0,1-.27,1.1q-.541,1.275-.271,1.2a1.517,1.517,0,0,0,.316-.7c.134-.7.541-1.6.63-1.5a2.418,2.418,0,0,1-.134.951c-.226,1.049-.226,1.25-.046,1.25.091,0,.361-1.25,1.217-5.4.315-1.45.856-4.05,1.622-7.5.135-.65.451-2.1.721-3.2C38.759,28.173,39.075,26.723,39.075,26.573Zm-3.965,9.4a2.359,2.359,0,0,0-.181.55,1.374,1.374,0,0,1-.224.6.653.653,0,0,0-.226.35,5.883,5.883,0,0,0,.631,1.55,5.472,5.472,0,0,0,.315-1.25c.135-.65.361-2,.586-2.951.226-.9.54-2.549.766-3.6s.541-2.4.721-3c.361-1.35,1.216-5,1.171-5.05s-.179.4-.36,1a7.744,7.744,0,0,1-.541,1.35,1.325,1.325,0,0,0-.225.55,23.952,23.952,0,0,1-.63,2.55,23.53,23.53,0,0,0-.631,2.551,1.322,1.322,0,0,1-.181.549,5.074,5.074,0,0,0-.541,1.9,1.5,1.5,0,0,1-.225.75c-.09.05-.09.15-.044.3a.287.287,0,0,1-.136.35c-.135.1-.135.2-.045.45A.863.863,0,0,1,35.11,35.974Zm.721-28c-.225.25-.18.25.135-.1.225-.25.45-.45.45-.55C36.416,7.172,36.237,7.372,35.831,7.972Zm.63,27.552c-.045-.05-.045,0-.045.1,0,.05-.089.1-.134.05-.091-.05-.136.1-.136.35v.35l.181-.35C36.461,35.774,36.506,35.573,36.461,35.524Zm2.119-10a3.164,3.164,0,0,1-.271.95,2.684,2.684,0,0,0-.226.9c-.044.65.226.1.542-1.2a11.436,11.436,0,0,0,.315-1.5C38.94,24.323,38.58,25.123,38.58,25.523Zm.586-1.95c-.045-.05-.091.05-.091.2.046.15.046.2.091.1A.353.353,0,0,0,39.166,23.573Zm0,2.4c-.045,0-.091.05-.091.2.046.2.046.2.091.1A.357.357,0,0,0,39.166,25.973Zm.044-2.65a.891.891,0,0,0,.135-.5c-.045-.45-.045-.45-.135-.1Q39.008,23.473,39.21,23.323Zm1.171-2.4a3.337,3.337,0,0,0-.315,1c-.135.45-.36,1.45-.54,2.15-.316,1.3-.405,1.9-.271,1.75a13.52,13.52,0,0,0,.406-1.5c.18-.8.405-1.65.451-1.9.045-.3.179-.7.224-.9C40.517,21.023,40.517,20.723,40.381,20.923Zm-.946,1.25a.974.974,0,0,0,.226-.55c.045-.3.045-.35-.045-.2C39.435,21.773,39.3,22.373,39.435,22.173Zm.406-1.3a1.044,1.044,0,0,0,.135-.5c0-.25,0-.25-.135-.1a1.953,1.953,0,0,0-.091.5C39.75,21.023,39.75,21.023,39.841,20.873Zm.225-1.3c.046.15.091.15.181-.05a2.477,2.477,0,0,0,.089-.5.1.1,0,0,0-.089-.15C40.112,18.873,39.976,19.323,40.066,19.573Zm1.532-5.3c-.045-.15-.405.751-.586,1.45-.09.351-.315,1.1-.495,1.651-.315,1.05-.36,1.25-.136,1.2a9.351,9.351,0,0,0,.677-2.1A14.763,14.763,0,0,0,41.6,14.272Zm-1.036,6.051c-.045-.05-.045.05-.045.2s0,.2.045.05A.244.244,0,0,0,40.562,20.323Zm.36-1.45c-.089-.1-.315.7-.315,1.05,0,.15.09.05.226-.35A1.573,1.573,0,0,0,40.922,18.873Zm.676-2.25a6,6,0,0,0-.586,1.85c0,.2.136-.15.316-.751A6.735,6.735,0,0,0,41.6,16.623Z"/><path class="cls-1" d="M73.1,42.224a1.045,1.045,0,0,1-.676.9,1.33,1.33,0,0,1-.72.2,2.574,2.574,0,0,1-.136-1.15c0-.9-.045-1.05-.271-1.2-.675-.4-3.063.15-5.045,1.15a5.831,5.831,0,0,0-1.984,1.4,33.925,33.925,0,0,1-1.891,5.2,69.037,69.037,0,0,1-4.146,7.851c-.27.45-1.127,1.65-1.893,2.65-2.118,2.85-3.559,4.25-5.182,5a3.861,3.861,0,0,1-3.289.3,3.046,3.046,0,0,1-1.893-1.3,7.754,7.754,0,0,0-.721-.95c-.495-.55-.541-.7-.45-1.1a.88.88,0,0,0-.091-.65c-.134-.2-.134-.3,0-.4a.419.419,0,0,0-.044-.5,1.063,1.063,0,0,1,0-1.25c.18-.25.18-.25.09.35-.046.55-.046.6.135.4a.8.8,0,0,0,.181-.55c0-.15.09-.3.135-.3.134,0,.179.3.134.85-.045.8.136.8.676-.05a51.69,51.69,0,0,1,5.092-6.5,60.734,60.734,0,0,1,9.058-8.7c1.622-1.2,1.486-1,2.117-3.9.451-2,.586-3.95.27-4.25a.791.791,0,0,1-.179-.4c0-.849-.586-1.85-1.083-1.85-.63,0-2.3,1-3.649,2.2-1.307,1.15-3.335,3.6-3.335,4,0,.2-.721,1.2-.81,1.1,0-.05-.045,0-.045.1a15.77,15.77,0,0,1-1.082,1.9c-3.245,5.2-4.867,8.951-5,11.551-.091,1-.271,1.5-.586,1.35a.313.313,0,0,0-.271.15c-.225.3-.676.05-1.4-.65l-.631-.65-.091-1.6a13.254,13.254,0,0,1,.136-3.05c.36-2.551,1.4-7.551,2.253-10.9a10.322,10.322,0,0,0,.36-2.05,1.536,1.536,0,0,1,.226-.85,5.422,5.422,0,0,0,.54-1.35,77.592,77.592,0,0,1,3.154-9c.136-.3.721-1.5,1.262-2.7a38.656,38.656,0,0,1,2.749-5.2c.946-1.55,2.928-4.551,3.559-5.4.135-.2.586-.75.992-1.3,2.973-4,6.217-7.75,6.713-7.75.316,0,.631-.15.631-.3a.161.161,0,0,0-.18-.15c-.451,0-.135-.4.766-.95a4.441,4.441,0,0,1,2.613-.85,1.212,1.212,0,0,1,1.171.5,2.274,2.274,0,0,1,.947,2.35c-.135,1.6-.9,3.65-2.748,7.2a137.34,137.34,0,0,1-8.472,13.551c-4.01,6-7.525,10.451-9.777,12.451a2.593,2.593,0,0,0-.857,1c-.045.2-.315,1.05-.54,1.9-.226.9-.406,1.6-.406,1.6a4.656,4.656,0,0,0,.631-.95,19.286,19.286,0,0,1,1.713-2.35c.134-.2.405-.6.675-.95,1.847-2.7,4.415-4.851,6.489-5.4a5.656,5.656,0,0,1,3.244.4,6.431,6.431,0,0,0,.811.549,4.419,4.419,0,0,1,1.757,2.3,7.675,7.675,0,0,1,.316,2.95v2.15l.811-.35c2.613-1.05,4.641-1,6.218.15C73.052,40.874,73.323,41.374,73.1,42.224Zm-24.873-4.2c-.18.05-.269.2-.269.55a4.162,4.162,0,0,1-.181.8,8.433,8.433,0,0,1-.316.8c-.18.45-.5,1.9-1.126,4.85-.225,1-.721,3.9-.721,4.05a8.986,8.986,0,0,0,.721-1.75c.135-.95.946-4.75,1.082-5.2.089-.25.315-1.15.495-1.95.225-.85.406-1.7.451-1.85C48.45,38.024,48.405,37.974,48.224,38.024Zm-1.081,7.35c0-.3-.045-.3-.135-.05a6.668,6.668,0,0,0-.18.7l-.09.45.224-.4A1.993,1.993,0,0,0,47.143,45.374Zm1.848,16.4a17.669,17.669,0,0,0,3.2-2.3,47.144,47.144,0,0,0,3.875-5.35c.541-.85,1.036-1.6,1.126-1.7.181-.1.27.2.091.4a.277.277,0,0,0-.136.3c0,.4,2.7-5,3.154-6.4.135-.35,0-.5-.18-.2-.045.1-.811.751-1.622,1.5a107.558,107.558,0,0,0-9.328,10.35,17.66,17.66,0,0,0-2.3,3.7C46.873,62.375,48.179,62.176,48.991,61.775ZM47.369,44.024c0-.2-.045-.2-.091.1-.135.45-.135.85,0,.5A3.224,3.224,0,0,0,47.369,44.024Zm12.571,4.4a26.344,26.344,0,0,1-2.163,4.05,1.235,1.235,0,0,0-.226.45.927.927,0,0,1-.45.5c-.181.05-.226.15-.135.2.18.1,0,.4-1.261,2.5-.452.75-1.038,1.6-1.217,1.85a10.152,10.152,0,0,0-.947,1.25,16.807,16.807,0,0,1-3.379,3,5.473,5.473,0,0,1-2.478.9c-.091-.1-.136-.05-.181.1-.134.451.766.8,1.533.65a3.067,3.067,0,0,1,.675-.05h.316l-.316-.149c-.315-.1-.27-.15.586-.65a5.956,5.956,0,0,1,.992-.451,1.364,1.364,0,0,0,.405-.35c.136-.15.631-.65,1.036-1.1a35.163,35.163,0,0,0,4.1-5.6c.315-.55.585-1,.63-1.05a.21.21,0,0,1,.136.05c.09.05-.046.45-.406,1-.316.55-.585.95-.585,1a14.509,14.509,0,0,0,1.847-2.85c.27-.55.541-1.05.586-1.1.18-.3.27-.65.135-.65-.046,0-.18.15-.225.3-.09.2-.181.25-.181.15,0-.35-.18-.2-.631.5-.676,1-.586.6.181-.75.676-1.3,2.568-5.2,2.794-5.9C61.381,45.474,60.931,46.274,59.94,48.425Zm-12.347-5.7c-.045-.05-.045.05-.045.2s0,.2.045.1Q47.662,42.8,47.593,42.724Zm.316-1.3a3.365,3.365,0,0,0-.18.7c-.045.3-.045.4.045.3a5.689,5.689,0,0,0,.181-.75C48.044,41.374,48,41.274,47.909,41.424Zm.5-1.6c0-.3,0-.3-.09-.05-.046.15-.136.5-.181.7l-.09.45.18-.35A2.259,2.259,0,0,0,48.405,39.824Zm.225-.55c-.046-.05-.135-.15-.135-.15-.045,0-.09.1-.09.15a.151.151,0,0,0,.135.15C48.63,39.424,48.675,39.374,48.63,39.274Zm-.135-2.5c.135.2.451-.45.811-1.75.225-.65.54-1.7.766-2.35.225-.6.5-1.451.631-1.851a43.576,43.576,0,0,1,1.847-4.4c.541-1.25.991-2.35.991-2.4s2.028-3.95,2.75-5.2c.134-.25.54-1.1.855-1.851a27.606,27.606,0,0,1,1.713-3.049c1.531-2.35,1.081-1.85-.767.85-1.4,2.05-1.982,3-3.83,6.2-.586,1.05-2.568,5.5-3.514,7.8a5.309,5.309,0,0,0-.586,1.95c.046.2,0,.3-.045.3-.09,0-.135.1-.09.25a2.226,2.226,0,0,1-.316,1,7.26,7.26,0,0,0-.72,2.9.623.623,0,0,1-.091.35C48.675,35.573,48.405,36.574,48.5,36.774Zm.991-.9a4.469,4.469,0,0,0,.586-1.3c.586-1.75,1.036-2.95,2.073-5.65.946-2.55,1.307-3.65,1.036-3.35a17.621,17.621,0,0,0-.991,2.3c-.5,1.15-.946,2.35-1.082,2.7a14.733,14.733,0,0,0-.495,1.4c-.181.451-.316.951-.405,1.151a11.08,11.08,0,0,0-.452,1.35c-.179.55-.315,1.15-.405,1.35C49.261,36.074,49.306,36.074,49.486,35.874Zm-.045-4.85c0,.25.225-.25.451-.85a4.063,4.063,0,0,1,.316-.951c.134-.3,1.4-3.35,1.531-3.8.091-.2.091-.35.045-.35A40.973,40.973,0,0,0,49.441,31.024Zm1.487,32.1c-.09-.15-.586.151-.586.3s.09.149.406-.051C50.883,63.325,50.973,63.176,50.928,63.125Zm.5-.2c-.224.1-.27.2-.09.2a.246.246,0,0,0,.226-.15C51.6,62.926,51.559,62.875,51.423,62.926Zm.947-.551c0-.05-.135,0-.316.15-.405.251-.405.35,0,.151C52.235,62.575,52.37,62.475,52.37,62.375ZM63.319,10.522A80.586,80.586,0,0,0,58.5,17.273c-1.216,1.85-1.352,2.1-1.126,1.95.27-.2.134.2-.316.9a27.736,27.736,0,0,0-2.253,4.85,1.123,1.123,0,0,1-.18.55,18.862,18.862,0,0,0-1.216,3.2c-.362,1.1-1.308,3.85-1.488,4.35-.18.551.226.15,1.578-1.549.765-1,1.847-2.4,2.387-3.151s1.082-1.45,1.217-1.6c.09-.1.271-.3.36-.4.136-.25,2.884-4.35,3.605-5.3.225-.35.631-.95.9-1.4.271-.4.991-1.5,1.577-2.35,1.262-1.9,3.7-6.051,4.461-7.651.136-.3.541-1.05.857-1.7a15.007,15.007,0,0,0,1.532-4.5c.045-.85.045-.85-.27-.65-1.038.6-2.479,2.15-4.687,5C64.806,8.722,63.815,9.922,63.319,10.522ZM52.235,24.173a1.922,1.922,0,0,0,.36-.55c.09-.2.181-.45.135-.45-.045-.05-.18.2-.36.5C52.235,23.973,52.19,24.223,52.235,24.173Zm8.651,25.6a25.722,25.722,0,0,0-1.577,3.15c0,.05-.09.15-.226.2-.089,0-.179.15-.179.25,0,.15-.045.25-.136.25s-.135.05-.09.15a1.421,1.421,0,0,1-.36.65,1.864,1.864,0,0,0-.451.75,1.846,1.846,0,0,1-.406.75,2.262,2.262,0,0,0-.495.6.623.623,0,0,1-.315.4c-.181.15-.316.2-.226.1.045-.05.045-.15,0-.15a2.17,2.17,0,0,0-.5,1,2.883,2.883,0,0,1-.315.65,2.419,2.419,0,0,0-.361.55,1.333,1.333,0,0,1-.855.95c-.136,0-.226.05-.226.1,0,.2-.631.95-.765.9-.091,0-.136.05-.136.15a1.673,1.673,0,0,1-.405.65l-.406.5.361-.3c.224-.2.81-.75,1.306-1.25,1.623-1.75,4.551-5.9,4.416-6.35a.246.246,0,0,1,.18-.2.33.33,0,0,0,.181-.25.8.8,0,0,1,.27-.5C59.669,52.725,61.2,49.525,60.886,49.775Zm-3.425-31.6a17.087,17.087,0,0,1,.992-1.4c.045-.1.09-.2.045-.2a28.412,28.412,0,0,0-1.892,2.75A10.634,10.634,0,0,0,57.461,18.173Zm.812,35.152c.09,0,.045.2-.045.45-.136.2-.27.4-.315.4a.772.772,0,0,0-.316.1c-.136.05-.225,0-.225-.05A2.057,2.057,0,0,1,58.273,53.325Zm-.136,2.65c-.09-.05-.135,0-.179.15-.091.2-.045.2.089.1A.418.418,0,0,0,58.137,55.975Zm1.532-5.1c0-.051-.134.05-.27.25s-.225.449-.18.5C59.309,51.775,59.669,51.175,59.669,50.875Zm-.225-35.653c.091-.149.046-.2-.045-.149a.4.4,0,0,0-.09.25C59.309,15.523,59.4,15.472,59.444,15.222Zm.541,34.953a1.357,1.357,0,0,0,.181-.451c-.046-.049-.136.151-.271.4C59.625,50.775,59.714,50.775,59.985,50.175Z"/><path class="cls-1" d="M84.227,33.974c0,.05.226.6.451,1.25a10.1,10.1,0,0,1,.541,4.4,6.134,6.134,0,0,1-.586,2.65,14.292,14.292,0,0,1-3.064,4.6,6.6,6.6,0,0,1-3.154,1.95c-.586.15-1.217.4-1.4.451a2.145,2.145,0,0,1-1.667-.051c-.676-.2-1.8-1.4-1.758-1.9a2.153,2.153,0,0,0-.405-.7c-.856-1.2-1.036-4.95-.36-7.1a22.59,22.59,0,0,1,5.181-8.5l.857-.85-.316-.5c-.18-.25-.27-.551-.225-.6.09-.2.856-.05,1.306.25.361.25.5.3.812.15a1.678,1.678,0,0,1,1.531.15c.451.25,1.4,1.4,1.353,1.7,0,.451,2.7.65,5.9.351a40.111,40.111,0,0,0,6.038-.951h.9c.045,0,.271.051.316.051a.373.373,0,0,1,.224.049.153.153,0,0,1,.091.05.132.132,0,0,1,.09.051h.045c.045.049.045.049.09.1-.135,0-.225.049-.316.049-.45.1-.81.2-.765.25a4.27,4.27,0,0,0,1.172-.2.046.046,0,0,0,.045.051.045.045,0,0,0,.045.049c0,.051.045.2.089.2a2.429,2.429,0,0,0,.045.25c-.045-.1,0,.149,0,.2v.35a2.33,2.33,0,0,1-.045.25l-.044.051c0,.049-.045.1-.045.15-.045.049-.045.049-.045.1h-.045a.269.269,0,0,1-.091.15h-.045v.049a37,37,0,0,1-11.806,1.1A2.714,2.714,0,0,0,84.227,33.974Zm-1.262.2c-.314-.6-.405-.65-.81-.65a.919.919,0,0,1-.541-.15c-.045-.1-.18-.151-.316-.2a.508.508,0,0,1-.36-.7c0-.1,0-.2-.09-.15a15.62,15.62,0,0,0-2.073,2.25,3.34,3.34,0,0,1-.5.7,29.425,29.425,0,0,0-3.065,5.75,10.912,10.912,0,0,0-.675,5.35c.089.4.135.4.9.4a4.909,4.909,0,0,0,2.208-.651,10.07,10.07,0,0,0,3.694-3.1C83.461,40.374,84.182,36.524,82.965,34.174Zm12.212-2.6a1.609,1.609,0,0,0,.585-.2c.136-.1-.81.1-.946.2C94.726,31.623,94.907,31.623,95.177,31.573Z"/><path class="cls-1" d="M123.024,35.774a5.557,5.557,0,0,1-.585,3.3,38.774,38.774,0,0,1-2.389,3.8c-.315.45-.765,1.05-.946,1.4-.225.3-.946,1.2-1.667,2-.676.8-1.4,1.651-1.622,1.95a9.2,9.2,0,0,1-2.434,1.85,1.875,1.875,0,0,0-.54.351,4.338,4.338,0,0,1-1.937.4,3.026,3.026,0,0,1-.991-.3c-.271-.15-.586-.3-.586-.4a.493.493,0,0,0-.271-.15c-.405,0-1.306-1.4-1.577-2.45a12.42,12.42,0,0,1,.181-5.7,8.226,8.226,0,0,0,.269-1.15c-.09-.05-3.289,4.7-4.506,6.7a4.624,4.624,0,0,1-1.892,2,1.908,1.908,0,0,1-1.126.4,2.32,2.32,0,0,1-1.532-.551.665.665,0,0,0-.361-.2.533.533,0,0,1-.36-.25,3.991,3.991,0,0,1-.812-3.4,41.286,41.286,0,0,1,3.335-10.9c1.352-3.05,1.577-3.5,2.073-3.8.315-.2.856-.151.856.049,0,.1.135.2.271.2a1.123,1.123,0,0,1,.63.4c.406.4.406.4.361,1.15a5.738,5.738,0,0,1-.631,2c-.271.7-.5,1.3-.5,1.3,0,.05-.406,1.05-.856,2.15-.5,1.15-1.261,3.15-1.713,4.5a25.361,25.361,0,0,0-1.261,5.05l-.09.451.27-.351a7.719,7.719,0,0,1,.811-.8,18.107,18.107,0,0,0,2.118-2.6c.315-.45,2.839-3.7,3.2-4.2a2.813,2.813,0,0,0,.5-.7c.18-.2.811-1.05,1.4-1.8a15.236,15.236,0,0,0,2.388-3.6c1.757-3.8,2.343-4.751,2.974-4.751.18,0,.361.05.405.15,0,.1.18.2.316.25.27.05.36.151.5.651a1.578,1.578,0,0,1-.045,1.35,3.958,3.958,0,0,1-.586,1.35,40.167,40.167,0,0,0-3.469,8.4c-.946,3.15-1.261,5.25-1.037,6.8.046.6.091.65.451.75.271.1.361.051.451-.049a1.532,1.532,0,0,1,.675-.3,8.62,8.62,0,0,0,2.929-1.8,68.957,68.957,0,0,0,5.948-6.751,27.228,27.228,0,0,0,2.074-3.1,13.8,13.8,0,0,1,.81-1.3C122.934,35.474,122.979,35.624,123.024,35.774Z"/><path class="cls-1" d="M142.581,15.872a117.329,117.329,0,0,0-4.912,10.9c-.72,2-1.847,4.7-2.342,5.751-1.352,2.85-4.732,13.45-6.174,19.3-.316,1.25-.721,2.9-.9,3.6a57.724,57.724,0,0,0-1.847,15.3,5.883,5.883,0,0,0,.631,2.6,4.7,4.7,0,0,0,.946-.6c.45-.35.9-.6.991-.55.316,0,.811,2.3.586,2.5a1.413,1.413,0,0,0-.226.55c-.044.45-.991.85-1.667.75a5.358,5.358,0,0,1-1.036-.4c-.27-.2-.676-.5-.9-.7a1.519,1.519,0,0,0-.631-.4,6.178,6.178,0,0,1-.9-1.2c-1.217-2-1.442-5.1-.812-11.1a77.7,77.7,0,0,1,2.344-12.4A178.53,178.53,0,0,1,138.75,14.323h-.405c0-.1-6.624.6-6.893.7-.091.05-.045.05-7.7.849-6.354.651-10.094,1.051-13.113,1.451-1.261.149-4.641.35-5,.3a1.477,1.477,0,0,1-.81-.95c0-.15-.046-.25-.136-.2-.226,0-.226-.85,0-1a3.146,3.146,0,0,0,.181-.4c.09-.25.09-.25,1.216-.25,1.082,0,1.126,0,1.532-.3a1.682,1.682,0,0,1,2.028.151c.18.25.27.25.856.2.36-.049,1.937-.15,3.469-.3s3.065-.25,3.38-.3c.316,0,.54,0,.54.051s-.18.1-.36.1a2.785,2.785,0,0,0-.676.1c-.766.2,3.425-.1,7.3-.5.721-.1,3.063-.3,5.181-.5s4.732-.4,5.813-.5c1.082-.15,2.253-.25,2.613-.25a10.744,10.744,0,0,1,1.262-.1l.541-.1c1.262-2.5,3.965-7.8,4.416-8.5a5.263,5.263,0,0,0,.54-1.2,1.2,1.2,0,0,1,1.262-.95c.586.05,1.713.8,1.713,1.05-.045.1.134.2.36.2.721.1,1.126,1.75.541,2.25a1.521,1.521,0,0,0-.315.5,11.38,11.38,0,0,1-1.668,2.95c-.451.65-1.171,1.85-1.983,3.3,2.929-.25,6.309-.55,7.66-.65,1.533-.1,3.289-.15,7.03-.15,4.821,0,5,0,5.9.2a5.143,5.143,0,0,1,2.253,1,1.54,1.54,0,0,1,.136.549c0,.2.045.4.179.451.181.149.226.549.091,1.049a3.051,3.051,0,0,1-1.532,1.2.984.984,0,0,0-.45.1,17.553,17.553,0,0,1-2.839.449,3.2,3.2,0,0,0-.857-.049c-.5,0-.811-.05-.9-.15a.97.97,0,0,0-.405-.1c-.316,0-.316-.2.045-.25a11.731,11.731,0,0,0,2.658-.851,4.217,4.217,0,0,1,1.848-.8c.451-.151.541-.25.36-.35a78.462,78.462,0,0,0-8.471-.651c-.856-.05-6.353.151-8.111.3-.721.05-1.847.1-2.523.15-1.126.051-2.163.15-2.929.2C143.256,14.472,142.9,15.173,142.581,15.872Zm-11.536-1.9c0-.1-.089-.1-.134-.049a1.726,1.726,0,0,1-.631.1c-.9.051-3.965.3-5.587.5-.9.1-2.3.251-3.11.35a13.709,13.709,0,0,0-1.532.2,20.637,20.637,0,0,0,2.929-.2c.811-.1,2.3-.25,3.244-.35,1.037-.1,2.344-.2,3.02-.3C130.821,14.122,131.045,14.073,131.045,13.972Zm7.976,3.351a5.81,5.81,0,0,1-.676.9,45.713,45.713,0,0,0-2.973,6.25c0,.25-.09.4-.181.4-.045,0-.09.1-.09.25a22.669,22.669,0,0,1-1.577,3.8,6.06,6.06,0,0,0-.541,1.251,3.7,3.7,0,0,1-.405.85c-.541,1-2.7,7.1-4.01,11.4a19.213,19.213,0,0,1-1.262,3.6,17.413,17.413,0,0,0-.946,3.1c-.9,3.5-.991,3.85-.767,3.9.181,0-.045.6-.224.75a8.015,8.015,0,0,0-.541,1.75c-.226,1.2-.316,1.7-.181,2,.181.5.136.6-.045.5-.315-.1-.991,6.35-.855,7.6.044.5.089,1.449.089,2.1-.045,2.15.18,1,.676-3.351.316-2.7.676-5.05.946-6.35.271-1.15.542-2.55.676-3.15.09-.6.361-1.65.541-2.35.225-.7.54-1.9.766-2.7.181-.8.541-2.1.767-2.8.179-.751.405-1.651.5-1.951.089-.35.225-.85.315-1.15.5-1.45,1.172-3.65,1.217-3.85.045-.3,2.027-6,3.289-9.5.856-2.25,3.965-9.6,5.182-12.15C139.381,16.972,139.472,16.673,139.021,17.323Zm-13.743,47.5c-.045-.4-.09,0-.18,1.3-.09,1.95-.09,2.95.045,2.8a7.175,7.175,0,0,0,.045-1.7,11.047,11.047,0,0,1,.09-1.751A.786.786,0,0,0,125.278,64.825Zm.27-2.9c-.045-.1-.09,0-.134.25,0,.2.044.25.089.1S125.593,61.975,125.548,61.926Zm7.66-29c-.675,1.9-.81,2.3-.63,2.45.18.2.18.25-.045.2-.181,0-.45.551-1.036,2.151a88.493,88.493,0,0,0-2.839,9.35c-.226.75-.676,2.451-1.036,3.8-.361,1.3-.812,3.15-.992,4.05-.18.95-.451,2.3-.586,3.05a18.23,18.23,0,0,0-.405,2.5c-.181,1.7.18.6.585-1.95.316-1.7.451-2.25.676-2.4.27-.2.27-.25.091-.55s-.181-.4.09-.9a3.394,3.394,0,0,0,.36-1.15c.045-.5.315-1.35,1.217-4.65a1.835,1.835,0,0,0,.134-.85c-.089-.051-.089-.25-.044-.451.089-.2.225-.3.315-.25.181.15.451-.8.721-2.55a2.894,2.894,0,0,1,.315-.95,11.048,11.048,0,0,0,.631-1.85,26.8,26.8,0,0,1,1.353-4.05,5.524,5.524,0,0,0,.405-1.25,1.931,1.931,0,0,1,.27-.9,4.188,4.188,0,0,0,.316-1.1c.134-.6.27-.951.36-.851s.09.051.045-.149a3.23,3.23,0,0,1,.676-1.8,2.6,2.6,0,0,0,.36-1.2c.045-.6.136-1.051.226-1.051s.225-.2.315-.45c.045-.25.18-.5.226-.45a6.542,6.542,0,0,0,.72-2.1C136.092,25.873,134.515,29.373,133.208,32.924Zm-1.532-18.952c0-.049-.045-.1-.135-.1a.1.1,0,0,0,0,.2C131.631,14.073,131.676,14.022,131.676,13.972Zm.631-.1a.1.1,0,0,0-.09-.1.331.331,0,0,0-.225.1c-.045.051,0,.1.135.1C132.217,13.972,132.307,13.923,132.307,13.872Zm1.577-.2c-.134,0-.27.049-.27.1,0,.1.136.1.361,0C134.155,13.722,134.11,13.673,133.884,13.673Zm3.29-.2c0-.049-2.839.2-2.929.25-.045.05.225.05.586,0,.36,0,1.036-.049,1.487-.1A2.421,2.421,0,0,0,137.174,13.472Zm11.129-.85c.226-.049.361-.049.316,0s.135.1.405.1c.451,0,.451,0,.136-.05s-.361-.05-.136-.15a3.435,3.435,0,0,1,.856.1,2.517,2.517,0,0,0,1.443-.1,18.8,18.8,0,0,1,2.117-.2c.136,0,.226,0,.226-.051,0-.15-.9-.15-2.3,0-.586.051-1.488.1-1.983.15-1.172.05-1.306.05-1.442.151C147.9,12.622,148.079,12.622,148.3,12.622Zm6.038-.35c.226,0,.5.051.541,0,.09,0,.9-.05,1.8-.05.9-.05,1.668-.1,1.713-.1a39.049,39.049,0,0,0-4.19,0C153.891,12.172,153.891,12.222,154.341,12.272Zm4.506-.15a1.865,1.865,0,0,0,.676.05c.315,0,.541.05.541.1s.135.051.226.051c.179,0,.179,0,.089-.051-.18-.1-.18-.1,0-.15a3.815,3.815,0,0,0-.72-.049C159.163,12.073,158.8,12.073,158.847,12.122Zm2.613.2a1.323,1.323,0,0,1,.722.049,1.623,1.623,0,0,0,.676.1,15.359,15.359,0,0,1,2.839.351c.5.149.765.1.315-.051a11.792,11.792,0,0,0-4.822-.65C160.6,12.222,160.785,12.323,161.46,12.323Z"/></g></g></g></svg>