<svg xmlns="http://www.w3.org/2000/svg" width="1929.792" height="659.986" viewBox="0 0 1929.792 659.986"><defs><style>.cls-1{opacity:0.5;}.cls-2{fill:#aac6d6;}</style></defs><g id="レイヤー_2" data-name="レイヤー 2"><g id="レイヤー_1-2" data-name="レイヤー 1"><g class="cls-1"><path class="cls-2" d="M1927.05,657.2c-2.82,2.834-6.213,2.692-10.211,2.692s-4-3.479-7.995-3.479-4-3.282-8-3.282-4,1.1-7.995,1.1-4,5.058-8,5.058-4-1.594-7.995-1.594-4-1.714-8-1.714-4-.431-8-.431-4-1.246-8-1.246-4,3.094-8,3.094-4-5.159-8-5.159-4,7.522-8,7.522-4-3.837-8-3.837-4,3.673-8,3.673-4-.452-8-.452-4-4.434-8-4.434-4,1.813-8,1.813-4-.337-8-.337-4-5.061-8-5.061-4-.513-8-.513-4,8.263-8,8.263-4-8.018-8-8.018-4,5.619-8,5.619-4-1.866-8-1.866-4-1.849-8-1.849-4-1.557-8-1.557-4,.582-8,.582-4-1.276-8-1.276-4,5.227-8,5.227-4-1.446-8-1.446-4-1.1-8-1.1-4-1.679-8-1.679-4,8.111-8,8.111-4-3.629-8-3.629-4,2.5-8,2.5-4,.239-8,.239-4,.548-8,.548-4,.132-8,.132-4-.18-8-.18-4-5.882-8-5.882-4,1.89-8,1.89-4-2.547-8-2.547-4,4.057-8,4.057-4-1.587-8-1.587-4,1.562-8,1.562-4-5.184-8-5.184-4-.208-8-.208-4,4.066-8,4.066-4,1.264-8,1.264-4,.1-8,.1-4,1.712-8,1.712-4-1.912-8-1.912-4-1.336-8-1.336-4-3.082-8-3.082-4-.806-8-.806-4,5.833-8,5.833-4-3.693-8-3.693-4-.518-8-.518-4,.5-8,.5-4,.663-8,.663-4-.465-8-.465-4-3.207-8-3.207-4,.331-8,.331-4-.179-8-.179-4,7.108-8,7.108-4-5.144-8-5.144-4,4.492-8,4.492-4-4.81-8-4.81-4-1.652-8-1.652-4,5.7-8,5.7-4-4.6-8-4.6-4,7.757-8,7.757-4,.484-8,.484-4-8.072-8-8.072-4,2.261-8,2.261-4,4.467-8,4.467h-8c-4,0-4-4.383-8-4.383s-4-.513-8-.513-4,6.28-8,6.28-4-8.291-8-8.291-4,.185-8,.185-4,7.364-8,7.364-4-3.874-8-3.874-4-.681-8-.681-4,4.125-8,4.125-4-1.523-8-1.523-4-4.456-8-4.456-4,1.227-8,1.227-4,5.242-8,5.242-4-6.205-8-6.205-4-1.262-8-1.262-4,5.294-8,5.294-4-5.785-8-5.785-4,2.086-8,2.086-4,2.806-8,2.806-4-3.63-8-3.63-4,6.185-8,6.185-4-3.533-8-3.533-4,2.895-8,2.895-4,.284-8,.284-4-.848-8-.848-4,1.793-8,1.793-4-8.98-8-8.98-4,8.082-8,8.082-4-2.084-8-2.084-4-3.33-8-3.33-4-2.687-8-2.687-4,4.241-8,4.241-4,2.313-8,2.313-4-6.183-8-6.183-4,2.435-8,2.435-4,2.629-8,2.629-4-1.5-8-1.5-4,2.546-8,2.546-4-.079-8-.079-4-6.07-8-6.07-4,2.029-8,2.029-4,7.092-8,7.092-4-2.817-8-2.817-4-1.674-8-1.674-4,1.5-8,1.5-4-5.441-8-5.441-4,3.952-8,3.952-4-2.854-8-2.854-4,1.434-8,1.434-4-3.774-8-3.774-4,6.875-8,6.875-4-2.745-8-2.745-4,3.316-8,3.316-4-4.043-8-4.043-4-.954-8-.954-4,1.932-8,1.932-4,3.3-8,3.3-4-.522-8-.522-4-6.8-8-6.8-4,1.976-8,1.976-4,5.564-8,5.564-4-1.75-8-1.75-4-2.667-8-2.667-4,.8-8,.8-4-.1-8-.1-4,1.718-8,1.718-4,1.506-8,1.506-4-2.745-8-2.745-4,2.375-8,2.375-4,1.666-8,1.666-4-5.463-8-5.463-4-.053-8-.053-4-2.188-8-2.188-4,2.41-8,2.41-4-.591-8-.591-4,6.778-8,6.778-4-7.239-8-7.239-4,.634-8,.634-4,6.062-8,6.062-4-6.523-8-6.523-4-2.183-8-2.183-4,8.561-8,8.561-4,.378-8,.378-4-5.131-8-5.131-4-2.041-8-2.041-4,4.244-8,4.244-4-1.915-8-1.915-4,2.618-8,2.618-4-.3-8-.3-4,2.708-8,2.708-4-7.673-8-7.673-4,3.214-8,3.214-4,3.768-8,3.768-4-8.283-8-8.283-4,3.659-8,3.659-4-.061-8-.061-4,2.108-8,2.108-4-4.123-8-4.123-4,1.215-8,1.215-4,2.573-8,2.573-4-2.1-8-2.1-4,2.875-8,2.875-4-6.2-8-6.2-4,8.572-8,8.572-4-2.6-8-2.6-4-4.447-8-4.447-4-.364-8-.364-4-.5-8-.5-4,2.313-8,2.313-4,3.611-8,3.611-4-6.427-8-6.427-4,6.428-8,6.428-4,1.478-8,1.478-4-1.348-8-1.348-4,.414-8,.414-4-1.929-8-1.929-4,.572-8,.572-4-3.646-8-3.646-4,3.207-8,3.207-4-4.581-8-4.581-4,8.645-8,8.645-4-.516-8-.516-4-4.807-8-4.807-4-3.41-8-3.41-4,.174-8,.174-4,5.539-8,5.539-4-5.83-8-5.83-4,5.674-8,5.674-4,1.434-8,1.434-4-7.271-8-7.271-4,8.039-8,8.039-4-.688-8-.688-4-.1-8-.1-4-1.919-8-1.919-4,.268-8,.268-4-5.245-8-5.245-4,5.467-8,5.467-4,1.4-8,1.4-4-5.974-8-5.974-4,3.165-8,3.165-4,2.173-8,2.173-4-1.167-8-1.167-4-6.259-8-6.259-4,1.886-8,1.886-4-.717-8-.717-4-.191-8-.191-4,2.832-8.006,2.832-4-.531-8-.531-4,.365-8.006.365-4,1.067-8.006,1.067-4-3.645-8.006-3.645-4,7.161-8.006,7.161-4-.808-8.007-.808-4,1.553-8.008,1.553-4-2.666-8.006-2.666-4,.648-8.006.648-4,1.179-8.005,1.179-4-8.067-8.006-8.067-4,5.5-8.008,5.5-4.005-4.235-8.01-4.235-4-.88-8.008-.88-4.007,2.458-8.014,2.458-1.819,1.43-4.651-1.4-.565-.651-.565-4.662-1.974-4.011-1.974-8.022-2.935-4.012-2.935-8.025,4.733-4.011,4.733-8.022-7.2-4.01-7.2-8.02,4.556-4.01,4.556-8.02,1.435-4.009,1.435-8.019,2.509-4.009,2.509-8.019-8.19-4.01-8.19-8.02,6.89-4.011,6.89-8.022-5.392-4.013-5.392-8.025,7.427-4.011,7.427-8.023S0,554.727,0,550.716s3.155-4.01,3.155-8.02.9-4.01.9-8.02-2.233-4.01-2.233-8.021,4.583-4.011,4.583-8.022-5.3-4.012-5.3-8.025S.2,506.6.2,502.585s1.776-4.011,1.776-8.022,1.581-4.011,1.581-8.021.856-4.011.856-8.022S0,474.509,0,470.5s6.963-4.012,6.963-8.025,2.317-4.012,2.317-8.024-1.929-4.011-1.929-8.022S.485,442.416.485,438.405s6.978-4.011,6.978-8.023-1.729-4.012-1.729-8.024S.58,418.346.58,414.333s1-4.011,1-8.023S8.9,402.3,8.9,398.288.165,394.276.165,390.264s3.557-4.013,3.557-8.026,3.158-4.012,3.158-8.024,1.135-4.012,1.135-8.023,1.647-4.012,1.647-8.024S.151,354.154.151,350.141s.572-4.012.572-8.024,6.309-4.012,6.309-8.024,1.252-4.012,1.252-8.025-4.647-4.013-4.647-8.025,3.872-4.012,3.872-8.024-4.824-4.013-4.824-8.025-2.63-4.013-2.63-8.026,1.467-4.012,1.467-8.024,2.683-4.013,2.683-8.026-1.966-4.013-1.966-8.026,3.974-4.012,3.974-8.025-2.074-4.013-2.074-8.026-2.171-4.013-2.171-8.025,1.745-4.014,1.745-8.027-3.52-4.013-3.52-8.025,4.945-4.014,4.945-8.027,2.69-4.013,2.69-8.026-5.339-4.013-5.339-8.025,6.259-4.011,6.259-8.021-6.322-4.011-6.322-8.023-.054-4.013-.054-8.026-.876-4.011-.876-8.022,1.171-4.013,1.171-8.026,1.727-4.012,1.727-8.024-.043-4.013-.043-8.026,2.808-4.012,2.808-8.025-1.638-4.013-1.638-8.027-4.395-4.012-4.395-8.025,7.042-4.014,7.042-8.028.123-4.014.123-8.029-4.421-4.013-4.421-8.027,1.409-4.014,1.409-8.028-.11-4.014-.11-8.029S.128,81.285.128,77.27s7.244-4.014,7.244-8.028-5.056-4.014-5.056-8.028S4.682,57.2,4.682,53.187s-4-4.014-4-8.028,1.557-4.015,1.557-8.03,2.54-4.016,2.54-8.032.963-4.015.963-8.03-4.13-4.018-4.13-8.036S3.153,8.99,5.987,6.142C8.806,3.308,8.832.461,12.83.461s4,5.13,8,5.13,4-4.641,8-4.641,4-.541,8-.541,4,7.775,7.995,7.775,4-3.245,7.995-3.245,4,3.973,8,3.973S64.8.3,68.8.3s4,3,8,3,4,5.036,8,5.036,4-1.938,8-1.938,4-6.078,8-6.078,4,4.028,8,4.028,4,2.981,8,2.981,4-2.22,8-2.22,4,3.61,8,3.61,4-5.665,8-5.665,4,1.814,8,1.814,4,4.127,8,4.127,4-5.352,8-5.352,4-2.365,8-2.365,4-.484,8-.484,4,7.3,8,7.3,4-1.885,8-1.885,4-1.358,8-1.358,4-.252,8-.252,4-2.357,8-2.357,4,2.182,8,2.182,4,4.509,8,4.509,4-2.566,8-2.566,4,.425,8,.425,4-.4,8-.4,4-1.76,8-1.76,4-2.79,8-2.79,4,5.673,8,5.673,4-1.307,8-1.307,4-4.709,8-4.709,4,1.036,8,1.036,4,4.362,8,4.362,4-5.855,8-5.855,4,4.632,8,4.632,4,1.187,8,1.187,4,2.159,8,2.159,4-6.239,8-6.239,4,5.511,8,5.511,4-5.117,8-5.117,4,2.017,8,2.017,4-2.477,8-2.477,4,1.164,8,1.164,4-3.18,8-3.18,4,6.827,8,6.827,4-4.847,8-4.847,4,.742,8,.742,4,5.826,8,5.826,4-6.585,8-6.585,4-1.555,8-1.555,4,.676,8,.676,4,1.927,8,1.927,4-.9,8-.9,4,4.605,8,4.605,4-3.242,8-3.242,4,.036,8,.036,4,2.1,8,2.1,4-3.135,8-3.135,4-1.835,8-1.835,4,6.54,8,6.54,4-3,8-3,4-1.395,8-1.395,4,4.692,8,4.692,4-4.966,8-4.966,4,6.54,8,6.54,4-2.75,8-2.75,4-1.564,8-1.564,4-2.568,8-2.568,4,1.036,8,1.036,4,4.173,8,4.173,4,1.185,8,1.185,4-3.269,8-3.269,4-3.459,8-3.459,4,6.868,8,6.868,4-1.242,8-1.242,4-2.345,8-2.345,4,3.157,8,3.157,4-.358,8-.358,4-6.451,8-6.451,4,1.449,8,1.449,4,4.646,8,4.646,4-.936,8-.936,4-3.476,8-3.476,4,1.061,8,1.061,4,.613,8,.613,4,.44,8,.44,4-.077,8-.077,4,2.957,8,2.957,4-7.459,8-7.459,4,1.544,8,1.544,4,1.907,8,1.907,4,1.841,8,1.841,4-5.121,8-5.121,4-.13,8-.13,4,4.424,8,4.424,4-5.5,8-5.5,4,2.47,8,2.47,4-.346,8-.346,4,5.511,8,5.511,4-.944,8-.944,4-4.44,8-4.44,4,4.9,8,4.9,4-2.691,8-2.691,4-4.163,8-4.163,4,3.629,8,3.629,4,4.665,8,4.665,4,1.032,8,1.032,4-3.835,8-3.835,4-.7,8-.7,4-3.086,8-3.086,4,.13,8,.13,4,5.261,8,5.261,4-6.421,8-6.421,4,7.052,8,7.052,4-7.085,8-7.085,4,5.557,8,5.557,4-6.321,8-6.321,4,7.546,8,7.546,4-4.114,8-4.114,4-3.361,8-3.361,4,4.655,8,4.655,4-5.225,8-5.225,4,9.007,8,9.007,4-1.917,8-1.917,4-3.866,8-3.866,4-.588,8-.588,4,4.185,8,4.185,4,1.439,8,1.439,4-4.634,8-4.634,4-3.44,8-3.44,4,8.211,8,8.211,4-2.41,8-2.41,4-2.147,8-2.147,4,1.913,8,1.913,4,1.4,8,1.4,4-4.234,8-4.234,4,6.806,8,6.806,4,.18,8,.18,4-6.846,8-6.846,4,.445,8,.445,4,2.682,8,2.682,4,2.018,7.995,2.018,4-4.193,8-4.193,4,2.389,8,2.389,4-5.947,8-5.947,4,5.74,8,5.74,4-2.173,8-2.173,4,.074,8,.074,4,1.041,8,1.041,4,.035,8,.035,4-2.216,7.995-2.216,4-2.231,8-2.231,4,2.59,8,2.59,4,3.952,8,3.952,4,.254,8,.254,4-3.512,8-3.512,4-1.183,8-1.183,4,.4,8,.4,4,4.921,8,4.921,4-5.9,8-5.9,4-.31,8-.31,4-.576,8-.576,4,.142,8,.142,4,.818,8,.818,4,1.281,8,1.281,4-2.536,8-2.536,4,2.2,8,2.2,4,6.333,8,6.333,4-9.154,8-9.154,4,8.931,8,8.931,4-8.462,8-8.462,4,4.842,8,4.842,4,1.991,8,1.991,4-3.749,8-3.749,4-2.846,8-2.846,4,4.208,8,4.208,4,1.157,8,1.157,4-5.294,8-5.294,4,.489,8,.489,4,5.521,8,5.521,4-3.308,8-3.308,4-1.732,8-1.732,4,0,8,0,4-.712,8-.712,4,1.744,8,1.744,4,2.718,8,2.718,4-2.308,8-2.308,4,4.526,8,4.526,4-7.767,8-7.767,4,2.268,8,2.268,4-1.169,8-1.169,4,6.987,8,6.987,4,1.157,8,1.157,4-4.05,8-4.05,4-3.845,8-3.845,4,2.773,8,2.773,4,.466,8,.466,4,.033,8,.033,4-.26,8-.26,4,3.6,8,3.6,4-8.223,8-8.223,4,2.684,8,2.684,4,3.852,8,3.852,4-.049,8-.049,4-2.846,8.006-2.846,4-2.835,8-2.835,4,1.991,8,1.991,4-1.652,8-1.652,4,1.225,8,1.225,4-.217,8-.217,4,1.379,8,1.379,4-.945,8-.945,4,5.877,8,5.877,4-1.142,8-1.142,4-1.826,8-1.826,4,.385,8,.385,4-1.231,8-1.231,4,.965,8.006.965,4-5.39,8-5.39,4,5.918,8.006,5.918,4-3.061,8.007-3.061,4,.68,8.005.68,4-.637,8.006-.637,4,.85,8.007.85,4-3.274,8.008-3.274,4,.1,8.006.1,4,2.354,8.006,2.354,4,3.739,8.005,3.739,4,1.275,8.006,1.275,4-5.642,8.008-5.642,4.005,5.267,8.011,5.267,4-.113,8.008-.113,4.006-3.127,8.013-3.127,5.784-3.125,8.616-.291,1.238,4.612,1.238,8.622-2.618,4.011-2.618,8.023.646,4.012.646,8.024,1.442,4.011,1.442,8.022.611,4.01.611,8.021,1.315,4.009,1.315,8.019-1.849,4.01-1.849,8.019-3.049,4.01-3.049,8.019-2.225,4.011-2.225,8.021,5.914,4.011,5.914,8.022-5.09,4.012-5.09,8.024,5.336,4.012,5.336,8.024.816,4.01.816,8.021-6.5,4.01-6.5,8.02-1.567,4.01-1.567,8.021,5.165,4.01,5.165,8.02,4.45,4.011,4.45,8.022-.634,4.013-.634,8.025-4.743,4.012-4.743,8.024,2.437,4.011,2.437,8.022-1.211,4.01-1.211,8.021-2.692,4.01-2.692,8.021,5.387,4.011,5.387,8.023-2.064,4.012-2.064,8.024-6.093,4.012-6.093,8.024,9.752,4.012,9.752,8.023-.828,4.011-.828,8.022-1.424,4.011-1.424,8.022-1.294,4.012-1.294,8.024-3.754,4.013-3.754,8.025,5.341,4.012,5.341,8.023-3.523,4.012-3.523,8.023,2.82,4.012,2.82,8.023-5.938,4.013-5.938,8.026-1.025,4.012-1.025,8.024,9.524,4.012,9.524,8.023-9.675,4.012-9.675,8.024,4.655,4.013,4.655,8.027-1.865,4.012-1.865,8.024,7.167,4.012,7.167,8.023-6.007,4.013-6.007,8.025-.27,4.013-.27,8.026-2.076,4.012-2.076,8.024,5.2,4.012,5.2,8.025-1.169,4.013-1.169,8.026.679,4.012.679,8.024.714,4.013.714,8.026-6.722,4.012-6.722,8.025,3.7,4.013,3.7,8.025,5.106,4.013,5.106,8.026-8.7,4.013-8.7,8.025,8.908,4.014,8.908,8.028-.326,4.012-.326,8.025-5.764,4.013-5.764,8.027,5.721,4.013,5.721,8.026-8.311,4.012-8.311,8.025,4.025,4.01,4.025,8.02,4.916,4.012,4.916,8.023-7.495,4.013-7.495,8.026,1.532,4.011,1.532,8.022-1.581,4.013-1.581,8.026-.015,4.012-.015,8.024,5.088,4.013,5.088,8.026-5.393,4.012-5.393,8.025.224,4.014.224,8.027.743,4.013.743,8.026,4.154,4.013,4.154,8.027.779,4.015.779,8.029-4.417,4.014-4.417,8.028,5.294,4.014,5.294,8.027-1.36,4.015-1.36,8.029-3.718,4.015-3.718,8.03,3.047,4.014,3.047,8.029-3.516,4.013-3.516,8.027,4.172,4.014,4.172,8.028-4.623,4.014-4.623,8.027,6.489,4.015,6.489,8.03-6.789,4.016-6.789,8.033,7.672,4.015,7.672,8.03-6.5,4.341-5.247,8.159C1926.189,652.382,1929.884,654.352,1927.05,657.2Z"/></g></g></g></svg>