<svg xmlns="http://www.w3.org/2000/svg" width="1395.627" height="832.3" viewBox="0 0 1395.627 832.3"><defs><style>.cls-1{opacity:0.1;}.cls-2{fill:#1b333f;}</style></defs><g id="レイヤー_2" data-name="レイヤー 2"><g id="レイヤー_1-2" data-name="レイヤー 1"><g class="cls-1"><path class="cls-2" d="M173.8,517.145c-3.508.6-13.347,4.049-21.943,7.735s-16.487,6.806-18.046,7.071a59.8,59.8,0,0,0-10.545,4.017c-7.111,2.988-7.428,3.487-8.957,8.642-.729,2.793-2.5,8.879-3.715,13.535-12.386,40.371-29.157,106.849-33.276,129.8-2.641,15.132-5.768,32.127-8.195,41.438A69.785,69.785,0,0,0,68.811,737c-.339,2.727-.751,5.022-1.6,4.723-.779.132-1.338,1.563-1.044,3.291s.154,7.984-.84,13.936-1.979,19.025-2.943,29.868c-.648,10.344-1.759,20.321-2.634,22.25-.1,1.8-.677,5.454-.626,8.116.11,12.439-4.126,15.83-12.56,11.034-2.17-.967-4.8-2.3-5.192-2.233-.779.133-3.875-1.566-6.971-3.264-3.632-2.5-5.168-4.461-5-5.825.243-.932.8-9.479,1.2-18.892,1.538-21.62,6.2-60.233,7.953-64.09a31.025,31.025,0,0,0,.751-5.021c.265-3.161,3.3-18.359,6.4-33.125.559-1.43,2.523-11.107,4.73-21.717,7.422-34.188,20.941-86.765,29.929-114.1l1.456-5.587-3.75,1.528c-16.487,6.806-60.094,33.35-60.6,37.441-.412,2.295-3.456,3.257-3.824,1.095-.22-1.3-.22-1.3-1.169.2-1.581,2.5-2.824,2.261-3.265-.334-.221-1.3-1.221-2.462-2-2.33-1.559.265-3.926-4.227-6.808-11.747-.978-3.393-.662-3.891,6.861-9.174C17.923,565,48.287,547.822,67.208,538.821c8.522-4.118,17.435-8.3,19.553-10,4.7-3.024,11.943-19.383,14-30.857.486-1.863,1.044-3.292,1.434-3.359.78-.132,1.022-1.063.8-2.361s.485-1.861,1.338-1.562c2.1.534,3.361-1.461,1.581-2.493-.852-.3-.757-2.1-.271-3.959a11.454,11.454,0,0,0,.75-5.021c-.073-.433,1.361-3.792,2.8-7.15,1.824-3.425,2.8-7.149,2.574-8.446-.294-1.73.824-4.59,4.229-10.508.633-1,1.361-3.791,2.236-5.719.486-1.863,2.332-7.516,4.009-11.806,1.6-4.722,2.427-9.311,2.28-10.176a3.19,3.19,0,0,1,1.508-2.926c.779-.132,1.338-1.563,1.191-2.427s.728-2.793,1.677-4.29c2.287-3.059,12.981-29.793,12.687-31.523-.368-2.162,3.258-6.783,5.6-7.181.78-.132,2.751-2.691,3.942-5.119,3.185-7.215,15.239-37.741,15.019-39.038-.074-.433,1.118-2.86,2.7-5.354,1.191-2.427,6.442-14,11.694-25.569,10.281-24.44,26.572-58.356,31.168-66.7a128.715,128.715,0,0,0,6.663-12.7c13.812-27.265,37.772-65.6,46.582-75.1,11.634-11.767,20.914-13.79,28.936-6.7,2.853,2.63,5.559,4.395,5.949,4.329,1.949-.331,7.507,4.063,11.118,8.789,4.22,5.957,7.278,19.23,7.218,33.035a82.467,82.467,0,0,0,.72,13.671c.367,2.162.08,7.55-.281,12.506s-1.391,22.484-2.179,39.08c-2.26,31.532-2.231,36.421-5.175,66.288-3.106,38.348-8.841,129.648-9.717,155.159-.406,9.413-1.024,24.646-1.746,34.558-1.362,27.373-2.475,60.933-2.424,63.595-.169,1.364-.191,3.592-.823,4.589a11.452,11.452,0,0,0-.119,4.025c.537.8.352,11.508.315,23.083-1.039,33.994-.173,48.53,2.988,67.125,3.087,18.164,7.145,32.6,9.483,32.2.78-.132,2.243,1.4,3.316,3,.684,1.663,2.294,4.059,2.9,5.291,2.073,2.761,2.882,7.518,1.543,9.081-.632,1-3.287,1.893-6.015,2.357-5.14.428-14.817-4.6-22.839-11.692-3.853-3.794-4.39-4.592-5.125-8.917.243-.932-1.808-5.923-4.175-10.414-9.448-20.2-11.754-62.076-8.549-149.386.31-7.616.37-21.42.848-30.4.089-8.914.641-17.462,1.127-19.324.875-1.929.654-3.226-.2-3.526-1.779-1.033-29.377,4.1-36.561,6.659-13.2,4.913-19.436,5.973-19.73,4.243-.147-.865-.683-1.663-1.463-1.531-.39.066-.706.565-.559,1.43.368,2.162-4.332,5.185-11.979,7.375a106.787,106.787,0,0,0-13.906,5.478C183.709,514.126,177.62,516.051,173.8,517.145ZM70.964,645.861c10.512-39.608,16.8-61.589,18.308-64.515a41.007,41.007,0,0,0,1.287-4.224c.169-1.363.8-2.36,1.581-2.493.39-.066.486-1.862.192-3.592s.265-3.16,1.434-3.359c.779-.132,1.412-1.129,1.118-2.859s.993-5.953,2.354-9.744,2.721-7.582,2.647-8.014a7.226,7.226,0,0,0-2.97,1.395c-2.192,1.262-3.942,5.119-7.583,19.087C80.858,597.9,70.98,636.514,69.5,644.33c-1.287,4.223-2.331,7.515-3.111,7.647s-.926-.732-.514-3.027c1.066-5.52.066-6.685-1.074-1.6-1.36,3.792-1.213,4.657.1,5.323,2.559.9,2.316,1.83-1.009,15.3-2.839,11.605-3.251,13.9-2.3,12.4C61.91,679.881,66.11,664.483,70.964,645.861Zm-9,13.1c.294,1.73.294,1.73,1.169-.2a15.065,15.065,0,0,0,.728-2.794c-.073-.432-.536-.8-1.242-.234S61.742,657.662,61.963,658.959Zm3.759-17.991c.073.432.537.8,1.243.233s1.022-1.064.948-1.5-.463-.366-1.243-.234S65.575,640.1,65.722,640.968Zm1.6-4.722c.294,1.729,1.728-1.629,3.6-9.511,1.287-4.224,2.913-11.174,3.81-15.331s3.715-13.534,5.656-20.984c8.79-30.861,11.048-38.808,10.268-38.676C88.708,552.075,66.737,632.786,67.325,636.246Zm15.032-24.8c-1.117,2.86-.9,4.158.515,3.028a5.224,5.224,0,0,0,.728-2.793C83.306,609.947,82.843,609.581,82.357,611.442Zm10.612-10.7a1.344,1.344,0,0,0-1.389-1.1c-1.17.2-8.723,24.175-9.327,30.062-.728,2.793.706-.565,2.479-6.651,3.376-10.808,6.9-20.75,7.678-20.883C92.8,602.1,93.116,601.605,92.969,600.741Zm1.84-12.772c-1.559.265-4.111,6.484-3.67,9.078.514,3.027,2.558.9,3.772-3.756C96.757,587.638,97.147,587.572,94.809,587.969Zm13.21-44.96c-.853-.3-2.434,2.194-3.722,6.417-.728,2.793-3.3,11.239-5.634,18.755-2.258,7.948-4.347,14.532-4.2,15.4.294,1.729,2.412.034,4.163-3.823.8-2.361,1.7-6.518,2.427-9.311.265-3.16,2.28-10.177,4.053-16.262A71.847,71.847,0,0,0,108.019,543.009Zm-4.705-27.678c1.045-3.292,3.376-10.807,5.149-16.893,2.986-10.741,11.15-33.486,12.489-35.049a8.75,8.75,0,0,0,.971-3.725c.6-5.886-1.537-1.963-5.376,8.478-1.773,6.086-4.252,12.737-4.737,14.6-1.75,3.857-9.789,29.7-11.562,35.781C98.549,525.04,101.3,522.348,103.314,515.331Zm11.73-13.562c1.044-3.292,2.964-8.513,3.935-12.237,3.376-10.808,7.458-22.181,21.918-59.789,3.912-10.009,7.119-19.454,7.362-20.384s1.971-2.56,3.456-3.257c2.265-.83,3.846-3.324,6.325-9.975,10.473-28.032,18.446-47.184,21.946-54.9,2.457-4.421,4.06-9.144,3.987-9.576-.147-.865.728-2.794,2.456-4.423,1.339-1.562,3.405-5.917,4.449-9.21.582-3.658,2.016-7.017,2.722-7.581a3.647,3.647,0,0,0,1.118-2.86c-.074-.433,1.6-4.722,3.67-9.078a63.008,63.008,0,0,0,6.369-14.431,43.952,43.952,0,0,1,3.6-9.51c.559-1.43,1.75-3.857,2.625-5.786,1.361-3.791,13.106-26.7,27.211-52.235,13.643-25.9,32.6-53.594,43.6-64.363,5.185-4.885.971-3.724-4.919,1.727a50.535,50.535,0,0,1-6.354,5.084c-.78.132-1.2-4.691-.25-6.187.317-.5.39-.066.147.865-.8,2.361-.1,1.8,5.479-3.156,2.824-2.26,5.964-5.018,7.06-5.65,2.581-1.328,2.6-3.556-.515-3.027-5.066.862-21.422,17.88-19.738,20.708.684,1.664-2.067,4.356-4.162,3.822-1.706-.6-27.417,41.591-35.441,58.083-3.574,7.282-6.979,13.2-7.369,13.266s-2.53,3.99-4.6,8.346c-1.677,4.289-8.436,18.786-14.563,32.286-6.758,14.5-10.744,24.074-9.818,24.806.61,1.231.221,1.3-.632,1-.464-.365-1.875.765-2.435,2.194-.875,1.929-3.111,7.648-5.493,12.5-2.31,5.287-3.281,9.011-2.575,8.446,1.1-.631,1.949-.331,2.169.967a1.8,1.8,0,0,1-1.265,1.994c-.779.133-1.875.764-2.264.83-2.265.83-5.354,6.25-8.73,17.058-3.766,10.873-11.665,30.459-13.8,34.382a4.621,4.621,0,0,1-3.14,2.759c-1.949.331-7.494,10.172-7.127,12.334.221,1.3-10.326,28.9-11.1,29.03-1.559.265-6.686,14.929-7.605,21.315-1.5,10.044,1.323,7.784,4.236-3.39,3.229-11.672,4.979-15.529,5.979-14.364.463.366-.993,5.953-3.082,12.537-2.552,6.218-7.289,20.817-11.055,31.691-3.692,11.306-6.972,20.317-7.288,20.816-.78.133-1.022,1.064-.876,1.929s-1.309,6.452-3.155,12.105a79.071,79.071,0,0,0-2.986,10.741c.147.865,1.632.168,3.044-.963a49.327,49.327,0,0,0,3.258-6.782C111.933,509.417,113.926,504.628,115.044,501.769Zm7.913-5.349c5.2-14.233,5.8-20.12,1.721-8.747-2.868,6.717-8.892,25.539-8.672,26.836s1.949-.331,2.361-2.626C118.61,510.952,120.625,503.935,122.957,496.42Zm96.6-19.089c17.17-5.143,40.628-8.685,47.378-6.718,2.559.9,5.044,1.368,4.971.935,0,0,1.487-24.28,3.261-53.948,1.848-29.236,3.814-62.5,4.778-73.339,1.612-21.187,4.527-55.943,6.573-81.653.942-8.614,1.1-17.095.737-19.257-.662-3.893.472-16.1,2.48-30.234a201.867,201.867,0,0,0,2.391-21.319c.5-11.209-1.321-31.367-3.27-31.036-.389.067-1.338,1.563-2.287,3.059-1.507,2.925-3.7,4.188-2.97,1.394,1.191-2.427-2.971,1.4-4.722,5.252l-1.9,2.992,2.361-2.626c.948-1.5,2.36-2.625,2.823-2.259.074.432-1.434,3.358-3.721,6.417-2.677,3.124-5.913,7.679-7.567,9.74-1.265,2-2.6,3.557-3.067,3.191-1.559.265-4.309,2.957-4.089,4.254s-.1,1.8-.875,1.929c-1.949.331-6.692,7.811-6.251,10.406.367,2.162-1.456,5.587-2.846,4.488-.463-.365-.78.133.147.866.684,1.663.367,2.162-1.508,2.925a3.77,3.77,0,0,0-2.75,2.693c-.243.931.22,1.3,1.243.233.7-.564.463.366-.486,1.863a3.6,3.6,0,0,1-2.361,2.626c-1.316-.667-7.567,9.74-7.906,12.467-.316.5,1.1-.631,2.214-3.491,1.581-2.493,3.236-4.555,3.7-4.188.927.732-8.9,18.42-11.09,19.683a3.34,3.34,0,0,0-1.581,2.493c.147.866-1.846,5.654-4.156,10.94-16.533,34.846-17.651,37.706-38.531,87.085-4.861,11.506-8.847,21.082-8.774,21.514.221,1.3-6.391,16.66-7.56,16.858s-1.317-.666-.1-5.321a30.039,30.039,0,0,0,1.015-8.182c-.808-4.757,6.826-21.183,9.164-21.58,1.559-.265,9.363-18.055,9-20.217-.073-.433-.926-.733-2.1-.534-2.338.4-15.392,29.758-26.594,60.584-7.362,20.384-8.237,22.313-11.282,23.275-1.875.764-4.574,6.117-10.09,20.848-8,21.381-15.21,42.63-14.357,42.931.463.366,4.618-10.575,9.818-24.807,10.57-29.828,12.636-34.184,14.342-33.584.926.733,8.274-10.305,7.906-12.467-.221-1.3,4.81-14.166,5.979-14.365,1.559-.265.9,2.961-4.126,15.829-3.67,9.079-6.053,13.933-7.928,14.7-3.361,1.462-6.715,10.041-5.347,13.368.684,1.664-.457,6.752-4.053,16.262-6.075,16.161-5.443,15.163-7.708,15.993-1.169.2-1.654,2.062-1.676,4.29.492,5.256-4.392,18.989-6.414,18.888-.853-.3-1.1.631-.8,2.361.757,2.1-1.714,15.865-2.883,16.063-.39.067-1.39-1.1-1.611-2.4-.757-2.095-1.073-1.6-1.971,2.56l-1.213,4.656,3.044-.963c1.559-.264,11.325-4.149,21.48-8.1C172.556,493.33,203.242,482.774,219.56,477.331ZM138.078,462.7c.559-1.43,1.993-4.788,3.111-7.648,1.191-2.427,3.354-8.579,5.031-12.869a41.4,41.4,0,0,0,2.574-8.446c-.853-.3-8.921,20.649-10.694,26.735C137.762,463.2,137.519,464.133,138.078,462.7Zm54.241-140.924a3.818,3.818,0,0,0-.8,2.361.735.735,0,0,0,1.243.233,2.46,2.46,0,0,0,.8-2.36C193.489,321.58,193.025,321.214,192.319,321.779ZM197.6,315.1q-.364,1.4.22,1.3c.78-.132,8.414-16.558,9.775-20.348a142.5,142.5,0,0,1,5.663-13.866c5.155-9.776,7.729-18.222,6.266-19.753-.463-.367-1.191,2.426-2.162,6.152-.824,4.589-1.456,5.586-2.457,4.421s-1.389-1.1-.632,1c.221,1.3-.022,2.228-.8,2.361s-1.412,1.13-1.191,2.427-1.14,5.088-3.354,8.579a174.449,174.449,0,0,0-9.995,19.052c-4.376,9.643-5.493,12.5-4.1,13.6,1.853,1.466,3.118-.529,1.971-2.559a2.23,2.23,0,0,1,.339-2.727C197.843,314.166,198.232,314.1,197.6,315.1Zm27.639-63.875c-.39.066-1.728,1.628-2.6,3.556-.485,1.863-.655,3.226-.265,3.16s1.339-1.562,2.214-3.491S225.628,251.155,225.239,251.222Zm13.4-24.971c-2.75,2.692-13.546,24.1-11.818,22.477,1.1-.631,3.478-5.485,6.251-10.406,2.383-4.855,5.082-10.208,5.641-11.638C239.9,224.257,239.9,224.257,238.638,226.251Zm6.737-12.269c-1.581,2.494-1.191,2.428,1.022-1.063,1.581-2.494,3.236-4.554,3.089-5.42C249.266,206.2,248,208.2,245.375,213.982Zm14.187,262.779a8.907,8.907,0,0,0-3.434,1.029c-.779.133.463.366,2.022.1C260.1,477.56,260.415,477.061,259.562,476.761ZM281,628.85c-.645-36.821,1.051-97.623,3.068-128.222.361-4.956-.1-5.322-3.926-4.227-2.265.829-2.581,1.328-1.846,5.653,1.4,8.217,1.234,16.7-.325,16.963s-2.641,15.132-2.554,29.8c.352,11.509-.135,36.953-.974,50.89-.913,13.5-.788,16.6.917,17.2,2.1.534,3.221,4.792,2.1,7.652-1.191,2.427-1.191,2.427-1.853-1.465-.441-2.6-1.051-3.826-1.367-3.327-1.265,1.994-.958,17.96.858,31,1.323,7.784,2.058,12.108,2.08,9.879-.272-3.958,1.067-5.52,2.361-2.625.536.8,1.125,4.258,1.4,8.217a41.583,41.583,0,0,0,2.154,10.312c.83,2.528,1.1-.631-.352-11.509C282.124,656.691,281.037,640.857,281,628.85Zm-4.47-113.592c.22,1.3.537.8,1.1-.631a21.206,21.206,0,0,0,.044-4.458c-.22-1.3-.537-.8-.706.566A25.633,25.633,0,0,0,276.531,515.258Zm3.769-58.039a20.362,20.362,0,0,0-.75,5.022c.294,1.73-.508,4.09-1.067,5.52a5.759,5.759,0,0,0-1.434,3.359c.294,1.73,6.955,12.611,7.735,12.479.39-.067.75-5.023.89-11.276.214-5.821.178-17.828.73-26.376.626-8.115.929-22.85,1.334-32.263s1.149-21.553,1.826-27.007c1.133-12.206,3.172-45.035,2.709-45.4s-.971,3.724-1.648,9.178c-.75,5.023-1.817,10.543-2.692,12.472a11.612,11.612,0,0,0-1.14,5.088c.22,1.3-.428,11.641-1.708,22.983s-1.928,21.685-1.708,22.982a11.554,11.554,0,0,1-.75,5.022c-1.434,3.359-2.281,10.177-1.884,17.228.125,3.094-.14,6.254-.846,6.819s-.559,1.429.051,2.66a2.515,2.515,0,0,1-.655,3.226c-1.022,1.064-.875,1.929.272,3.959C280.323,454.99,280.616,456.72,280.3,457.219Zm11.1,96c-1.853-1.466-2.14,3.922-1.1,17.1a9.376,9.376,0,0,1-.265,3.16c-.706.564-.434,4.523-.089,8.914.4,7.052-.207,12.938-1.766,13.2-.389.066-.441-2.595-.882-5.189.192-3.592-.029-4.889-1.125-4.259-.632,1-.779.133-1-1.164.169-1.364.8-2.361,1.655-2.061,1.559-.265,1.192-2.427-.441-2.594-.463-.367-.735-4.325-.374-9.281.449-13.87.714-17.029-.455-16.831s-1.169.2-1.244,23.349c.058,9.779.189,19.99-.223,22.285-1.3,20.689.937,62.134,4.142,76.272,2.4,9.381,6.183,19.862,7.2,18.8-.073-.433-1.2-4.691-2.786-9.315-1.956-6.787-2.691-11.112-2.992-19.96-.323-6.62-1.182-14.038-1.623-16.632-.515-3.027-.567-5.689.14-6.254.316-.5.852.3,1.147,2.03.882,5.189,1.316.667,1.493-17.162.332-9.845.775-30.833,1-46S291.867,553.586,291.4,553.221Zm9.374-183.134c-.367-2.162-2.235,5.72-1.794,8.314.22,1.3.124,3.094-.581,3.659a31.023,31.023,0,0,0-.751,5.022A75.67,75.67,0,0,1,297,397.426c-.53,6.319-1.1,24.214-1.113,33.56-.022,2.229-.581,3.658-1.044,3.293-1.706-.6-1.882-6.355-1.145-25.613,1.244-23.349,1-22.418.126-20.489-1.265,1.994-2.736,16.928-2.193,24.844a50.051,50.051,0,0,1-.8,9.48,55.873,55.873,0,0,0-.478,8.98c.051,2.661.543,7.917.815,11.875.007,7.118,2.176,8.084,2.559.9a7.248,7.248,0,0,1,.824-4.589c1.338-1.563,1.316.666.786,6.985a28.387,28.387,0,0,0-.552,8.548c-.022,2.228-.581,3.658-2.53,3.989-2.655.9-4.839,9.277-3.156,12.106.537.8.2,3.525-.919,6.385a24.225,24.225,0,0,0-.8,9.479c.515,3.028.566,5.688.25,6.187-.706.565-.677,5.455-.112,11.143.544,7.917.911,10.079,2.081,9.88,1.559-.265,2.463,2.7,1.933,9.015.2,3.526-.191,3.592-1.022,1.064-.684-1.663-1.61-2.4-2.633-1.332a1.878,1.878,0,0,0-.728,2.793c.537.8.684,1.663-.243.932q-1.168.2-.507,4.091a28.767,28.767,0,0,1-.722,9.911q-2.8,11.823-.574,10.776c.706-.565,1.434-3.358,1.7-6.518.14-6.253,2.325-14.633,3.251-13.9.39-.066.662,3.892.228,8.416-.405,9.412-.111,11.142,1.448,10.877.779-.133,1.28-11.341,2.584-48.494.6-13,1.451-36.288,3-67.253.214-5.82.811-18.826,1.532-28.737C300.4,384.39,301,371.385,300.778,370.087Zm-9.447,81.252c-.463-.366-.39.067-.243.931.074.433-.632,1-1.1.632-.853-.3-1.022,1.063-.655,3.225l.515,3.028,1.045-3.293C291.7,453.5,291.794,451.705,291.331,451.339Zm3.617-89.6c.294,1.729-.214,5.82-.942,8.614a23.481,23.481,0,0,0-.626,8.115c.566,5.688,2.1.533,2.913-11.174.53-6.319.744-12.14.523-13.437C296.3,350.826,294.36,358.275,294.948,361.735Zm2.222-19.956a7.811,7.811,0,0,0,.434-4.523c-1.051-3.826-1.051-3.826-1.316-.666Q295.637,343.375,297.17,341.779Zm-.022,2.229c-.463-.366-.706.564-.485,1.862.61,1.231.683,1.663.926.732A3.025,3.025,0,0,0,297.148,344.008Zm.28-12.506c.706-.566,1.118-2.86,1.14-5.089-.051-2.661-.124-3.093-.683-1.664C296.84,328.041,296.553,333.43,297.428,331.5Zm1.6-11.84a9.16,9.16,0,0,0,.434-4.524c-.368-2.162-.368-2.162-1.316-.666a17.124,17.124,0,0,0-.045,4.457C298.466,321.091,298.466,321.091,299.025,319.662Zm.038-11.576c.61,1.231,1,1.165,1.485-.7a21.2,21.2,0,0,0,.044-4.457.9.9,0,0,0-1-1.165C298.423,301.966,297.916,306.057,299.063,308.086Zm5.459-48.092c-.61-1.231-2.4,7.083-2.935,13.4-.265,3.16-1.111,9.977-1.861,15-1.185,9.544-1.281,11.341.6,10.577.7-.565,2.037-9.245,2.759-19.156C304.117,269.406,305.059,260.792,304.522,259.994Zm-3.846,104.772c-.39.065-.706.564-.486,1.862.684,1.663.684,1.663.927.732A3.065,3.065,0,0,0,300.676,364.766Zm3.1-45.467c-.632,1-1.14,5.088-1.258,9.113-.508,4.09-.986,13.071-1.516,19.39-.817,11.708-.715,17.029.234,15.533.316-.5.846-6.818,1.3-13.569.382-7.184,1.082-14.868,1.1-17.1-.052-2.661.53-6.319.626-8.115C305.091,319.965,304.65,317.371,303.775,319.3Zm1.664-18.526c-.927-.733-1.7,6.518-1.185,9.545.22,1.3.853.3,1.434-3.358C305.953,303.8,305.9,301.139,305.439,300.773Zm-.987,13.072c-.463-.367-.316.5-.1,1.8s.294,1.73.464.366A2.138,2.138,0,0,0,304.452,313.845Zm3.525-33.526c-.927-.733-2.788,14.268-2.347,16.863.294,1.729.949-1.5,1.625-6.952A59.264,59.264,0,0,0,307.977,280.319Z"/><path class="cls-2" d="M618.04,455.434c-.044,4.457-.993,5.953-4.523,8.778-2.508,1.761-5.089,3.089-5.942,2.789s-1.977-4.558-2.86-9.747c-1.322-7.784-1.933-9.016-4.1-9.983-6.434-2.465-26.281,5.8-41.96,17.367-7.133,5.216-15.384,13.293-15.09,15.023.588,3.46-3.944,28.7-8.725,47.757-5.192,21.351-18.189,60.49-24.316,73.991-1.676,4.289-7.317,15.927-12.473,25.7-14.128,27.762-24.541,41.991-37.469,50.863-9.641,6.979-17.678,9.234-28.01,7.431-8.625-1.2-15.132-4.1-18.279-8.462a68.508,68.508,0,0,0-7.633-7.157c-5.1-4.028-5.706-5.26-5.514-8.852-.051-2.661-.809-4.757-1.735-5.489-1.463-1.532-1.611-2.4-.588-3.46.559-1.43.338-2.727-1.125-4.259a9.34,9.34,0,0,1-1.838-10.811c1.192-2.427,1.192-2.427,1.294,2.895.419,4.823.493,5.255,1.758,3.261a7.041,7.041,0,0,0,.75-5.022c-.221-1.3.339-2.727.728-2.794,1.17-.2,2,2.33,2.419,7.153.786,6.986,2.345,6.721,5.773-1.426,6.781-16.725,18.43-37.839,34.484-63.7,25.226-40.328,45.1-67.29,65.548-88.562C520.878,475.952,520,477.881,521.2,451.871c.957-17.96-.74-35.025-3.909-37.156a6.959,6.959,0,0,1-2.147-3.195c-1.25-7.352-7.786-15.14-12.073-14.411-5.457.927-18.407,12.028-28.335,24.394-9.611,11.867-23.548,36.038-22.96,39.5.294,1.73-4.472,11.439-5.4,10.706-.074-.432-.39.066-.243.932s-2.89,8.944-6.56,18.023c-20.417,49.745-28.935,84.564-26.282,107.25.691,8.782-.133,13.371-3.082,12.537a2.736,2.736,0,0,0-2.118,1.7c-1.508,2.926-5.773,1.426-13.037-3.569l-6.412-4.694-3.132-13.706c-2.227-10.745-3.329-17.232-3.314-26.578-.631-22.586.983-67.355,3.463-97.588a90.437,90.437,0,0,0,.105-18.261,13.526,13.526,0,0,1,.7-7.683c.948-1.5,2.015-7.017,2.692-12.471,2.509-25.344,10.02-68.446,14.051-82.479.728-2.794,4.031-14.034,6.944-25.207,6.943-25.208,7.988-28.5,16.129-49.017,5.906-14.8,18.644-43.659,22.851-51.938.875-1.929,3.964-7.348,6.663-12.7,19.843-38.969,42.391-76.173,46.678-76.9,2.728-.464,5.236-2.225,5.015-3.522a1.416,1.416,0,0,0-1.779-1.033c-3.9.662-1.757-3.26,5.229-9.342,8.008-7.146,13.56-9.869,21.355-11.194,4.213-1.161,6.309-.628,10.868,2.6,8.508,5.228,10.728,8.856,11.639,18.935,1.183,14.037-2.429,32.893-13.19,66.314-10.834,32.988-23.837,65.01-53.351,129.65-25.866,57.789-49.724,101.445-66.27,122.055-3.383,3.69-6.156,8.61-5.935,9.908-.1,1.8-1.185,9.545-1.884,17.228-.625,8.115-1.155,14.435-1.155,14.435.389-.066,2.14-3.923,4.059-9.144A169.783,169.783,0,0,1,428.426,453.4c.875-1.928,2.625-5.786,4.449-9.21,12.01-26.069,31.064-48.44,48.184-56.244,7.11-2.989,23.774-4.041,28.649-1.31a55.331,55.331,0,0,0,7.823,3.565c6.361,2.033,13.993,9.191,18.581,17.31,3.368,5.657,3.882,8.684,7.065,25.051l3.16,18.6,6.5-4.22c21.061-12.923,38.673-15.472,54-7.844C615.666,443.824,618.739,447.751,618.04,455.434Zm-221.308.238c-1.485.7-2.044,2.128-1.53,5.155-.022,2.228.1,5.322-.383,7.184a73.038,73.038,0,0,1-1.552,7.383c-.9,4.157-1.494,17.162-2.613,43.6-.479,8.98-.5,34.792-.282,36.089.294,1.73,3.4-13.036,3.663-16.195-.227-8.416,1.2-42.475,1.709-46.566.412-2.3,1.038-10.411,1.421-17.6.7-7.682,1.008-15.3,1.178-16.662C398.681,455.341,398.218,454.975,396.732,455.672Zm1.452,65.161c-.442-2.594-.831-2.528-1.243-.233a60.665,60.665,0,0,0-.53,6.318l-.118,4.026,1.361-3.791A17.657,17.657,0,0,0,398.184,520.833Zm-.951-76.37c1.463,1.532,3.236-4.554,4.443-16.328.993-5.953,2.178-15.5,3.171-21.451,1.066-5.521,2.155-13.271,2.737-16.929,1.4-8.247,2.641-15.132,9.511-40.772,2.839-11.606,5.119-21.782,5.045-22.215s11.732-37.145,16.13-49.016c.8-2.361,3.06-10.309,4.686-17.26a242.044,242.044,0,0,1,10.326-28.9c9.8-22.579,6.634-17.591-5.376,8.477-9.068,19.784-12.738,28.862-24.013,59.255-3.523,9.943-14.13,51.346-18.933,72.63-2.354,9.744-2.884,16.063-2.2,17.727s.441,2.595.051,2.661c-.779.132-1.022,1.064-.412,2.3.537.8.029,4.89-1.258,9.113-2.575,8.447-3.34,22.815-1.973,26.142a5.5,5.5,0,0,1-.265,3.16C397.028,433.819,396.16,442.866,397.233,444.463Zm-.268-51.123c.368,2.162,1.581-2.493,2.648-8.014a36.14,36.14,0,0,1,1.331-8.681c.728-2.793,7.158-31.028,7.665-35.119.486-1.862.265-3.159-.125-3.093C406.925,338.7,396.3,389.448,396.965,393.34Zm1.182,115.485c-.293-1.729-.683-1.663-.632,1-.508,4.091.08,7.55.735,4.325A28.85,28.85,0,0,0,398.147,508.825Zm.038-11.574c-.463-.367-.316.5-.1,1.8s.3,1.73.537.8Q398.88,497.8,398.185,497.251ZM399,485.543a29.557,29.557,0,0,0-.53,6.319c.051,2.661.2,3.527.831,2.529a48.641,48.641,0,0,0,.456-6.751C400.1,484.912,399.561,484.113,399,485.543Zm1.936-14.567c-.441-2.6-.441-2.6-.854-.3-.169,1.363-.434,4.523-.53,6.319l-.117,4.024,1.044-3.291A20.033,20.033,0,0,0,400.938,470.976Zm1.14-5.088-1.39-1.1c-.39.066-.633,1-.559,1.43a1.328,1.328,0,0,0,1.39,1.1C402.3,467.185,402.614,466.686,402.078,465.888Zm2.406-30.666c.949-1.5,2.479-6.651,3.156-12.1,2.494-16,4.627-27.039,9.622-51.915,4.436-23.446,5.937-33.49,4.039-30.5-.632,1-3.06,10.309-5.193,21.351-2.6,10.674-4.73,21.716-5.384,24.942a127.853,127.853,0,0,0-2.229,12.837c-.9,4.157-1.332,8.681-1.817,10.543-.56,1.43-1.237,6.884-1.913,12.339-.751,5.022-1.038,10.41-1.523,12.272C402.83,437.283,403.22,437.217,404.484,435.222Zm6.575-105.236c.706-.565,1.507-2.926,2.309-5.287.486-1.862.9-4.157.508-4.09-.463-.367-1.265,1.994-2.383,4.854C410.765,328.256,410.743,330.485,411.059,329.986Zm27.212,329.977c7.133-5.217,19.4-17.98,24.29-24.595,6.009-9.476,19.82-36.74,25.653-51.97,3.427-8.148,6.612-15.362,7.244-16.36,1.412-1.129,2.632,1.333,1.368,3.328-.706.564-1.265,1.994-.729,2.793.588,3.459,16.034-47.221,17.874-59.992.654-3.226-.736-4.324-1.853-1.465-.243.932-5.913,7.68-11.826,15.358-14.576,18.051-54.421,80.887-65.46,103.231-8.656,17.489-14.879,32.786-14.437,35.38S431.844,664.616,438.271,659.963Zm48.6-464.333c-8.074,13.832-18.165,34.679-31.778,65.47-7.8,17.79-8.606,20.15-6.877,18.521,2.044-2.126,1.463,1.532-1.4,8.249-4.134,8.711-12.872,42.232-12.358,45.259a9.829,9.829,0,0,1-.75,5.023c-1.191,2.427-4.126,15.829-5.819,29.466-1.5,10.044-5.642,35.22-6.466,39.809-.751,5.022,2.169.966,11.362-15.724,5.155-9.776,12.451-23.474,16.025-30.756s7.222-14.131,8.171-15.627c.633-1,1.9-2.992,2.53-3.99.8-2.361,18.548-41.863,23.388-51.14,1.434-3.358,4.059-9.143,5.736-13.433,1.75-3.857,6.37-14.43,10.187-22.644,8.119-18.287,23.064-57.759,27.337-72.723.728-2.793,3.134-9.877,4.906-15.963,5.171-19.121,7.57-33.323,6.636-41.173-.86-7.418-.86-7.418-3.294-5.224-8.082,6.713-18.275,22.238-33.182,50.134C497.083,177.876,490.272,189.712,486.867,195.63ZM513.352,528.4c-4.928,18.19-10.783,35.648-12.754,38.208a10.717,10.717,0,0,0-1.287,4.223c-.486,1.863-1.677,4.29-3.162,4.988s-1.729,1.628-.876,1.928c1.706.6.588,3.46-7.237,23.478-2.8,7.149-6.612,15.362-7.8,17.789-3.722,6.417-6.421,11.771-6.347,12.2.441,2.6-17.2,23.836-24.82,30.915-7.376,6.148-18.333,12.46-20.113,11.427-.926-.731-1.242-.233-1.411,1.13-.508,4.091,7.8,5.794,14.206,3.37a27.031,27.031,0,0,1,5.773-1.426l2.728-.464-2.949-.834c-2.875-.4-2.559-.9,4.111-6.482a51.805,51.805,0,0,1,7.913-5.35c.389-.066,1.728-1.628,2.993-3.623.948-1.5,4.5-6.55,7.347-11.037,9.876-15.028,19.091-33.947,27.233-54.463,1.92-5.221,3.6-9.511,3.913-10.01a1.822,1.822,0,0,1,1.243.234c.853.3.272,3.958-2.038,9.246-1.919,5.22-3.67,9.077-3.6,9.51.368,2.161,9.216-18.92,11.79-27.366,1.53-5.154,3.133-9.876,3.45-10.375,1.118-2.86,1.383-6.02.213-5.822-.39.067-1.338,1.563-1.507,2.927-.486,1.862-1.192,2.427-1.339,1.562-.514-3.027-1.853-1.465-4.721,5.252-4.376,9.643-4.184,6.051.456-6.751,3.935-12.238,14.571-48.752,15.491-55.137C521.487,500.766,518.765,508.348,513.352,528.4Zm-65.9-257.993a148.332,148.332,0,0,1,6.516-13.566c.243-.932.485-1.863.1-1.8-.78.133-12.474,25.7-12.327,26.568C441.807,282.045,444.189,277.191,447.448,270.408Zm9.566,398.383c-1-1.164-4.846,2.159-4.625,3.456s1,1.165,3.434-1.029C456.918,670.588,457.478,669.157,457.014,668.791Zm3.245-426.814c.559-1.429.1-1.8-.61-1.23a3.551,3.551,0,0,0-.412,2.294C459.531,244.771,460.237,244.206,460.259,241.977Zm.748,424.356c-1.8,1.2-2.044,2.127-.485,1.862a2.156,2.156,0,0,0,1.728-1.628C462.566,666.068,462.1,665.7,461.007,666.333Zm7.376-6.148c-.073-.433-1.169.2-2.507,1.761-3.141,2.758-2.994,3.623.22,1.3C467.508,662.113,468.53,661.05,468.383,660.185Zm55.138-121.5c-1.265,2-9.3,27.833-9.01,29.563.073.433-.559,1.431-1.655,2.062-.78.132-1.338,1.561-1.191,2.427.22,1.3-.022,2.228-.8,2.361s-1.1.631-.559,1.429c.147.865-.581,3.659-2.162,6.153-1.9,2.992-2.942,6.283-2.8,7.148.221,1.3-.9,4.157-2.405,7.083-1.97,2.56-3.478,5.486-3.4,5.919.147.865-.729,2.793-2.14,3.923-1.339,1.563-2.435,2.194-1.8,1.2.316-.5.169-1.363-.221-1.3-.779.133-3.184,7.216-2.817,9.378a25.669,25.669,0,0,1-1.772,6.085,21.134,21.134,0,0,0-2.31,5.287c.515,3.027-3.67,9.078-6.008,9.475-1.169.2-1.875.764-1.8,1.2.294,1.73-4.06,9.144-5.3,8.909q-1.17.2-.949,1.5c.147.865-.971,3.724-2.552,6.218l-2.773,4.921,2.677-3.125c1.655-2.061,5.913-7.68,9.465-12.732,11.458-17.521,30.69-57.721,28.859-61.413a2.164,2.164,0,0,1,1.265-2,2.879,2.879,0,0,0,1.191-2.427,7.043,7.043,0,0,1,1.6-4.722C517.334,565.989,525.881,536.059,523.521,538.686Zm-17.386,34.547c.779-.132.683,1.663.271,3.957-.875,1.93-1.75,3.858-2.14,3.925a6.794,6.794,0,0,0-2.581,1.327c-1.1.632-1.948.332-2.022-.1C499.369,580.612,504.576,573.5,506.135,573.233Zm2.726,23.118c-.853-.3-1.169.2-1.338,1.562-.486,1.863-.1,1.8.926.733A3.661,3.661,0,0,0,508.861,596.351Zm5.754-46.363c-.074-.432-1.1.632-1.971,2.56s-1.287,4.223-.824,4.59C512.82,558.3,515.056,552.584,514.615,549.988Zm1.7-6.517a11.765,11.765,0,0,0,.9-4.158c-.463-.366-.948,1.5-1.75,3.858C514.078,549.19,514.858,549.058,516.314,543.471Z"/><path class="cls-2" d="M702.178,367.717c.074.432,2.831,4.858,5.735,10.149,6.419,11.813,9.816,22.359,11.145,37.261,1.3,10.013,1.11,13.605-1.171,23.781-3.1,14.767-10.665,31.625-19.74,44.291-8.442,11.668-14.406,16.687-24.414,21.5-4.846,2.158-9.935,5.247-11.421,5.945-3.213,2.326-7.5,3.055-14.493,2.018-6.141-.736-17.648-9.459-17.993-13.85-.147-.865-2.147-3.194-4.537-5.458-9.169-9.12-16.24-41.289-13.555-60.879,3.848-26.905,16.145-58.362,32.324-81.135l6.156-8.61-3.463-3.861c-1.927-1.9-3.147-4.359-2.831-4.858.485-1.863,7.331-1.692,11.67.241,3.485,1.632,4.728,1.866,7.235.105a14.741,14.741,0,0,1,13.472-.955c4.265,1.5,14.14,10.055,14.191,12.716.661,3.893,24.34,1.648,51.57-5.65a351.771,351.771,0,0,0,50.828-17.093l4.677-.795,3.117-.53c.39-.066,2.412.035,2.8-.031a3.277,3.277,0,0,1,2.022.1,1.347,1.347,0,0,1,.853.3,1.17,1.17,0,0,1,.853.3l.39-.067.926.733c-1.169.2-1.875.763-2.654.9-3.75,1.527-6.721,2.922-6.258,3.288s4.214-1.161,9.839-3.452a6749546842634.673,6749546842634.673,0,0,1,.926.732c.074.433.684,1.664,1.074,1.6a21.021,21.021,0,0,0,.757,2.1c-.537-.8.221,1.3.294,1.729s.441,2.6.515,3.028a21,21,0,0,1-.022,2.229l-.317.5c.073.432-.242.931-.169,1.363-.316.5-.316.5-.243.932l-.39.066a2.355,2.355,0,0,1-.559,1.43l-.389.066.073.432c-35.871,15.441-75.036,25.657-100.493,26.869C705.686,367.121,701.715,367.351,702.178,367.717ZM691.56,371.3c-3.611-4.727-4.463-5.026-7.971-4.43a8.076,8.076,0,0,1-4.9-.5c-.537-.8-1.78-1.034-3.023-1.267-2.338.4-4.875-2.731-4.146-5.524-.147-.865-.294-1.73-1-1.165-1.485.7-14.84,21.209-14.62,22.507a29.521,29.521,0,0,1-3.257,6.784c-4.5,6.549-15.578,40.468-18.05,54.236-3.126,17-2.326,38.217,2.019,47.266,1.367,3.328,1.757,3.262,8.383,2.136,5.456-.928,9.522-2.953,18.141-8.868,11.443-8.174,18.451-16.484,27.4-32.244C704.961,424.2,705.537,389.838,691.56,371.3Zm101.8-40.439c2.265-.83,4.456-2.093,4.772-2.592,1.023-1.063-6.868,2.058-7.89,3.121C789.532,331.957,791.091,331.692,793.356,330.863Z"/><path class="cls-2" d="M1040.386,326.252c2.888,14.638,2.844,19.095-.216,29.4a340.711,340.711,0,0,1-15.07,36.378c-2.066,4.356-5.082,10.208-6.126,13.5-1.508,2.926-6.421,11.77-11.48,19.749-4.67,7.913-9.657,16.325-11.164,19.25C993.874,448.955,983.8,460.455,978,464.11a16.368,16.368,0,0,0-4.163,3.823c-.875,1.928-10.714,5.38-16.17,6.307-1.949.332-6.066-.3-9.015-1.137-2.559-.9-5.508-1.734-5.655-2.6a4.362,4.362,0,0,0-2.559-.9c-3.507.6-13.36-10.187-17.242-18.871-5.566-11.513-7.726-28.944-6.82-49.566a71.208,71.208,0,0,0,.647-10.343c-.852-.3-21.541,45.486-29.124,64.572-4.861,11.506-7.075,15-13.428,20.081-3.457,3.257-6.038,4.586-9.156,5.116-5.067.861-11.28-.308-14.059-2.5a5.787,5.787,0,0,0-3.412-1.2,4.679,4.679,0,0,1-3.486-1.633C834.51,464.472,833,460.28,832.349,447.041c-1.049-27.409,2.747-56.975,12.817-99.177,7.209-28.367,8.5-32.591,12.342-35.914,2.434-2.194,7.184-2.557,7.478-.827.147.865,1.463,1.532,2.633,1.333s3.728.7,6.044,2.532c4.1,2.863,4.1,2.863,4.808,9.417.492,5.256-.331,9.845-2.516,18.226-1.309,6.451-2.376,11.972-2.376,11.972.073.433-1.964,9.678-4.244,19.854-2.6,10.675-6.282,29.1-8.2,41.438-3.075,19.657-3.7,27.771-3.489,45.534l-.118,4.025,1.824-3.425a67.461,67.461,0,0,1,5.839-8.112c3.942-5.12,9.487-14.961,14.5-25.6,2.067-4.355,19.115-36.174,21.5-41.029,1.022-1.063,2.456-4.421,3.258-6.783,1.264-2,5.471-10.274,9.435-17.622,11.5-21.978,12.694-24.4,15.364-34.648,9.614-35.449,13.284-44.527,18.74-45.454,1.559-.265,3.191-.1,3.728.7.147.865,1.853,1.464,3.1,1.7,2.412.035,3.338.768,5.243,4.894,2.367,4.491,2.514,5.356,1.594,11.742a34.7,34.7,0,0,1-3.082,12.537c-7.266,18.588-13.938,47.754-17.661,77.754-3.554,28.636-3.2,47.262,1.032,60.338,1.272,5.122,1.735,5.489,5,5.824,2.485.468,3.191-.1,3.824-1.095s3.14-2.758,5.4-3.589c6.331-2.855,13.634-9.436,22.687-19.874,7.324-8.808,31.285-47.142,41.522-67.125,5.156-9.775,11.282-23.275,13.371-29.859,2.552-6.218,4.4-11.872,5.1-12.436C1039.165,323.79,1039.775,325.021,1040.386,326.252Z"/><path class="cls-2" d="M1180.28,125.385c-18.866,65.945-21.537,76.188-26.458,101.5-3.3,18.358-9.07,43.367-11.813,53.177-7.5,26.637-21.151,123.287-25.022,176-.891,11.275-1.973,26.142-2.5,32.461-4.15,41.641-.949,102.945,6.513,135.049,2.4,9.381,7.256,21.458,9.278,21.56.39-.067,3.919-2.891,7.3-6.582s6.913-6.513,7.766-6.214c2.728-.464,10.4,18.7,8.742,20.763-.559,1.429-1.361,3.79-1.141,5.088.272,3.958-7.324,8.809-13.317,8.937-2.412-.035-6.6-1.1-9.552-1.936-2.633-1.332-6.581-3.331-8.824-4.73-2.706-1.765-5.265-2.664-6.044-2.532-.853-.3-5.1-4.028-9.559-9.054-13.463-15.509-19.969-41.991-23.333-94.813-2.372-35.193-1.789-62.434,2.038-110.694,8.156-107.729,26.333-206.037,60.521-325.755l-3.508.6c-.147-.865-56.409,14.927-58.6,16.189-.706.565-.317.5-65.4,18.679-54,14.962-85.757,23.92-111.282,31.817-10.692,3.152-39.628,9.85-42.819,9.948-2.875-.4-7.971-4.43-8.412-7.025-.22-1.3-.757-2.1-1.463-1.531-1.949.332-3.2-7.02-1.47-8.649a27.244,27.244,0,0,0,.971-3.724c.412-2.3.412-2.3,10.155-3.952,9.354-1.589,9.743-1.656,12.81-4.846,4.869-4.387,13.126-5.346,17.759-1.684,1.926,1.9,2.705,1.765,7.7.471,3.045-.962,16.539-4.145,29.569-7.695s26.135-6.666,28.789-7.562c2.728-.464,4.677-.795,4.751-.363s-1.413,1.13-2.971,1.4a24.4,24.4,0,0,0-5.7,1.858c-6.332,2.856,29.473-5.9,62.4-15.056,6.09-1.924,26.062-7.1,44.085-11.941s40.334-10.415,49.541-12.87c9.133-2.887,19.119-5.474,22.237-6a94.143,94.143,0,0,1,10.766-2.72l4.529-1.659c7.238-23.478,22.831-73.293,25.7-80.01,1.6-4.722,3.133-9.877,2.913-11.174-.029-4.889,4.692-10.141,9.516-10.071,5.14-.429,15.986,4.4,16.353,6.565-.242.93,1.464,1.53,3.413,1.2,6.382-.2,12.315,13.48,7.983,18.666a13.486,13.486,0,0,0-1.992,4.788c.514,3.027-5,17.758-10.084,27.966-2.942,6.285-7.413,17.723-12.3,31.456,24.965-6.467,53.754-14.03,65.3-16.882,13.1-3.117,28.23-6.133,60.578-11.631,41.7-7.088,43.261-7.353,51.35-6.948,8.478.339,18.567,3.074,20.956,5.338a13.788,13.788,0,0,1,1.978,4.558c.294,1.729.978,3.393,2.221,3.627,1.779,1.032,2.757,4.426,2.323,8.949-.265,3.16-9.076,12.666-11.487,12.631a8.662,8.662,0,0,0-3.751,1.528c-3.677,1.959-22.259,8.232-23.891,8.064-.464-.365-3.971.231-7.479.827-4.287.728-7.089.76-8.015.027a8.681,8.681,0,0,0-3.655-.269c-2.728.464-3.022-1.266.023-2.228,8.279-3.187,21.891-10.395,21.744-11.26-.22-1.3,8.4-7.211,14.8-9.635,3.677-1.96,4.309-2.957,2.6-3.557-3.339-.768-44.459,2.662-74.226,6.831-7.479.826-54.732,10.637-69.711,14.518-6.162,1.492-15.832,3.581-21.605,5.007-9.67,2.088-18.487,4.477-25.039,6.035C1184.068,112.283,1181.979,118.867,1180.28,125.385Zm-102.566.525c-.147-.866-.926-.733-1.242-.234a14.911,14.911,0,0,1-5.309,1.792c-7.722,1.758-33.856,8.424-47.592,12.538-7.648,2.19-19.509,5.541-26.378,7.6s-12.64,3.483-12.957,3.982c-.705.565,5.847-.993,25.039-6.035,6.869-2.057,19.509-5.54,27.547-7.8,8.816-2.388,19.972-5.174,25.671-7.033C1075.986,127.538,1077.861,126.775,1077.714,125.91Zm5.457-.928c-.073-.432-.537-.8-1.316-.666a.882.882,0,0,0,.294,1.73C1082.928,125.913,1083.244,125.414,1083.171,124.982Zm68.451,18.178a51.366,51.366,0,0,1-4.523,8.777c-3.162,4.988-16.321,52.609-16.535,58.429.368,2.163-.191,3.593-.97,3.725-.39.067-.633,1-.412,2.295.441,2.594-2.4,14.2-8.055,35.185-1.846,5.653-2.986,10.741-2.839,11.607s-.9,4.156-2.258,7.947c-3.207,9.444-12.947,65.383-17.928,104.5-2.127,18.159-4.768,33.292-5.621,32.991-.779.133-2.3,12.4-3.627,28.2-2.649,31.6-2.915,34.756-.893,34.857,1.56-.265.493,5.257-.846,6.818-.706.566-1.478,7.816-2.1,15.932-.184,10.709-.229,15.167,1.382,17.563,2.293,4.059,2.051,4.991.345,4.39-2.875-.4.76,56.38,3.767,66.993,1.125,4.258,2.911,12.408,3.867,18.031,2.771,18.661,3.028,8.384.921-29.969-1.241-23.816-1.578-44.672-1.15-56.313.648-10.344.928-22.85,1.215-28.239-.1-5.321.692-14.8,1.222-21.119.92-6.386,1.884-17.229,2.656-24.48.383-7.184,1.59-18.958,2.51-25.343.456-6.752,1.082-14.867,1.421-17.6.265-3.159.7-7.682,1.037-10.409,2.156-13.271,4.768-33.293,4.863-35.088-.051-2.661,8.718-54.876,14.486-87,4.1-20.719,20.184-88.861,26.958-112.7C1154.226,139.6,1154.564,136.875,1151.622,143.16Zm-63.142-19.971a.9.9,0,0,0-.926-.732,2.875,2.875,0,0,0-1.8,1.2c-.316.5.147.865,1.316.667C1087.848,124.187,1088.554,123.622,1088.48,123.189Zm35.8,163.442c-3.053,17.427-3.634,21.085-1.855,22.117,1.853,1.466,1.927,1.9-.1,1.8-1.559.265-3.089,5.42-5.8,20.119a779.11,779.11,0,0,0-10.808,85.043c-.846,6.818-2.245,22.184-3.378,34.39-1.207,11.774-2.384,28.437-2.62,36.487-.163,8.481-.517,20.555-.583,27.24a159.617,159.617,0,0,0,.167,22.219c.94,14.97,2.441,4.926,2.2-17.726.229-15.168.59-20.123,2.318-21.752,2.044-2.128,1.971-2.56-.029-4.89s-2.147-3.195-.544-7.916a29.739,29.739,0,0,0,1.428-10.477c-.346-4.391.743-12.14,3.687-42.007.581-3.658.383-7.184-.08-7.55-.853-.3-1.147-2.03-1.052-3.826.486-1.863,1.508-2.926,2.361-2.626,1.779,1.032,2.722-7.582,2.487-23.115-.051-2.661.457-6.752,1.332-8.681s1.964-9.677,2.736-16.928c1.811-17.66,3.893-31.363,5.739-37.016a47.965,47.965,0,0,0,1.67-11.408c-.272-3.958.383-7.184,1.015-8.181.316-.5,1.14-5.089,1.112-9.978.287-5.388.942-8.615,1.868-7.882s.853.3.169-1.363c-.978-3.393.839-13.936,3.2-16.563,1.022-1.063,1.456-5.586,1.354-10.909-.492-5.255-.375-9.28.405-9.412s1.655-2.061,2.067-4.356c.022-2.229.824-4.59,1.287-4.223,1.169-.2,3.494-14.832,3.149-19.223C1138.858,221.415,1130.363,254.006,1124.279,286.631Zm-22.452-167.489c-1.169.2-2.265.83-2.192,1.262.147.864,1.317.666,3.118-.53C1104.239,119.177,1103.775,118.81,1101.827,119.142Zm-1.172,429.575c-.536-.8-.779.133-.8,2.362.293,1.73.757,2.1.926.731S1101.118,549.083,1100.655,548.717Zm1.925,25.48c-.978-3.393-.779.133.352,11.509,2.087,17,3.557,25.647,4.506,24.151.39-.066-.4-7.051-2.109-14.769-1.25-7.353-2.036-14.337-1.794-15.27C1104.168,578.822,1103.727,576.227,1102.58,574.2Zm27.4-461.621c-.073-.432-24.259,5.9-24.965,6.468-.316.5,2.022.1,5.067-.861,3.118-.53,8.89-1.956,12.714-3.051C1127.013,113.971,1130.057,113.009,1129.983,112.576ZM1225,88.863c1.875-.763,3.044-.962,2.728-.464s1.316.667,3.654.269c3.9-.662,3.9-.662,1.1-.631s-3.191.1-1.39-1.1a30.189,30.189,0,0,1,7.552-.393c5.6-.063,10.207-1.29,12.325-2.985,1.1-.631,14.126-4.181,18.023-4.843,1.169-.2,1.949-.331,1.875-.764-.22-1.3-8.015.027-19.876,3.378-4.993,1.294-12.714,3.051-16.928,4.212C1224,87.7,1222.83,87.9,1221.807,88.961,1221.491,89.459,1223.05,89.194,1225,88.863Zm51.71-11.9c1.948-.331,4.36-.3,4.676-.8.78-.132,7.721-1.756,15.516-3.081,7.721-1.758,14.273-3.316,14.663-3.382.632-1-33.2,5.2-36.245,6.16C1272.664,76.757,1272.738,77.19,1276.709,76.959Zm38.752-7.921c.464.366,2.8-.031,5.92-.562,2.728-.463,4.75-.361,4.824.071s1.243.234,2.022.1c1.559-.265,1.559-.265.706-.565-1.706-.6-1.706-.6-.221-1.3a32.952,32.952,0,0,0-6.309.627C1318.116,68.142,1315,68.672,1315.461,69.038Zm22.9-2.112c3.044-.962,5.846-.993,6.309-.628s3.265.336,5.994-.128c5.845-.993,20.949-1.781,25.067-1.146,4.508.569,6.773-.261,2.655-.9-10.868-2.6-33.988-1.787-42.657,1.466C1330.808,67.32,1332.514,67.92,1338.36,66.926Z"/></g></g></g></svg>