<svg xmlns="http://www.w3.org/2000/svg" width="216.901" height="74.635" viewBox="0 0 216.901 74.635"><defs><style>.cls-1{fill:#1b333f;}</style></defs><g id="レイヤー_2" data-name="レイヤー 2"><g id="レイヤー_1-2" data-name="レイヤー 1"><g id="レイヤー_2-2" data-name="レイヤー 2"><path class="cls-1" d="M7.829,70.62a7.551,7.551,0,0,1-5.407-3.051c-.225-.3-.45-.6-.541-.7a8.393,8.393,0,0,1-1.307-2.6,11.72,11.72,0,0,1-.54-3.4c-.045-1.151-.045-2.55,0-3.1a54.966,54.966,0,0,1,1.307-6.55c.225-.8.585-2.15.766-2.9a17.7,17.7,0,0,1,.811-2.65c2.793-7,2.884-7.2,4.37-10,.181-.3.586-1.151.992-1.951.72-1.3,1.036-1.8,1.126-1.65a5.411,5.411,0,0,1-.5,1.2c-1.036,2.151-1.351,2.95-1.306,3.151.136.3-.226,1.049-.45,1.049a.206.206,0,0,0-.181.151c0,.1.09.1.181.05.134-.1.134-.05,0,.1-.045.1-.136.25-.091.3a6.427,6.427,0,0,1-.947,1.9c-.089,0-.224.151-.314.4-.226.5-.091.55.135,0,.09-.2.135-.3.179-.2,0,.1-.585,1.7-1.351,3.6a63.774,63.774,0,0,0-3.019,9.7,34.041,34.041,0,0,0-.811,6.2,10.6,10.6,0,0,0,.541-2.85c.045-.15.135-.3.27-.3s.135-.1.09-.5c-.135-.4-.09-.5.045-.5s.226-.05.226-.149c0-.051.09-.1.18-.051.135.051.18,0,.18-.25,0-.149-.045-.3-.09-.25-.045.1-.18.051-.27-.05-.361-.349.72-4.6,2.523-9.6.541-1.5,1.217-3.35,1.532-4.05.27-.75.766-1.9,1.081-2.6.541-1.349,1.443-3.3,1.983-4.3.136-.35.36-.75.451-.95a5.553,5.553,0,0,1,.405-1,2.232,2.232,0,0,0,.226-.85c0-.55,2.432-4.651,3.649-6.1a22.129,22.129,0,0,1,2.479-2.8c.315-.049.27.4,0,.55a4.252,4.252,0,0,0-1.307,1.851c-.091.25-.225.5-.361.5-.09,0-.18.15-.18.3a.481.481,0,0,1-.135.35c-.225,0-.946,1.05-.856,1.2.045.1,0,.15-.09.15-.136.05-.226.1-.226.15v.3a2.013,2.013,0,0,1-.36.5c-.181.2-.27.45-.225.5.044.1-.045.2-.181.3s-.27.25-.225.4c0,.1-.045.2-.091.2a5,5,0,0,0-.945,1.7,2.592,2.592,0,0,1-.27.4.843.843,0,0,0-.181.6c.045.15.27-.2.812-1.2.45-.8,1.125-2,1.531-2.65s1.037-1.65,1.4-2.25.9-1.4,1.126-1.8a1.568,1.568,0,0,0,.406-.85c-.045-.05-.045-.1.045-.05a5.122,5.122,0,0,0,1.217-1.45,116.275,116.275,0,0,1,9.1-10.951,3.83,3.83,0,0,0,.81-1,2.4,2.4,0,0,1,.541-.75c.316-.25.5-.549.451-.6s.225-.4.585-.8c.316-.4.5-.65.361-.6-.135.1-.676.75-1.261,1.4a9.763,9.763,0,0,1-1.127,1.2c-.09,0-.27.149-.45.35-.36.4-1.532,1.6-2.253,2.3-.315.3-.946,1-1.442,1.6a12,12,0,0,1-1.217,1.4c-.135.2-.406.6-.54.85-.091.25-.316.45-.451.45s-.18-.05-.135-.15a20.129,20.129,0,0,1,2.253-3.1c.72-.85,1.126-1.45.946-1.3-.226.2-1.622,1.85-3.154,3.75-2.118,2.6-2.749,3.451-2.658,3.55a.523.523,0,0,1,.089.45,11.383,11.383,0,0,1-2.478,2.9c-.18-.05-.045-.3.36-.851l.541-.849-.765.95a14.611,14.611,0,0,0-1.082,1.55c-.54,1.15-1.712,2.7-1.307,1.7.136-.3,1.577-2.7,1.8-3.05.089-.15.765-1.1,1.486-2.15A116.584,116.584,0,0,1,26.168,8.916l1.983-2.2a31.11,31.11,0,0,1,7.84-6.25,6.085,6.085,0,0,1,2.524-.4c2.072-.15,2.343-.1,3.424.8a3.842,3.842,0,0,1,1.352,2.851c.135,2.2-.676,5.85-2.163,10a53.079,53.079,0,0,1-4.19,8.55c-.136.2-.676,1-1.172,1.8a13.443,13.443,0,0,1-2.794,3.25,4.152,4.152,0,0,1-1.126.35c-.676.1-.856.1-.9-.05a.2.2,0,0,0-.271-.15c-.27.15-.81-.5-1.081-1.3a4.251,4.251,0,0,0-.406-.85c-.135-.15-.135-.25.136-.5.405-.4.72-.5,1.081-.3,1.622.8,6.489-6,8.921-12.5a33.248,33.248,0,0,0,1.8-6.8,10.838,10.838,0,0,0-.045-3.5.357.357,0,0,0-.361-.2,9.621,9.621,0,0,0-2.207.951,17.33,17.33,0,0,1-1.713,1,14.856,14.856,0,0,0-2.433,1.549,63.42,63.42,0,0,0-5.677,4.851c-.361.35-1.036,1.05-1.533,1.55-1.036,1-1.667,1.7-3.289,3.551-1.261,1.4-1.4,1.6-1.306,1.2a26.591,26.591,0,0,0-3.2,3.8,1.161,1.161,0,0,1-.316.45,8.216,8.216,0,0,0-.631.9l-.5.75.631-.75c1.172-1.349.722-.5-1.216,2.5a9.151,9.151,0,0,0-.766,1.25,4.612,4.612,0,0,1-.586.949,9.149,9.149,0,0,0-1.352,2.251c-.135.4-.315.45-.4.2-.045-.1-.045-.05-.045.1a6.327,6.327,0,0,1-.9,1.85,19.206,19.206,0,0,0-1.261,2.3c-.181.35-.541,1.05-.812,1.55a64.276,64.276,0,0,0-2.973,6.25c-.406,1-.9,2.1-1.037,2.4a88.454,88.454,0,0,0-3.6,11.1c-.226,1-.451,1.9-.451,2a1.753,1.753,0,0,1-.135.5,4.919,4.919,0,0,0-.09.75,6.772,6.772,0,0,1-.451,2.4c-.135.15-.18.5-.135,2.15.135,3.15.586,4.65,1.757,5.351a6.965,6.965,0,0,0,2.839,1,22.585,22.585,0,0,0,6.714-1,34.936,34.936,0,0,0,6.128-3.7,32.4,32.4,0,0,0,5.047-4.15c.631-.65,1.351-1.351,1.577-1.551a42.589,42.589,0,0,0,3.694-4.2,10.977,10.977,0,0,1,2.028-2.35c.045.05,0,.15-.09.3a18.333,18.333,0,0,0,2.208-2.45,8.56,8.56,0,0,0,.9-1.25,10.942,10.942,0,0,1,1.848-2.3,42.519,42.519,0,0,0,3.514-4.2c.361-.5,1.081-1.351,1.577-1.95.5-.551,1.217-1.551,1.667-2.151a5.793,5.793,0,0,1,.992-1.15,31.035,31.035,0,0,0,3.244-4.3c.586-.95.856-1.15.856-.8a3.737,3.737,0,0,1-.811,1.5,10.84,10.84,0,0,0-1.036,1.7,14.628,14.628,0,0,1-1.217,1.849c-.676,1-1.217,1.8-1.217,1.851.046.25-.18.449-.315.4-.09-.05-.09-.05-.045.05.09.1-.451.9-1.307,2.051-.766,1-1.8,2.4-2.253,3.05-.81,1.15-6.128,7.6-6.353,7.7s-.09-.2.315-.75c.315-.4.181-.3-.36.3-.631.649-.766.9-.631.949.136.1.091.15-.045.1-.226-.049-1.081.8-2.794,2.75a50.245,50.245,0,0,1-4.055,4.151c-.586.6-1.127,1.1-1.127,1.15a17.077,17.077,0,0,0,2.569-2.3c.9-.9,1.036-1.049,1.172-1.149a12.109,12.109,0,0,0,1.261-1.351,20.432,20.432,0,0,1,2.658-2.9c.09,0-.36.55-.946,1.25-2.027,2.351-2.208,2.6-2.163,2.8,0,.349-.4.849-1.982,2.45a49.381,49.381,0,0,1-4.416,4.2,62.748,62.748,0,0,1-6.308,4.8c-.09.05-.181.1-.181.15.045.25-2.027,1.4-2.7,1.55a8.62,8.62,0,0,0-2.478.95A16.736,16.736,0,0,1,7.829,70.62Zm-5.362-14.2a4.038,4.038,0,0,0,.226-.8c.134-.8,0-.8-.181,0C2.377,56.119,2.377,56.569,2.467,56.419Zm.4-3.651c0,.05.046.05.091-.1.045-.1.135-.151.225-.1.091.1.406-.7.541-1.35,0-.2-.09,0-.226.35a2.262,2.262,0,0,1-.315.6C3.188,51.968,2.827,52.568,2.872,52.768Zm.722-2.8c.045,0,.135-.15.09-.3,0-.25-.045-.3-.136-.1C3.413,49.818,3.413,49.968,3.594,49.968Zm.18-.85c.09,0,.135-.1.18-.2.045-.15,0-.2-.045-.2s-.135.1-.18.2S3.729,49.118,3.774,49.118ZM4,48.068c0,.15.361-.2.495-.5.046-.2.046-.25-.134-.25C4.179,47.368,4,47.718,4,48.068Zm.721-.2c0-.1-.045-.2-.135-.2a.271.271,0,0,0-.091.2c0,.15-.045.35-.045.5-.044.2-.044.2.136-.05C4.675,48.168,4.765,47.968,4.72,47.868Zm-.226-1.05c.136.25.452-.05.452-.35-.045-.15,0-.2.089-.15.045.05.181,0,.226-.1s0-.1-.09-.049c-.136.1-.136.049-.091-.2.136-.7.181-1,.045-.949-.179,0-.269.4-.135.65.045.15.045.2-.089.1-.136-.051-.136-.051-.091.05.136.25-.135,1.05-.27.95C4.449,46.718,4.449,46.718,4.494,46.818Zm.9-1.851c.091.2.18.25.225.1a.771.771,0,0,0,.09-.3q0-.077-.135,0c-.089.1-.135.05-.089-.1s0-.25-.091-.25C5.171,44.467,5.171,44.618,5.4,44.967Zm.135-.9c.135.149.225.05.5-.65a4.02,4.02,0,0,1,.451-.951c.315-.349.315-.8-.046-.649a.6.6,0,0,0-.27.75c.045.05,0,.149-.09.2C5.847,42.918,5.4,43.967,5.531,44.068Zm.947-4.95a2.849,2.849,0,0,0,.269-.75,1.76,1.76,0,0,0-.36.7C6.027,39.967,6.072,39.967,6.478,39.118Zm.315,2.149c.135.051.225-.1.361-.5a1.871,1.871,0,0,1,.27-.8c.18-.2.18-.2.225,0,0,.1.091,0,.18-.2.135-.349.135-.45,0-.55-.135-.049-.135-.15.045-.4.135-.149.181-.35.135-.35-.09-.1-.225.1-.766.951a.975.975,0,0,0-.134.549,1.415,1.415,0,0,1-.271.7C6.478,41.118,6.478,41.267,6.793,41.267Zm.54-4.5c0,.2.091.151.181-.1,0-.1,0-.151-.09-.1A.394.394,0,0,0,7.333,36.767Zm.9-1.25c-.18.25-.316.35-.316.3a2.257,2.257,0,0,1,.271-.6C8.55,34.668,8.6,34.967,8.235,35.517Zm-.09,2.75.27-.3a1.512,1.512,0,0,0,.271-.7c0-.25.045-.349.179-.349.09.049.135,0,.09-.05s0-.2.181-.4c.135-.15.18-.25.09-.15-.135.05-.135,0-.135-.2,0-.1.09-.25.135-.2a.435.435,0,0,0,.36-.551.267.267,0,0,1,.136-.35.44.44,0,0,0,.18-.25.44.44,0,0,1,.135-.4,3.441,3.441,0,0,0,.451-.9c.27-.55.27-.7.135-.7a.275.275,0,0,0-.18.3c0,.15-.045.25-.09.25-.271-.15-1.307,1.95-1.127,2.1.09.049.045.1-.045.1a3.517,3.517,0,0,0-.766,1.55.356.356,0,0,1-.091.351.613.613,0,0,0-.179.5Zm3.244-9.7c.045.05,0,.2-.09.3-.045.1-.27.45-.451.75a2.177,2.177,0,0,1-.36.55,2.271,2.271,0,0,1,.315-.8C11.344,28.467,11.3,28.467,11.389,28.567Zm1.351-2.35c.226,0,.136.25-.225.65a3.186,3.186,0,0,0-.54.9,1.308,1.308,0,0,1-.36.55c-.136.05-.136,0-.091-.1A11.221,11.221,0,0,1,12.74,26.217Zm6.669-8.151a.979.979,0,0,1,.361-.5c.405-.4.5-.2.09.3C19.544,18.316,19.409,18.366,19.409,18.066Zm1.983-.149c-.361.449-.541.55-.586.4a1.588,1.588,0,0,1,.406-.5C21.707,17.366,21.843,17.467,21.392,17.917ZM22.7,15.866a10.353,10.353,0,0,0,1.848-2.15c.09-.1-.315.3-.856.9A6.745,6.745,0,0,0,22.7,15.866Zm2.794-5.351a12.225,12.225,0,0,0-1.532,1.651c-.045.1.271-.25.721-.7A8.606,8.606,0,0,0,25.492,10.515Zm-1.127,48.8a3.075,3.075,0,0,1,.541-.45c.136,0-.72.9-.856.9C23.96,59.769,24.141,59.569,24.365,59.319ZM25,13.266a1.728,1.728,0,0,0,.5-.5c.226-.3.361-.5.316-.5a3.658,3.658,0,0,0-.45.5C25.132,13.066,25,13.266,25,13.266Zm1.082-3.4c-.045,0-.18.149-.27.3-.135.15-.226.3-.181.3s.181-.15.271-.3A.887.887,0,0,0,26.078,9.866Zm4.686,43.952c0,.051.136-.05.27-.25a1.054,1.054,0,0,0,.271-.4C31.215,53.068,30.719,53.619,30.764,53.818Zm1.892-2.2c.045.2.045.2.226,0,.09-.2.135-.35.09-.35C32.882,51.169,32.656,51.419,32.656,51.618Zm3.875-4.65a1.734,1.734,0,0,0,.181-.25c.09-.1.135-.2.09-.2s-.135.1-.18.2C36.531,46.868,36.487,46.968,36.531,46.968Zm.046.95c.045,0,.135-.1.18-.2.09-.15.136-.25.09-.25a1.779,1.779,0,0,0-.18.25C36.577,47.818,36.531,47.918,36.577,47.918Zm.451-.6c0,.1.586-.6.9-1.05.225-.3.09-.25-.315.25A5.969,5.969,0,0,0,37.028,47.318Zm1.171-2.15a.536.536,0,0,0,.361-.25c.224-.35.045-.35-.316-.05C38.019,45.118,38.019,45.168,38.2,45.168Zm3.424-4.151c.586-.7,1.488-1.849,1.983-2.55.946-1.4.811-1.2-1.576,1.851C40.542,42.217,40.542,42.267,41.623,41.017Z"/><path class="cls-1" d="M89.028,35.717c.315.951.09,1.651-1.081,3.3-.406.651-.766,1.3-.857,1.5a1.737,1.737,0,0,1-.36.7.985.985,0,0,0-.225.5,28.661,28.661,0,0,1-3.47,3.9,3.689,3.689,0,0,1-1.171.8.951.951,0,0,0-.5.15c-.315.25-1.307-.25-2.163-1.05a12.178,12.178,0,0,1-2.3-3.751,18.589,18.589,0,0,1-1.171-5.95c-.181-1.75-.316-3.25-.361-3.3a5.662,5.662,0,0,0-.541.35c-3.289,2.6-10.544,12.151-12.166,16.051-.586,1.4-1.081,2.15-1.4,2.15a1.744,1.744,0,0,1-.767-.45,2.348,2.348,0,0,1-.5-.9.6.6,0,0,0-.36-.5c-.721-.15-.676-1.8.045-4.2.541-1.8,3.6-9.551,4.686-11.9.856-1.85.991-2.4.405-1.9-.405.35-.405.05,0-.3.18-.2.225-.3.09-.3s-.09-.1.135-.35c.226-.2-.18-.05-1.081.4a7.125,7.125,0,0,1-4.056,1.25l-1.126-.05v1.15a8.02,8.02,0,0,1-.18,2.35c-.135.6-.316,1.4-.361,1.65a23.276,23.276,0,0,1-2.884,5.5c-.36.551-.54.95-.405.851.631-.25-1.127,2.05-3.154,4.35-.991,1.05-1.307,1.3-1.667,1.3-.226,0-.676.05-.946.05a1.908,1.908,0,0,1-1.578-1.2,2.085,2.085,0,0,0-.45-.75c-.451-.4-.586-1.25-.541-3.2a18.815,18.815,0,0,1,1.488-7.05,33.187,33.187,0,0,1,5.045-9.151c.812-.9.947-1,1.623-1.05a1.491,1.491,0,0,1,1.082.25c.179.15.405.25.45.2s.315.3.541.8l.495.9,1.262.05a6.233,6.233,0,0,0,2.523-.4,25.616,25.616,0,0,0,6.984-3.7c.631-.5.992-.7,1.037-.549,0,.15.18.3.315.4a.6.6,0,0,1,.315.5.8.8,0,0,0,.136.5c.045.05.09.149.045.2-.045.1.045.25.226.4a1.441,1.441,0,0,1,.45.75c.135.45.09.55-.316,1.15a58.514,58.514,0,0,0-3.018,5.9c-.992,2.151-2.749,6.351-2.7,6.4a23.24,23.24,0,0,0,2.073-2.5,31.874,31.874,0,0,1,3.244-3.9,17.644,17.644,0,0,0,2.162-2.35,5.512,5.512,0,0,1,2.434-1.8,2.943,2.943,0,0,1,1.758.9,2.357,2.357,0,0,0,.585.9c.5.5.541.7.721,1.75.09.65.225,2.35.361,3.8.224,2.9.5,4.5.946,5.451.27.549.27.6,1.081.6a2.633,2.633,0,0,0,1.577-.45,27.012,27.012,0,0,0,4.6-4.45,11.9,11.9,0,0,1,1.713-1.851c.045.05.09,0,.045-.1s.134-.4.405-.75l.45-.551-.224.5-.226.551.315-.5.316-.4ZM56.5,30.817c-.541-.3-.541-.3-1.036.15a4.146,4.146,0,0,1-1.937.9c-.271,0-1.262,1.7-2.118,3.551a31.334,31.334,0,0,0-2.884,10c0,.7.225.7,1.127.049a25.12,25.12,0,0,0,4.37-5.6c2.163-3.45,2.794-4.95,3.064-7.151C57.216,31.467,57.126,31.167,56.5,30.817Z"/><path class="cls-1" d="M108.585,14.516a116.786,116.786,0,0,0-4.911,10.9c-.721,2-1.848,4.7-2.343,5.75-1.351,2.85-4.731,13.451-6.174,19.3-.314,1.25-.72,2.9-.9,3.6a57.735,57.735,0,0,0-1.848,15.3,5.892,5.892,0,0,0,.631,2.6,4.745,4.745,0,0,0,.947-.6c.45-.351.9-.6.991-.551.315,0,.81,2.3.586,2.5a1.4,1.4,0,0,0-.226.55c-.045.45-.991.849-1.667.75a5.277,5.277,0,0,1-1.036-.4c-.27-.2-.676-.5-.9-.7a1.513,1.513,0,0,0-.631-.4,6.208,6.208,0,0,1-.9-1.2c-1.216-2-1.441-5.1-.811-11.1a77.721,77.721,0,0,1,2.344-12.4,178.4,178.4,0,0,1,13.021-35.452h-.405c0-.1-6.623.6-6.894.7-.091.05-.045.05-7.7.85-6.353.65-10.094,1.05-13.112,1.451-1.262.149-4.642.349-5,.3a1.476,1.476,0,0,1-.811-.95c0-.15-.045-.25-.135-.2-.226,0-.226-.85,0-1a3.111,3.111,0,0,0,.18-.4c.09-.25.09-.25,1.216-.25,1.082,0,1.127,0,1.532-.3a1.684,1.684,0,0,1,2.029.15c.179.25.269.25.855.2.361-.05,1.938-.15,3.47-.3s3.064-.25,3.38-.3c.315,0,.54,0,.54.05s-.18.1-.361.1a2.782,2.782,0,0,0-.675.1c-.766.2,3.424-.1,7.3-.5.721-.1,3.064-.3,5.182-.5s4.732-.4,5.813-.5c1.082-.15,2.253-.25,2.613-.25a10.71,10.71,0,0,1,1.262-.1l.541-.1c1.261-2.5,3.964-7.8,4.416-8.5a5.291,5.291,0,0,0,.54-1.2,1.2,1.2,0,0,1,1.261-.95c.586.05,1.713.8,1.713,1.05-.045.1.135.2.361.2.72.1,1.126,1.75.541,2.25a1.545,1.545,0,0,0-.316.5,11.317,11.317,0,0,1-1.668,2.95c-.45.651-1.171,1.851-1.982,3.3,2.929-.25,6.308-.551,7.66-.65,1.532-.1,3.289-.151,7.029-.151,4.822,0,5,0,5.9.2a5.166,5.166,0,0,1,2.253,1,1.575,1.575,0,0,1,.135.55c0,.2.045.4.18.45.181.15.226.55.091,1.05a3.051,3.051,0,0,1-1.532,1.2,1,1,0,0,0-.451.1,17.573,17.573,0,0,1-2.838.45,3.208,3.208,0,0,0-.857-.049c-.5,0-.811-.051-.9-.151a.991.991,0,0,0-.406-.1c-.315,0-.315-.2.045-.25a11.78,11.78,0,0,0,2.659-.851,4.2,4.2,0,0,1,1.847-.8c.451-.15.541-.25.361-.35a78.559,78.559,0,0,0-8.471-.65c-.857-.05-6.354.15-8.11.3-.722.05-1.848.1-2.524.15-1.127.05-2.163.15-2.93.2C109.262,13.116,108.9,13.816,108.585,14.516Zm-11.535-1.9c0-.1-.09-.1-.135-.05a1.7,1.7,0,0,1-.631.1c-.9.05-3.964.3-5.586.5-.9.1-2.3.25-3.11.35a13.842,13.842,0,0,0-1.532.2,20.452,20.452,0,0,0,2.929-.2c.811-.1,2.3-.25,3.244-.35,1.037-.1,2.344-.2,3.019-.3C96.825,12.766,97.05,12.716,97.05,12.616Zm7.976,3.351a5.869,5.869,0,0,1-.676.9,45.848,45.848,0,0,0-2.974,6.251c0,.25-.09.4-.18.4-.045,0-.09.1-.09.25a22.622,22.622,0,0,1-1.577,3.8,6.086,6.086,0,0,0-.541,1.25,3.639,3.639,0,0,1-.406.85c-.541,1-2.7,7.1-4.009,11.4a19.247,19.247,0,0,1-1.262,3.6,17.418,17.418,0,0,0-.946,3.1c-.9,3.5-.992,3.85-.767,3.9.181,0-.045.6-.225.75a8.033,8.033,0,0,0-.541,1.75c-.225,1.2-.315,1.7-.18,2,.18.5.135.6-.045.5-.316-.1-.992,6.35-.856,7.6.045.5.09,1.45.09,2.1-.045,2.15.18,1,.676-3.35.315-2.7.676-5.051.946-6.35.271-1.151.541-2.55.676-3.151.09-.6.36-1.65.541-2.349.225-.7.54-1.9.766-2.7.18-.8.541-2.1.766-2.8.18-.75.405-1.65.495-1.951.09-.349.226-.849.316-1.149.5-1.45,1.172-3.65,1.217-3.851.044-.3,2.027-6,3.289-9.5.856-2.25,3.965-9.6,5.181-12.151C105.386,15.616,105.477,15.316,105.026,15.967Zm-13.744,47.5c-.044-.4-.089,0-.179,1.3-.09,1.95-.09,2.95.045,2.8a7.175,7.175,0,0,0,.045-1.7,11.22,11.22,0,0,1,.089-1.75A.787.787,0,0,0,91.282,63.469Zm.271-2.9c-.045-.1-.09,0-.135.25,0,.2.045.25.09.1S91.6,60.619,91.553,60.569Zm7.66-29c-.676,1.9-.81,2.3-.631,2.45.181.2.181.25-.045.2-.18,0-.45.55-1.036,2.15a88.872,88.872,0,0,0-2.839,9.35c-.225.751-.675,2.451-1.036,3.8-.36,1.3-.811,3.151-.991,4.05-.181.95-.451,2.3-.586,3.051a18.054,18.054,0,0,0-.405,2.5c-.181,1.7.179.6.585-1.95.315-1.7.451-2.25.676-2.4.27-.2.27-.25.09-.55s-.18-.4.09-.9a3.375,3.375,0,0,0,.361-1.149c.044-.5.315-1.351,1.216-4.651a1.81,1.81,0,0,0,.135-.85c-.09-.05-.09-.25-.045-.451.091-.2.226-.3.316-.25.18.151.451-.8.72-2.549a2.909,2.909,0,0,1,.316-.951,11.027,11.027,0,0,0,.631-1.849,27.019,27.019,0,0,1,1.352-4.051,5.425,5.425,0,0,0,.405-1.25,1.919,1.919,0,0,1,.271-.9,4.189,4.189,0,0,0,.315-1.1c.135-.6.271-.95.361-.85s.09.05.045-.15a3.234,3.234,0,0,1,.675-1.8,2.608,2.608,0,0,0,.361-1.2c.045-.6.136-1.05.225-1.05s.226-.2.316-.45c.045-.25.179-.5.225-.45a6.547,6.547,0,0,0,.721-2.1C102.1,24.516,100.52,28.017,99.213,31.567ZM97.681,12.616c0-.05-.045-.1-.135-.1a.1.1,0,0,0,0,.2C97.636,12.716,97.681,12.666,97.681,12.616Zm.631-.1a.1.1,0,0,0-.09-.1.329.329,0,0,0-.226.1c-.045.05,0,.1.136.1C98.222,12.616,98.312,12.566,98.312,12.516Zm1.577-.2c-.135,0-.271.05-.271.1,0,.1.136.1.362,0C100.159,12.366,100.115,12.316,99.889,12.316Zm3.29-.2c0-.05-2.839.2-2.93.25-.045.05.226.05.586,0,.361,0,1.036-.05,1.488-.1A2.448,2.448,0,0,0,103.179,12.116Zm11.129-.85c.225-.05.36-.05.315,0s.136.1.407.1c.45,0,.45,0,.134-.05s-.36-.05-.134-.15a3.437,3.437,0,0,1,.855.1,2.513,2.513,0,0,0,1.442-.1,18.769,18.769,0,0,1,2.118-.2c.135,0,.225,0,.225-.05,0-.151-.9-.151-2.3,0-.586.05-1.487.1-1.982.15-1.172.05-1.307.05-1.442.15C113.9,11.266,114.083,11.266,114.308,11.266Zm6.038-.35c.226,0,.5.05.541,0,.09,0,.9-.05,1.8-.05.9-.05,1.668-.1,1.713-.1a39.331,39.331,0,0,0-4.191,0C119.9,10.816,119.9,10.866,120.346,10.916Zm4.506-.151a1.827,1.827,0,0,0,.676.051c.315,0,.541.05.541.1s.134.05.225.05c.18,0,.18,0,.09-.05-.181-.1-.181-.1,0-.151a3.822,3.822,0,0,0-.721-.049C125.167,10.716,124.807,10.716,124.852,10.765Zm2.613.2a1.32,1.32,0,0,1,.722.05,1.623,1.623,0,0,0,.676.1,15.45,15.45,0,0,1,2.838.35c.5.15.766.1.316-.05a11.81,11.81,0,0,0-4.822-.651C126.61,10.866,126.789,10.966,127.465,10.966Z"/><path class="cls-1" d="M137.7,37.267a1.815,1.815,0,0,0-.5.851.542.542,0,0,1-.18.449.152.152,0,0,0-.135.15,12.6,12.6,0,0,1-1.262,1.7,15.654,15.654,0,0,0-1.306,1.7,11.179,11.179,0,0,1-2.3,2.45c-.045-.05-.136.05-.136.149,0,.6-3.153,3.151-5.046,4.051-1.847.9-3.109,1-4.326.4-.541-.25-1.262-.95-1.307-1.35a1.445,1.445,0,0,0-.36-.55,3.5,3.5,0,0,1-.812-2.5,8.856,8.856,0,0,1,.5-2.9c.045-.151.27-.75.45-1.351.676-2.1,1.892-5.2,2.478-6.45l.631-1.35-.45.35a5.375,5.375,0,0,0-.991,1.1c-.362.649-.541.849-.9.9-.36.1-.766.45-1.8,1.6a8.806,8.806,0,0,1-1.533,1.45c-.089,0-.179.1-.179.25,0,.3-.5,1.1-.5.8,0-.05-.135.1-.271.349s-.676,1-1.171,1.7c-.541.7-1.622,2.25-2.478,3.5-1.938,2.8-2.208,3.2-3.38,4.251-1.171,1.15-1.486,1.25-2.028.9a3.061,3.061,0,0,1-.63-.449.541.541,0,0,0-.271-.251c-.18,0-.27-.55-.135-.65.09-.05.09-.15-.045-.25-.766-.65-.811-1.95-.044-3.7a3.85,3.85,0,0,1,.584-1.05c.181,0,.181,0-.269,1.05a5.162,5.162,0,0,0-.5,2.65c.09.15.135.15.135-.05a5.089,5.089,0,0,1,.27-.951,1.579,1.579,0,0,0,.226-1c-.09-.25,0-.5.541-1.3.586-.951.72-1.35.315-.951-.136.1-.225.1-.225,0s.044-.149.134-.149a2.776,2.776,0,0,0,.407-.6,5.88,5.88,0,0,1,.586-1.1,22.636,22.636,0,0,0,1.306-2.051,30.313,30.313,0,0,1,2.028-3.1.649.649,0,0,0,.179-.4,5.925,5.925,0,0,1,.722-1.3,5.708,5.708,0,0,0,.766-1.15,22.921,22.921,0,0,1,2.523-3.45,8.655,8.655,0,0,1,1.622-1.65,2.108,2.108,0,0,0,.856-.55,2.027,2.027,0,0,1,2.253-.7,1.832,1.832,0,0,1,.856.4,2.939,2.939,0,0,0,.631.5,3.4,3.4,0,0,1,.811,1.2,3.69,3.69,0,0,0,.586.95,3.368,3.368,0,0,1,.45.45,1.07,1.07,0,0,0,.5.35c.271,0,.586.95.586,1.7a9.373,9.373,0,0,1-.451,2.2c-.27.75-.676,2.05-.9,2.8-.225.8-.811,2.45-1.262,3.751a17.172,17.172,0,0,0-1.351,5.4c0,.8,0,.9.315.95a3.3,3.3,0,0,0,2.253-.5,25.118,25.118,0,0,0,6.443-4.8c.676-.7,1.127-1,1.217-.9.045.1.586-.4,1.4-1.25.9-1,1.307-1.349,1.352-1.2.09.151-.045.4-.181.55a1.1,1.1,0,0,0-.27.45,7.362,7.362,0,0,0,.856-.8,3.486,3.486,0,0,1,1.037-.95.567.567,0,0,0,.36-.3,1.792,1.792,0,0,1,.856-1C138.146,36.717,138.1,36.868,137.7,37.267Zm-15.907-8.05a17.659,17.659,0,0,0-2.342,2.1c-.271.35-.5.35-.362.05.046-.15.046-.2-.09-.15-.089.05-.134.25-.134.35,0,.3-.5.95-2.029,2.8a30.387,30.387,0,0,0-2.027,2.751c-.676,1-1.307,1.9-1.4,2.05a36.885,36.885,0,0,0-2.613,4.95c0,.25.27-.05,1.531-1.7,2.389-3.2,2.93-3.851,2.975-3.25,0,.1.045.049.09-.1a.4.4,0,0,0,0-.449,6.313,6.313,0,0,1,1.172-1.7c1.126-1.351,1.306-1.551,1.622-1.5s.315,0,.18-.2c-.18-.2-.045-.4,1.082-1.65a7.357,7.357,0,0,0,1.846-2.85C121.564,29.917,121.789,29.267,121.789,29.217Zm-10.318,9.75c0,.25.135.151.315-.15.09-.149.135-.3.045-.35s-.135,0-.135.151c0,.1-.045.2-.135.2C111.516,38.817,111.471,38.918,111.471,38.967Zm6.983-2.95a33.092,33.092,0,0,0-2.522,3.1c.045,0,.721-.851,1.577-1.851.991-1.2,1.576-1.849,1.757-1.849.135,0,.225-.051.181-.151a1.33,1.33,0,0,1,.224-.55A11.12,11.12,0,0,0,118.454,36.017Zm-.855,1.95c-.045-.2-.09-.25-.226-.1-.134.1-.134.149,0,.349C117.554,38.467,117.689,38.317,117.6,37.967Z"/><path class="cls-1" d="M172.121,35.717a16.741,16.741,0,0,1-1.577,2.5,9.513,9.513,0,0,0-1.217,1.851c-.134.6-3.289,4.1-5.271,5.75-.9.8-2.613,2.15-3.74,3-1.171.851-2.433,1.8-2.793,2.15a28.28,28.28,0,0,1-9.013,4.1c-.5.1-1.171.25-1.486.3a10.241,10.241,0,0,1-3.7.1,8.649,8.649,0,0,1-4.821-3.3c-.27-.451-.631-1.1-.81-1.4-1.307-2.1-1.578-4.15-1.038-7.1.722-4,3.47-9.351,7.076-13.951,2.027-2.55,4.73-5.4,5.136-5.3a1.161,1.161,0,0,0,.721-.45,11.956,11.956,0,0,1,5.047-2.55c2.207-.5,3.739-.3,4.956.649a3.752,3.752,0,0,1,1.667,2.7c.136.9.09.951-.36,2.5a14.531,14.531,0,0,1-1.037,2.7,9.076,9.076,0,0,0-.585,1.15,24.121,24.121,0,0,1-1.307,2.3,16.006,16.006,0,0,1-3.965,4.85,3.038,3.038,0,0,1-3.605-.349,2.608,2.608,0,0,1-1.037-2.051l.045-.6h.812a1.49,1.49,0,0,1,1.351.45,2.8,2.8,0,0,0,.631.5,9.376,9.376,0,0,0,2.253-2.25,34.623,34.623,0,0,0,3.785-6.35c.811-1.8.856-2,.856-2.9a9.744,9.744,0,0,0-.09-1.35c-.135-.5-.766-.8-1.893-.8a4.547,4.547,0,0,0-2.838,1.051c-.361.25-1.081.7-1.578,1a14.151,14.151,0,0,0-1.486,1.05,3.758,3.758,0,0,1-.631.45,71.715,71.715,0,0,0-5.677,6.2c-1.578,2-4.146,6.25-4.371,7.25-.045.2-.315,1-.586,1.751-.27.7-.675,2.05-.9,2.95a11.843,11.843,0,0,0-.405,3.3,6.3,6.3,0,0,0,.855,3.7,6.079,6.079,0,0,0,2.884,1.75,10.651,10.651,0,0,0,5.993-.5c6.128-2.1,13.338-7.051,18.655-12.8a31.331,31.331,0,0,0,2.252-2.65c.316-.5.857-1.25,1.217-1.75a11.3,11.3,0,0,0,.812-1.25c.09-.25.224-.4.315-.4s.27-.251.45-.5c.451-.75.586-.6.181.25-.27.65-.27.7-.046.4.271-.35.271-.35.226-.05-.045.151,0,.3.045.3C172.707,34.067,172.573,34.717,172.121,35.717Zm-32.983,3.1c.586-1.149.856-1.949.631-1.7a27.294,27.294,0,0,0-2.3,5.55,8.591,8.591,0,0,0-.36,2l-.045.95.179-1.05c.091-.55.271-1.351.361-1.75A36.424,36.424,0,0,1,139.138,38.817Zm1.487-3.25c0,.05.135-.1.316-.35.179-.3.315-.549.315-.549C141.256,34.517,140.625,35.418,140.625,35.567Zm.766-1.3c0,.2.451-.4.631-.85.09-.15,0-.05-.226.2A3.061,3.061,0,0,0,141.391,34.267Zm1.4-2.1c0,.15.676-.6,1.036-1.3.135-.2-.044-.05-.36.35A4.528,4.528,0,0,0,142.788,32.167Zm26.45,7.05c0-.2-.451.2-1.352,1.3-.767.851-1.712,1.95-2.118,2.45a2.687,2.687,0,0,0-.721.951c0,.1,0,.1-.045.049s-.315.1-.541.3-.946.85-1.622,1.449a10,10,0,0,0-2.388,2.3,1.315,1.315,0,0,1-.27.4c-.451.45-.045.15,1.171-.75.586-.5,1.487-1.25,2.028-1.75.541-.451,1.081-.951,1.262-1.05a36.183,36.183,0,0,0,2.7-2.95A10.445,10.445,0,0,0,169.238,39.217Zm1.4-2a8.968,8.968,0,0,0-.991,1.5c0,.2.451-.4.766-1C170.589,37.418,170.68,37.217,170.634,37.217Z"/><path class="cls-1" d="M191.724,14.516a116.5,116.5,0,0,0-4.911,10.9c-.722,2-1.848,4.7-2.344,5.75-1.352,2.85-4.731,13.451-6.173,19.3-.315,1.25-.721,2.9-.9,3.6a57.776,57.776,0,0,0-1.848,15.3,5.906,5.906,0,0,0,.631,2.6,4.663,4.663,0,0,0,.946-.6c.451-.351.9-.6.991-.551.316,0,.812,2.3.586,2.5a1.427,1.427,0,0,0-.224.55c-.046.45-.992.849-1.668.75a5.277,5.277,0,0,1-1.036-.4c-.271-.2-.676-.5-.9-.7a1.5,1.5,0,0,0-.631-.4,6.237,6.237,0,0,1-.9-1.2c-1.217-2-1.442-5.1-.811-11.1a77.69,77.69,0,0,1,2.342-12.4,178.543,178.543,0,0,1,13.023-35.452h-.405c0-.1-6.624.6-6.9.7-.09.05-.045.05-7.7.85-6.354.65-10.093,1.05-13.112,1.451-1.262.149-4.641.349-5,.3a1.475,1.475,0,0,1-.812-.95c0-.15-.045-.25-.135-.2-.225,0-.225-.85,0-1a3.111,3.111,0,0,0,.18-.4c.09-.25.09-.25,1.217-.25,1.081,0,1.127,0,1.532-.3a1.68,1.68,0,0,1,2.027.15c.181.25.271.25.857.2.36-.05,1.937-.15,3.47-.3s3.063-.25,3.378-.3c.316,0,.541,0,.541.05s-.18.1-.36.1a2.783,2.783,0,0,0-.676.1c-.766.2,3.424-.1,7.3-.5.722-.1,3.065-.3,5.183-.5s4.73-.4,5.812-.5c1.081-.15,2.253-.25,2.614-.25a10.71,10.71,0,0,1,1.261-.1l.54-.1c1.262-2.5,3.966-7.8,4.416-8.5a5.263,5.263,0,0,0,.541-1.2,1.2,1.2,0,0,1,1.262-.95c.586.05,1.712.8,1.712,1.05-.045.1.136.2.36.2.722.1,1.127,1.75.541,2.25a1.576,1.576,0,0,0-.315.5,11.335,11.335,0,0,1-1.667,2.95c-.451.651-1.172,1.851-1.982,3.3,2.928-.25,6.307-.551,7.66-.65,1.531-.1,3.289-.151,7.029-.151,4.821,0,5,0,5.9.2a5.16,5.16,0,0,1,2.253,1,1.575,1.575,0,0,1,.135.55c0,.2.046.4.181.45.18.15.225.55.09,1.05a3.045,3.045,0,0,1-1.533,1.2,1,1,0,0,0-.45.1,17.532,17.532,0,0,1-2.839.45,3.19,3.19,0,0,0-.855-.049c-.5,0-.812-.051-.9-.151a.987.987,0,0,0-.406-.1c-.315,0-.315-.2.046-.25a11.784,11.784,0,0,0,2.658-.851,4.2,4.2,0,0,1,1.848-.8c.45-.15.54-.25.36-.35a78.559,78.559,0,0,0-8.471-.65c-.856-.05-6.354.15-8.111.3-.72.05-1.847.1-2.523.15-1.126.05-2.163.15-2.929.2C192.4,13.116,192.039,13.816,191.724,14.516Zm-11.535-1.9c0-.1-.09-.1-.136-.05a1.694,1.694,0,0,1-.63.1c-.9.05-3.966.3-5.588.5-.9.1-2.3.25-3.109.35a13.8,13.8,0,0,0-1.531.2,20.449,20.449,0,0,0,2.928-.2c.811-.1,2.3-.25,3.244-.35,1.037-.1,2.343-.2,3.019-.3C179.963,12.766,180.189,12.716,180.189,12.616Zm7.975,3.351a5.925,5.925,0,0,1-.675.9,45.736,45.736,0,0,0-2.975,6.251c0,.25-.09.4-.18.4-.045,0-.09.1-.09.25a22.622,22.622,0,0,1-1.577,3.8,6.148,6.148,0,0,0-.541,1.25,3.664,3.664,0,0,1-.405.85c-.541,1-2.7,7.1-4.011,11.4a19.162,19.162,0,0,1-1.262,3.6,17.716,17.716,0,0,0-.946,3.1c-.9,3.5-.991,3.85-.765,3.9.179,0-.045.6-.226.75a8.094,8.094,0,0,0-.541,1.75c-.225,1.2-.314,1.7-.18,2,.18.5.135.6-.045.5-.315-.1-.991,6.35-.856,7.6.045.5.09,1.45.09,2.1-.045,2.15.18,1,.677-3.35.314-2.7.675-5.051.945-6.35.27-1.151.541-2.55.677-3.151.089-.6.36-1.65.54-2.349.225-.7.541-1.9.766-2.7.18-.8.54-2.1.766-2.8.181-.75.405-1.65.5-1.951.09-.349.225-.849.315-1.149.5-1.45,1.171-3.65,1.216-3.851.046-.3,2.029-6,3.29-9.5.856-2.25,3.965-9.6,5.182-12.151C188.525,15.616,188.615,15.316,188.164,15.967Zm-13.743,47.5c-.045-.4-.09,0-.181,1.3-.089,1.95-.089,2.95.045,2.8a7.081,7.081,0,0,0,.046-1.7,11.03,11.03,0,0,1,.09-1.75A.8.8,0,0,0,174.421,63.469Zm.271-2.9c-.045-.1-.091,0-.136.25,0,.2.045.25.091.1S174.737,60.619,174.692,60.569Zm7.66-29c-.676,1.9-.812,2.3-.631,2.45.18.2.18.25-.045.2-.181,0-.451.55-1.037,2.15a89.35,89.35,0,0,0-2.839,9.35c-.225.751-.676,2.451-1.036,3.8-.36,1.3-.811,3.151-.991,4.05-.18.95-.45,2.3-.586,3.051a18.215,18.215,0,0,0-.406,2.5c-.18,1.7.181.6.586-1.95.316-1.7.451-2.25.676-2.4.271-.2.271-.25.09-.55s-.18-.4.091-.9a3.4,3.4,0,0,0,.36-1.149c.045-.5.316-1.351,1.216-4.651a1.817,1.817,0,0,0,.136-.85c-.09-.05-.09-.25-.045-.451.09-.2.224-.3.315-.25.18.151.45-.8.721-2.549a2.908,2.908,0,0,1,.315-.951,11.122,11.122,0,0,0,.631-1.849,26.9,26.9,0,0,1,1.352-4.051,5.425,5.425,0,0,0,.405-1.25,1.943,1.943,0,0,1,.271-.9,4.189,4.189,0,0,0,.315-1.1c.136-.6.271-.95.36-.85s.091.05.045-.15a3.236,3.236,0,0,1,.677-1.8,2.624,2.624,0,0,0,.36-1.2c.045-.6.135-1.05.225-1.05s.226-.2.315-.45c.046-.25.181-.5.226-.45a6.522,6.522,0,0,0,.721-2.1C185.236,24.516,183.658,28.017,182.352,31.567ZM180.82,12.616c0-.05-.045-.1-.136-.1a.1.1,0,0,0,0,.2C180.775,12.716,180.82,12.666,180.82,12.616Zm.63-.1a.1.1,0,0,0-.089-.1.327.327,0,0,0-.226.1c-.045.05,0,.1.135.1C181.361,12.616,181.45,12.566,181.45,12.516Zm1.578-.2c-.136,0-.271.05-.271.1,0,.1.135.1.36,0C183.3,12.366,183.252,12.316,183.028,12.316Zm3.289-.2c0-.05-2.839.2-2.929.25-.045.05.226.05.586,0,.36,0,1.036-.05,1.486-.1A2.45,2.45,0,0,0,186.317,12.116Zm11.13-.85c.224-.05.36-.05.315,0s.135.1.405.1c.45,0,.45,0,.135-.05s-.36-.05-.135-.15a3.45,3.45,0,0,1,.857.1,2.509,2.509,0,0,0,1.441-.1,18.792,18.792,0,0,1,2.118-.2c.135,0,.225,0,.225-.05,0-.151-.9-.151-2.3,0-.586.05-1.486.1-1.982.15-1.172.05-1.307.05-1.442.15C197.04,11.266,197.221,11.266,197.447,11.266Zm6.038-.35c.224,0,.495.05.54,0,.09,0,.9-.05,1.8-.05.9-.05,1.667-.1,1.712-.1a39.311,39.311,0,0,0-4.19,0C203.033,10.816,203.033,10.866,203.485,10.916Zm4.5-.151a1.83,1.83,0,0,0,.676.051c.316,0,.54.05.54.1s.136.05.226.05c.181,0,.181,0,.09-.05-.18-.1-.18-.1,0-.151a3.809,3.809,0,0,0-.721-.049C208.306,10.716,207.946,10.716,207.99,10.765Zm2.614.2a1.309,1.309,0,0,1,.72.05,1.627,1.627,0,0,0,.676.1,15.439,15.439,0,0,1,2.839.35c.5.15.766.1.316-.05a11.812,11.812,0,0,0-4.822-.651C209.747,10.866,209.928,10.966,210.6,10.966Z"/></g></g></g></svg>