<svg xmlns="http://www.w3.org/2000/svg" width="339.395" height="137.753" viewBox="0 0 339.395 137.753"><defs><style>.cls-1{fill:#1b333f;}</style></defs><g id="レイヤー_2" data-name="レイヤー 2"><g id="レイヤー_1-2" data-name="レイヤー 1"><path class="cls-1" d="M14.217,137.752c-3.776-.151-7.169-1.7-9.044-4.108-.4-.446-.8-.893-.96-1.04a13.419,13.419,0,0,1-2.445-3.962A18.687,18.687,0,0,1,.433,123.3C.2,121.471,0,119.24,0,118.357a88.067,88.067,0,0,1,1.169-10.623c.248-1.307.634-3.508.817-4.729a28.245,28.245,0,0,1,.923-4.337C6.386,87.121,6.5,86.789,8.481,82.119c.246-.5.774-1.914,1.309-3.246.967-2.173,1.4-3.014,1.565-2.787a8.689,8.689,0,0,1-.623,1.981c-1.352,3.571-1.743,4.891-1.644,5.2.258.459-.213,1.7-.571,1.737a.329.329,0,0,0-.267.263c.015.16.158.148.294.055.2-.179.209-.1.015.159-.059.166-.181.417-.1.491a10.375,10.375,0,0,1-1.244,3.16c-.143.014-.338.271-.446.682-.29.828-.067.89.215-.019.116-.331.173-.5.26-.344.013.16-.7,2.792-1.653,5.928a101.8,101.8,0,0,0-3.46,15.88c-.425,3.411-.69,8.655-.428,10,.107.393.35-1.8.465-4.617.05-.246.173-.5.388-.516s.2-.179.074-.81c-.271-.619-.213-.785,0-.8s.352-.111.338-.271c-.007-.079.13-.172.281-.1.222.06.287-.025.251-.424-.021-.24-.113-.472-.178-.386-.058.166-.28.105-.438-.042-.624-.508.508-7.433,2.683-15.653.653-2.467,1.473-5.51,1.878-6.67.326-1.233.956-3.135,1.361-4.295.673-2.227,1.839-5.461,2.56-7.13.167-.577.47-1.245.586-1.577a8.958,8.958,0,0,1,.507-1.651,3.518,3.518,0,0,0,.24-1.386c-.076-.877,3.231-7.751,4.967-10.233a35.66,35.66,0,0,1,3.56-4.808c.5-.124.487.6.077.876a6.81,6.81,0,0,0-1.825,3.131c-.109.412-.289.828-.5.848-.144.013-.267.264-.246.5a.77.77,0,0,1-.167.577,3.474,3.474,0,0,0-1.2,2.031c.086.155.021.241-.122.252-.209.1-.347.192-.339.272.013.159.028.318.041.478a3.189,3.189,0,0,1-.5.847c-.259.344-.368.755-.289.828.086.153-.045.325-.246.5s-.4.437-.3.67c.014.159-.044.324-.116.33a8.007,8.007,0,0,0-1.271,2.843,4.107,4.107,0,0,1-.375.675,1.348,1.348,0,0,0-.2.981c.093.233.4-.356,1.125-2.025.608-1.339,1.517-3.345,2.073-4.439s1.422-2.773,1.913-3.781,1.241-2.357,1.544-3.025a2.513,2.513,0,0,0,.528-1.413c-.079-.072-.086-.152.065-.086a8.13,8.13,0,0,0,1.738-2.48A186.446,186.446,0,0,1,35.6,40.556a6.16,6.16,0,0,0,1.154-1.707,3.788,3.788,0,0,1,.757-1.271c.467-.442.713-.945.634-1.019s.3-.669.823-1.356c.446-.682.7-1.106.49-1.007-.2.178-.972,1.29-1.815,2.407a15.706,15.706,0,0,1-1.628,2.071c-.144.011-.411.275-.67.62-.518.687-2.219,2.764-3.27,3.98C31.616,43.8,30.708,45,30,46.025a19.129,19.129,0,0,1-1.744,2.4c-.187.338-.562,1.013-.743,1.431-.109.41-.44.761-.655.779s-.295-.054-.236-.219a32.286,32.286,0,0,1,3.158-5.256c1.03-1.454,1.593-2.468,1.327-2.2-.332.351-2.327,3.176-4.505,6.418-3.013,4.439-3.9,5.882-3.742,6.028a.827.827,0,0,1,.206.7c-.081.73-3.244,5.1-3.546,4.968-.294-.055-.113-.472.457-1.4l.743-1.432-1.089,1.622a23.879,23.879,0,0,0-1.507,2.622c-.7,1.908-2.353,4.542-1.846,2.891.173-.5,2.137-4.524,2.448-5.113.123-.252,1.067-1.86,2.07-3.633A186.613,186.613,0,0,1,34.844,36.848L37.7,33.065c2.774-3.856,8.792-9.522,11.626-11.056a9.754,9.754,0,0,1,3.966-.99c3.283-.527,3.721-.485,5.57.8a6.139,6.139,0,0,1,2.553,4.354c.521,3.488-.262,9.419-2.054,16.241a84.948,84.948,0,0,1-5.487,14.212c-.187.338-.938,1.689-1.616,3.033-1.184,2.191-2.979,4.838-4,5.57a6.617,6.617,0,0,1-1.746.715c-1.063.254-1.351.279-1.443.046a.315.315,0,0,0-.452-.2c-.41.276-1.363-.685-1.9-1.921a6.816,6.816,0,0,0-.765-1.3c-.237-.221-.251-.38.145-.816.591-.694,1.08-.9,1.683-.629,2.7,1.049,9.505-10.469,12.478-21.168a53.306,53.306,0,0,0,1.924-11.091,17.321,17.321,0,0,0-.56-5.572.572.572,0,0,0-.6-.269,15.451,15.451,0,0,0-3.387,1.822,27.027,27.027,0,0,1-2.59,1.833,23.731,23.731,0,0,0-3.662,2.81A101.623,101.623,0,0,0,39,38.01c-.527.609-1.506,1.818-2.227,2.685-1.512,1.738-2.42,2.941-4.748,6.117-1.816,2.407-2,2.745-1.915,2.095.095-.57-4.215,5.589-4.57,6.5a1.831,1.831,0,0,1-.44.762,13.032,13.032,0,0,0-.88,1.521l-.685,1.266.9-1.284c1.679-2.316,1.08-.9-1.59,4.155a14.881,14.881,0,0,0-1.048,2.1,7.4,7.4,0,0,1-.8,1.6A14.594,14.594,0,0,0,19.156,69.3c-.159.657-.44.76-.618.374-.086-.153-.079-.073-.058.167A10.151,10.151,0,0,1,17.3,72.916a30.811,30.811,0,0,0-1.69,3.842c-.238.582-.715,1.748-1.077,2.583a103.017,103.017,0,0,0-3.868,10.377c-.507,1.651-1.144,3.472-1.317,3.969-.954,2.332-3.474,13.235-4.2,18.2-.219,1.625-.452,3.091-.439,3.25a2.812,2.812,0,0,1-.145.817,7.821,7.821,0,0,0-.039,1.208,10.816,10.816,0,0,1-.384,3.889c-.194.257-.217.821.085,3.445.654,5,1.582,7.33,3.547,8.283a11.125,11.125,0,0,0,4.664,1.2A36.069,36.069,0,0,0,23,131.443c1.74-.8,5.071-3.256,9.252-6.754a51.61,51.61,0,0,0,7.465-7.318c.915-1.123,1.967-2.34,2.3-2.69a67.711,67.711,0,0,0,5.3-7.211c.289-.828,2.746-4.174,2.9-4.028.079.073.021.239-.1.491-.245.5,1.182-1.388,3.178-4.213A13.706,13.706,0,0,0,54.562,97.6a17.573,17.573,0,0,1,2.624-3.925A67.35,67.35,0,0,0,62.2,86.494c.5-.848,1.535-2.3,2.242-3.328.713-.947,1.723-2.641,2.357-3.66a9.191,9.191,0,0,1,1.42-1.971c.287-.026,3.337-4.869,4.571-7.307.8-1.595,1.2-1.953,1.253-1.394a5.991,5.991,0,0,1-1.083,2.5,17.632,17.632,0,0,0-1.415,2.854,23.109,23.109,0,0,1-1.681,3.118c-.938,1.688-1.688,3.039-1.681,3.119.106.392-.225.743-.447.682-.151-.068-.151-.068-.065.086.158.146-.593,1.5-1.8,3.449-1.082,1.7-2.539,4.077-3.166,5.176-1.132,1.945-8.708,12.969-9.053,13.159s-.172-.306.4-1.239c.446-.682.245-.5-.533.528-.915,1.124-1.1,1.542-.873,1.6.229.14.165.226-.058.166-.366-.049-1.612,1.426-4.069,4.771a80.356,80.356,0,0,1-5.885,7.182c-.851,1.037-1.642,1.91-1.636,1.99a27.32,27.32,0,0,0,3.774-4.024c1.31-1.561,1.5-1.819,1.706-2a19.087,19.087,0,0,0,1.823-2.328c3.034-4.2,3.69-4.981,3.833-4.993a8.853,8.853,0,0,1-1.334,2.125c-2.9,4.028-3.157,4.451-3.056,4.764.048.559-.528,1.411-2.819,4.182a78.91,78.91,0,0,1-6.453,7.31c-3.456,3.515-9.027,8.5-9.386,8.531-.136.092-.273.184-.266.264.106.393-3.037,2.514-4.093,2.848a13.767,13.767,0,0,0-3.818,1.859C20.653,136.867,15.524,137.8,14.217,137.752ZM3.69,115.865a6.441,6.441,0,0,0,.248-1.306c.1-1.294-.112-1.275-.288.025C3.5,115.4,3.567,116.117,3.69,115.865Zm.137-5.873c.007.078.079.072.13-.172.058-.166.194-.259.345-.191.158.146.549-1.172.674-2.228-.028-.318-.143.013-.311.589a3.486,3.486,0,0,1-.419,1C4.218,108.672,3.728,109.678,3.827,109.992Zm.758-4.565c.073-.005.2-.257.1-.49-.035-.4-.114-.472-.23-.14C4.278,105.215,4.3,105.453,4.585,105.427Zm.17-1.379c.143-.013.2-.179.26-.343.05-.246-.029-.321-.1-.315s-.2.18-.259.346S4.683,104.054,4.755,104.048Zm.212-1.706c.021.24.547-.368.721-.866.043-.325.037-.4-.25-.379C5.157,101.2,4.918,101.785,4.967,102.342Zm.616-2.061c.25.38.711-.143.669-.621-.092-.233-.027-.319.123-.251.079.073.288-.026.345-.192s-.013-.159-.15-.067c-.2.18-.209.1-.172-.305.118-1.135.148-1.62-.06-1.521-.288.025-.375.675-.125,1.055.092.232.1.312-.13.171-.222-.06-.222-.06-.137.092.251.381-.069,1.694-.3,1.553C5.5,100.128,5.5,100.128,5.583,100.281Zm.506,1.643c-.014-.161-.1-.313-.244-.3a.432.432,0,0,0-.116.332c.021.238-.022.564,0,.8-.044.326-.044.326.208-.1C6.059,102.408,6.174,102.077,6.089,101.924Zm.673-4.717c.171.306.322.373.373.128a1.234,1.234,0,0,0,.1-.491c-.007-.08-.078-.073-.215.019-.129.172-.209.1-.157-.147s-.035-.4-.179-.386C6.333,96.441,6.354,96.679,6.762,97.207Zm.09-1.453c.236.219.366.048.7-1.106a6.467,6.467,0,0,1,.585-1.577c.454-.6.392-1.319-.161-1.03a.952.952,0,0,0-.327,1.233c.079.073.021.239-.116.332C7.194,93.877,6.623,95.613,6.852,95.754Zm.817-8.023A4.489,4.489,0,0,0,8,86.5a2.8,2.8,0,0,0-.477,1.166C7.07,89.15,7.141,89.143,7.669,87.731Zm.8,3.383c.223.061.345-.19.505-.847A3.021,3.021,0,0,1,9.3,88.955c.26-.345.26-.345.359-.031.014.158.144-.013.26-.345.167-.577.153-.736-.077-.876-.222-.063-.236-.221.016-.645.2-.258.239-.584.167-.577-.158-.146-.346.192-1.089,1.621a1.573,1.573,0,0,0-.139.9,2.25,2.25,0,0,1-.333,1.153C7.948,90.92,7.969,91.158,8.472,91.114Zm.235-7.248c.028.319.164.227.272-.185-.014-.159-.021-.238-.157-.146A.633.633,0,0,0,8.707,83.866Zm1.261-2.118c-.252.424-.454.6-.461.521a3.625,3.625,0,0,1,.348-.993C10.353,80.349,10.466,80.821,9.968,81.748Zm.24,4.4.39-.515a2.425,2.425,0,0,0,.333-1.155c-.035-.4.023-.564.238-.582.151.067.216-.019.137-.093s-.028-.319.232-.663c.194-.257.252-.423.122-.252-.208.1-.215.02-.243-.3-.014-.161.109-.412.187-.338a.7.7,0,0,0,.5-.928.429.429,0,0,1,.167-.576.7.7,0,0,0,.252-.424.7.7,0,0,1,.16-.656,5.51,5.51,0,0,0,.593-1.5c.354-.914.333-1.154.118-1.135a.442.442,0,0,0-.246.5c.021.239-.037.4-.108.411-.453-.2-1.811,3.29-1.5,3.5.151.066.085.152-.058.165a5.638,5.638,0,0,0-1.005,2.577.567.567,0,0,1-.095.57.983.983,0,0,0-.217.823ZM14.027,70.23c.079.073.028.319-.1.49-.057.166-.368.756-.613,1.26a3.441,3.441,0,0,1-.5.926,3.681,3.681,0,0,1,.392-1.318C13.941,70.077,13.87,70.084,14.027,70.23ZM15.854,66.3c.359-.032.25.379-.269,1.067a5.125,5.125,0,0,0-.736,1.511,2.05,2.05,0,0,1-.5.926c-.208.1-.215.019-.158-.146A17.877,17.877,0,0,1,15.854,66.3Zm9.493-13.921a1.569,1.569,0,0,1,.5-.847c.59-.694.762-.388.185.466C25.6,52.756,25.389,52.853,25.347,52.375Zm3.14-.516c-.512.768-.785.953-.879.72a2.527,2.527,0,0,1,.577-.853C28.913,50.939,29.142,51.08,28.487,51.859Zm1.8-3.449c.092.232,2.413-3.022,2.644-3.685.13-.173-.46.523-1.239,1.554A10.655,10.655,0,0,0,30.284,48.41Zm3.706-8.917a19.55,19.55,0,0,0-2.212,2.843c-.057.166.4-.436,1.052-1.215A14.161,14.161,0,0,0,33.99,39.493Zm-.407,4.452a2.762,2.762,0,0,0,.721-.865c.318-.51.5-.848.433-.842a5.982,5.982,0,0,0-.648.859C33.771,43.607,33.583,43.945,33.583,43.945Zm1.25-5.57c-.072.006-.266.263-.389.516-.194.257-.317.509-.245.5s.266-.263.389-.515A1.409,1.409,0,0,0,34.833,38.375ZM39,117.434a4.949,4.949,0,0,1,.8-.793c.216-.018-1.023,1.535-1.239,1.554C38.417,118.209,38.676,117.864,39,117.434Zm9.432-9.659c.007.08.209-.1.4-.435a1.7,1.7,0,0,0,.374-.676C49.046,106.517,48.333,107.463,48.432,107.775Zm2.71-3.77c.1.312.1.312.359-.033.116-.33.167-.576.095-.57C51.438,103.256,51.114,103.686,51.142,104.005Zm5.528-7.953a2.8,2.8,0,0,0,.253-.423c.13-.172.187-.338.116-.331s-.2.177-.26.342C56.656,95.892,56.6,96.058,56.67,96.052Zm.2,1.508c.071-.006.2-.177.259-.344.123-.251.18-.417.109-.411a2.928,2.928,0,0,0-.253.423C56.86,97.4,56.8,97.566,56.875,97.56Zm.634-1.019a7.642,7.642,0,0,0,1.29-1.8c.318-.51.109-.411-.467.442A9.567,9.567,0,0,0,57.509,96.541Zm1.568-3.59a.857.857,0,0,0,.54-.449c.31-.59.022-.565-.51-.036C58.782,92.9,58.79,92.976,59.077,92.951Zm4.879-7.093c.836-1.2,2.113-3.156,2.8-4.341,1.313-2.363,1.126-2.025-2.256,3.168C62.4,87.922,62.407,88,63.956,85.858Z"/><path class="cls-1" d="M138.775,70.8c.635,1.47.374,2.618-1.264,5.411-.555,1.091-1.039,2.177-1.155,2.509a2.764,2.764,0,0,1-.478,1.166,1.576,1.576,0,0,0-.289.829,45.746,45.746,0,0,1-4.986,6.7,5.89,5.89,0,0,1-1.756,1.437,1.537,1.537,0,0,0-.769.309c-.468.443-2.118-.216-3.594-1.372a19.472,19.472,0,0,1-4.186-5.657c-1.236-2.542-1.727-4.025-2.7-9.321-.531-2.763-.955-5.136-1.035-5.209a9.009,9.009,0,0,0-.813.633c-4.88,4.6-15.111,20.837-17.153,27.279-.74,2.314-1.425,3.578-1.927,3.622a2.793,2.793,0,0,1-1.284-.61,3.755,3.755,0,0,1-.916-1.365.945.945,0,0,0-.644-.746c-1.17-.139-1.329-2.776-.514-6.7.611-2.946,4.414-15.725,5.81-19.623,1.107-3.067,1.245-3.963.381-3.084-.6.614-.639.136-.042-.479.26-.344.318-.51.1-.49s-.157-.147.167-.576c.331-.352-.294-.055-1.668.788-2.87,1.937-4.135,2.369-6.29,2.557l-1.8.078.16,1.832a12.791,12.791,0,0,1,.04,3.772c-.131.975-.307,2.275-.344,2.68-.038,1.208-1.838,5.461-3.829,9.17-.5.925-.73,1.589-.528,1.41.97-.487-1.51,3.424-4.421,7.374-1.434,1.811-1.9,2.255-2.476,2.3-.359.032-1.071.174-1.5.212a3.049,3.049,0,0,1-2.681-1.693,3.389,3.389,0,0,0-.822-1.133c-.775-.574-1.109-1.91-1.309-5.025a30.177,30.177,0,0,1,1.387-11.445c1.84-6.264,4.31-11.94,6.769-15.288,1.167-1.547,1.368-1.726,2.438-1.9a2.378,2.378,0,0,1,1.759.247c.308.215.681.342.746.256s.545.434.974,1.2l.916,1.366,2.017-.1a9.966,9.966,0,0,0,3.966-.99,40.977,40.977,0,0,0,10.617-6.872c.936-.884,1.483-1.254,1.575-1.02.021.239.329.453.558.594a.964.964,0,0,1,.573.752,1.284,1.284,0,0,0,.286.778c.078.074.164.227.1.312-.058.166.107.393.415.607a2.285,2.285,0,0,1,.823,1.133c.278.7.22.864-.342,1.877a93.207,93.207,0,0,0-3.99,9.825c-1.28,3.565-3.495,10.506-3.416,10.578a36.764,36.764,0,0,0,2.955-4.274c2.934-4.513,4.411-6.65,4.627-6.669a28.234,28.234,0,0,0,3.12-4.047c.894-1.364,2.973-3.232,3.627-3.207.863-.077,2.82.8,2.927,1.188a3.787,3.787,0,0,0,1.059,1.353c.86.728.96,1.041,1.394,2.689.234,1.023.686,3.715,1.1,6.006.763,4.592,1.417,7.1,2.268,8.556.508.838.515.918,1.807.8a4.212,4.212,0,0,0,2.452-.937c1.561-1.18,3.923-3.957,6.7-7.735a19.39,19.39,0,0,1,2.471-3.187c.079.074.144-.012.058-.165s.16-.656.542-1.253l.641-.939-.289.829-.282.907.432-.84.448-.682Zm-52.54-3.273c-.9-.4-.9-.4-1.631.383a6.642,6.642,0,0,1-2.962,1.7c-.432.037-1.774,2.885-2.881,5.953-1.945,5.069-3.437,12.829-3.2,16.342.1,1.115.457,1.084,1.8-.077,1.411-1.247,4.157-5.423,6.186-9.536,2.966-5.8,3.763-8.28,3.888-11.825C87.476,68.463,87.29,68,86.235,67.527Z"/><path class="cls-1" d="M166.99,34.281c-4.4,11.708-5.04,13.531-6.308,18.059-.87,3.289-2.29,7.749-2.933,9.492-1.758,4.73-5.666,22.1-7.149,31.623-.329,2.037-.744,4.723-.934,5.864-1.37,7.509-1.693,18.7-.812,24.646.3,1.74,1,4.007,1.369,4.056a7.573,7.573,0,0,0,1.425-1.09c.669-.62,1.352-1.082,1.5-1.013.5-.045,1.613,3.552,1.282,3.9a2.3,2.3,0,0,0-.282.908c-.009.725-1.462,1.494-2.553,1.428a8.5,8.5,0,0,1-1.708-.492c-.459-.281-1.147-.7-1.534-.99a2.392,2.392,0,0,0-1.061-.549,10.066,10.066,0,0,1-1.6-1.787c-2.218-3.02-3.009-7.929-2.841-17.58a124.38,124.38,0,0,1,2.006-20.092C147.93,71.2,152.687,53.6,160.669,32.344c-.431.039-.647.057-.647.057-.014-.159-10.474,1.88-10.891,2.077-.136.092-.065.086-12.163,2.43-10.036,1.922-15.942,3.08-20.7,4.14-1.99.415-7.349,1.2-7.931,1.174a2.359,2.359,0,0,1-1.425-1.4c-.021-.239-.107-.393-.243-.3-.36.032-.479-1.322-.14-1.594a4.809,4.809,0,0,0,.231-.662c.11-.412.11-.412,1.905-.568,1.724-.15,1.8-.157,2.4-.691a2.689,2.689,0,0,1,3.253-.044c.322.373.466.36,1.392.2.569-.13,3.068-.509,5.489-.962s4.849-.826,5.345-.949c.5-.045.862-.076.869,0s-.274.184-.561.21a4.466,4.466,0,0,0-1.063.252c-1.193.426,5.444-.636,11.565-1.814,1.136-.26,4.843-.905,8.19-1.519s7.486-1.3,9.2-1.608c1.7-.391,3.556-.713,4.131-.764a17.481,17.481,0,0,1,2-.335l.848-.235c1.662-4.16,5.232-12.984,5.853-14.164a8.543,8.543,0,0,0,.695-1.987,1.919,1.919,0,0,1,1.878-1.691c.94,0,2.841,1.035,2.876,1.434-.058.166.243.3.6.269,1.164.059,2.04,2.633,1.176,3.512a2.471,2.471,0,0,0-.433.84c.049.559-1.172,3.154-2.246,4.936-.628,1.1-1.61,3.111-2.7,5.535,4.633-.807,9.978-1.756,12.119-2.1,2.428-.373,5.222-.7,11.184-1.22,7.685-.672,7.972-.7,9.436-.5a8.289,8.289,0,0,1,3.731,1.279,2.528,2.528,0,0,1,.292.859c.028.319.128.631.35.692.308.214.436.845.29,1.662a4.857,4.857,0,0,1-2.275,2.125,1.617,1.617,0,0,0-.7.222,28.191,28.191,0,0,1-4.462,1.114,5.061,5.061,0,0,0-1.371.04c-.791.069-1.3.033-1.458-.114a1.566,1.566,0,0,0-.66-.1c-.5.043-.531-.275.037-.4a18.866,18.866,0,0,0,4.119-1.726c-.021-.24,1.633-1.187,2.833-1.533.7-.3.828-.474.526-.608a125.686,125.686,0,0,0-13.594.145c-1.372.041-10.106,1.125-12.886,1.609-1.142.181-2.93.417-4,.591-1.789.237-3.426.541-4.641.728C167.872,31.955,167.4,33.121,166.99,34.281Zm-18.651-1.42c-.014-.16-.158-.146-.223-.061a2.734,2.734,0,0,1-.991.247c-1.431.207-6.279,1.032-8.837,1.576-1.422.286-3.628.719-4.907.992a21.932,21.932,0,0,0-2.414.533,32.926,32.926,0,0,0,4.64-.728c1.279-.272,3.629-.719,5.123-1.01,1.638-.3,3.707-.645,4.77-.9C148,33.132,148.353,33.021,148.339,32.861Zm13.18,4.228a9.385,9.385,0,0,1-.953,1.528A73.224,73.224,0,0,0,156.7,48.994c.035.4-.088.65-.232.663-.072.007-.129.173-.109.411.042.479-.645,2.545-1.983,6.276a9.836,9.836,0,0,0-.688,2.068,5.865,5.865,0,0,1-.528,1.412c-.722,1.67-3.319,11.693-4.8,18.73-.655,3.27-1.358,5.981-1.509,5.914a28.038,28.038,0,0,0-1.076,5.073c-.949,5.7-1.043,6.275-.677,6.324.287-.025.011.963-.255,1.226a13.014,13.014,0,0,0-.618,2.866c-.191,1.943-.265,2.754-.009,3.213.358.771.3.937,0,.8-.517-.115-.7,10.26-.305,12.235.141.79.346,2.3.437,3.334.228,3.433.426,1.568.61-5.434.126-4.348.373-8.144.622-10.254.271-1.871.507-4.14.638-5.115.06-.969.345-2.68.535-3.82.261-1.149.6-3.106.844-4.412.176-1.3.569-3.422.83-4.569.183-1.221.417-2.687.519-3.178.095-.57.241-1.386.342-1.876.588-2.381,1.358-5.982,1.4-6.307.03-.485,2.395-9.847,3.918-15.6,1.05-3.7,4.981-15.853,6.565-20.089C162.044,36.48,162.146,35.99,161.519,37.089Zm-15.256,72.967c-.086-.152-.144.014-.18.418.028.319.106.393.157.147S146.342,110.131,146.263,110.056Zm-.026,4.66c-.128-.63-.144.014-.107,2.1.129,3.121.268,4.715.463,4.457a11.467,11.467,0,0,0-.165-2.716,17.385,17.385,0,0,1-.1-2.8A1.28,1.28,0,0,0,146.237,114.716Zm8.192-51.952c-.813,3.123-.972,3.781-.664,3.994.315.293.322.373-.044.325-.287.024-.641.939-1.352,3.571a142.135,142.135,0,0,0-3.221,15.3c-.254,1.225-.736,4-1.122,6.2-.393,2.122-.854,5.134-1.015,6.594-.155,1.54-.4,3.729-.509,4.943a29.045,29.045,0,0,0-.3,4.041c-.051,2.735.371.932.661-3.189.266-2.754.4-3.65.742-3.92.4-.357.4-.437.068-.89s-.343-.611.018-1.447a5.4,5.4,0,0,0,.414-1.883c0-.8.315-2.195,1.291-7.582a2.92,2.92,0,0,0,.1-1.373c-.15-.067-.178-.387-.135-.711.116-.332.317-.51.468-.442.308.213.607-1.339.794-4.165a4.584,4.584,0,0,1,.37-1.559,17.8,17.8,0,0,0,.747-3.037,43.079,43.079,0,0,1,1.591-6.644,8.781,8.781,0,0,0,.472-2.049,3.1,3.1,0,0,1,.305-1.471,6.666,6.666,0,0,0,.349-1.8c.132-.976.3-1.553.456-1.4s.151.067.051-.246a5.165,5.165,0,0,1,.827-2.963A4.2,4.2,0,0,0,156.2,59c-.012-.963.069-1.693.212-1.705s.332-.35.44-.762c.038-.4.218-.822.3-.748A10.48,10.48,0,0,0,158,52.333C158.042,51.125,156.016,56.924,154.429,62.764Zm-5.085-29.991c-.007-.08-.086-.154-.23-.14a.161.161,0,0,0,.028.318C149.286,32.939,149.351,32.853,149.344,32.773Zm.991-.248a.162.162,0,0,0-.157-.146.518.518,0,0,0-.345.191c-.065.086.014.158.229.141C150.206,32.7,150.342,32.6,150.335,32.525Zm2.486-.538c-.215.019-.424.117-.417.2.014.16.23.141.575-.05C153.259,32.029,153.18,31.956,152.821,31.987Zm5.216-.778c-.007-.078-4.5.715-4.634.807-.065.086.367.048.933-.081.576-.051,1.645-.224,2.357-.367A3.9,3.9,0,0,0,158.037,31.209ZM175.658,28.3c.352-.111.568-.13.5-.044s.23.141.66.1c.719-.062.719-.062.209-.1s-.582-.029-.237-.219a5.479,5.479,0,0,1,1.379.039,4.02,4.02,0,0,0,2.285-.36,30.414,30.414,0,0,1,3.348-.615c.215-.017.359-.031.351-.111-.021-.238-1.457-.113-3.662.32-.927.162-2.357.367-3.14.517-1.86.243-2.075.262-2.277.44C175.012,28.359,175.3,28.334,175.658,28.3Zm9.576-1.4c.359-.031.8.012.862-.075.143-.013,1.429-.206,2.865-.331,1.43-.2,2.644-.392,2.716-.4a62.064,62.064,0,0,0-6.679.585C184.5,26.806,184.508,26.885,185.234,26.9Zm7.161-.867a3,3,0,0,0,1.084-.015c.5-.044.869,0,.876.084s.223.062.367.048c.287-.024.287-.024.136-.092-.3-.135-.3-.135-.021-.238a5.875,5.875,0,0,0-1.156.019C192.891,25.912,192.316,25.962,192.4,26.035Zm4.194-.045a2.1,2.1,0,0,1,1.156-.022,2.582,2.582,0,0,0,1.091.066,24.676,24.676,0,0,1,4.574.161c.811.17,1.235.053.5-.123a18.828,18.828,0,0,0-7.776-.363C195.21,25.949,195.512,26.084,196.589,25.99Z"/><path class="cls-1" d="M216.56,66.483a2.912,2.912,0,0,0-.671,1.425.882.882,0,0,1-.224.742.241.241,0,0,0-.195.258,20.054,20.054,0,0,1-1.774,2.885,25.136,25.136,0,0,0-1.846,2.892c.035.4-3.092,4.366-3.321,4.226-.079-.073-.209.1-.195.259.084.955-4.588,5.46-7.479,7.158-2.819,1.692-4.817,2.027-6.839,1.241a4.193,4.193,0,0,1-2.272-1.97,2.33,2.33,0,0,0-.651-.826,5.6,5.6,0,0,1-1.641-3.871,14.19,14.19,0,0,1,.385-4.691c.051-.246.327-1.235.531-2.215.784-3.443,2.29-8.553,3.05-10.627l.817-2.24-.669.621a8.688,8.688,0,0,0-1.427,1.891c-.484,1.087-.743,1.43-1.311,1.56-.56.21-1.158.824-2.649,2.8a14.055,14.055,0,0,1-2.241,2.524c-.143.013-.272.185-.252.423.042.478-.637,1.822-.678,1.344-.008-.079-.2.179-.382.6s-.938,1.689-1.631,2.873c-.764,1.191-2.271,3.814-3.462,5.925-2.7,4.733-3.073,5.408-4.794,7.244-1.707,2-2.2,2.2-3.106,1.719a4.877,4.877,0,0,1-1.069-.629.868.868,0,0,0-.465-.361c-.288.025-.508-.84-.307-1.018.137-.092.124-.252-.106-.392-1.312-.929-1.565-2.994-.588-5.891a6.178,6.178,0,0,1,.787-1.756c.287-.025.287-.025-.284,1.711-.515,1.571-.75,3.841-.421,4.294.165.226.237.22.209-.1a8.141,8.141,0,0,1,.3-1.552,2.532,2.532,0,0,0,.22-1.625c-.179-.386-.07-.8.68-2.148.8-1.6.961-2.253.371-1.557-.2.177-.346.191-.36.031s.051-.245.195-.258a4.459,4.459,0,0,0,.563-1.014,9.472,9.472,0,0,1,.78-1.834,35.879,35.879,0,0,0,1.8-3.451,48.888,48.888,0,0,1,2.8-5.223,1.031,1.031,0,0,0,.231-.664,9.473,9.473,0,0,1,.968-2.171,9.1,9.1,0,0,0,1.061-1.94c-.093-.233,1.493-2.781,3.541-5.851a13.907,13.907,0,0,1,2.355-2.856,3.387,3.387,0,0,0,1.288-1,3.243,3.243,0,0,1,3.493-1.431,2.93,2.93,0,0,1,1.421.519,4.655,4.655,0,0,0,1.076.709,5.442,5.442,0,0,1,1.459,1.8,5.965,5.965,0,0,0,1.066,1.433,5.451,5.451,0,0,1,.782.655,1.7,1.7,0,0,0,.838.488c.432-.037,1.066,1.433,1.171,2.628a15,15,0,0,1-.411,3.57c-.326,1.233-.792,3.361-1.046,4.589-.248,1.306-.951,4.018-1.488,6.152-1.146,4.277-1.569,6.883-1.4,8.8.111,1.276.125,1.436.634,1.471.883.164,2.012-.176,3.522-1.11,3.366-2.062,5.914-4.372,9.6-8.55.981-1.211,1.656-1.751,1.814-1.6.085.153.878-.719,2.052-2.187,1.3-1.72,1.9-2.334,1.988-2.1.164.227-.017.644-.211.9a1.743,1.743,0,0,0-.369.754,11.923,11.923,0,0,0,1.254-1.395,5.537,5.537,0,0,1,1.519-1.658c.209-.1.482-.283.533-.529a2.864,2.864,0,0,1,1.225-1.713C217.2,65.545,217.151,65.789,216.56,66.483ZM190.084,55.871a28.109,28.109,0,0,0-3.441,3.674c-.383.595-.742.627-.569.129.051-.245.045-.325-.164-.226-.136.093-.181.417-.167.577.042.479-.658,1.583-2.841,4.745a47.99,47.99,0,0,0-2.849,4.666c-.938,1.689-1.818,3.21-1.94,3.462a59.163,59.163,0,0,0-3.475,8.256c.034.4.423-.118,2.2-2.924,3.361-5.433,4.131-6.545,4.287-5.6.014.161.079.075.13-.171a.65.65,0,0,0-.063-.717,10.15,10.15,0,0,1,1.631-2.873c1.607-2.309,1.867-2.653,2.376-2.617s.5-.044.259-.344c-.315-.294-.128-.631,1.5-2.781,1.743-2.4,1.93-2.739,2.546-4.8C189.822,57.017,190.091,55.95,190.084,55.871ZM175,72.851c.035.4.237.219.483-.284.122-.251.173-.5.022-.563s-.215.017-.194.257c.014.159-.044.325-.188.338C175.047,72.605,174.989,72.771,175,72.851Zm10.721-5.677a54,54,0,0,0-3.59,5.292c.073,0,1.032-1.455,2.256-3.167,1.413-2.051,2.256-3.168,2.544-3.194.215-.019.352-.111.266-.265a2.116,2.116,0,0,1,.283-.908A17.577,17.577,0,0,0,185.717,67.174ZM184.625,70.4c-.1-.312-.179-.386-.374-.128-.2.178-.194.258.049.558C184.623,71.205,184.817,70.947,184.625,70.4Z"/><path class="cls-1" d="M271.217,59.213a26.829,26.829,0,0,1-2.165,4.2,15.277,15.277,0,0,0-1.681,3.119c-.132.974-4.671,6.994-7.6,9.9-1.325,1.4-3.866,3.792-5.543,5.3-1.749,1.518-3.627,3.208-4.153,3.815-2.534,2.472-9.977,6.737-13.793,7.793-.776.229-1.832.563-2.328.686a16.413,16.413,0,0,1-5.876.674,13.819,13.819,0,0,1-8.145-4.587c-.494-.679-1.159-1.665-1.488-2.118-2.376-3.166-3.092-6.395-2.643-11.173.592-6.477,4.227-15.388,9.331-23.222,2.876-4.348,6.788-9.267,7.449-9.164a1.854,1.854,0,0,0,1.087-.818c1.3-1.641,4.871-3.879,7.688-4.768,3.449-1.1,5.92-1,7.992.344a6,6,0,0,1,3.033,4.071c.341,1.416.276,1.5-.226,4.035a23.2,23.2,0,0,1-1.276,4.449,14.457,14.457,0,0,0-.772,1.915,38.768,38.768,0,0,1-1.762,3.848c-1.9,3.941-4.018,7.016-5.645,8.283a4.858,4.858,0,0,1-5.794-.054,4.165,4.165,0,0,1-1.938-3.123l-.012-.963,1.293-.113a2.382,2.382,0,0,1,2.217.529,4.44,4.44,0,0,0,1.076.708c.358-.031,2.065-2.028,3.277-3.9a55.447,55.447,0,0,0,5.148-10.649c1.041-2.982,1.085-3.307.96-4.742a15.577,15.577,0,0,0-.332-2.139c-.285-.778-1.332-1.168-3.128-1.012a7.28,7.28,0,0,0-4.379,2.071c-.539.449-1.626,1.265-2.374,1.814a22.721,22.721,0,0,0-2.224,1.88,6.023,6.023,0,0,1-.943.806c-.359.031-6.2,7.689-8.185,10.674-2.234,3.408-5.736,10.541-5.955,12.166-.045.324-.364,1.638-.69,2.871-.334,1.153-.792,3.361-1.025,4.828a18.912,18.912,0,0,0-.187,5.316,10.078,10.078,0,0,0,1.882,5.778c.657.906,3.074,2.06,4.841,2.388,2.576.5,6.139-.136,9.482-1.634,9.475-4.2,20.276-13.1,27.95-23a50.3,50.3,0,0,0,3.221-4.539c.433-.841,1.19-2.112,1.7-2.959a17.614,17.614,0,0,0,1.118-2.1c.109-.411.3-.67.448-.682s.4-.436.648-.859c.614-1.259.851-1.039.323.373-.341,1.073-.334,1.153-.017.644.383-.595.383-.595.353-.111-.052.244.041.478.113.471C271.921,56.5,271.8,57.554,271.217,59.213Zm-52.141,9.54c.773-1.915,1.092-3.228.768-2.8-.591.694-2.227,5.976-2.889,9.168a13.763,13.763,0,0,0-.3,3.238l.061,1.52.141-1.7c.067-.888.242-2.189.33-2.839A58.232,58.232,0,0,1,219.076,68.753Zm1.917-5.388c.007.08.2-.178.454-.6.244-.5.426-.92.426-.92C221.852,61.6,220.972,63.127,220.993,63.365Zm1.039-2.179c.028.32.662-.7.887-1.442.123-.252-.007-.08-.331.349A4.824,4.824,0,0,0,222.032,61.186Zm1.934-3.542c.021.239.993-1.051,1.471-2.217.187-.337-.08-.073-.526.609A7.155,7.155,0,0,0,223.966,57.644Zm43.143,7.549c-.028-.32-.691.381-1.974,2.26-1.1,1.462-2.457,3.347-3.033,4.2a4.257,4.257,0,0,0-1.017,1.614c.014.159.014.159-.065.087s-.489.2-.82.553-1.389,1.486-2.383,2.538c-2.268,2.206-3.514,3.681-3.486,4a2.111,2.111,0,0,1-.375.675c-.656.78-.051.245,1.762-1.359.865-.878,2.2-2.2,2.989-3.072.8-.793,1.59-1.665,1.864-1.849a57.946,57.946,0,0,0,3.9-5.081C266.077,67.451,267.086,65.758,267.109,65.193Zm1.948-3.383a14.259,14.259,0,0,0-1.371,2.53c.027.318.662-.7,1.082-1.7C269.013,62.134,269.128,61.8,269.057,61.81Z"/><path class="cls-1" d="M299.5,22.687c-4.4,11.708-5.041,13.53-6.309,18.059-.87,3.288-2.289,7.748-2.933,9.492-1.757,4.73-5.666,22.1-7.148,31.623-.329,2.037-.744,4.723-.935,5.863-1.369,7.509-1.693,18.7-.81,24.647.3,1.74,1,4.008,1.368,4.056a7.5,7.5,0,0,0,1.425-1.089c.669-.622,1.352-1.082,1.5-1.015.5-.044,1.613,3.554,1.282,3.9a2.275,2.275,0,0,0-.282.908c-.009.724-1.462,1.494-2.553,1.428a8.488,8.488,0,0,1-1.708-.493c-.459-.28-1.147-.7-1.534-.989a2.41,2.41,0,0,0-1.061-.55,9.9,9.9,0,0,1-1.6-1.787c-2.219-3.019-3.01-7.929-2.841-17.58a124.255,124.255,0,0,1,2.006-20.091c3.074-19.463,7.83-37.064,15.813-58.322-.431.039-.647.056-.647.056-.014-.159-10.474,1.881-10.89,2.078-.138.092-.066.086-12.164,2.429-10.037,1.923-15.942,3.081-20.7,4.14-1.99.416-7.348,1.205-7.93,1.176a2.358,2.358,0,0,1-1.425-1.4c-.021-.24-.107-.392-.243-.3-.36.032-.479-1.323-.14-1.593a4.906,4.906,0,0,0,.231-.662c.109-.413.109-.413,1.905-.569,1.724-.151,1.8-.158,2.4-.692a2.69,2.69,0,0,1,3.253-.044c.322.374.465.361,1.392.2.568-.13,3.068-.509,5.489-.962s4.849-.826,5.345-.949c.5-.045.861-.076.869,0s-.274.184-.561.209a4.406,4.406,0,0,0-1.063.254c-1.194.426,5.444-.637,11.565-1.815,1.135-.259,4.842-.906,8.19-1.519s7.486-1.3,9.195-1.608c1.7-.39,3.557-.713,4.131-.763a17.559,17.559,0,0,1,2-.336l.848-.235c1.663-4.16,5.233-12.985,5.853-14.164a8.447,8.447,0,0,0,.695-1.988A1.919,1.919,0,0,1,302.658.006c.94,0,2.841,1.035,2.875,1.433-.057.166.244.3.6.27,1.163.058,2.04,2.632,1.176,3.51a2.431,2.431,0,0,0-.433.841c.049.558-1.172,3.155-2.247,4.936-.627,1.1-1.609,3.111-2.7,5.535,4.633-.807,9.978-1.756,12.119-2.1,2.428-.373,5.222-.7,11.183-1.22,7.685-.672,7.973-.7,9.436-.5a8.277,8.277,0,0,1,3.731,1.279,2.5,2.5,0,0,1,.293.859c.028.319.127.631.35.692.308.214.436.846.289,1.661a4.853,4.853,0,0,1-2.274,2.126,1.574,1.574,0,0,0-.7.223,28.314,28.314,0,0,1-4.462,1.113,5.025,5.025,0,0,0-1.372.04,2.5,2.5,0,0,1-1.458-.114,1.592,1.592,0,0,0-.66-.1c-.5.044-.53-.274.037-.4a18.822,18.822,0,0,0,4.12-1.725c-.021-.24,1.633-1.187,2.833-1.533.7-.3.827-.475.525-.608a125.668,125.668,0,0,0-13.593.145c-1.371.04-10.106,1.125-12.887,1.61-1.142.179-2.93.417-4,.59-1.789.238-3.427.541-4.641.728C300.386,20.361,299.909,21.527,299.5,22.687Zm-18.651-1.42c-.015-.16-.159-.147-.224-.06a2.705,2.705,0,0,1-.991.246c-1.43.206-6.278,1.031-8.836,1.576-1.423.285-3.628.719-4.907.992a22.266,22.266,0,0,0-2.414.532,32.517,32.517,0,0,0,4.64-.727c1.279-.273,3.629-.719,5.123-1.01,1.638-.3,3.707-.645,4.77-.9C280.514,21.537,280.866,21.426,280.853,21.267Zm13.179,4.227a9.34,9.34,0,0,1-.952,1.529A73.1,73.1,0,0,0,289.212,37.4c.035.4-.088.65-.232.662-.072.007-.129.173-.109.412.042.478-.645,2.545-1.983,6.276a9.772,9.772,0,0,0-.688,2.068,5.9,5.9,0,0,1-.529,1.412c-.722,1.67-3.318,11.694-4.8,18.731-.655,3.269-1.359,5.98-1.51,5.914a28.064,28.064,0,0,0-1.076,5.072c-.948,5.7-1.043,6.275-.677,6.323.288-.024.012.963-.254,1.228a12.87,12.87,0,0,0-.618,2.864c-.192,1.944-.265,2.754-.009,3.214.357.771.3.937,0,.8-.517-.116-.7,10.259-.305,12.233.141.79.346,2.3.437,3.335.227,3.433.426,1.568.61-5.434.125-4.348.372-8.144.622-10.254.271-1.871.507-4.14.638-5.115.06-.969.344-2.68.534-3.82.261-1.149.6-3.106.845-4.412.176-1.3.569-3.422.83-4.57.183-1.22.417-2.686.519-3.176.094-.571.24-1.387.342-1.878.588-2.38,1.358-5.981,1.4-6.306.03-.484,2.395-9.847,3.919-15.6,1.05-3.706,4.981-15.855,6.565-20.09C294.558,24.886,294.659,24.4,294.032,25.494ZM278.777,98.463c-.086-.153-.144.012-.181.418.029.318.107.392.158.146S278.855,98.537,278.777,98.463Zm-.027,4.66c-.127-.631-.144.012-.106,2.1.129,3.121.268,4.715.462,4.457a11.4,11.4,0,0,0-.165-2.716,17.658,17.658,0,0,1-.1-2.8A1.271,1.271,0,0,0,278.75,103.123Zm8.192-51.953c-.812,3.123-.972,3.78-.664,3.994.316.293.323.373-.044.324-.287.025-.641.939-1.352,3.572a142.154,142.154,0,0,0-3.22,15.3c-.255,1.227-.736,4-1.122,6.2-.394,2.123-.854,5.135-1.016,6.594-.154,1.54-.4,3.729-.508,4.944a29.2,29.2,0,0,0-.3,4.04c-.051,2.736.371.932.662-3.189.266-2.754.4-3.649.742-3.92.4-.355.4-.436.067-.889s-.343-.612.019-1.447a5.4,5.4,0,0,0,.414-1.883c0-.8.315-2.2,1.291-7.582a2.92,2.92,0,0,0,.1-1.373c-.151-.068-.178-.387-.135-.711.115-.332.317-.51.468-.443.308.215.607-1.338.793-4.164a4.631,4.631,0,0,1,.37-1.559,17.848,17.848,0,0,0,.748-3.037,43.024,43.024,0,0,1,1.59-6.644,8.718,8.718,0,0,0,.472-2.049,3.1,3.1,0,0,1,.306-1.472,6.656,6.656,0,0,0,.349-1.8c.132-.974.3-1.552.456-1.4s.151.066.051-.246a5.162,5.162,0,0,1,.826-2.963,4.189,4.189,0,0,0,.407-1.963c-.011-.963.07-1.693.213-1.7s.332-.351.44-.762c.037-.4.218-.822.3-.748a10.466,10.466,0,0,0,.856-3.449C290.556,39.531,288.53,45.33,286.942,51.17Zm-5.084-29.991c-.007-.08-.087-.154-.23-.14a.161.161,0,0,0,.028.318C281.8,21.345,281.865,21.258,281.858,21.179Zm.991-.248a.164.164,0,0,0-.157-.146.522.522,0,0,0-.346.19c-.064.087.014.159.23.141C282.72,21.1,282.856,21.011,282.849,20.931Zm2.486-.539c-.215.02-.423.117-.417.2.014.16.229.14.575-.05C285.773,20.435,285.694,20.361,285.335,20.392Zm5.215-.777c-.007-.079-4.5.715-4.633.807-.065.086.366.048.933-.081.575-.05,1.645-.224,2.357-.368A3.881,3.881,0,0,0,290.55,19.615Zm17.622-2.906c.352-.112.568-.131.5-.045s.229.14.66.1c.718-.062.718-.062.208-.1s-.581-.03-.236-.219a5.43,5.43,0,0,1,1.379.039,4.031,4.031,0,0,0,2.284-.359,29.96,29.96,0,0,1,3.348-.616c.216-.018.359-.031.352-.111-.021-.238-1.458-.113-3.663.32-.926.162-2.356.368-3.139.516-1.861.244-2.076.263-2.277.44C307.525,16.765,307.813,16.74,308.172,16.709Zm9.576-1.4c.358-.031.8.011.861-.076.144-.012,1.43-.205,2.866-.33,1.43-.205,2.644-.393,2.716-.4a62.309,62.309,0,0,0-6.68.584C317.015,15.212,317.022,15.291,317.748,15.308Zm7.161-.867a2.989,2.989,0,0,0,1.084-.016c.5-.042.869,0,.876.084s.223.062.366.049c.287-.025.287-.025.137-.092-.3-.134-.3-.134-.021-.239a5.926,5.926,0,0,0-1.157.021C325.4,14.317,324.83,14.367,324.909,14.441ZM329.1,14.4a2.082,2.082,0,0,1,1.156-.02,2.611,2.611,0,0,0,1.091.064,24.746,24.746,0,0,1,4.573.162c.812.17,1.235.053.5-.123a18.825,18.825,0,0,0-7.775-.364C327.724,14.355,328.025,14.49,329.1,14.4Z"/></g></g></svg>