<svg xmlns="http://www.w3.org/2000/svg" width="173" height="95.891" viewBox="0 0 173 95.891"><defs><style>.cls-1{fill:#1b333f;}</style></defs><g id="レイヤー_2" data-name="レイヤー 2"><g id="レイヤー_1-2" data-name="レイヤー 1"><path class="cls-1" d="M51.875,8.253a.5.5,0,0,0-.279.087L.217,43.536A.5.5,0,0,0,0,43.949v9.467a.49.49,0,0,0,.217.41L51.6,89.025a.487.487,0,0,0,.279.087.523.523,0,0,0,.232-.057.5.5,0,0,0,.264-.443V73.531a.49.49,0,0,0-.216-.407L16.479,48.68,52.155,24.244a.506.506,0,0,0,.216-.415V8.753a.492.492,0,0,0-.264-.44A.467.467,0,0,0,51.875,8.253Z"/><path class="cls-1" d="M172.783,43.536,121.4,8.34a.5.5,0,0,0-.28-.087.466.466,0,0,0-.231.06.493.493,0,0,0-.265.44V23.834a.5.5,0,0,0,.217.41L156.521,48.68,120.845,73.124a.494.494,0,0,0-.217.413V88.612a.5.5,0,0,0,.265.443.522.522,0,0,0,.231.057.488.488,0,0,0,.28-.087l51.379-35.2a.49.49,0,0,0,.217-.41V43.949A.5.5,0,0,0,172.783,43.536Z"/><path class="cls-1" d="M109.986,0H95.625a.494.494,0,0,0-.469.334l-32.612,94.9a.5.5,0,0,0,.47.658H77.376a.493.493,0,0,0,.469-.336L110.456.662a.5.5,0,0,0-.47-.662Z"/></g></g></svg>