<svg xmlns="http://www.w3.org/2000/svg" width="279.097" height="148.991" viewBox="0 0 279.097 148.991"><defs><style>.cls-1{fill:#1b333f;}</style></defs><g id="レイヤー_2" data-name="レイヤー 2"><g id="レイヤー_5" data-name="レイヤー 5"><path class="cls-1" d="M31.294,71.819c.084-.3.327-1.075.52-1.73.267-1.107.335-1.184.782-1.4a1.75,1.75,0,0,1,.931-.072c.407.065.483.142.407.33-.058.234,0,.265.331.251a.745.745,0,0,0,.542-.091c.219-.186.923.3,1.077.724a1.934,1.934,0,0,1,.112.7c.026.2.053.671.088,1.031A5.981,5.981,0,0,1,36,72.921c-.075.45-.282,1.589-.5,2.571-.157,1.013-.431,2.76-.538,3.913-.36,4.009-.8,9.375-.848,10.56-.268,6.366-.4,7.847-.526,7.893a.1.1,0,0,0-.033.171,3.784,3.784,0,0,1,.022,1.64c-.04.81-.144,2.76-.156,4.306l-.1,2.746.831.441a2.216,2.216,0,0,1,.89.738,1.425,1.425,0,0,0,.45.579c.212.188.306.314.221.344s-.135.155-.066.344a2.336,2.336,0,0,1-.293,1.168c-.293.9-.361.982-.952,1.2-.44.107-.626.121-.678-.02-.034-.094-.152-.157-.194-.142-.085.031-.161-.046-.212-.188-.035-.094-.2-.141-.407-.064-.381.138-.389.247-.007.375.237.125.271.218.232,1.03,0,.531-.064,1.405-.063,1.935.019.577-.03,1.232-.029,1.5a7.846,7.846,0,0,0,.029,1c-.024.593-.4.731-.483.123-.059-.3-.077-.344-.228-.235-.094.139-.161.217-.126.311a2.494,2.494,0,0,1,.035.36c.009.155.144.265.431.266.39.019.39.019.3.424a1.277,1.277,0,0,0-.007.639c.035.094.107,1.343.145,2.763.055,1.468.095,3.682.185,4.979.045,1.311.067,2.684.059,3.058a23.633,23.633,0,0,0,.171,3.231c.086.5,0,.8-.15.905-.262.2-.3.108-.307-.845-.011-.686-.066-2.153-.144-2.762.009-.11-.059-.031-.118.2-.083.3-.1.516-.041.548.077.077.027.2-.007.373a3.97,3.97,0,0,0-.03,1.233c.044.515.139,1.17.123,1.39a2.91,2.91,0,0,0,.292,1.328,1.2,1.2,0,0,0,.066-.608c.041-.548.226-.827.363-.452a13.465,13.465,0,0,1,.207,1.359,7.207,7.207,0,0,0,.216,1.514,1.174,1.174,0,0,1-.032.7c-.168.327-.21.342-.642.34a7.342,7.342,0,0,0-.821-.02c-.229.03-.364-.08-.568-.377-.272-.486-.8-.613-.864-.271s-.3.217-.721-.268a4.56,4.56,0,0,1-.54-2.407,6.59,6.59,0,0,0-.1-.92,50.241,50.241,0,0,1-.329-7.742c.109-.359.253-.357.254-.092.009.156.069.188.093.125.136-.155-.052-.671-.222-.61-.042.016-.177-.094-.229-.235-.1-.281-.222-3.637-.3-10.3-.041-2.216-.089-4.057-.106-4.1a14.054,14.054,0,0,0-2.915,1.592,21.4,21.4,0,0,1-2.4,1.3c-1.04.432-1.082.447-1,.682.051.141-.1.249-.312.326s-.457.06-.474.013-.076-.078-.161-.047-.093.14-.059.233c.1.282-.429.8-.709.683-.16-.047-.2-.032-.211.077.035.094-.227.3-.548.467-.3.107-.558.308-.566.417a3.277,3.277,0,0,1-.81.667c-.414.309-1.107.774-1.563,1.1a6.858,6.858,0,0,1-1.1.665,3.957,3.957,0,0,0-.33.279,15.229,15.229,0,0,1-2.508,1.656c-.338.123-.354.342-.106,1.154a4.125,4.125,0,0,1-.1,2.216.245.245,0,0,0-.1.25,2.953,2.953,0,0,1,.156,1.217,10.531,10.531,0,0,0,.2,2.9c.059.033.086.236.094.391-.058.234-.058.234-.119-.062s-.068-.188-.1.249a1.512,1.512,0,0,0,.078.874c.051.141.086.234.027.2-.1-.015-.16.484-.141,1.061.03,1.529.073,1.78.13,1.014l.049-.654.1.547a14.324,14.324,0,0,1,.018,3.074,2.372,2.372,0,0,0,.1.547,2.3,2.3,0,0,1,.078.609,11.531,11.531,0,0,0,.058,2.263c.068.187.018.312-.152.373-.126.046-.279.155-.286.264-.025.062.034.094.144,0,.261-.2.373-.029.442.689.061.563.011.687-.176.7-.228.03-.211.077-.041.28.28.376.289.533.549,2.562a7.89,7.89,0,0,0,.7,2.984,11.946,11.946,0,0,0,.545,1.236c.136.11.036.625-.2.763a2.157,2.157,0,0,1-.574.263.8.8,0,0,1-1.035-.474c-.127-.218-.281-.376-.323-.361-.084.031-.033.173.078.344.145.267.145.267-.2.124a2.57,2.57,0,0,1-.907-.784,4.141,4.141,0,0,1-1-2.081,21.265,21.265,0,0,1-.67-3.156c-.138-.905-.26-1.764-.251-1.874-.077-.343-.184-2.216-.274-3.777-.07-.719-.1-3.043-.151-5.151-.007-2.122-.021-4.134-.056-4.494-.028-.734.352-1.136.4-.466.017.312.017.312.127-.046.217-.716.337-.123.317,1.531a131.507,131.507,0,0,0,.7,13.765c.458,2.969,1.031,4.937,1.6,5.315.373.236.389.018.116-.733a18.923,18.923,0,0,1-.713-3.4c.033-.172.084-.3.126-.312a1.57,1.57,0,0,0,.031-.7,59.039,59.039,0,0,1-.246-8.568,1.741,1.741,0,0,0-.07-.719,9.354,9.354,0,0,1-.022-1.638c.057-.765.054-1.826.052-2.357-.011-.951.089-1.466.225-1.09.051.141.077.078.135-.155a.76.76,0,0,0,0-.531c-.051-.141-.094-.126-.152.109-.125.576-.254.092-.2-.938a30.209,30.209,0,0,0,.063-4.431,2.045,2.045,0,0,0-.837.464c-.674.511-.743.588-.732,1.275a4.528,4.528,0,0,1-.124.842.407.407,0,0,0-.008.375,2.758,2.758,0,0,1-.046,1.45c-.17.061-.255-.172-.136-.374.067-.079.033-.172-.044-.251-.059-.031-.16-.047-.186.015-.227.3-.339-.143-.35-1.095a2.785,2.785,0,0,0-.029-1,68.13,68.13,0,0,0-5.564,4.309,9.3,9.3,0,0,1-1.7,1.255c-.143,0-.21.077-.176.172.051.14-.042.28-.21.341a.779.779,0,0,0-.4.357c-.109.358-.278.42-.675.246-.238-.126-.315-.2-.307-.578-.019-.578-.223-.876-.519-.768-.169.062-.2-.032-.263-.329-.061-.562-.1-.546.9-1.338.481-.386,1.182-.961,1.537-1.3a6.776,6.776,0,0,1,.835-.729.488.488,0,0,0,.262-.2,4.349,4.349,0,0,1,1.409-1.257c.06.031.127-.047.11-.094-.085-.234.523-.668,1.418-1.1a13.859,13.859,0,0,0,1.918-1.176,4.556,4.556,0,0,1,1.225-.711c.3.158.7-.043.473-.278-.2-.3-.128-.485.176-.437.2.032.314-.061.474-.279a1.231,1.231,0,0,1,.523-.4A1.591,1.591,0,0,0,12.394,118c0-.265.1-1.575.177-2.932.2-2.73.191-3.683-.017-2.543l-.133.685-.121-.593a13.67,13.67,0,0,1-.041-2.483c.283-4.086.308-4.679.177-5.694-.034-.359-.062-.828-.07-.983-.095-.656-.548.73-.58,1.7a10.617,10.617,0,0,1-.148,1.17,4.781,4.781,0,0,1-.057.765c-.032.7-.4,5.615-.472,6.332-.024.327-.113,1.794-.176,3.2a11.9,11.9,0,0,1-.262,2.7c-.11.093-.127.047-.145-.266s-.018-.312-.144,0a1.193,1.193,0,0,0-.041.545c.052.142-.016.219-.118.2-.245-.017-.262-.065-.085-3,.089-1.467.159-3.246.216-4.011a3.157,3.157,0,0,1,.183-1.34c.1.016.109-.093.015-.218a62.487,62.487,0,0,1,.487-7.083,14.74,14.74,0,0,0,.158-3.775.465.465,0,0,0-.289,0c-.126.047-.219-.078-.288-.265a2.379,2.379,0,0,0-.645-.722c-.544-.44-.893-1.269-.631-1.47a18.1,18.1,0,0,0,.51-2.151c.883-4.676,1.158-5.892,1.285-5.938.042-.015.05-.125,0-.266a7.626,7.626,0,0,1,.551-2.431,3.143,3.143,0,0,0,.192-.655,27.308,27.308,0,0,1,.683-3.913c.051-.124.242-1.043.476-1.979a6.691,6.691,0,0,1,.545-1.792c.042-.015.092-.139.041-.28a1.4,1.4,0,0,1,.707-1.478c.837-.2,1.226-.182,1.244.131q.039.3.408.329a.473.473,0,0,1,.381.128,22.05,22.05,0,0,1,.034,2.854c-.05.391-.1,1.046-.149,1.435-.092.406-.248,1.95-.361,3.478-.131,1.483-.319,3.463-.452,4.414-.107.89-.206,1.669-.206,1.669.017.047-.156,1.809-.377,3.961-.2,2.09-.426,4.617-.457,5.583-.111,2.59-.592,8.768-.7,8.861a.4.4,0,0,0-.007.374c.051.141.059.3-.025.327-.169.062-.21.608-.081,1.093a15.2,15.2,0,0,1-.292,4.2c-.085.031-.238-.126-.323-.36-.12-.329-.162-.314-.16-.048a.7.7,0,0,0,.306.579c.348.3.382.391.153.422-.084.03-.1.249-.006.639.1.547.18.625.314.47a7.233,7.233,0,0,1,1.243-.665,5.32,5.32,0,0,0,1.959-1.455,43.564,43.564,0,0,1,4.687-3.3,1.554,1.554,0,0,0,.346-.232,13.542,13.542,0,0,1,2.755-1.64c.11.173.49.034.439-.107-.086-.234.345-.5,2.162-1.424l1.733-.9.054-1.56c.065-.874.085-2.527.133-3.713-.012-1.217.109-3.121.215-4.274a15.051,15.051,0,0,0,.086-2.263c-.068-.187.1-.249.321-.17.059.032.043.25-.033.437-.125.311-.125.311.111.172.364-.185.4.174.17,2.966-.08,1.357-.145,2.5-.128,2.543.035.094-.02,1.389-.033,2.934-.069,2.308-.033,2.933.171,3.495s.282.642.264.329c-.026-.2-.07-.453-.188-.516-.051-.14-.068-.187.1-.249a.344.344,0,0,1,.339.142c.051.141.076.079-.009-.155-.06-.3-.044-.517.15-.64.178-.17.219-.45.176-.965-.089-1.032.1-1.311.345-.5.077.345.188.781.215.985,0,.264.034.359.186.25a41.784,41.784,0,0,0,.539-6.676c.061-2.2.109-3.12.405-8.751.177-2.668.073-6.242-.163-5.837a.566.566,0,0,0-.006.374,2.13,2.13,0,0,1-.117.733,28.443,28.443,0,0,0-.373,5.287,1.523,1.523,0,0,1,.095.657c-.042.281-.084.3-.22.186-.118-.063-.177-.1-.143,0a4.245,4.245,0,0,1-.106,1.684,12.8,12.8,0,0,1,.034-2.933c.054-1.56.393-7.206.587-9.828.065-1.138.079-2.152.062-2.2-.069-.188-.549.465-.708.948a1.314,1.314,0,0,0-.024.592.54.54,0,0,1-.033.438,7.958,7.958,0,0,0-.21,3.1c.1.281.07.453-.058.5a2.11,2.11,0,0,0-.207,1.4c.069.188.111.173.186-.015s.16-.217.2-.124a1.382,1.382,0,0,1-.168.592,26.769,26.769,0,0,0-.769,5.911c-.064,1.139-.148,1.434-.384,1.574a.263.263,0,0,1-.34-.142c-.273-.75,1.23-18.719,1.855-21.867.075-.453.075-.453-.1-.282C31.085,72.691,31.076,72.535,31.294,71.819Zm-21.729,51.3c-.069-.188-.22-.079-.237.14-.008.108.094.125.119.062C9.514,123.247,9.582,123.169,9.565,123.122Zm.814.659c-.075-.078-.143,0-.117.2.043.251.06.3.152.158A.776.776,0,0,0,10.379,123.781Zm.349,16.871a2.629,2.629,0,0,0,.015-.484c-.085-.234-.194.124-.16.483C10.644,140.949,10.644,140.949,10.728,140.652Zm1.727-43.917c.085.234.244-.514.158-.749-.034-.094-.1-.016-.118.2A.835.835,0,0,0,12.455,96.735Zm-.012-1.218c.051.142.22.08.338-.123s.116-.733.032-.7A1.633,1.633,0,0,0,12.443,95.517Zm.294,21.458a.64.64,0,0,0-.032.437c-.008.109.017.311.026.468-.016.219,0,.265.051.141a1.52,1.52,0,0,0,.074-.717C12.847,116.882,12.813,116.787,12.737,116.975Zm.107-6.678c.05-.125.041-.281-.019-.313s-.109.094-.058.235C12.75,110.436,12.768,110.483,12.844,110.3Zm.331.516a.571.571,0,0,0-.11-.172c-.043.015-.051.125-.059.234.009.157.043.249.128.219S13.226,110.955,13.175,110.813Zm.088-20.8c.043-.016.076-.188.025-.328-.145-.267-.145-.267-.178-.094C13.043,89.933,13.1,90.075,13.263,90.014Zm.207,6.351c-.058.764-.04.812.128.751.085-.031.11-.095.076-.188-.016-.047.058-.5.115-1,.076-.454.066-.874-.019-.843C13.592,94.993,13.467,95.569,13.47,96.365Zm.087,1.03c-.034-.092-.059-.03-.109.093a2.161,2.161,0,0,0,.009.423c.017.046.1.016.093-.141A.711.711,0,0,0,13.557,97.4Zm.611-2.134a8.4,8.4,0,0,1-.232,1.465,2.633,2.633,0,0,0,.037,1.155l.163.578.116-.732a1.461,1.461,0,0,0-.061-.827c-.077-.079-.094-.126.007-.11.162.049.319-.965.357-2.308a.1.1,0,0,0-.118-.061A1.682,1.682,0,0,0,14.168,95.261ZM14.66,92.8l.134-.42a8.288,8.288,0,0,0,.207-1.4,11.348,11.348,0,0,1,.183-1.341,19.4,19.4,0,0,0,.294-3.4,5.533,5.533,0,0,0-.3,2.073.8.8,0,0,1-.058.5,10.341,10.341,0,0,0-.449,2.712,1.813,1.813,0,0,1,.027.733Zm8.23,20.376a.557.557,0,0,0-.381.138,1.5,1.5,0,0,1-.421.418l-.312.327.345-.233c.153-.108.516-.294.71-.417C23.136,113.191,23.16,113.129,22.89,113.174Zm.811-.4a.558.558,0,0,0-.38.139c-.068.078.017.047.228-.03S23.845,112.772,23.7,112.771Zm1.841-1.254a6.439,6.439,0,0,0-.819.511c-.135.155.034.094.4-.092a2.929,2.929,0,0,0,.8-.557C26.075,111.27,25.931,111.27,25.542,111.517Zm2.019-1.16c-.084.031-.169.061-.194.123s.035.095.187-.013C27.68,110.421,27.705,110.357,27.561,110.357Zm1.853-3.065c.05-.124.058-.233,0-.264s-.109.092-.1.248C29.3,107.5,29.338,107.48,29.414,107.292Zm2.317,4.787c-.046-1.044-.114-1.5-.251-1.608-.16-.048-.211.077-.244.513-.024.329-.108.625-.234.671a.222.222,0,0,0-.084.3c.034.093.026.2-.093.14-.1-.016-.152-.157-.153-.422.025-.328-.07-.454-.248-.547-.254-.174-.279-.111-.227.294a9.786,9.786,0,0,1,.024,2.435,12.862,12.862,0,0,0-.123,1.372,5.85,5.85,0,0,1-.19,1.186c-.085.031-.093.14-.059.233a2.128,2.128,0,0,1,.028.733c-.054,1.826.142,7.757.509,14.156.08,1.405.446,4.777.548,5.06.085.233.17-.062.4-1a9.18,9.18,0,0,0,.07-2.31c-.087-.764-.107-1.607-.108-1.873a7.753,7.753,0,0,0-.089-1.295,3.691,3.691,0,0,1-.053-.936c.008-.11,0-1.171-.033-2.326a14.846,14.846,0,0,1,.01-2.341.927.927,0,0,0-.069-.453.826.826,0,0,1-.027-.468,4.7,4.7,0,0,0,0-.8c.007-.374-.012-.951.013-1.28a24.147,24.147,0,0,0-.059-3.058c-.019-.313,0-.531.081-.562.043-.015.034-.172-.094-.39a.606.606,0,0,1-.053-.672,1.755,1.755,0,0,0,.048-.921c-.069-.452.083-.826.22-.451.05.141.169,2.967.182,4.713.02.579.041,2.217.1,3.683,0,1.436,0,2.763.009,2.919,0,.265.276,4.573.454,7.43a2.334,2.334,0,0,0,.214.719c.263.329.261-.2.01-4.838-.082-2.2-.193-5.134-.256-6.492a23.624,23.624,0,0,0-.2-4.76.976.976,0,0,1,.033-.7,1.069,1.069,0,0,0-.088-.764.682.682,0,0,1-.018-.578A29.912,29.912,0,0,0,31.731,112.079Zm-1.613-1.536c.085.233.145.265.263.063.05-.124.083-.3.007-.375C30.133,110.058,30.016,110.261,30.118,110.543Zm.789.456c.05.14.068.188.059.031a.245.245,0,0,0-.085-.234C30.821,110.765,30.838,110.812,30.907,111Zm.39-2.48a.218.218,0,0,0,.178.1.1.1,0,0,0,.033-.172c-.076-.079-.2-.141-.237-.126A.558.558,0,0,0,31.3,108.519Zm.944,1.41c-.011-.686-.072-1.249-.139-1.172a.682.682,0,0,0-.042.282,3.358,3.358,0,0,1,.02,1.107,11,11,0,0,0,.2,2.8,2,2,0,0,0,.041-.546c.049-.39.033-.437.161-.217.085.233.127.218.134-.156.041-.281.016-.483-.163-.578C32.321,111.334,32.252,110.881,32.241,109.929Zm.245,5.542c-.136-.376-.136-.376-.2-.034-.134.421-.083.562.17.469C32.58,115.86,32.588,115.751,32.486,115.471ZM32.4,118c-.119-.064-.136.155-.083.561a11.892,11.892,0,0,1,.1,1.186c.114,1.233.3.688.235-.669C32.614,118.451,32.519,118.061,32.4,118Zm.144,3.027c-.2-.141-.262-.063-.177.171.052.142.153.158.178.095A.192.192,0,0,0,32.545,121.025Zm-.028-17.57c-.017-.047-.085.03-.118.2a1.428,1.428,0,0,0-.024.592C32.5,104.47,32.619,103.736,32.517,103.455Zm.036,6.148c-.069-.188-.16.483-.116,1,.061.563.179.361.185-.278A1.833,1.833,0,0,0,32.553,109.6Zm.153-5.1c-.059-.032-.067.077.026.2.051.141.111.173.119.063C32.817,104.674,32.766,104.533,32.706,104.5Zm.127,22.314a18.567,18.567,0,0,0,.061,3.058,9.271,9.271,0,0,0,.06-2.465C32.9,127.005,32.842,126.707,32.833,126.816Zm.852-17.785c-.1-.281-.5.076-.574.529-.116.731-.057.763.3.156A1.3,1.3,0,0,0,33.685,109.031Z"/><path class="cls-1" d="M86.568,62.7a3.241,3.241,0,0,1-1.028,1.649.891.891,0,0,0-.389.248,17.547,17.547,0,0,1-2.509,1.391,3.163,3.163,0,0,0-.82.245c-.465.169-.778.23-.9.167a1.027,1.027,0,0,0-.432,0c-.3.108-.347-.033-.025-.2a11.832,11.832,0,0,0,2.2-1.7c-.052-.14.792-.978,1.4-1.413.429-.263.48-.387.277-.419a67.341,67.341,0,0,0-8.169,2.282c-.819.246-5.908,2.31-7.506,3.051-.659.293-1.7.725-2.316,1-1.039.431-1.994.832-2.679,1.187-.074.717-.173,1.5-.23,2.261a116.642,116.642,0,0,0-.886,11.9c-.036,2.137-.129,5.039-.235,6.2-.3,3.134.154,14.23.8,20.211.131,1.279.3,2.919.384,3.685A55.85,55.85,0,0,0,67,129.412c.46,1,1.251,2.253,1.463,2.176.06.032.337-.388.7-.84a3.583,3.583,0,0,1,.726-.9c.313-.062,1.547,1.88,1.42,2.192a.843.843,0,0,0-.024.593c.112.437-.682,1.151-1.349,1.288a5.175,5.175,0,0,1-1.067-.036c-.322-.1-.805-.24-1.085-.35a1.51,1.51,0,0,0-.728-.16,6.2,6.2,0,0,1-1.255-.818c-1.824-1.46-3.136-4.275-4.551-10.135a82.3,82.3,0,0,1-2.078-12.416c-.55-5.59-.871-10.943-.888-16.514-1.545,6.671-3.334,14.12-3.836,15.9A16.111,16.111,0,0,1,53.34,112.4a.441.441,0,0,0-.084.3,11.26,11.26,0,0,1-1.074,2.835,12.311,12.311,0,0,1-2.8,3.621l-.592.215a4.426,4.426,0,0,1-4.183-.708,8.369,8.369,0,0,1-.874-.69A51.774,51.774,0,0,1,42.7,112.5c-.035-.359-.087-1.03-.139-1.436a13.633,13.633,0,0,1-.1-1.717c-.027-.469-.056-1.467-.1-2.247.015-.75,0-1.7.036-2.139s.138-1.59.17-2.558a26.62,26.62,0,0,1,.476-4.741c.242-1.043.268-1.106.673-1.307.321-.17.524-.137,1.371.085l1.068.3.187.516a2.881,2.881,0,0,1,.156,1.218c-.049.39-.081,1.092-.138,1.591,0,.53-.115,1.264-.148,1.7-.05.389-.14,1.324-.188,1.98s-.131,1.481-.2,1.825a12.024,12.024,0,0,0-.088,1.466c-.016.484-.056,1.029-.073,1.248a33.924,33.924,0,0,0,.4,7.133c.128.484.129.75,0,.8a.307.307,0,0,0-.143.265c.034.093.076.078.127-.046.176-.171.4.172.339.407a1.392,1.392,0,0,0,.231.764l.307.581.5-.34a10.5,10.5,0,0,0,2.384-3.577c1.557-3.222,6.2-20.847,8.689-31.367.21-3.369.453-6.911.814-10.653a2.769,2.769,0,0,1-.405.2c-.035-.095-5.967,2.809-6.187,2.993-.067.078-.025.063-6.938,3.429-5.738,2.78-9.11,4.431-11.806,5.838a39.925,39.925,0,0,1-4.606,1.942,1.2,1.2,0,0,1-1.068-.567c-.051-.141-.17-.2-.237-.127-.17.062-.46-.735-.342-.938a1.078,1.078,0,0,0,.074-.452c0-.264,0-.264,1.057-.649.972-.354,1.04-.432,1.334-.806a1.682,1.682,0,0,1,1.954-.552c.254.175.3.159.872-.1.32-.17,1.766-.8,3.152-1.467s2.788-1.28,3.026-1.419c.32-.171.549-.2.566-.153s-.135.155-.3.216a2.808,2.808,0,0,0-.6.324c-.65.451,3.179-1.262,6.677-2.96.642-.34,2.771-1.328,4.648-2.223,1.919-.911,4.284-2.037,5.308-2.516.98-.463,2.045-.958,2.382-1.081a10.785,10.785,0,0,1,1.15-.524l.474-.279c.287-2.76,1.056-8.67,1.24-9.481a5.291,5.291,0,0,0,.1-1.31,1.153,1.153,0,0,1,.86-1.321c.566-.153,1.862.119,1.922.415.017.047.22.079.406.065.754-.167,1.7,1.241,1.276,1.925a1.346,1.346,0,0,0-.083.561,13.005,13.005,0,0,1-.557,3.338c-.2.763-.467,2.135-.733,3.772,2.662-1.235,5.73-2.67,6.964-3.225,1.4-.618,3.034-1.264,6.543-2.542,4.523-1.646,4.691-1.707,5.563-1.811a4.674,4.674,0,0,1,2.455.168.971.971,0,0,1,.357.455c.068.188.179.36.28.376C86.345,61.82,86.524,62.18,86.568,62.7Zm-34.6,11.852c-.017-.047-.1-.016-.126.046a4.637,4.637,0,0,1-.558.309c-.829.355-3.618,1.636-5.071,2.377-.811.4-2.07,1.02-2.8,1.39a6.512,6.512,0,0,0-1.37.71,20.619,20.619,0,0,0,2.68-1.187c.728-.37,2.028-1,2.924-1.436s2.13-.987,2.729-1.313C51.82,74.811,52.014,74.687,51.963,74.547ZM43.476,91.606c-.221-.08-.255-.174-.123-1.39a34.526,34.526,0,0,1,1.815-6.981c.706-1.48.9-1.6,1.623-.8.382.391.451.58.434.8a5.415,5.415,0,0,0,.078.609,4.389,4.389,0,0,1-.148,1.435,27.929,27.929,0,0,0-.756,4.366c-.13,2.012-.331,2.775-.67,2.633a1.051,1.051,0,0,0-.542.09.767.767,0,0,1-.854-.112,3.27,3.27,0,0,1-.527-.394C43.772,91.763,43.6,91.668,43.476,91.606Zm9.1-17.228c-.017-.047-.076-.078-.161-.047-.042.015-.109.093-.092.14s.118.063.16.047C52.564,74.487,52.589,74.425,52.572,74.378Zm.558-.309c-.017-.047-.077-.078-.161-.048a.336.336,0,0,0-.135.156c-.025.062.033.093.16.047C53.079,74.194,53.147,74.116,53.13,74.069Zm1.41-.726c-.127.047-.236.139-.219.186.034.094.161.048.338-.123C54.752,73.266,54.752,73.266,54.54,73.343Zm3.018-1.31A20.257,20.257,0,0,0,54.9,73.267c-.025.062.228-.03.55-.2.3-.108.9-.432,1.36-.6A2.808,2.808,0,0,0,57.558,72.033Zm4.22,45.789c-.181-1.156-.364-2.577-.442-3.186-.119-.593-.225-1.671-.3-2.389s-.141-1.967-.2-2.794c-.1-.812-.21-2.155-.3-2.919-.028-.734-.124-1.655-.142-1.967a8.431,8.431,0,0,1-.1-1.187c-.03-1.53-.146-3.824-.173-4.027-.1-.281-.146-6.32-.157-10.034,0-.8.06-2.2.14-3.823-.243,1.044-.493,2.2-.793,3.477a.4.4,0,0,0,.008.155,3.6,3.6,0,0,1-.09.936c-.165,1.122-.111,7.583.13,12.062a19.091,19.091,0,0,1,.046,3.808,19.813,19.813,0,0,0,.128,3.247c.392,3.574.427,3.934.638,3.857.187-.014.181.626.02.844-.025.061.037.889.116,1.763.173,1.265.3,1.75.53,1.984.34.408.332.517.086.5-.287,0,1.281,6.279,1.835,7.405.213.454.579,1.33.8,1.94.692,2.031.511.876-.51-3.374A60.27,60.27,0,0,1,61.778,117.822Zm-1.8-36.1c-.017-.047-.161-.049-.347-.035a.568.568,0,0,1,0,.266c.042-.016.127-.046.151-.108C59.958,81.782,60.026,81.705,59.983,81.721Zm.531-3.54c-.184.81-.325,1.605-.417,2.01a1.132,1.132,0,0,0,0,.531c.026.2.069.188.178-.172l.075-.186C60.408,79.6,60.465,78.836,60.514,78.181Zm.142-3.292c-.041.28-.091.67-.14,1.06-.1.78-.208,1.4-.191,1.45.076.078.11-.093.126-.311a4.1,4.1,0,0,1,.134-.687c.008-.108.082-.561.14-1.06C60.807,74.514,60.756,74.374,60.656,74.889Zm-.177,16.742c.014,2.013.024,2.434.244,2.514.238.126.255.172.026.2-.169.061-.252.623-.237,2.37.01,3.449.189,6.836.486,9.756.087.764.245,2.514.351,3.855.122,1.39.331,3.279.47,4.186.155.952.362,2.311.449,3.075.13.75.336,1.843.5,2.422.428,1.7.373.5-.1-1.983-.284-1.7-.345-2.265-.185-2.482.185-.28.168-.326-.1-.546s-.306-.315-.223-.876a4.835,4.835,0,0,0-.054-1.2,37.021,37.021,0,0,1-.447-4.777,1.888,1.888,0,0,0-.163-.843c-.1-.017-.17-.2-.2-.407.016-.218.109-.358.211-.342.22.079.132-.951-.194-2.639a2.853,2.853,0,0,1-.03-1,8.549,8.549,0,0,0-.082-1.936,31.25,31.25,0,0,1-.072-4.275,5.433,5.433,0,0,0-.046-1.311,3.1,3.1,0,0,1-.095-.921,3.64,3.64,0,0,0-.038-1.156c-.079-.608-.114-.967.048-.921.077.079.1.016-.026-.2a3.075,3.075,0,0,1,.036-1.872,2.615,2.615,0,0,0-.071-1.249c-.163-.578-.232-1.031-.148-1.062s.1-.248.1-.514a1.241,1.241,0,0,1,.083-.562,6.168,6.168,0,0,0-.023-2.169C60.735,84.049,60.476,87.808,60.479,91.631ZM63.2,121.449c-.078-.078-.085.031-.059.234.085.234.145.266.135.111S63.253,121.481,63.2,121.449Zm.718,2.765c-.161-.312-.109.093.275,1.282.582,1.859.94,2.844,1.015,2.658a11.915,11.915,0,0,0-.538-1.611,10.317,10.317,0,0,1-.512-1.672A.91.91,0,0,0,63.913,124.214ZM72.6,65.229a7.01,7.01,0,0,0-2.156.785,14.2,14.2,0,0,1-1.808.817c-1.065.495-1.192.541-1.284.68-.026.062.1.016.3-.108.253-.092.38-.138.355-.076s.16.047.414-.045c.406-.2.406-.2.068-.078-.313.062-.33.015-.178-.093a7.256,7.256,0,0,1,.862-.262,2.241,2.241,0,0,0,1.336-.538,18.959,18.959,0,0,1,1.918-.912C72.552,65.353,72.619,65.276,72.6,65.229Zm.431-.263c-.237.139-.22.186.2.032a2.714,2.714,0,0,0,.524-.138c.084-.031.786-.339,1.673-.662.829-.354,1.53-.663,1.573-.679A39.814,39.814,0,0,0,73.033,64.966ZM78.875,63c-.161-.048-.161-.048-.051-.141.068-.077-.228.03-.693.2-.423.154-.761.277-.7.309a1.716,1.716,0,0,0,.609-.169c.3-.107.567-.153.584-.106s.1.016.228-.03C79.019,63,79.019,63,78.875,63Zm5.5-1.47a11.761,11.761,0,0,0-4.745,1.037c-.515.293-.312.325.305.048.338-.123.634-.231.71-.152.043-.016.355-.075.652-.183a15.249,15.249,0,0,1,2.8-.6C84.609,61.656,84.846,61.516,84.372,61.529Z"/><path class="cls-1" d="M128.461,73.368a7.689,7.689,0,0,1-.562,4.241c-.326,1.074-.7,2.43-.828,3.116a6.693,6.693,0,0,1-.335,1.185,6.881,6.881,0,0,0-.538,1.151,8.708,8.708,0,0,1-3.21,4.462,2.6,2.6,0,0,1-1.573.679,5.9,5.9,0,0,1-3.482-1.018c-.33-.25-.933-.722-1.307-.958a12.515,12.515,0,0,1-2.853-3.37c-.953-1.566-2.365-4.132-3.022-5.539-.289-.532-.6-1.267-.749-1.533s-.272-.486-.314-.47a9.579,9.579,0,0,0-.774,1.822c-.4,1-.731,1.806-.8,1.884-.465.434-2.377,11.488-2.122,12.192a3.851,3.851,0,0,1-.082.826,1.847,1.847,0,0,0-.057.764,4.846,4.846,0,0,1-.907,1.977.464.464,0,0,1-.559.044.884.884,0,0,0-.483-.143c-.127.046-.28-.11-.408-.331-.2-.3-.246-.281-.322-.093-.167.325-.3.216-1.076-.724-.867-1.065-1.643-3.067-2.245-6.036A22.994,22.994,0,0,0,98.64,82.84a6.9,6.9,0,0,1-.716-1.7l-.59-1.751-.561,1.745a112.091,112.091,0,0,0-3.7,18.5,6.519,6.519,0,0,1-.224,1.356,2.136,2.136,0,0,0-.134.686,3.379,3.379,0,0,1-.1.78.614.614,0,0,1-.915.119.429.429,0,0,0-.44-.157c-.2.233-1.587-1.07-1.825-1.727-.145-.265-.5-1.25-.887-2.173a8.205,8.205,0,0,1-.771-3.171c-.087-.766-.119-2.826-.124-4.417.021-4.151.052-4.853.155-7.333.039-1.342.053-2.091-.1-1.983-.2.234-.211.077-.019-.843.225-.825.233-1.2.014-.748-.1.248-.1.248-.093-.125.016-.219.109-.359.168-.328a1.615,1.615,0,0,0,.168-.592c.032-.436.115-1,.181-1.606a75.4,75.4,0,0,0-6.859,4.3c-2.653,1.92-4.019,3.162-3.765,3.336.06.03.433.266.865.533a9.345,9.345,0,0,1,2.9,3.354,14.451,14.451,0,0,1,.777,2.268,5.353,5.353,0,0,1,.094,2.888,43.152,43.152,0,0,1-2.464,7.96c-1.319,3.084-2.331,4.248-3.6,4.18-1.676-.134-2.906-1.014-4.224-2.926a9.437,9.437,0,0,1-1.7-5.594,31.993,31.993,0,0,1,.269-6.1,21.313,21.313,0,0,1,1.017-5.1,7.139,7.139,0,0,0,.359-1.511c-.085-.235.4-.731.826-.885a1.186,1.186,0,0,1,1,.379A6.7,6.7,0,0,1,75.174,86.5a15.977,15.977,0,0,1-.767,3.943A53.158,53.158,0,0,0,73.4,98.189a30.25,30.25,0,0,0,.173,4.027c.1.546.12.593.551.6a2.167,2.167,0,0,0,.787-.074,2.519,2.519,0,0,0,1.308-1.273,7.169,7.169,0,0,1,.564-1.215,28.256,28.256,0,0,0,3.039-8.223,7.713,7.713,0,0,0-.274-3.512,3.572,3.572,0,0,0-2.309-2.134c-1.949-.884-2.457-1.23-3.028-2.138-.484-.673-.442-.955-.063-1.357a42.5,42.5,0,0,1,3.858-2.947,2.694,2.694,0,0,0,1-.68,35.026,35.026,0,0,1,4.46-2.739c.921-.495,2.425-1.36,3.328-1.9.77-.386,1.649-.865,2.2-1.065.336-.389.743-.59.829-.355.034.094.177.1.287,0,.346-.233,1.345-.119,1.507.195a2.124,2.124,0,0,0,.527.658,1.165,1.165,0,0,1,.459,1,5.4,5.4,0,0,1-.282,1.589c-.52,1.731-.643,2.838-.876,7.065-.191,3.947-.179,4.9-.013,4.041a21.862,21.862,0,0,1,1.046-4.1c.126-.047.109-.094.075-.187-.228-.235,1.75-6.373,2.323-7.166a1.279,1.279,0,0,1,1.08-.712,5.4,5.4,0,0,1,1.668-.023c.831.176,1.008.271,1.127.6a3.858,3.858,0,0,0,.6.846c.4.44.544.7,1.329,2.862a39.164,39.164,0,0,1,1.9,6.8c.66,3,.738,3.342.822,3.311,0,0,.166-1.122.365-2.417,1.011-6.954,2.29-12.253,3.36-13.651a2.677,2.677,0,0,1,2.656-.86,3.937,3.937,0,0,1,.9.364,20.542,20.542,0,0,1,2.857,4.43c2.562,4.8,3.421,6.244,4.483,7.45.51.612.722.8,1.153.8.509.081.618-.013,1.538-.772,2.068-1.816,4.551-6.437,6.017-11.485a20.364,20.364,0,0,1,.864-2.493c.169-.061.45.846.333,1.048-.067.077-.033.171.128.219S128.316,72.837,128.461,73.368Zm-39.287,22c-.051-.142-.077-.08-.05.124a1.634,1.634,0,0,0,.061.562c.068.188.093.126.067-.078A1.622,1.622,0,0,0,89.174,95.369Zm.08,1.139c-.076-.078-.025.062.06.3.06.3.119.327.111.17A.951.951,0,0,0,89.254,96.508Zm39.187-24.249a.557.557,0,0,1,.121.594c-.059.233-.059.233-.272-.22C128.069,72.023,128.1,71.851,128.441,72.259Z"/><path class="cls-1" d="M140.174,83.711a10.9,10.9,0,0,1-2.756,3.605l-.635.231a4.356,4.356,0,0,1-4.14-.723,4.542,4.542,0,0,1-.874-.691,53.825,53.825,0,0,1-1.032-5.468c-.036-.358-.13-1.015-.14-1.436-.052-.405-.1-1.187-.123-1.654,0-.531-.031-1.529-.058-2.264a19.663,19.663,0,0,1,.018-2.184c.033-.436.1-1.575.145-2.495a28.586,28.586,0,0,1,.476-4.742c.242-1.045.293-1.168.656-1.354.322-.17.567-.153,1.431.116l1.008.272.248.547a3.541,3.541,0,0,1,.138,1.17c-.049.39-.081,1.092-.138,1.591a15.311,15.311,0,0,1-.148,1.7c-.032.437-.139,1.327-.188,1.981-.074.717-.174,1.5-.2,1.825s-.074.984-.089,1.467-.039,1.076-.074,1.247a33.463,33.463,0,0,0,.413,7.181c.068.452.069.718-.015.749a.213.213,0,0,0-.144.263c.035.094.077.079.144,0,.161-.217.382.128.3.423a2.111,2.111,0,0,0,.273.751l.247.547.5-.341c.625-.385,1.459-1.646,2.426-3.592a71.855,71.855,0,0,0,5.306-16.855,5.769,5.769,0,0,1,.367-1.621c.084-.031.151-.375.2-.765s.091-.67.15-.638a2.927,2.927,0,0,1-.189,1.714.1.1,0,0,0-.033.173c.1.016.052.671-.081,1.356-.1.78-.207,1.4-.191,1.451.078.079.111-.093.127-.312.059-.233.083-.561.133-.686.008-.108.109-.623.166-1.122.166-1.122.25-1.418.42-1.215a.479.479,0,0,1,.052.406,6.527,6.527,0,0,0-.318,1.5c-.182,1.075-.6,3.351-.807,4.224a1.132,1.132,0,0,0,0,.531c.044.249.069.187.22-.186a25.742,25.742,0,0,0,.933-4.537c-.118-.062-.076-.078.009-.108.161.047.235-.67.057-.766-.06-.031-.085-.234-.01-.419l.05-.391.212.453c.274.751.218,1.78-.781,7.455a30.493,30.493,0,0,1-1.4,5.5,16.993,16.993,0,0,1-1.066,2.99.317.317,0,0,0-.067.344A15.452,15.452,0,0,1,140.174,83.711Zm-8.8-26.542a34.761,34.761,0,0,1,1.857-7c.664-1.464.859-1.588,1.58-.789.383.393.493.565.477.783a1.908,1.908,0,0,0,.077.609,3.729,3.729,0,0,1-.164,1.388,26.771,26.771,0,0,0-.74,4.412c-.172,2.028-.372,2.791-.686,2.587a1.4,1.4,0,0,0-.524.138.82.82,0,0,1-.856-.114,2.031,2.031,0,0,1-.543-.439c-.059-.032-.2-.142-.313-.2C131.278,58.478,131.286,58.37,131.376,57.169Zm11.131,14.538c.034.094.178.1.348.033a1.419,1.419,0,0,0,.22-.186c-.043.015-.2-.031-.39-.017S142.473,71.614,142.507,71.707Z"/><path class="cls-1" d="M217.925,7.98c.183-1.076.021-1.388-.63-1.47-.3-.048-.831-.176-1.195-.255a2.759,2.759,0,0,0-1.134.04,6.6,6.6,0,0,1-1.2.119,25.337,25.337,0,0,0-7.553,1.74,22.144,22.144,0,0,1-2.342.8,1.442,1.442,0,0,1,.05-.39c.058-.234.016-.219-.33.014-.178.171-.354.342-.321.435a.49.49,0,0,1-.244.249c-.254.092-.271.045-.154-.157.077-.187-.346-.033-1.538.507-.913.385-1.741.739-1.826.77-.465.169-6.405,3.181-7.03,3.568-.236.14-.371.3-.355.343.035.093-.227.294-.548.464a6.324,6.324,0,0,0-.845.573c-.2.124-.254.093-.245-.016-.01-.157-.069-.189-.2-.142-.084.03-.109.093-.033.172.034.093-.093.14-.321.17a5.065,5.065,0,0,0-1.023.478c-.431.263-.5.341-.227.3.355-.077.355-.077.094.125-.38.4-.947.558-1.117.354-.076-.08-.1-.017-.05.125.119.328-.143.529-.329.278-.094-.125-.178-.094-.322.17-.168.327-.362.451-.861.526-.457.061-.651.184-.727.371a1.339,1.339,0,0,1-.353.608.725.725,0,0,0-.116.731,2.574,2.574,0,0,1-.031,1.234,54.31,54.31,0,0,0-.8,5.441c.035.094,0,.8-.02,1.654-.286,3.29-.493,7.721-.454,9.141-.015.75-.062,1.935-.11,2.591-.066.608-.081,1.623-.087,2.262.011.687-.038,1.606-.07,2.044a14.8,14.8,0,0,0,.03,1.528c.018.313-.006.906-.013,1.28a23.1,23.1,0,0,0-.144,2.762,22.3,22.3,0,0,1-.052,2.355c-.033.172-.063,1.4-.1,2.746.02,1.374-.084,3.058-.1,3.807-.089,1.467-.182,6.6-.181,9.892.085,5.759.511,12.19.876,12.269a.2.2,0,0,1,.1.283A2.837,2.837,0,0,0,183.977,82a5.091,5.091,0,0,1,.308,1.375,2.966,2.966,0,0,0,.1.812.609.609,0,0,1-.192.655c-.4.357-.633.5-.7.308-.034-.094-.212-.188-.432-.268a.681.681,0,0,1-.467-.361,2.177,2.177,0,0,0-.832-.706l-.687-.44-.383-1.189a29.642,29.642,0,0,1-.766-6.573.908.908,0,0,0-.035-.624c-.111-.172-.207-1.359-.382-5.651-.036-.889-.082-2.2-.093-2.887-.07-.719-.108-1.873-.093-2.623-.091-2.091.065-11.921.161-14.027.072-.983.183-3.573.219-5.71.078-2.153.164-4.415.2-5.118.049-.654.07-1.777.1-2.48s.1-2.48.174-3.994c.088-1.466.159-3.244.191-3.946l.03-1.232-.4.091c-.253.092-.414.045-.466-.1a.145.145,0,0,0-.194-.14c-.339.123-.415-.222-.1-.547a28.671,28.671,0,0,0,1.507-5.064c-.085-.234-.338-.142-2.095,1.081a79.239,79.239,0,0,0-7.27,5.674c-.987.838-2.212,1.814-2.651,2.187-.482.386-2.05,1.862-3.553,3.258-2.548,2.468-2.7,2.576-3.191,2.542a1.7,1.7,0,0,1-.941-.348,1.2,1.2,0,0,1-.442-.954,1.258,1.258,0,0,0-.266-.859,2.639,2.639,0,0,1-.361-1.781,17.523,17.523,0,0,1,1.444-1.163c.76-.542,2.508-1.922,3.951-3.085a35.008,35.008,0,0,1,2.812-2.139,33.072,33.072,0,0,0,5.127-3.406c.237-.14.887-.588,1.428-.944a10.3,10.3,0,0,0,1.3-.9,1.753,1.753,0,0,1,.566-.418,5.3,5.3,0,0,0,1.106-.774,8.968,8.968,0,0,1,1.276-.837,2.047,2.047,0,0,0,.752-.433,7.354,7.354,0,0,1,1.469-.96,23.04,23.04,0,0,0,2.255-1.564,22.571,22.571,0,0,1,2.34-1.6c.709-.418,1.74-1,2.28-1.361s1.293-.789,1.615-.959c.363-.186,1.089-.556,1.647-.866a2.886,2.886,0,0,1,1.107-.51c.017.047.169-.061.262-.2.118-.2.22-.185.38-.138.119.063.263.064.229-.03a7.35,7.35,0,0,1,1.714-.943c.914-.385,1.81-.818,1.979-.879a20.622,20.622,0,0,1,1.918-.911,8.5,8.5,0,0,0,1.842-.989,13.136,13.136,0,0,1,3.72-1.354c.093.126.22.079.566-.153a5.229,5.229,0,0,1,2.486-.8c.212-.077.88-.213,1.447-.368,3.212-.9,6.4-.684,8.219.62.9.629,2.26,2.789,2.169,3.46a1.591,1.591,0,0,1-.674,1.042c-.127.046-.245.249-.32.436-.1.249-.144.265-.364-.08A1.559,1.559,0,0,1,217.925,7.98ZM181.387,18.464c-.043.015-.668.4-1.36.867-.718.527-1.757,1.224-2.3,1.58-2.078,1.393-8.066,5.856-8.445,6.259-.295.374.4-.092,2.957-1.871,1.241-.93,2.609-1.907,3.023-2.217s1.3-.9,1.951-1.348c.667-.4,1.427-.944,1.689-1.145.3-.217.692-.465.929-.6C180.975,19.305,181.658,18.684,181.387,18.464Zm-4.4,4.362c-.947.557-1.605,1.115-1.554,1.256.034.095.119.064.228-.029.068-.079.524-.4.98-.729C177.557,22.673,177.768,22.331,176.991,22.826Zm.946-.557a.346.346,0,0,0-.3.108c-.067.078-.008.109.161.048S178.038,22.286,177.937,22.269Zm.81-.666a1.153,1.153,0,0,0-.5.34c-.176.17-.176.17.077.078a2.131,2.131,0,0,0,.516-.293C179,21.511,179,21.511,178.747,21.6Zm.971-.62c-.017-.047-.119-.063-.186.014-.16.219-.125.313.085.236a.162.162,0,0,0,.119-.2Zm.532-.511c-.127.046-.278.154-.287.262s.094.126.22.08.279-.155.288-.264S180.377,20.426,180.25,20.472Zm-.011,46c.034.094.092-.14.083-.561.007-.374-.021-1.374-.024-2.169s-.039-1.686-.057-2c.016-.484,0-.531-.093-.126a33.423,33.423,0,0,0,0,3.558c.026.2.018.577.027.733A1.419,1.419,0,0,0,180.239,66.472Zm-.051-5.4c.017.047.068-.078.067-.343a2.26,2.26,0,0,0-.035-.625c-.035-.093-.068.078-.067.344A2.255,2.255,0,0,0,180.188,61.073Zm.169,8.225c.051.141.059-.234.066-.874a5.758,5.758,0,0,0-.089-1.3C180.214,66.8,180.238,68.969,180.357,69.3Zm.153,2.654c.051.139.042-.016.066-.344a6.525,6.525,0,0,0-.07-.718C180.438,70.7,180.424,71.716,180.51,71.952Zm.016-27.838c.068.187.093.125.117-.469-.01-.421-.01-.421-.076-.078A1.186,1.186,0,0,0,180.526,44.114Zm.013,1.483c.069.186.059.03.108-.626-.018-.311-.019-.577-.061-.562A3.37,3.37,0,0,0,180.539,45.6Zm.23-5.025c.05-.125.024-.327-.035-.358s-.11.093-.084.3C180.694,40.76,180.694,40.76,180.769,40.572Zm-.025,36.233c.1.281.11-.358.049-.655-.034-.094-.1-.016-.092.14A1.035,1.035,0,0,0,180.744,76.805Zm.083-39.229s.042-.28.066-.607c0-.531-.019-.578-.119-.329S180.7,37.622,180.827,37.576Zm-.1,1.841c.034.094.094.125.161.048a.528.528,0,0,0,.059-.234.434.434,0,0,0-.144,0C180.723,39.261,180.7,39.324,180.731,39.417ZM182,35.023c-.176.437-.27.311-.314-.469-.027-.468-.069-.453-.119-.064a14.754,14.754,0,0,0-.072,1.515,6.9,6.9,0,0,1-.063,1.4c-.033.171-.106,1.154-.128,2.277s-.1,2.215-.1,2.481a6.341,6.341,0,0,0,.091,2.091c.095.391.053.672-.048.656-.085.03-.11.093-.016.218a8.263,8.263,0,0,1,.126,2.45,6.716,6.716,0,0,0-.023.859c.136.375.044.78-.141.8-.145,0-.178.17-.041.546a13.188,13.188,0,0,1,.07,3.745.861.861,0,0,0-.058.5.879.879,0,0,1-.226.56,1.182,1.182,0,0,0-.116.733c.051.141.018.312-.025.328-.085.031-.076.188.01.421a1.634,1.634,0,0,1,.188.782c.044.25.02.842.047,1.311a2.291,2.291,0,0,1-.115,1,.375.375,0,0,0-.093.405,4.881,4.881,0,0,1-.036,1.872,1.718,1.718,0,0,0-.04.812,3.84,3.84,0,0,1,.013,1.481.6.6,0,0,0,.01.423c.059.031.068.186.035.359a.544.544,0,0,0,.044.514c.2.3.206,1.093,0,1.17a.7.7,0,0,0-.058.5c.043.25.053.936.072,1.513a24.3,24.3,0,0,0,.1,3.044,12.752,12.752,0,0,1,.108,2.139,66.582,66.582,0,0,0,.777,7.791c.094.39.24.921.266,1.124.06.3.094.39.17.2a3.9,3.9,0,0,0-.1-.812,3.527,3.527,0,0,1-.189-.782.332.332,0,0,0-.077-.343c-.077-.078-.11-.172-.026-.2a8.06,8.06,0,0,0-.013-1.747c-.166-1.641-.23-3-.389-5.011-.044-.516-.1-1.188-.123-1.39-.043-.249-.046-1.311-.032-2.326,0-1.061-.049-2.372-.094-2.887-.018-.577-.1-1.186-.063-1.358-.009-.156.044-2.247.054-4.587.051-2.356.121-4.93.177-5.695.074-.717.127-2.808.156-4.571.072-4.01.275-9.5.386-11.826C182.15,35.555,182.18,34.588,182,35.023Zm-1.063.76a6.241,6.241,0,0,0,.181-1.606,5.356,5.356,0,0,0-.09-1.562c-.017-.047-.068.077-.041.281.008.156-.033.437-.024.593A5.7,5.7,0,0,0,180.941,35.783Zm.01,17.258c.034.094.077.078.1.016a.28.28,0,0,0,.042-.281c-.034-.094-.094-.126-.144,0A.405.405,0,0,0,180.951,53.041Zm.282-21.19c-.069-.187-.228.032-.228.3.043.251.043.251.144,0A1.86,1.86,0,0,0,181.233,31.851Zm-.121-.858a.523.523,0,0,0-.05.39c.12.328.187.25.22-.186C181.281,30.932,181.264,30.885,181.112,30.993Zm.133,49.029.019.577a6.422,6.422,0,0,0,.31,1.375l.255.7-.138-.642c-.094-.389-.214-.983-.309-1.373Zm.788-27.163A15.036,15.036,0,0,0,181.882,56a.789.789,0,0,1-.032.437,11.712,11.712,0,0,0-.092,2.9,2.753,2.753,0,0,1-.108.889,3.336,3.336,0,0,0,.038,1.419,4.437,4.437,0,0,1-.03,1.233,26.234,26.234,0,0,0-.1,3.807c.01.422.064,1.889.086,3.262.063,1.358.1,2.513.118,2.56a10.688,10.688,0,0,1,.079,1.138c.02.579.039,1.421.083,1.936.026.469.045,1.047.071,1.249,0,.53.454,4.668.557,4.95.17.468.145,0-.091-2.092-.323-3.122-.539-7.4-.585-11.207-.011-.687-.055-1.466-.081-1.67s-.01-.421.032-.437c.084-.03.094-.139.059-.233a2.94,2.94,0,0,1,.1-1.576,3.348,3.348,0,0,0,.207-1.4c.014-.749.053-2.09.076-2.949a6.8,6.8,0,0,0-.125-2.186,3.4,3.4,0,0,1-.048-1.841c.168-.326.271-.045.222.61-.05.39-.007.639.035.624a2.4,2.4,0,0,0,.159-.748c0-.53-.028-.734-.172-.735-.1-.015-.118-.062-.1-.28.059-.235.1-.25.169-.061.119.327.193-.39.132-.952-.051-.406-.051-.406-.161-.048-.066.343-.066.343-.068-.187.024-.329.083-.561.185-.545S182.169,52.969,182.033,52.859Zm.284-1.589a2.4,2.4,0,0,0,.032-.7c-.12-.329-.255-.173-.39.248a.874.874,0,0,0,.1.656C182.242,51.721,182.225,51.674,182.317,51.27Zm-.227,14.37c-.059-.032-.067.077-.1.248.043.251.06.3.119.064C182.158,65.827,182.15,65.67,182.09,65.64Zm.129-15.822c-.034-.095-.136-.111-.161-.049a.458.458,0,0,0-.025.329c.035.093.077.078.145,0A.439.439,0,0,0,182.219,49.818Zm.021-1.389a.4.4,0,0,0,.007-.374c-.085-.236-.127-.22-.143,0C182.1,48.428,182.165,48.616,182.24,48.429Zm.209-3.9c-.144.264-.162-.048-.1-1.452a7.773,7.773,0,0,0-.03-1.529c-.035-.095-.068.078-.076.451-.024.329-.071,1.248-.069,2.045-.065.873.021,1.373.106,1.342a.176.176,0,0,0,.042-.281c-.035-.093-.027-.2.057-.234a.92.92,0,0,1,.238.392c.112.437.214.454.229-.029C182.856,44.858,182.583,44.373,182.449,44.529Zm-.222,24.512c-.017-.046-.068.078-.041.282-.017.217.043.249.059.031C182.3,69.23,182.286,69.073,182.227,69.041Zm.107,1.61c-.035-.095-.1-.017-.093.138a1.084,1.084,0,0,0,.01.423c.051.14.076.078.11-.093A2.628,2.628,0,0,0,182.334,70.651Zm-.015-29.9c.068.187.127.219.118.063-.034-.094-.086-.235-.145-.266C182.275,40.5,182.267,40.611,182.319,40.752Zm.112-2.059c-.018-.047-.051.124-.05.39a.965.965,0,0,1-.083.561,1.013,1.013,0,0,0,.027.469c.093.125.152-.109.167-.593A1.67,1.67,0,0,0,182.431,38.693Zm.141-.8c-.119-.063-.262.2-.194.39.051.141.076.078.169-.062C182.581,38.054,182.631,37.929,182.572,37.9Zm-.014,14.825c-.066.342-.032.437.06.3a.687.687,0,0,0,.135-.42C182.7,52.192,182.617,52.223,182.558,52.722Zm.1-4.977c-.034-.095-.041.28-.082.826a8.519,8.519,0,0,0-.039,1.076A7.417,7.417,0,0,0,182.661,47.745Zm-.006,3.4c-.051-.141-.077-.079-.076.186-.065.609.038.891.112.439A1.292,1.292,0,0,0,182.655,51.146Zm.086-5.025c-.1-.28-.12-.327-.136-.108-.049.389.019.577.188.515C182.835,46.513,182.809,46.309,182.741,46.121Zm.11-5.351c-.034-.093-.066.343-.132.951a6.881,6.881,0,0,0-.047,1.186A10.4,10.4,0,0,0,182.851,40.77Zm-.083,3.324a.431.431,0,0,0-.049.389c.1.283.187.252.177-.17C182.92,43.985,182.9,43.938,182.768,44.094Zm.967-27.069a.187.187,0,0,0-.2.124c-.025.062.077.078.2.032S183.9,17.073,183.735,17.025Zm.456-.325a.258.258,0,0,0-.254.092c-.025.062.077.078.2.032S184.293,16.716,184.191,16.7Zm.795-.448a.346.346,0,0,0-.3.108c-.068.076-.026.061.143,0S185.087,16.267,184.986,16.252Zm.021,1.372c-.035-.093-.094-.124-.136-.109-.085.031-.11.093-.076.186s.093.126.178.095C185.015,17.781,185.041,17.719,185.007,17.624Zm2.47-3.076c-.254.093-.363.185-.287.264.152.157.237.126.508-.185C187.831,14.472,187.815,14.425,187.477,14.548Zm28.035-9.779c-.391-.283-1.085-.349-2.879-.28-4.57.07-12.433,2.932-20.366,7.306-.752.433-1.782,1.021-2.315,1.268-1.5.865-1.977,1.144-1.951,1.348-.009.108.161.047.44-.107,2.99-1.779,7.866-4.3,11.441-5.918A46.706,46.706,0,0,1,210.95,5a20.314,20.314,0,0,1,4.283-.071C215.842,5.021,215.842,5.021,215.512,4.769ZM199.057,9.8l-.718.261c-.153.108.034.093.414-.046C199.176,9.864,199.285,9.772,199.057,9.8Zm1.47-.7a1.8,1.8,0,0,0-.439.107c-.212.077-.406.2-.372.295.017.047.246.017.44-.107C200.393,9.263,200.544,9.155,200.527,9.107Zm5.707-2.077c-.178-.1-.7.043-.634.231.017.047.161.048.415-.044C206.226,7.14,206.336,7.047,206.234,7.03Zm1.082-.447c-.077-.078-.262-.064-.432,0-.127.046-.279.155-.287.264s.137.11.39.018S207.393,6.662,207.316,6.583Zm1.158-.368a3.377,3.377,0,0,0-.524.137c-.364.186-.448.216-.245.249C207.968,6.664,208.526,6.356,208.474,6.215Zm6.117-.686a10.171,10.171,0,0,0-3.859.182c-.752.169-1.522.29-1.708.3s-.339.123-.3.217a5.7,5.7,0,0,0,1.345-.119c.77-.119,1.582-.256,1.852-.3a8.8,8.8,0,0,0,.974-.088,4.926,4.926,0,0,1,1.092-.025C214.761,5.732,214.888,5.686,214.591,5.529Zm.99-.042a.782.782,0,0,0-.55-.065c-.211.077-.194.124.127.219C215.7,5.815,216.039,5.692,215.581,5.487Z"/><path class="cls-1" d="M222.406,33.7c-.11.094-.2.233-.313.327-.185.279-2.038,3.344-2.1,3.421-.051.126-1.1,1.836-1.583,2.489a6.606,6.606,0,0,0-.5.872c-.236.4-.708,1.213-1.121,1.789-.142.263-.63,1.025-1.035,1.757-.463.7-1.078,1.773-1.473,2.4-.355.607-.683,1.151-.75,1.229-.026.062-.421.684-.8,1.354a17.8,17.8,0,0,0-1.953,3.578,1.127,1.127,0,0,0,.466.361,6.735,6.735,0,0,1,3.823,4.451,7.255,7.255,0,0,1,.49,2.532c.027.467-.023.592-.235.669-.126.047-.195.124-.134.155s.025.2-.026.328a.775.775,0,0,0-.065.344,19.243,19.243,0,0,1-.706,2.008,13.271,13.271,0,0,1-2.367,3.624,8.185,8.185,0,0,1-3.5,2.6,2.617,2.617,0,0,1-1.911.271,3.946,3.946,0,0,1-.984-.332,5.488,5.488,0,0,1-.985-1.395,4.074,4.074,0,0,0-.442-.689,2.053,2.053,0,0,1-.588-1.22c-.241-.923-.259-1.5-.048-1.577.085-.031.094-.14.067-.343-.043-.25.007-.375.117-.467a2.653,2.653,0,0,0,.138-1.856c-.129-.749-.053-.936,1.24-3.957.622-1.448.69-1.526.692-.995.026.2.094.39.119.328a12.251,12.251,0,0,0,1.009-2.226c-.017-.047-.118-.063-.271.045a.548.548,0,0,1-.4.092,9.99,9.99,0,0,0-1.423-.491,6.291,6.291,0,0,1-2.7-1.247.52.52,0,0,0-.373-.236,7.247,7.247,0,0,1-2.726-2.886,2.008,2.008,0,0,0-.4-.7,7.28,7.28,0,0,1-1.026-3.078c-.184-2.482.988-6.628,2.89-10.08.244-.515.522-.935.547-1a46.469,46.469,0,0,1,2.713-4.121,29.919,29.919,0,0,1,2.639-3.139,8.784,8.784,0,0,0,.709-.682c.228-.3.379-.4,1-.526.795-.183,1.236-.025,1.305.429.009.155.085.233.271.219a1.072,1.072,0,0,1,.585.159,1.792,1.792,0,0,1,.69,1.5c-.059.234-.007.374.112.437.153.157.127.22-.117.733a2.754,2.754,0,0,1-1.063,1.025,7.078,7.078,0,0,0-1.773,1.442,35.171,35.171,0,0,0-4.559,6.281c-2.172,3.765-3.546,8.142-3.143,9.907.111.438.205.563.891,1,1.213.833,1.856,1.023,5.108,1.54,1.583.273,1.541.288,1.852-.3,1.019-1.8,1.347-2.35,1.913-3.3a4.041,4.041,0,0,0,.638-1.134c-.017-.047.076-.187.211-.343a29.811,29.811,0,0,0,2.038-3.345c.051-.124.16-.217.219-.186a3.92,3.92,0,0,1-.285.794,7.731,7.731,0,0,0-.891,2.024c.018.047.034.094.076.079s.675-1.042,1.4-2.208c.792-1.245,1.541-2.473,1.726-2.754s.539-.886.775-1.291c.278-.42.539-.886.657-1.089a9.479,9.479,0,0,0,.792-1.244c.834-1.26,1.171-1.647,1.282-1.476.136.111.178.095.338-.123a12.006,12.006,0,0,0,.859-1.322,2.52,2.52,0,0,1,.295-.372c.135-.156.228-.3.193-.389-.017-.047.347-.5.464-.7C221.85,32.047,222.919,32.879,222.406,33.7Zm-11.12,22.585c-.813-.129-1.642-.3-1.846-.337l-.432,0-.714,1.588c-.689,1.526-1.865,4.345-2.529,6.073a7.529,7.529,0,0,0-.5,3.1c.094.389.111.437.458.47a4.417,4.417,0,0,0,2.266-.877,8.072,8.072,0,0,0,2.354-2.08,1.455,1.455,0,0,1,.558-.574c.388-.248.455-.325.42-.685a5.158,5.158,0,0,1,.511-1.885,10,10,0,0,0,.876-4.037l-.027-.469Z"/><path class="cls-1" d="M247.485,28.559a5.55,5.55,0,0,1,.576,3.3,38.484,38.484,0,0,1-.943,4.379c-.142.531-.36,1.248-.41,1.636-.108.36-.477,1.45-.881,2.447-.361.981-.747,2.024-.855,2.383a9.307,9.307,0,0,1-1.651,2.566,1.809,1.809,0,0,0-.388.513,4.351,4.351,0,0,1-1.681,1.036,3.036,3.036,0,0,1-1.033.057c-.3-.048-.651-.082-.686-.175a.5.5,0,0,0-.3-.048c-.38.138-1.7-.867-2.316-1.76a12.394,12.394,0,0,1-1.776-5.409,7.969,7.969,0,0,0-.14-1.171c-.1-.016-1.48,5.532-1.939,7.824a4.613,4.613,0,0,1-1.093,2.522,1.9,1.9,0,0,1-.92.759,2.318,2.318,0,0,1-1.625.008.663.663,0,0,0-.406-.065.526.526,0,0,1-.423-.111,3.975,3.975,0,0,1-1.922-2.912,41.1,41.1,0,0,1-.593-11.363c.226-3.323.284-3.822.646-4.271.228-.3.752-.434.821-.247a.261.261,0,0,0,.322.095,1.12,1.12,0,0,1,.728.16c.517.237.517.237.731.956a5.7,5.7,0,0,1,.091,2.091c-.015.749-.021,1.389-.021,1.389.016.047-.023,1.123-.07,2.309-.072,1.248-.108,3.385-.069,4.806a25.372,25.372,0,0,0,.54,5.168l.069.452L230,47.46a7.6,7.6,0,0,1,.488-1.028,17.989,17.989,0,0,0,1.1-3.163c.142-.529,1.4-4.44,1.567-5.032a2.774,2.774,0,0,0,.226-.826c.1-.248.4-1.261.7-2.166a15.216,15.216,0,0,0,1.012-4.191c.351-4.164.575-5.256,1.167-5.471.17-.062.355-.076.432,0,.034.095.238.127.381.127.271-.046.389.017.687.44a1.579,1.579,0,0,1,.419,1.281,3.951,3.951,0,0,1-.089,1.467,40.058,40.058,0,0,0-.387,9.065c.188,3.278.609,5.354,1.35,6.733.247.547.306.578.679.549.287,0,.354-.076.405-.2a1.529,1.529,0,0,1,.532-.513,8.618,8.618,0,0,0,2.133-2.687,68.891,68.891,0,0,0,3.275-8.363,26.916,26.916,0,0,0,.886-3.616,13.934,13.934,0,0,1,.317-1.5C247.3,28.309,247.39,28.433,247.485,28.559Z"/><path class="cls-1" d="M256.122,35.454l-1.19,1.071-.053,2.09c-.081,3.854-.12,4.931-.346,8.784-.094,2.106-.282,4.617-.414,5.569-.09.935-.214,2.042-.263,2.432a39.068,39.068,0,0,1-1.215,6.657,7.081,7.081,0,0,0-.436,1.433,50.089,50.089,0,0,1-5.151,12.285,21.552,21.552,0,0,1-3.33,4.135,8.413,8.413,0,0,1-2.983,1.4,6.5,6.5,0,0,1-3.271-1.359,14.263,14.263,0,0,1-2.186-3.506c-.784-1.627-.886-1.909-.675-1.986.127-.046.134-.155.067-.342q-.129-.352-.178-.095a.55.55,0,0,1-.228.295c-.211.077-.364-.346-.188-.515a.313.313,0,0,0,.11-.359c-.034-.094-.01-.157.134-.156s.152-.108-.146-.8a3.683,3.683,0,0,1-.361-1.782,6.729,6.729,0,0,1,.173-1.5.877.877,0,0,0,.075-.717c-.188-.252-.03-1.265.19-1.186.1.017.145,0,.008-.109a3.43,3.43,0,0,1,.274-1.746c.169-.062.178.095-.048.655a1.342,1.342,0,0,0-.134.687c.017.047.067-.079.126-.312.1-.249.2-.5.286-.53a6.294,6.294,0,0,0,.5-1.4,56.419,56.419,0,0,1,3.409-8.783,34.492,34.492,0,0,1,2.677-5.011c.042-.015.345-.5.69-1,.842-1.368,2.233-3.467,3.236-4.788.48-.653.9-1.338,1.061-1.555a2.936,2.936,0,0,1,.464-.7,19.25,19.25,0,0,0,1.678-1.833c.093-.139.371-.56.581-.9.253-.357,1.088-1.352,1.83-2.206a9.768,9.768,0,0,0,1.391-1.834,16.159,16.159,0,0,1-.073-1.779c.006-.905-.05-2.638-.08-3.9-.071-1.249-.109-2.4-.083-2.465a8.1,8.1,0,0,0,.005-1.171c-.055-.937-.072-.984-.385-1.188a.7.7,0,0,1-.3-.424c.008-.108-.026-.2-.11-.171-.211.077-.332-.516-.293-1.594A10.868,10.868,0,0,0,250.9,21.9c-.095-.391.312-.592,1.031-.589a.921.921,0,0,1,.89.474,1.093,1.093,0,0,0,.619.518c.288,0,.322.094.7,1.126.513,1.407.6,1.907.659,4.966.022,1.373.06,3.059.054,3.7l.055,1.2.48-.388A19.5,19.5,0,0,1,260.43,29.8a3.887,3.887,0,0,1,3.215-.108c.738.315,1.62,1.164,1.434,1.443-.159.218-.286.263-.337.123-.035-.094-.178-.094-.246-.017-.177.171-.254.092-.423-.111a.71.71,0,0,0-.568-.378C262.294,30.71,259.3,32.6,256.122,35.454Zm-4.076,3.927c-.017-.047-3.011,3.432-3.4,3.946-.186.279-.684.886-1.071,1.4-.7.839-2.688,3.794-4.044,5.987a69.393,69.393,0,0,0-3.718,7.409c-2.832,6.554-3.976,11.7-3.448,15.647a9.829,9.829,0,0,0,.85,3.782,3.774,3.774,0,0,0,.638,1.1,3.281,3.281,0,0,0,1.972.025c.152-.108.3-.107.33-.013.017.046-.092.139-.176.17-.212.077-.2.124.008.156.119.063.178.094.094.125-.026.063.117.063.346.034a5.634,5.634,0,0,0,2.635-1.969,23.1,23.1,0,0,0,3.319-5.086c.749-1.493,2.664-6.227,2.806-6.757.042-.28-.16.218-.488,1.027a9.616,9.616,0,0,1-.748,1.76c-.092.14.076-.452.369-1.356a51.556,51.556,0,0,0,2.041-7.808c.016-.217.182-1.34.356-2.572.4-2.588.729-5.1.784-6.393.058-.5.156-1.544.239-2.371a14.082,14.082,0,0,0,.171-1.762c-.008-.157.007-.905.021-1.655C252.023,42.736,252.08,39.475,252.046,39.381Zm-2.426,1.094c-.859,1.057-2.68,3.42-4.172,5.5a63.507,63.507,0,0,0-3.764,6.1,55.266,55.266,0,0,0-3.17,6.943,3.515,3.515,0,0,1-.443,1.543c-.765,1.977-.629,2.087.194.14.353-.872.942-2.148,1.244-2.895.277-.686.816-1.837,1.152-2.491.362-.717.832-1.79,1.077-2.3,1.209-2.991,4.874-8.307,8.677-12.719a13.466,13.466,0,0,0,1.889-2.441C252.235,37.4,252.125,37.494,249.62,40.475Zm-3.929,34.841c-.018-.047-.111.093-.287.263-.161.218-.295.374-.278.421s.152-.109.329-.28A.65.65,0,0,0,245.691,75.316Zm3.565-7.3c-.135-.11-.4.465-.824,1.681-.227.56-.428,1.058-.453,1.12a5.656,5.656,0,0,0-.455.856,22.364,22.364,0,0,1-1.06,2.087,5.572,5.572,0,0,0-.656,1.353c.017.047.1.016.152-.108.093-.14.522-.933,1.011-1.7A29.2,29.2,0,0,0,249.256,68.016Zm.335-1.184a8.745,8.745,0,0,0-.377.934c.034.093.37-.56.537-1.152S249.919,66.022,249.591,66.832Zm.041-3.309c-.066.343-.083.562-.032.437.024-.062.125-.311.209-.607C249.943,62.667,249.832,62.761,249.632,63.523Zm.429,1.7c-.11.359-.151.639-.067.609a2.906,2.906,0,0,0,.236-.67C250.4,64.307,250.311,64.338,250.061,65.226Zm.081-3.588a1.321,1.321,0,0,0-.116.468c.068.187.211-.077.26-.467C250.31,61.311,250.31,61.311,250.142,61.638Zm.41-1.636c-.084.295-.192.654-.226.826.01.156.077.077.16-.218a2.641,2.641,0,0,0,.184-.811C250.7,59.628,250.636,59.705,250.552,60Zm.438,2.124c-.158.748-.158.748.035.359a5.284,5.284,0,0,0,.243-.778C251.309,61.16,251.149,61.378,250.99,62.126Zm.388-47.465c-.136-.376-.028-.734.226-.827a.97.97,0,0,0,.312-.326c.076-.187.186-.28.49-.231.432,0,.83.176.916.41a.373.373,0,0,0,.3.158.4.4,0,0,1,.281.376c0,.265.119.328.365.345a.462.462,0,0,1,.433.267,1.818,1.818,0,0,1,.206,1.094c-.059.234-.633.5-1.082.447a1.72,1.72,0,0,1-.6-.207.487.487,0,0,0-.44-.157C252.567,16.087,251.514,15.036,251.378,14.661Zm.278,43.505c-.042.016-.077.187-.068.342-.033.173-.041.282,0,.266s.092-.139.083-.3C251.707,58.307,251.7,58.151,251.656,58.166Zm.476-1.979-.1.248c-.034.172-.016.219.026.2a.235.235,0,0,0,.143-.265C252.208,56.266,252.174,56.172,252.132,56.187Zm.724-6.69a2.548,2.548,0,0,0-.157,1.013c.05.14.151-.109.2-.5C252.9,49.746,252.915,49.528,252.856,49.5Zm2.318-14.282a.206.206,0,0,0-.22.185c-.05.126-.007.111.186-.014C255.25,35.293,255.317,35.215,255.174,35.215Zm6.832-4.505c.3-.108.575-.262.558-.309.026-.063-.118-.063-.228.03-.237.139-.3.107-.288,0s-.178-.095-.6.059-.7.308-.71.417c.008.157-.034.173-.127.047-.153-.157-.491-.034-.423.153a.222.222,0,0,1-.16.219,18.634,18.634,0,0,0-2.323,1.642l-.312.325.381-.138a4,4,0,0,0,.684-.355A19.766,19.766,0,0,1,262.006,30.71Z"/><path class="cls-1" d="M274.511,34.816a10.9,10.9,0,0,1-2.756,3.6l-.634.231a4.357,4.357,0,0,1-4.14-.722,4.481,4.481,0,0,1-.875-.692,54.1,54.1,0,0,1-1.032-5.468c-.035-.358-.13-1.014-.14-1.436-.052-.405-.1-1.187-.123-1.654,0-.531-.03-1.529-.058-2.263a19.64,19.64,0,0,1,.019-2.185c.032-.436.1-1.575.144-2.5A28.551,28.551,0,0,1,265.393,17c.242-1.045.292-1.168.655-1.354.322-.17.567-.153,1.431.117l1.009.271.247.547a3.541,3.541,0,0,1,.138,1.17c-.049.39-.081,1.093-.138,1.591a15.353,15.353,0,0,1-.148,1.7c-.032.436-.139,1.326-.188,1.98-.074.718-.173,1.5-.2,1.825s-.073.984-.088,1.467-.039,1.076-.073,1.247a33.516,33.516,0,0,0,.411,7.181c.069.452.071.718-.014.749a.213.213,0,0,0-.144.264c.034.094.077.078.145,0,.16-.217.381.128.3.423a2.133,2.133,0,0,0,.273.751l.247.547.5-.341c.625-.386,1.459-1.646,2.426-3.591a71.878,71.878,0,0,0,5.306-16.856,5.78,5.78,0,0,1,.367-1.621c.085-.031.152-.375.2-.764s.091-.671.15-.639a2.931,2.931,0,0,1-.189,1.715.1.1,0,0,0-.033.172c.1.016.052.671-.081,1.357-.1.78-.207,1.4-.19,1.45.077.079.11-.093.126-.311.059-.234.083-.562.133-.687.008-.108.108-.623.167-1.122.165-1.122.249-1.418.419-1.215a.479.479,0,0,1,.052.406,6.6,6.6,0,0,0-.318,1.5c-.182,1.075-.6,3.351-.807,4.224a1.132,1.132,0,0,0,0,.531c.044.25.069.187.22-.186a25.866,25.866,0,0,0,.934-4.536c-.119-.063-.077-.078.008-.109.161.047.235-.67.056-.765-.059-.032-.085-.234-.008-.42l.048-.391.213.454c.274.75.218,1.779-.78,7.455a30.724,30.724,0,0,1-1.4,5.5,16.993,16.993,0,0,1-1.066,2.99.317.317,0,0,0-.067.344A15.508,15.508,0,0,1,274.511,34.816Zm-8.8-26.542a34.761,34.761,0,0,1,1.857-7c.664-1.464.859-1.588,1.58-.789.383.393.493.565.477.783a1.937,1.937,0,0,0,.077.609,3.729,3.729,0,0,1-.164,1.388,26.764,26.764,0,0,0-.74,4.413c-.172,2.027-.372,2.79-.686,2.586a1.391,1.391,0,0,0-.524.138.819.819,0,0,1-.855-.114,2.023,2.023,0,0,1-.544-.439c-.059-.032-.195-.142-.313-.205C265.615,9.584,265.623,9.475,265.713,8.274Zm11.131,14.538c.034.094.179.095.348.033a1.372,1.372,0,0,0,.219-.186c-.042.015-.2-.031-.389-.017S276.81,22.72,276.844,22.812Z"/></g></g></svg>