<svg xmlns="http://www.w3.org/2000/svg" width="151.894" height="81.083" viewBox="0 0 151.894 81.083"><defs><style>.cls-1{fill:#1b333f;}</style></defs><g id="レイヤー_2" data-name="レイヤー 2"><g id="レイヤー_5" data-name="レイヤー 5"><path class="cls-1" d="M17.026,39.089c.045-.161.178-.584.283-.941.145-.6.181-.643.425-.762a.946.946,0,0,1,.506-.039c.222.034.264.078.222.179-.032.127,0,.144.18.137a.406.406,0,0,0,.3-.05c.119-.1.5.165.586.394a1.034,1.034,0,0,1,.061.383c.014.109.029.364.048.56a3.214,3.214,0,0,1-.044.739c-.041.246-.154.865-.272,1.4-.085.553-.235,1.5-.292,2.131-.2,2.18-.436,5.1-.461,5.746a26.211,26.211,0,0,1-.287,4.294.054.054,0,0,0-.017.094,2.068,2.068,0,0,1,.011.892c-.022.441-.078,1.5-.084,2.342l-.056,1.494.452.241a1.218,1.218,0,0,1,.485.4.773.773,0,0,0,.246.315c.114.1.165.171.12.188s-.074.084-.036.186a1.276,1.276,0,0,1-.16.635c-.16.492-.2.535-.518.653-.239.057-.341.065-.369-.011-.019-.052-.083-.085-.106-.077-.046.017-.088-.027-.115-.1-.019-.052-.106-.076-.222-.034-.207.075-.212.134,0,.2.129.068.148.119.126.561,0,.289-.034.763-.033,1.053.01.314-.016.67-.016.814a4.459,4.459,0,0,0,.015.545c-.012.322-.219.4-.262.066-.033-.162-.042-.187-.124-.128-.051.076-.087.117-.069.169a1.372,1.372,0,0,1,.02.2c0,.084.078.145.234.146.212.01.212.01.162.229a.685.685,0,0,0,0,.349c.018.05.058.73.078,1.5.03.8.053,2,.1,2.709.025.714.037,1.461.032,1.665a12.892,12.892,0,0,0,.094,1.758c.046.272,0,.433-.082.492-.143.109-.161.058-.167-.459-.006-.374-.036-1.173-.078-1.5,0-.059-.032-.017-.065.111-.045.161-.054.279-.022.3.042.041.015.11,0,.2a2.137,2.137,0,0,0-.016.67c.024.281.076.638.067.757a1.589,1.589,0,0,0,.158.723.662.662,0,0,0,.036-.332c.023-.3.124-.448.2-.245a7.386,7.386,0,0,1,.113.74,3.887,3.887,0,0,0,.117.824.64.64,0,0,1-.017.382c-.092.178-.115.187-.349.186a3.87,3.87,0,0,0-.447-.011c-.125.015-.2-.044-.309-.206-.149-.264-.434-.333-.47-.147s-.166.118-.393-.147a2.487,2.487,0,0,1-.294-1.308,3.414,3.414,0,0,0-.052-.5A27.368,27.368,0,0,1,16,68.625c.06-.195.138-.194.138-.05.005.086.037.1.051.069.074-.085-.029-.366-.121-.332-.023.008-.1-.051-.125-.128-.055-.154-.121-1.98-.164-5.6-.022-1.206-.048-2.208-.058-2.234a7.573,7.573,0,0,0-1.586.867,11.848,11.848,0,0,1-1.3.7c-.566.236-.589.244-.542.371.027.076-.056.135-.171.177s-.248.034-.258.008-.041-.043-.087-.026-.051.076-.032.127c.055.153-.233.432-.385.372-.088-.027-.111-.018-.116.042.019.051-.124.16-.3.253-.161.058-.3.169-.306.228a1.818,1.818,0,0,1-.442.362c-.225.169-.6.422-.85.6a3.739,3.739,0,0,1-.6.362,2.084,2.084,0,0,0-.18.152,8.239,8.239,0,0,1-1.365.9c-.183.067-.192.186-.057.628a2.232,2.232,0,0,1-.057,1.2.136.136,0,0,0-.054.136,1.618,1.618,0,0,1,.085.663,5.692,5.692,0,0,0,.107,1.58c.031.017.046.128.05.212-.032.127-.032.127-.064-.034s-.038-.1-.055.137a.819.819,0,0,0,.043.475c.028.076.046.128.014.11-.055-.009-.087.263-.076.576.016.834.04.969.07.553l.027-.356.056.3A7.863,7.863,0,0,1,7.3,73.7a1.277,1.277,0,0,0,.056.3,1.265,1.265,0,0,1,.043.331,6.233,6.233,0,0,0,.031,1.231c.037.1.01.17-.082.2-.069.025-.152.084-.157.143-.013.034.019.051.079,0,.142-.11.2-.017.241.375.033.3.006.373-.1.381-.125.017-.115.042-.022.152.152.2.157.29.3,1.395a4.31,4.31,0,0,0,.383,1.624,6.839,6.839,0,0,0,.3.673c.074.06.019.339-.109.415a1.233,1.233,0,0,1-.313.142.433.433,0,0,1-.563-.258c-.069-.119-.153-.2-.175-.2-.046.017-.019.095.042.187.079.145.079.145-.106.069a1.411,1.411,0,0,1-.494-.428,2.26,2.26,0,0,1-.543-1.132,11.681,11.681,0,0,1-.364-1.718c-.075-.491-.141-.96-.137-1.02-.042-.187-.1-1.2-.149-2.054-.038-.392-.056-1.657-.082-2.8,0-1.154-.012-2.25-.031-2.445-.015-.4.192-.618.22-.254.01.17.01.17.07-.025.118-.389.183-.067.172.833a71.666,71.666,0,0,0,.383,7.491c.249,1.615.561,2.687.87,2.892.2.128.212.01.064-.4a10.35,10.35,0,0,1-.389-1.854c.019-.094.046-.161.069-.169a.838.838,0,0,0,.017-.382,32.141,32.141,0,0,1-.134-4.663.96.96,0,0,0-.038-.39,5.047,5.047,0,0,1-.012-.891c.031-.417.029-.994.028-1.284-.006-.517.048-.8.123-.592.027.076.041.042.073-.085a.414.414,0,0,0,0-.289c-.028-.077-.05-.068-.083.06-.068.313-.137.05-.107-.511a16.6,16.6,0,0,0,.034-2.411,1.106,1.106,0,0,0-.455.252c-.368.277-.405.32-.4.694a2.679,2.679,0,0,1-.068.458.222.222,0,0,0,0,.2,1.5,1.5,0,0,1-.024.79c-.092.033-.139-.095-.074-.2.036-.043.017-.094-.024-.137-.032-.017-.088-.026-.1.008-.123.16-.184-.077-.19-.594a1.562,1.562,0,0,0-.015-.544,36.506,36.506,0,0,0-3.028,2.344A5.018,5.018,0,0,1,1.4,70.3c-.078,0-.115.042-.1.093.028.077-.023.153-.114.186a.418.418,0,0,0-.216.2c-.059.195-.152.228-.368.134-.129-.069-.171-.112-.167-.316-.01-.314-.122-.476-.283-.418-.091.034-.11-.017-.143-.178-.032-.306-.056-.3.491-.728.261-.211.643-.523.836-.709a3.467,3.467,0,0,1,.455-.4.265.265,0,0,0,.142-.111c.091-.177.679-.709.767-.682.032.015.069-.026.06-.051-.047-.128.284-.363.771-.6a7.6,7.6,0,0,0,1.044-.639,2.5,2.5,0,0,1,.666-.388c.161.087.383-.023.258-.151-.111-.162-.07-.263.1-.237.11.017.17-.033.257-.151a.648.648,0,0,1,.284-.22.866.866,0,0,0,.6-.71c0-.144.052-.857.1-1.6.11-1.485.1-2-.009-1.384l-.073.373-.065-.323a7.374,7.374,0,0,1-.022-1.35,15.5,15.5,0,0,0,.1-3.1c-.019-.2-.034-.45-.038-.535-.052-.357-.3.4-.316.924a6.127,6.127,0,0,1-.08.637,2.719,2.719,0,0,1-.031.415c-.018.382-.217,3.056-.257,3.446-.014.178-.061.976-.1,1.741a6.477,6.477,0,0,1-.142,1.467c-.061.052-.07.025-.079-.145s-.01-.169-.079,0a.665.665,0,0,0-.021.3c.027.076-.01.119-.064.11-.134-.01-.143-.035-.047-1.631.048-.8.087-1.765.117-2.181a1.723,1.723,0,0,1,.1-.731c.055.01.059-.05.008-.118a34.019,34.019,0,0,1,.264-3.854,7.959,7.959,0,0,0,.086-2.054.25.25,0,0,0-.156,0c-.07.026-.12-.043-.158-.145a1.3,1.3,0,0,0-.351-.393c-.295-.239-.485-.69-.343-.8a9.449,9.449,0,0,0,.277-1.169,18.562,18.562,0,0,1,.7-3.231c.023-.009.027-.068,0-.144a4.131,4.131,0,0,1,.3-1.325,1.66,1.66,0,0,0,.105-.354,14.64,14.64,0,0,1,.371-2.131c.027-.066.131-.567.259-1.077a3.68,3.68,0,0,1,.3-.975c.023-.008.051-.075.022-.153a.757.757,0,0,1,.385-.8c.456-.109.668-.1.678.071.013.11.088.169.22.179a.255.255,0,0,1,.208.069A11.93,11.93,0,0,1,8.922,43.8c-.027.212-.054.569-.081.781-.05.221-.135,1.061-.2,1.893-.072.806-.174,1.883-.246,2.4-.059.484-.113.909-.113.909.01.025-.084.983-.205,2.155-.106,1.138-.231,2.512-.248,3.038-.06,1.41-.321,4.771-.381,4.822a.221.221,0,0,0,0,.2c.029.077.034.162-.012.179-.092.033-.114.33-.044.593a8.325,8.325,0,0,1-.159,2.284c-.046.017-.129-.068-.176-.2-.065-.179-.088-.17-.087-.026a.383.383,0,0,0,.167.316c.189.161.208.213.083.229-.046.017-.055.135,0,.348.056.3.1.34.171.256a3.953,3.953,0,0,1,.676-.363,2.884,2.884,0,0,0,1.065-.792,23.433,23.433,0,0,1,2.551-1.794.851.851,0,0,0,.188-.127,7.349,7.349,0,0,1,1.5-.893c.061.094.268.019.24-.058-.046-.128.188-.271,1.176-.775l.943-.487.029-.849c.036-.476.046-1.376.073-2.021-.008-.662.058-1.7.117-2.326a8.167,8.167,0,0,0,.046-1.232c-.037-.1.055-.135.175-.092.032.017.024.136-.018.238-.068.169-.068.169.06.094.2-.1.217.094.093,1.613-.044.739-.079,1.359-.069,1.384.018.051-.012.757-.019,1.6a5.39,5.39,0,0,0,.094,1.9c.111.306.153.348.143.178-.014-.11-.038-.246-.1-.281-.028-.076-.037-.1.055-.135a.185.185,0,0,1,.184.077c.028.077.042.044-.005-.084-.032-.162-.023-.281.082-.348.1-.093.119-.247.1-.526-.048-.56.054-.713.188-.271.042.187.1.424.118.536,0,.144.018.2.1.136a22.862,22.862,0,0,0,.293-3.633c.032-1.2.059-1.7.22-4.762a10.543,10.543,0,0,0-.089-3.176.315.315,0,0,0,0,.2,1.1,1.1,0,0,1-.063.4,15.536,15.536,0,0,0-.2,2.878.809.809,0,0,1,.052.357c-.022.151-.046.16-.119.1-.065-.034-.1-.052-.079,0a2.3,2.3,0,0,1-.057.917,6.963,6.963,0,0,1,.018-1.6c.03-.848.214-3.921.32-5.348.034-.619.042-1.171.032-1.2-.037-.1-.3.253-.384.516a.709.709,0,0,0-.013.322.292.292,0,0,1-.018.238,4.325,4.325,0,0,0-.115,1.69c.056.152.039.246-.031.271a1.147,1.147,0,0,0-.112.763c.037.1.06.094.1-.007s.087-.119.106-.068a.746.746,0,0,1-.091.322,14.538,14.538,0,0,0-.419,3.216c-.034.62-.08.781-.209.857a.142.142,0,0,1-.184-.078c-.149-.408.668-10.185,1.008-11.9.04-.246.04-.246-.056-.154C16.912,39.565,16.907,39.479,17.026,39.089ZM5.2,67.006c-.037-.1-.119-.043-.129.076,0,.06.052.068.066.035C5.177,67.075,5.214,67.032,5.2,67.006Zm.444.36c-.042-.044-.08,0-.065.11.024.135.032.161.083.084A.421.421,0,0,0,5.648,67.366Zm.189,9.179a1.33,1.33,0,0,0,.008-.263c-.046-.127-.1.068-.086.263C5.791,76.707,5.791,76.707,5.837,76.545Zm.939-23.9c.046.128.132-.28.086-.408-.019-.052-.055-.008-.065.11A.46.46,0,0,0,6.776,52.648Zm-.007-.663c.028.076.12.043.184-.067s.063-.4.017-.382A.892.892,0,0,0,6.769,51.985ZM6.93,63.662a.34.34,0,0,0-.018.236c0,.06.01.171.015.256-.009.118,0,.145.027.076a.822.822,0,0,0,.04-.39C6.989,63.61,6.971,63.56,6.93,63.662Zm.057-3.635c.028-.067.023-.152-.009-.17s-.06.051-.032.128C6.938,60.1,6.947,60.129,6.987,60.027Zm.181.282a.3.3,0,0,0-.06-.094c-.023.009-.028.068-.032.127.005.084.024.136.07.119S7.2,60.385,7.168,60.309ZM7.215,48.99c.023-.009.042-.1.014-.179-.078-.144-.078-.144-.1-.051C7.1,48.947,7.124,49.023,7.215,48.99Zm.113,3.457c-.031.416-.022.441.07.408.046-.017.06-.051.041-.1-.009-.025.032-.271.063-.542.041-.246.035-.475-.011-.459C7.4,51.7,7.326,52.013,7.328,52.447Zm.047.561c-.018-.052-.032-.018-.059.05a1.2,1.2,0,0,0,0,.23c.01.025.057.008.052-.077A.375.375,0,0,0,7.375,53.008Zm.333-1.162a4.522,4.522,0,0,1-.126.8,1.445,1.445,0,0,0,.02.628l.089.314.063-.4a.8.8,0,0,0-.034-.449c-.041-.044-.051-.069,0-.061.088.027.173-.525.194-1.255a.058.058,0,0,0-.065-.035A.925.925,0,0,0,7.708,51.846Zm.268-1.34.073-.229a4.522,4.522,0,0,0,.112-.764,6.213,6.213,0,0,1,.1-.73,10.54,10.54,0,0,0,.161-1.85,2.98,2.98,0,0,0-.163,1.128.422.422,0,0,1-.031.272,5.654,5.654,0,0,0-.244,1.476,1,1,0,0,1,.015.4Zm4.478,11.087a.31.31,0,0,0-.207.075.825.825,0,0,1-.229.228l-.17.178.188-.127c.082-.058.281-.159.386-.227C12.588,61.6,12.6,61.568,12.454,61.593Zm.442-.219a.309.309,0,0,0-.207.076c-.038.042.008.025.124-.016S12.974,61.375,12.9,61.374Zm1-.681a3.308,3.308,0,0,0-.447.277c-.073.084.018.051.216-.05a1.6,1.6,0,0,0,.438-.3C14.188,60.558,14.109,60.557,13.9,60.693ZM15,60.06c-.046.018-.092.034-.106.069s.019.05.1-.008C15.061,60.1,15.074,60.062,15,60.06ZM16,58.394c.027-.068.031-.128,0-.146s-.06.051-.055.136C15.94,58.5,15.963,58.5,16,58.394ZM17.265,61c-.026-.569-.063-.815-.137-.875-.088-.026-.115.042-.133.279-.013.179-.059.34-.128.365a.12.12,0,0,0-.045.16c.019.052.014.112-.05.077-.056-.008-.083-.085-.084-.23.013-.178-.037-.246-.135-.3-.137-.094-.152-.061-.123.161a5.357,5.357,0,0,1,.013,1.323,7.049,7.049,0,0,0-.067.748,3.17,3.17,0,0,1-.1.645c-.046.017-.051.076-.033.127a1.147,1.147,0,0,1,.016.4c-.029.993.077,4.221.277,7.7.043.765.243,2.6.3,2.753.046.128.092-.034.219-.543a5,5,0,0,0,.038-1.256c-.048-.416-.059-.875-.059-1.019a4.379,4.379,0,0,0-.048-.7,1.989,1.989,0,0,1-.03-.509c0-.06,0-.639-.017-1.266a7.92,7.92,0,0,1,.005-1.274.512.512,0,0,0-.038-.246.45.45,0,0,1-.014-.255,2.715,2.715,0,0,0,0-.432c0-.2-.007-.519.007-.7a12.8,12.8,0,0,0-.034-1.665c-.009-.17,0-.288.045-.3.023-.008.019-.094-.051-.213a.331.331,0,0,1-.029-.365.962.962,0,0,0,.027-.5c-.038-.246.045-.449.119-.246.028.077.093,1.615.1,2.565.01.314.022,1.207.052,2,0,.782,0,1.5,0,1.589,0,.143.15,2.489.248,4.042a1.24,1.24,0,0,0,.116.392c.143.179.143-.11.006-2.632-.046-1.2-.106-2.794-.14-3.534a12.884,12.884,0,0,0-.11-2.59c-.051-.069-.028-.221.017-.382a.587.587,0,0,0-.047-.417.369.369,0,0,1-.01-.314A16.488,16.488,0,0,0,17.265,61Zm-.878-.836c.046.127.078.144.143.035.027-.069.045-.162,0-.2C16.4,59.9,16.331,60.008,16.387,60.162Zm.429.248c.027.077.037.1.032.017A.134.134,0,0,0,16.8,60.3C16.769,60.282,16.778,60.308,16.816,60.41Zm.212-1.349a.115.115,0,0,0,.1.051.053.053,0,0,0,.018-.093c-.042-.042-.106-.076-.129-.068A.316.316,0,0,0,17.028,59.061Zm.514.768c-.006-.374-.039-.681-.076-.638a.371.371,0,0,0-.023.152,1.844,1.844,0,0,1,.011.6,5.966,5.966,0,0,0,.111,1.52,1.1,1.1,0,0,0,.023-.3c.026-.213.017-.238.087-.119.046.128.069.119.073-.083.022-.153.007-.264-.089-.315C17.586,60.593,17.548,60.346,17.542,59.829Zm.133,3.014c-.074-.2-.074-.2-.11-.017-.074.229-.045.3.092.255C17.727,63.056,17.731,63,17.675,62.843Zm-.046,1.375c-.064-.034-.073.085-.045.306s.052.5.053.646c.061.671.162.374.127-.365C17.745,64.466,17.694,64.253,17.629,64.218Zm.079,1.648c-.106-.077-.143-.035-.1.093.028.077.083.085.1.052A.1.1,0,0,0,17.708,65.866ZM17.692,56.3c-.009-.025-.046.017-.065.11a.794.794,0,0,0-.013.323C17.685,56.857,17.748,56.457,17.692,56.3Zm.019,3.346c-.037-.1-.086.263-.062.544.033.3.1.2.1-.153A.991.991,0,0,0,17.711,59.65Zm.084-2.776c-.033-.017-.037.042.014.11.028.077.06.095.065.035C17.855,56.967,17.827,56.891,17.8,56.874Zm.069,12.143a10.1,10.1,0,0,0,.034,1.665,5.112,5.112,0,0,0,.032-1.342C17.9,69.119,17.87,68.958,17.864,69.017Zm.463-9.677c-.055-.154-.271.04-.311.287-.064.4-.032.415.161.085A.7.7,0,0,0,18.327,59.34Z"/><path class="cls-1" d="M47.107,34.124a1.756,1.756,0,0,1-.56.9.477.477,0,0,0-.211.136,9.632,9.632,0,0,1-1.365.757,1.616,1.616,0,0,0-.446.132.865.865,0,0,1-.489.092.54.54,0,0,0-.234,0c-.161.058-.19-.018-.015-.11a6.348,6.348,0,0,0,1.2-.928c-.027-.076.432-.533.762-.769.235-.143.262-.21.152-.229a36.821,36.821,0,0,0-4.445,1.243c-.446.134-3.215,1.256-4.084,1.66-.358.16-.924.393-1.26.545-.566.235-1.085.452-1.458.646-.04.39-.094.815-.125,1.231a63.825,63.825,0,0,0-.482,6.477c-.02,1.162-.07,2.741-.127,3.369a88.726,88.726,0,0,0,.435,11c.071.7.161,1.589.208,2a30.381,30.381,0,0,0,1.9,8.153c.25.545.681,1.227.8,1.185.032.016.184-.212.38-.456a1.988,1.988,0,0,1,.4-.492c.17-.032.841,1.024.773,1.193a.462.462,0,0,0-.013.323c.061.238-.371.627-.735.7a2.693,2.693,0,0,1-.58-.018c-.175-.053-.438-.131-.59-.191a.811.811,0,0,0-.4-.087,3.44,3.44,0,0,1-.682-.444c-.992-.8-1.706-2.328-2.476-5.517A44.438,44.438,0,0,1,32.2,59.869c-.3-3.042-.475-5.955-.484-8.987-.841,3.63-1.814,7.684-2.087,8.65a8.792,8.792,0,0,1-.6,1.636.237.237,0,0,0-.045.161,6.183,6.183,0,0,1-.584,1.542,6.727,6.727,0,0,1-1.523,1.971l-.323.117a2.41,2.41,0,0,1-2.276-.386A4.529,4.529,0,0,1,23.8,64.2a28.377,28.377,0,0,1-.561-2.974c-.019-.2-.047-.561-.076-.782a7.412,7.412,0,0,1-.054-.934c-.014-.256-.03-.8-.054-1.223.008-.408,0-.926.019-1.164s.076-.866.093-1.392a14.44,14.44,0,0,1,.259-2.58c.131-.568.145-.6.366-.711.174-.092.285-.075.746.046l.58.164.1.281a1.575,1.575,0,0,1,.085.663c-.027.211-.044.594-.076.865,0,.29-.062.688-.08.925-.027.213-.076.722-.1,1.079s-.071.807-.107.993a6.468,6.468,0,0,0-.049.8c-.008.264-.03.56-.039.68a18.481,18.481,0,0,0,.214,3.881c.071.264.071.409,0,.434a.166.166,0,0,0-.078.144c.019.051.042.043.069-.026.1-.093.217.095.185.221a.756.756,0,0,0,.125.417l.167.317.272-.187a5.69,5.69,0,0,0,1.3-1.946c.846-1.753,3.372-11.344,4.726-17.068.114-1.833.247-3.761.443-5.8a1.519,1.519,0,0,1-.221.109c-.019-.051-3.246,1.527-3.365,1.63-.037.042-.014.033-3.776,1.865-3.122,1.512-4.956,2.411-6.423,3.176a21.3,21.3,0,0,1-2.507,1.056.652.652,0,0,1-.581-.308c-.028-.077-.092-.11-.128-.068-.093.033-.25-.4-.186-.511a.609.609,0,0,0,.04-.246c0-.144,0-.144.575-.353.529-.193.566-.236.726-.438a.911.911,0,0,1,1.063-.3c.138.093.161.085.474-.057.175-.092.961-.437,1.715-.8s1.518-.7,1.646-.773c.175-.092.3-.108.309-.083s-.073.084-.165.117a1.489,1.489,0,0,0-.327.178A26.739,26.739,0,0,0,24.777,41.9c.35-.185,1.509-.722,2.53-1.209,1.044-.5,2.331-1.11,2.887-1.368.534-.253,1.114-.523,1.3-.59a6.164,6.164,0,0,1,.626-.284l.257-.152c.157-1.5.574-4.719.675-5.159a2.883,2.883,0,0,0,.053-.713.63.63,0,0,1,.467-.72c.309-.083,1.013.065,1.046.227.009.025.12.043.222.034.409-.091.923.677.693,1.049a.762.762,0,0,0-.045.3,7.03,7.03,0,0,1-.3,1.816c-.11.416-.255,1.162-.4,2.053,1.448-.671,3.117-1.452,3.788-1.755.764-.335,1.652-.688,3.561-1.382a13.787,13.787,0,0,1,3.026-.986,2.532,2.532,0,0,1,1.336.091.533.533,0,0,1,.2.248c.037.1.1.2.152.2C46.985,33.647,47.082,33.843,47.107,34.124ZM28.278,40.573c-.009-.027-.055-.01-.069.025a2.611,2.611,0,0,1-.3.168c-.45.193-1.967.89-2.758,1.294-.442.218-1.127.553-1.522.756a3.458,3.458,0,0,0-.745.386,11.081,11.081,0,0,0,1.458-.646c.395-.2,1.1-.546,1.591-.781s1.159-.538,1.485-.715C28.2,40.716,28.306,40.65,28.278,40.573Zm-4.617,9.282c-.121-.044-.139-.094-.067-.756a18.809,18.809,0,0,1,.987-3.8c.384-.8.49-.871.883-.436.208.213.245.315.236.434a2.956,2.956,0,0,0,.043.331,2.392,2.392,0,0,1-.081.781,15.325,15.325,0,0,0-.412,2.376c-.069,1.094-.179,1.51-.363,1.433a.571.571,0,0,0-.3.049.417.417,0,0,1-.465-.062,1.727,1.727,0,0,1-.286-.213C23.822,49.94,23.725,49.888,23.661,49.855Zm4.948-9.374c-.009-.025-.041-.044-.087-.027-.023.008-.06.051-.05.077s.064.035.087.027C28.605,40.54,28.618,40.506,28.609,40.481Zm.3-.169c-.009-.025-.041-.042-.087-.025a.167.167,0,0,0-.073.084c-.014.034.019.051.087.026C28.885,40.38,28.922,40.338,28.912,40.312Zm.769-.395c-.07.025-.129.076-.12.1.018.05.087.025.184-.067C29.8,39.875,29.8,39.875,29.681,39.917Zm1.641-.712a10.921,10.921,0,0,0-1.448.67c-.014.036.124-.015.3-.108.161-.059.487-.235.74-.327A1.536,1.536,0,0,0,31.322,39.205Zm2.3,24.916c-.1-.628-.2-1.4-.241-1.733-.065-.323-.123-.91-.16-1.3s-.077-1.069-.11-1.52c-.058-.443-.116-1.172-.163-1.589-.014-.4-.067-.9-.077-1.07a4.587,4.587,0,0,1-.052-.645c-.016-.833-.081-2.081-.094-2.192-.056-.153-.08-3.438-.087-5.46,0-.434.033-1.2.077-2.08-.132.569-.269,1.2-.432,1.892a.209.209,0,0,0,.005.084,1.96,1.96,0,0,1-.049.51c-.09.61-.061,4.126.071,6.564a10.423,10.423,0,0,1,.025,2.072,10.88,10.88,0,0,0,.07,1.766c.213,1.945.232,2.142.348,2.1.1-.008.1.339.01.458-.014.033.02.484.063.959.094.689.164.953.288,1.081.186.221.181.28.047.272a19.194,19.194,0,0,0,1,4.029c.116.248.316.724.436,1.055.377,1.107.279.478-.276-1.835A32.451,32.451,0,0,1,33.62,64.121Zm-.978-19.646c-.009-.024-.088-.025-.189-.018a.3.3,0,0,1,0,.145c.023-.008.069-.025.083-.06C32.628,44.509,32.665,44.467,32.642,44.475Zm.289-1.925c-.1.441-.177.873-.227,1.094a.612.612,0,0,0,0,.289c.014.11.036.1.1-.093l.041-.1C32.873,43.322,32.9,42.907,32.931,42.55Zm.077-1.791c-.023.153-.05.365-.076.576-.054.425-.114.764-.1.789.041.043.06-.05.069-.169a2.27,2.27,0,0,1,.072-.374c0-.059.045-.3.077-.576C33.09,40.555,33.063,40.478,33.008,40.759Zm-.1,9.11c.008,1.1.013,1.324.133,1.368.129.068.139.094.014.11-.092.033-.137.339-.129,1.29.006,1.877.1,3.719.265,5.31.047.415.133,1.367.191,2.1.066.757.181,1.784.256,2.277.084.518.2,1.258.244,1.675.07.407.183,1,.271,1.317.234.926.2.273-.053-1.079-.156-.926-.189-1.233-.1-1.351.1-.151.091-.177-.057-.3s-.167-.17-.121-.475a2.629,2.629,0,0,0-.029-.654,20.292,20.292,0,0,1-.244-2.6,1.026,1.026,0,0,0-.088-.459c-.056-.009-.093-.111-.107-.221.009-.118.059-.2.115-.186.119.042.072-.518-.107-1.436a1.568,1.568,0,0,1-.015-.543,4.711,4.711,0,0,0-.044-1.053,16.832,16.832,0,0,1-.04-2.327,3.025,3.025,0,0,0-.025-.713,1.711,1.711,0,0,1-.052-.5,1.982,1.982,0,0,0-.021-.628c-.042-.331-.061-.528.026-.5.042.043.055.007-.014-.111a1.668,1.668,0,0,1,.02-1.018,1.443,1.443,0,0,0-.039-.681c-.088-.313-.126-.561-.08-.577s.055-.135.054-.28a.672.672,0,0,1,.046-.3,3.362,3.362,0,0,0-.014-1.181C33.051,45.743,32.91,47.788,32.912,49.869ZM34.39,66.1c-.041-.043-.046.016-.032.128.046.127.08.144.075.06S34.423,66.113,34.39,66.1Zm.391,1.5c-.088-.169-.059.05.15.7.316,1.012.512,1.548.553,1.446a6.3,6.3,0,0,0-.293-.876,5.78,5.78,0,0,1-.279-.911A.493.493,0,0,0,34.781,67.6Zm4.726-32.1a3.851,3.851,0,0,0-1.173.427,7.576,7.576,0,0,1-.983.445c-.579.269-.649.294-.7.37-.013.034.056.008.162-.059.138-.05.207-.075.193-.041s.088.026.226-.024c.22-.109.22-.109.037-.042-.171.032-.18.007-.1-.052a3.812,3.812,0,0,1,.469-.142,1.21,1.21,0,0,0,.726-.293,10.1,10.1,0,0,1,1.044-.5C39.481,35.57,39.517,35.527,39.507,35.5Zm.235-.143c-.129.076-.12.1.111.017a1.435,1.435,0,0,0,.285-.075c.046-.016.428-.184.91-.36.452-.193.833-.36.856-.369A21.5,21.5,0,0,0,39.742,35.359Zm3.179-1.07c-.087-.026-.087-.026-.028-.077.037-.042-.124.017-.377.109-.231.084-.414.151-.382.168a.92.92,0,0,0,.331-.092c.162-.059.309-.084.318-.058s.055.008.124-.017C43,34.289,43,34.289,42.921,34.289Zm2.99-.8a6.424,6.424,0,0,0-2.581.564c-.281.16-.17.177.165.027.185-.068.346-.126.387-.083a3.542,3.542,0,0,0,.355-.1,8.21,8.21,0,0,1,1.523-.323C46.041,33.559,46.17,33.482,45.911,33.489Z"/><path class="cls-1" d="M69.905,39.931a4.185,4.185,0,0,1-.305,2.308c-.178.585-.378,1.322-.451,1.7a3.63,3.63,0,0,1-.182.645,3.564,3.564,0,0,0-.293.626,4.731,4.731,0,0,1-1.747,2.428,1.415,1.415,0,0,1-.855.369,3.2,3.2,0,0,1-1.894-.553c-.181-.137-.509-.394-.712-.522a6.82,6.82,0,0,1-1.553-1.834c-.518-.852-1.287-2.248-1.644-3.013-.158-.291-.329-.691-.408-.835s-.148-.265-.17-.257a5.236,5.236,0,0,0-.421.992c-.219.543-.4.983-.434,1.025a36.843,36.843,0,0,0-1.154,6.634,2.127,2.127,0,0,1-.045.45,1.01,1.01,0,0,0-.031.416,2.636,2.636,0,0,1-.494,1.076.253.253,0,0,1-.3.024.483.483,0,0,0-.262-.078c-.069.025-.152-.06-.222-.179-.111-.163-.134-.154-.175-.052-.091.177-.165.117-.586-.394a8.042,8.042,0,0,1-1.222-3.284,12.493,12.493,0,0,0-.661-2.534,3.766,3.766,0,0,1-.39-.928l-.321-.952-.3.949a60.891,60.891,0,0,0-2.013,10.069,3.553,3.553,0,0,1-.123.738,1.176,1.176,0,0,0-.072.373,1.741,1.741,0,0,1-.055.424.332.332,0,0,1-.5.066.235.235,0,0,0-.24-.087c-.11.128-.863-.581-.993-.939-.079-.145-.273-.68-.482-1.183a4.453,4.453,0,0,1-.42-1.725c-.048-.417-.065-1.538-.068-2.4.012-2.259.03-2.64.084-3.99.022-.73.03-1.139-.053-1.079-.111.127-.116.042-.011-.459.123-.449.127-.653.008-.407-.055.135-.055.135-.051-.069.009-.118.059-.194.092-.178a.915.915,0,0,0,.09-.322c.018-.236.063-.542.1-.873a40.86,40.86,0,0,0-3.732,2.341c-1.443,1.046-2.186,1.72-2.048,1.815.032.017.236.145.471.291a5.09,5.09,0,0,1,1.576,1.826,7.937,7.937,0,0,1,.423,1.233,2.905,2.905,0,0,1,.05,1.57,23.422,23.422,0,0,1-1.34,4.334c-.718,1.676-1.268,2.31-1.959,2.272A3.009,3.009,0,0,1,39.1,56.2a5.139,5.139,0,0,1-.926-3.045,17.464,17.464,0,0,1,.146-3.319,11.616,11.616,0,0,1,.553-2.774,3.821,3.821,0,0,0,.2-.822c-.046-.128.22-.4.451-.482a.651.651,0,0,1,.544.207,3.673,3.673,0,0,1,.846,1.108,8.67,8.67,0,0,1-.418,2.146,29.113,29.113,0,0,0-.548,4.218,16.491,16.491,0,0,0,.095,2.191c.056.3.065.322.3.324a1.167,1.167,0,0,0,.429-.04,1.366,1.366,0,0,0,.711-.692,3.779,3.779,0,0,1,.307-.661,15.405,15.405,0,0,0,1.654-4.476,4.214,4.214,0,0,0-.15-1.911,1.946,1.946,0,0,0-1.256-1.161c-1.06-.48-1.338-.669-1.648-1.163-.263-.367-.241-.52-.034-.74a22.855,22.855,0,0,1,2.1-1.6A1.5,1.5,0,0,0,43,43.136a19.065,19.065,0,0,1,2.427-1.491c.5-.27,1.319-.741,1.811-1.035.418-.21.9-.47,1.2-.579.183-.212.405-.321.451-.194.019.052.1.052.156,0,.189-.128.733-.064.821.105a1.141,1.141,0,0,0,.286.359.637.637,0,0,1,.251.545,2.963,2.963,0,0,1-.155.865,14.586,14.586,0,0,0-.475,3.844c-.1,2.147-.1,2.666-.008,2.2a11.876,11.876,0,0,1,.569-2.23c.069-.025.06-.051.041-.1a17.35,17.35,0,0,1,1.264-3.9.7.7,0,0,1,.588-.388,2.935,2.935,0,0,1,.907-.012c.452.1.548.148.613.326a2.1,2.1,0,0,0,.325.46c.216.239.3.383.723,1.558a21.257,21.257,0,0,1,1.033,3.7c.36,1.633.4,1.821.448,1.8,0,0,.091-.611.2-1.315.55-3.785,1.245-6.668,1.828-7.429a1.454,1.454,0,0,1,1.444-.469,2.207,2.207,0,0,1,.489.2,11.206,11.206,0,0,1,1.554,2.411,21.6,21.6,0,0,0,2.44,4.054c.277.333.393.435.628.436.276.045.336-.006.837-.42,1.125-.986,2.476-3.5,3.273-6.248a11,11,0,0,1,.47-1.358c.092-.033.245.461.181.571-.037.042-.018.094.07.118S69.826,39.642,69.905,39.931ZM48.529,51.9c-.027-.076-.041-.043-.027.067a.912.912,0,0,0,.033.307c.037.1.051.069.037-.042A.864.864,0,0,0,48.529,51.9Zm.044.621c-.042-.044-.014.033.033.161.032.16.065.178.06.094A.507.507,0,0,0,48.573,52.523ZM69.9,39.328a.3.3,0,0,1,.065.323c-.032.127-.032.127-.147-.119C69.692,39.2,69.71,39.106,69.9,39.328Z"/><path class="cls-1" d="M76.287,45.556a5.922,5.922,0,0,1-1.5,1.962l-.345.126a2.368,2.368,0,0,1-2.253-.394,2.434,2.434,0,0,1-.476-.375,29.24,29.24,0,0,1-.562-2.976c-.019-.194-.071-.552-.076-.781-.028-.222-.052-.645-.067-.9,0-.29-.017-.833-.031-1.232a10.713,10.713,0,0,1,.009-1.189c.018-.237.053-.857.079-1.358a15.629,15.629,0,0,1,.259-2.58c.132-.569.159-.635.358-.737.174-.093.307-.083.778.064l.548.146.135.3a1.938,1.938,0,0,1,.075.638c-.027.212-.044.594-.076.865a8.376,8.376,0,0,1-.079.927c-.018.236-.077.72-.1,1.076-.04.391-.094.816-.108.994s-.039.534-.047.8-.022.585-.04.678a18.187,18.187,0,0,0,.224,3.908c.038.246.038.391-.008.407a.118.118,0,0,0-.078.144c.019.052.041.043.079,0,.086-.118.208.068.162.23a1.152,1.152,0,0,0,.148.408l.134.3.272-.186a5.483,5.483,0,0,0,1.32-1.954,39.086,39.086,0,0,0,2.886-9.172,3.125,3.125,0,0,1,.2-.882c.046-.017.083-.2.109-.416s.05-.364.082-.348a1.594,1.594,0,0,1-.1.934.053.053,0,0,0-.018.093c.056.009.029.365-.044.738-.054.426-.112.764-.1.79.041.042.06-.051.068-.17.032-.127.045-.3.073-.372,0-.06.059-.34.09-.612.09-.611.136-.773.228-.661a.259.259,0,0,1,.029.221,3.549,3.549,0,0,0-.173.814c-.1.585-.325,1.824-.44,2.3a.625.625,0,0,0,0,.289c.024.136.038.1.12-.1a14,14,0,0,0,.508-2.469c-.064-.034-.042-.043,0-.059.088.025.129-.364.032-.416-.033-.017-.047-.128,0-.23l.026-.212.116.247c.149.408.118.97-.425,4.057a16.525,16.525,0,0,1-.76,2.993,9.443,9.443,0,0,1-.579,1.628.172.172,0,0,0-.037.187A8.387,8.387,0,0,1,76.287,45.556ZM71.5,31.113a18.912,18.912,0,0,1,1.011-3.807c.361-.8.467-.864.859-.429.208.214.268.308.26.426a1.021,1.021,0,0,0,.042.332,2.029,2.029,0,0,1-.09.755,14.654,14.654,0,0,0-.4,2.4c-.093,1.1-.2,1.519-.373,1.407a.8.8,0,0,0-.285.076.445.445,0,0,1-.466-.063,1.083,1.083,0,0,1-.3-.239c-.032-.017-.107-.077-.171-.112C71.446,31.826,71.45,31.767,71.5,31.113Zm6.058,7.912c.018.05.1.052.188.018a.83.83,0,0,0,.12-.1c-.023.009-.111-.018-.212-.01S77.538,38.974,77.557,39.025Z"/><path class="cls-1" d="M118.6,4.346c.1-.585.011-.755-.343-.8-.166-.026-.452-.095-.65-.139a1.527,1.527,0,0,0-.617.022,3.559,3.559,0,0,1-.654.066,13.679,13.679,0,0,0-4.109.945,12.209,12.209,0,0,1-1.275.435.8.8,0,0,1,.028-.211c.031-.127.008-.119-.18.006-.1.094-.193.186-.174.237a.266.266,0,0,1-.134.135c-.137.05-.147.026-.083-.085.041-.1-.188-.017-.837.276-.5.21-.947.4-.993.419-.254.093-3.486,1.731-3.825,1.942-.129.076-.2.16-.193.187.018.05-.124.16-.3.252a3.261,3.261,0,0,0-.459.312c-.106.068-.139.05-.134-.01-.005-.084-.037-.1-.106-.076-.046.016-.06.051-.018.093.019.05-.051.076-.175.092a2.7,2.7,0,0,0-.556.261c-.235.142-.272.185-.124.16.193-.041.193-.041.051.069-.207.22-.515.3-.608.192-.041-.043-.055-.009-.027.067.065.18-.077.289-.179.152-.051-.068-.1-.052-.175.094-.092.177-.2.245-.469.286-.249.031-.354.1-.395.2a.734.734,0,0,1-.192.33.394.394,0,0,0-.064.4,1.4,1.4,0,0,1-.016.671,29.783,29.783,0,0,0-.433,2.961c.018.05,0,.433-.011.9-.155,1.792-.267,4.2-.247,4.975-.008.408-.033,1.054-.06,1.409-.036.331-.043.884-.047,1.231.006.374-.02.876-.038,1.113a8.142,8.142,0,0,0,.017.833c.01.169,0,.492-.008.7a12.588,12.588,0,0,0-.077,1.5,12.346,12.346,0,0,1-.029,1.282c-.018.093-.034.764-.055,1.494.011.747-.046,1.664-.054,2.071-.047.8-.1,3.592-.1,5.384.047,3.134.278,6.633.477,6.676a.108.108,0,0,1,.055.153,1.553,1.553,0,0,0,.122.621,2.714,2.714,0,0,1,.168.748,1.608,1.608,0,0,0,.057.442.329.329,0,0,1-.105.356c-.216.194-.344.27-.381.168-.019-.051-.116-.1-.236-.146a.368.368,0,0,1-.254-.2,1.166,1.166,0,0,0-.453-.384l-.373-.241-.21-.646a16.161,16.161,0,0,1-.416-3.577.492.492,0,0,0-.019-.34,19.141,19.141,0,0,1-.208-3.074c-.019-.484-.045-1.2-.05-1.572-.038-.39-.059-1.019-.051-1.427-.049-1.138.035-6.487.087-7.633.039-.534.1-1.944.119-3.106.042-1.173.089-2.4.106-2.786.027-.355.039-.967.056-1.349s.056-1.35.1-2.173c.048-.8.086-1.767.1-2.148l.017-.671-.217.049c-.138.05-.226.025-.253-.051a.08.08,0,0,0-.106-.077c-.184.067-.226-.121-.056-.3a15.635,15.635,0,0,0,.82-2.755c-.047-.128-.184-.077-1.14.589a42.665,42.665,0,0,0-3.955,3.086c-.538.456-1.2.987-1.443,1.19-.261.211-1.116,1.013-1.933,1.773-1.387,1.343-1.469,1.4-1.737,1.384a.937.937,0,0,1-.511-.19.661.661,0,0,1-.242-.519.681.681,0,0,0-.143-.468,1.436,1.436,0,0,1-.2-.97,10.019,10.019,0,0,1,.786-.633c.413-.294,1.364-1.045,2.15-1.678A19.043,19.043,0,0,1,91.53,14.14a18.154,18.154,0,0,0,2.79-1.854c.128-.076.482-.319.777-.514a5.582,5.582,0,0,0,.707-.488.941.941,0,0,1,.308-.228,2.891,2.891,0,0,0,.6-.421,4.839,4.839,0,0,1,.694-.456,1.127,1.127,0,0,0,.409-.235,4,4,0,0,1,.8-.522,12.565,12.565,0,0,0,1.228-.851,12.329,12.329,0,0,1,1.272-.868c.387-.227.948-.548,1.242-.741s.7-.43.877-.522c.2-.1.593-.3.9-.47a1.569,1.569,0,0,1,.6-.278c.009.025.092-.033.143-.111.064-.109.119-.1.207-.075.065.035.143.035.124-.015a3.963,3.963,0,0,1,.933-.514c.5-.21.984-.444,1.077-.478a11.113,11.113,0,0,1,1.043-.5,4.692,4.692,0,0,0,1-.537,7.054,7.054,0,0,1,2.023-.737c.051.068.12.043.308-.084a2.857,2.857,0,0,1,1.353-.434c.115-.042.478-.116.786-.2a5.521,5.521,0,0,1,4.474.338,3.577,3.577,0,0,1,1.18,1.883.874.874,0,0,1-.367.567c-.069.025-.133.135-.174.237-.055.135-.078.143-.2-.043A.854.854,0,0,1,118.6,4.346ZM98.715,10.051c-.022.008-.363.218-.74.47-.39.288-.955.666-1.249.861-1.131.759-4.388,3.187-4.595,3.406-.16.2.216-.05,1.608-1.019.676-.505,1.42-1.036,1.645-1.206s.708-.488,1.062-.732c.363-.22.777-.515.919-.624.165-.118.376-.253.505-.329C98.491,10.507,98.863,10.17,98.715,10.051Zm-2.392,2.373c-.514.3-.873.606-.844.683.018.051.064.035.124-.016.036-.042.284-.219.533-.4C96.632,12.341,96.746,12.155,96.323,12.424Zm.515-.3a.185.185,0,0,0-.161.058c-.036.042-.005.058.087.025S96.894,12.13,96.838,12.122Zm.441-.364a.625.625,0,0,0-.271.186c-.1.093-.1.093.041.042a1.123,1.123,0,0,0,.281-.159C97.417,11.707,97.417,11.707,97.279,11.758Zm.529-.337c-.01-.025-.065-.035-.1.009-.087.117-.068.168.047.127a.088.088,0,0,0,.064-.11Zm.289-.278c-.069.024-.152.084-.155.144s.05.067.119.043.152-.084.156-.144S98.166,11.118,98.1,11.143Zm0,25.032c.018.051.051-.076.046-.3,0-.2-.012-.747-.014-1.181s-.021-.917-.031-1.087c.009-.263,0-.289-.051-.067a18.069,18.069,0,0,0,0,1.934c.014.111.01.315.015.4A.763.763,0,0,0,98.092,36.175Zm-.027-2.938c.009.026.036-.042.036-.187a1.194,1.194,0,0,0-.02-.34c-.018-.05-.036.043-.036.187A1.191,1.191,0,0,0,98.065,33.237Zm.092,4.476c.028.076.032-.129.035-.475a3.066,3.066,0,0,0-.048-.707C98.079,36.353,98.092,37.533,98.157,37.713Zm.082,1.443c.029.077.024-.009.037-.187a3.256,3.256,0,0,0-.039-.389C98.2,38.477,98.193,39.029,98.239,39.156Zm.009-15.149c.037.1.051.069.064-.254-.006-.229-.006-.229-.042-.043A.637.637,0,0,0,98.248,24.007Zm.006.807c.037.1.033.017.06-.338-.01-.171-.011-.315-.034-.307A1.849,1.849,0,0,0,98.254,24.814Zm.126-2.733c.027-.068.013-.178-.02-.2s-.059.05-.044.16C98.339,22.183,98.339,22.183,98.38,22.081ZM98.367,41.8c.056.153.06-.2.027-.357-.019-.051-.055-.009-.05.077A.555.555,0,0,0,98.367,41.8Zm.045-21.347s.022-.153.035-.331c0-.289-.01-.314-.065-.18S98.342,20.476,98.412,20.451Zm-.053,1c.019.05.051.067.088.025a.3.3,0,0,0,.032-.127.217.217,0,0,0-.078,0Q98.332,21.375,98.359,21.453Zm.693-2.391c-.1.236-.147.168-.171-.255-.015-.256-.038-.247-.064-.036a7.877,7.877,0,0,0-.04.824,3.83,3.83,0,0,1-.034.764c-.019.093-.058.628-.07,1.24s-.056,1.2-.056,1.349a3.458,3.458,0,0,0,.05,1.139c.051.211.028.365-.026.357-.046.016-.06.049-.009.118A4.49,4.49,0,0,1,98.7,25.9a3.588,3.588,0,0,0-.012.467c.074.205.024.425-.078.432-.077,0-.095.093-.021.3a7.111,7.111,0,0,1,.038,2.038.463.463,0,0,0-.031.272.491.491,0,0,1-.123.3.644.644,0,0,0-.064.4c.029.077.01.17-.012.179-.047.016-.042.1,0,.229a.879.879,0,0,1,.1.425c.023.136.011.459.025.714a1.241,1.241,0,0,1-.062.542.205.205,0,0,0-.051.221,2.632,2.632,0,0,1-.019,1.019.939.939,0,0,0-.022.441,2.085,2.085,0,0,1,.007.808.324.324,0,0,0,.006.228c.032.018.037.1.018.2a.3.3,0,0,0,.024.28c.111.162.113.595,0,.637a.374.374,0,0,0-.031.271c.023.136.028.511.039.824a12.988,12.988,0,0,0,.055,1.657,6.9,6.9,0,0,1,.06,1.162,35.783,35.783,0,0,0,.423,4.241c.051.212.13.5.144.612.033.161.052.212.093.111a2.149,2.149,0,0,0-.057-.442,1.861,1.861,0,0,1-.1-.425.183.183,0,0,0-.042-.187c-.042-.043-.061-.094-.015-.111a4.265,4.265,0,0,0-.008-.95c-.089-.893-.124-1.632-.211-2.728-.023-.28-.052-.645-.067-.756-.022-.136-.025-.713-.017-1.265,0-.578-.027-1.291-.051-1.571-.011-.314-.053-.646-.034-.739-.006-.086.023-1.223.029-2.5.028-1.283.065-2.684.1-3.1.04-.39.068-1.527.084-2.488.04-2.18.15-5.169.21-6.434C99.131,19.351,99.148,18.825,99.052,19.062Zm-.579.412a3.367,3.367,0,0,0,.1-.873,2.941,2.941,0,0,0-.048-.851c-.009-.025-.037.043-.023.153,0,.086-.017.239-.013.324A3.114,3.114,0,0,0,98.473,19.474Zm.006,9.392c.018.051.042.043.055.009a.154.154,0,0,0,.023-.153c-.019-.052-.051-.068-.078,0A.214.214,0,0,0,98.479,28.866Zm.153-11.53c-.037-.1-.124.016-.124.16.023.136.023.136.078,0A1.149,1.149,0,0,0,98.632,17.336Zm-.066-.467a.279.279,0,0,0-.027.212c.065.178.1.136.119-.1C98.658,16.835,98.649,16.809,98.566,16.869Zm.074,26.68.011.314a3.443,3.443,0,0,0,.167.747l.14.384-.075-.349c-.052-.213-.117-.535-.169-.748Zm.428-14.781a8.248,8.248,0,0,0-.082,1.706.429.429,0,0,1-.018.237,6.417,6.417,0,0,0-.05,1.579,1.524,1.524,0,0,1-.058.483,1.812,1.812,0,0,0,.02.774,2.461,2.461,0,0,1-.016.671,14.273,14.273,0,0,0-.053,2.071c0,.23.036,1.028.047,1.775.034.739.054,1.368.064,1.393a5.988,5.988,0,0,1,.043.62c.011.314.021.773.046,1.053.014.255.024.57.038.68,0,.288.248,2.54.3,2.693.093.256.079,0-.05-1.139-.175-1.7-.293-4.026-.318-6.1,0-.374-.03-.8-.044-.909s0-.23.017-.238c.046-.017.051-.076.032-.127a1.592,1.592,0,0,1,.053-.857,1.827,1.827,0,0,0,.112-.764c.009-.407.029-1.138.041-1.6a3.673,3.673,0,0,0-.067-1.189,1.849,1.849,0,0,1-.027-1c.092-.179.148-.025.121.331-.027.212,0,.348.019.34a1.292,1.292,0,0,0,.087-.407c0-.289-.015-.4-.094-.4-.055-.009-.064-.034-.055-.153.032-.127.055-.136.092-.034.065.179.106-.211.072-.517-.028-.221-.028-.221-.087-.026-.037.187-.037.187-.037-.1.013-.178.045-.306.1-.3S99.143,28.828,99.068,28.768Zm.154-.865a1.269,1.269,0,0,0,.017-.384c-.065-.177-.138-.093-.212.136a.477.477,0,0,0,.052.356C99.181,28.147,99.172,28.123,99.222,27.9ZM99.1,35.721c-.032-.016-.036.043-.054.137.023.136.032.161.064.033C99.137,35.825,99.132,35.739,99.1,35.721Zm.07-8.61c-.018-.051-.074-.059-.088-.025a.25.25,0,0,0-.013.178c.019.051.041.043.078,0A.235.235,0,0,0,99.169,27.111Zm.012-.755a.224.224,0,0,0,0-.2c-.047-.128-.07-.119-.079,0C99.1,26.356,99.139,26.457,99.181,26.356Zm.112-2.122c-.077.144-.087-.026-.052-.79a4.191,4.191,0,0,0-.017-.833c-.018-.05-.036.043-.04.247-.014.178-.04.678-.039,1.111-.035.476.012.749.058.732s.073-.085.023-.153c-.019-.051-.015-.111.031-.128a.5.5,0,0,1,.13.214c.06.238.116.247.124-.017C99.515,24.414,99.367,24.149,99.293,24.234Zm-.119,13.339c-.009-.026-.037.043-.023.153-.008.118.024.136.033.017C99.211,37.675,99.206,37.591,99.174,37.573Zm.058.875c-.018-.05-.055-.008-.05.076a.57.57,0,0,0,0,.229c.028.077.042.043.06-.05A1.352,1.352,0,0,0,99.232,38.448Zm-.009-16.269c.037.1.069.119.064.034-.018-.05-.047-.128-.078-.145C99.2,22.043,99.194,22.1,99.223,22.179Zm.061-1.121c-.009-.025-.028.068-.027.213a.534.534,0,0,1-.045.3.548.548,0,0,0,.014.255c.051.068.083-.06.091-.322A.918.918,0,0,0,99.284,21.058Zm.076-.432c-.064-.035-.142.109-.105.212.028.076.042.041.093-.034C99.365,20.71,99.393,20.643,99.36,20.626Zm-.007,8.066c-.035.187-.017.238.033.162a.372.372,0,0,0,.073-.229C99.431,28.4,99.385,28.42,99.353,28.692Zm.056-2.708c-.018-.051-.021.152-.044.45a4.517,4.517,0,0,0-.021.585A4.065,4.065,0,0,0,99.409,25.984Zm0,1.851c-.028-.077-.042-.043-.042.1-.035.331.021.484.062.239A.7.7,0,0,0,99.406,27.835Zm.047-2.735c-.055-.152-.065-.178-.074-.059-.027.212.01.315.1.281C99.5,25.314,99.49,25.2,99.453,25.1Zm.06-2.911c-.019-.051-.036.186-.072.517a3.56,3.56,0,0,0-.025.645A5.718,5.718,0,0,0,99.513,22.189ZM99.468,24a.23.23,0,0,0-.027.211c.055.153.1.136.1-.092C99.551,23.939,99.541,23.913,99.468,24Zm.525-14.73a.1.1,0,0,0-.106.067c-.013.034.042.042.111.017S100.081,9.293,99.993,9.268Zm.248-.178a.141.141,0,0,0-.138.051c-.014.033.042.042.111.017S100.3,9.1,100.241,9.09Zm.432-.243a.185.185,0,0,0-.161.058c-.036.043-.013.034.079,0S100.729,8.855,100.673,8.847Zm.012.746c-.019-.052-.051-.067-.075-.059-.045.017-.059.049-.041.1s.052.069.1.052C100.69,9.679,100.7,9.645,100.685,9.593Zm1.343-1.673c-.137.05-.2.1-.155.143.083.085.129.068.276-.1C102.222,7.878,102.213,7.853,102.028,7.92ZM117.282,2.6c-.212-.153-.589-.189-1.566-.152-2.486.039-6.764,1.6-11.081,3.975-.409.237-.969.556-1.259.69-.818.471-1.076.623-1.061.734,0,.059.086.026.238-.058,1.627-.969,4.28-2.339,6.225-3.22A25.424,25.424,0,0,1,114.8,2.722a11.072,11.072,0,0,1,2.331-.039C117.463,2.736,117.463,2.736,117.282,2.6Zm-8.952,2.74-.391.142c-.083.059.018.05.225-.025C108.394,5.371,108.454,5.321,108.33,5.338Zm.8-.379a.956.956,0,0,0-.24.058c-.114.042-.22.109-.2.16.009.027.133.01.239-.057C109.056,5.043,109.139,4.985,109.13,4.959Zm3.1-1.129c-.1-.052-.382.022-.345.125.01.025.088.025.226-.025C112.23,3.888,112.29,3.838,112.234,3.83Zm.589-.245c-.042-.041-.142-.034-.234,0-.069.025-.152.085-.157.143s.074.061.212.011S112.865,3.628,112.823,3.585Zm.631-.2a1.88,1.88,0,0,0-.286.073c-.2.1-.244.119-.133.137C113.178,3.63,113.482,3.463,113.454,3.386Zm3.328-.374a5.512,5.512,0,0,0-2.1.1c-.409.092-.828.157-.929.165s-.184.067-.165.117a3,3,0,0,0,.731-.063c.419-.066.861-.14,1.008-.165a4.724,4.724,0,0,0,.53-.049,2.743,2.743,0,0,1,.594-.013C116.875,3.123,116.943,3.1,116.782,3.012Zm.538-.022a.424.424,0,0,0-.3-.036c-.115.042-.106.067.069.12C117.385,3.168,117.569,3.1,117.32,2.99Z"/><path class="cls-1" d="M121.039,18.342c-.06.052-.11.127-.17.179-.1.151-1.109,1.819-1.145,1.861-.028.069-.6,1-.863,1.354a3.757,3.757,0,0,0-.269.475c-.128.22-.385.66-.609.973-.079.143-.344.558-.564.956-.252.381-.587.965-.8,1.3-.192.33-.371.625-.408.669-.014.033-.229.372-.434.737a9.66,9.66,0,0,0-1.063,1.945.617.617,0,0,0,.254.2,3.668,3.668,0,0,1,2.08,2.421,3.968,3.968,0,0,1,.266,1.377c.015.255-.013.323-.128.365-.069.025-.105.067-.073.085s.014.11-.013.178a.414.414,0,0,0-.036.187,10.7,10.7,0,0,1-.384,1.093,7.229,7.229,0,0,1-1.288,1.971,4.452,4.452,0,0,1-1.906,1.417,1.429,1.429,0,0,1-1.041.148,2.141,2.141,0,0,1-.535-.182,3.013,3.013,0,0,1-.536-.758,2.153,2.153,0,0,0-.241-.375,1.124,1.124,0,0,1-.319-.664c-.131-.5-.141-.816-.026-.858.046-.017.05-.076.036-.187-.023-.135,0-.2.064-.253a1.451,1.451,0,0,0,.075-1.011c-.07-.408-.029-.51.675-2.154.338-.787.375-.829.376-.541.014.11.051.212.065.179a6.725,6.725,0,0,0,.549-1.211c-.01-.026-.065-.036-.147.025a.3.3,0,0,1-.217.048,5.6,5.6,0,0,0-.775-.266,3.433,3.433,0,0,1-1.47-.678.288.288,0,0,0-.2-.13,3.939,3.939,0,0,1-1.484-1.569,1.091,1.091,0,0,0-.217-.383,3.947,3.947,0,0,1-.558-1.676,11.528,11.528,0,0,1,1.571-5.486c.133-.279.285-.508.3-.542a25.2,25.2,0,0,1,1.477-2.242,15.993,15.993,0,0,1,1.435-1.707,4.68,4.68,0,0,0,.386-.373c.123-.16.206-.22.547-.286.432-.1.672-.013.71.233,0,.086.047.128.147.12a.574.574,0,0,1,.318.087.97.97,0,0,1,.375.816c-.031.128,0,.2.061.239.084.085.07.119-.062.4a1.49,1.49,0,0,1-.58.556,3.881,3.881,0,0,0-.964.786,19.2,19.2,0,0,0-2.481,3.416c-1.182,2.05-1.929,4.432-1.709,5.393.061.238.111.306.484.546.661.452,1.011.557,2.78.838.862.149.839.157,1.008-.164.554-.983.733-1.279,1.041-1.8a2.271,2.271,0,0,0,.347-.618c-.01-.026.041-.1.115-.186a16.434,16.434,0,0,0,1.109-1.82c.026-.069.086-.119.118-.1a2.163,2.163,0,0,1-.154.432,4.248,4.248,0,0,0-.486,1.1c.01.026.019.05.042.042s.367-.568.76-1.2c.432-.677.839-1.347.941-1.5s.293-.483.42-.7c.152-.227.294-.481.359-.591a5.312,5.312,0,0,0,.43-.677c.454-.686.637-.9.7-.8.074.061.1.052.184-.067a6.523,6.523,0,0,0,.468-.718,1.373,1.373,0,0,1,.16-.2c.074-.085.124-.16.105-.212-.009-.025.189-.27.253-.38C120.736,17.441,121.318,17.9,121.039,18.342Zm-6.05,12.29c-.442-.071-.894-.166-1.005-.184h-.234l-.389.864c-.375.831-1.015,2.363-1.376,3.3a4.1,4.1,0,0,0-.271,1.689c.051.213.061.238.25.256a2.393,2.393,0,0,0,1.232-.477,4.391,4.391,0,0,0,1.282-1.132.784.784,0,0,1,.3-.312c.212-.135.248-.177.23-.373a2.8,2.8,0,0,1,.277-1.026,5.443,5.443,0,0,0,.477-2.2l-.015-.254Z"/><path class="cls-1" d="M134.688,15.542A3.018,3.018,0,0,1,135,17.336a21.021,21.021,0,0,1-.513,2.383c-.077.288-.2.679-.223.891-.059.194-.26.788-.479,1.33-.2.535-.407,1.1-.466,1.3a5.027,5.027,0,0,1-.9,1.4,1,1,0,0,0-.211.278,2.352,2.352,0,0,1-.915.565,1.674,1.674,0,0,1-.562.031c-.165-.027-.354-.045-.373-.1a.27.27,0,0,0-.166-.026c-.207.075-.926-.472-1.259-.958a6.721,6.721,0,0,1-.967-2.942,4.554,4.554,0,0,0-.076-.638c-.055-.009-.806,3.01-1.055,4.257a2.519,2.519,0,0,1-.595,1.372,1.027,1.027,0,0,1-.5.414,1.262,1.262,0,0,1-.884,0,.357.357,0,0,0-.221-.035.291.291,0,0,1-.231-.061,2.167,2.167,0,0,1-1.045-1.585,22.362,22.362,0,0,1-.323-6.183c.123-1.807.154-2.079.352-2.325.124-.161.409-.235.446-.134a.141.141,0,0,0,.176.051.612.612,0,0,1,.395.089c.282.128.282.128.4.52a3.08,3.08,0,0,1,.05,1.137c-.007.409-.012.756-.012.756.01.026-.012.611-.037,1.257-.039.679-.059,1.842-.038,2.615a13.7,13.7,0,0,0,.295,2.812l.037.247.073-.229a4.122,4.122,0,0,1,.265-.559,9.855,9.855,0,0,0,.6-1.721c.077-.289.762-2.416.853-2.737a1.573,1.573,0,0,0,.123-.451c.055-.135.219-.687.378-1.177a8.252,8.252,0,0,0,.55-2.283c.191-2.265.314-2.859.636-2.976.092-.034.193-.042.234,0,.019.05.13.068.208.068.147-.025.212.009.374.24a.86.86,0,0,1,.228.7,2.167,2.167,0,0,1-.049.8,21.852,21.852,0,0,0-.21,4.933,9.111,9.111,0,0,0,.734,3.663c.136.3.168.315.37.3.156,0,.193-.042.221-.109a.8.8,0,0,1,.289-.278,4.732,4.732,0,0,0,1.16-1.464,37.407,37.407,0,0,0,1.782-4.55,14.662,14.662,0,0,0,.482-1.969,7.764,7.764,0,0,1,.172-.813C134.586,15.406,134.638,15.475,134.688,15.542Z"/><path class="cls-1" d="M139.392,19.294l-.648.581-.029,1.138c-.043,2.1-.064,2.684-.188,4.781-.051,1.144-.153,2.512-.225,3.03-.048.508-.115,1.111-.143,1.323a21.232,21.232,0,0,1-.661,3.622,3.9,3.9,0,0,0-.237.78,27.233,27.233,0,0,1-2.8,6.685,11.707,11.707,0,0,1-1.812,2.25,4.586,4.586,0,0,1-1.623.764,3.538,3.538,0,0,1-1.78-.739,7.728,7.728,0,0,1-1.189-1.908c-.426-.886-.483-1.039-.367-1.081.068-.025.073-.085.036-.187-.047-.127-.079-.145-.1-.052a.3.3,0,0,1-.124.161c-.115.042-.2-.187-.1-.28a.168.168,0,0,0,.059-.2c-.018-.052,0-.086.073-.085s.083-.059-.08-.433a2,2,0,0,1-.2-.97,3.672,3.672,0,0,1,.095-.814c.069-.169.091-.322.04-.39-.1-.136-.016-.688.1-.646.056.009.079,0,0-.059a1.851,1.851,0,0,1,.15-.949c.091-.034.1.05-.028.355a.729.729,0,0,0-.072.374c.009.025.037-.042.068-.17.055-.135.111-.27.157-.287a3.567,3.567,0,0,0,.269-.764A30.714,30.714,0,0,1,129.9,30.35a18.642,18.642,0,0,1,1.457-2.726c.022-.008.187-.271.376-.543.458-.744,1.214-1.886,1.759-2.6.262-.355.492-.729.578-.848a1.65,1.65,0,0,1,.252-.38,10.485,10.485,0,0,0,.914-1c.05-.076.2-.3.315-.49.138-.2.592-.736,1-1.2a5.285,5.285,0,0,0,.757-1,8.728,8.728,0,0,1-.04-.968c0-.492-.028-1.434-.044-2.123-.038-.679-.059-1.308-.045-1.342a4.5,4.5,0,0,0,0-.637c-.029-.509-.039-.534-.209-.646a.382.382,0,0,1-.162-.229c0-.061-.014-.112-.061-.1-.114.042-.18-.28-.159-.866a5.931,5.931,0,0,0-.035-.74c-.051-.212.17-.321.561-.32a.5.5,0,0,1,.484.257.592.592,0,0,0,.338.284c.156,0,.175.051.379.612a6.534,6.534,0,0,1,.359,2.7c.012.748.032,1.665.029,2.012l.03.655.261-.21a10.606,10.606,0,0,1,2.744-1.693,2.11,2.11,0,0,1,1.75-.06c.4.173.881.634.781.787-.087.118-.157.142-.185.066-.018-.051-.1-.052-.133-.009-.1.093-.137.051-.23-.061a.387.387,0,0,0-.309-.2C142.75,16.712,141.118,17.74,139.392,19.294Zm-2.218,2.135c-.009-.025-1.638,1.869-1.849,2.149-.1.151-.372.481-.583.76-.38.457-1.462,2.064-2.2,3.257a38.053,38.053,0,0,0-2.022,4.032c-1.541,3.567-2.163,6.366-1.876,8.516a5.334,5.334,0,0,0,.463,2.057,2.03,2.03,0,0,0,.347.6,1.777,1.777,0,0,0,1.072.013c.083-.059.162-.059.18-.007.01.026-.05.075-.1.092-.114.042-.105.068,0,.085.065.034.1.052.051.068-.014.035.066.035.19.019A3.074,3.074,0,0,0,132.288,42a12.553,12.553,0,0,0,1.806-2.767c.407-.814,1.449-3.389,1.526-3.678.023-.153-.087.119-.265.559a5.153,5.153,0,0,1-.407.958c-.05.077.04-.247.2-.737a27.993,27.993,0,0,0,1.11-4.249c.01-.12.1-.73.195-1.4.216-1.408.4-2.775.426-3.479.031-.272.085-.84.13-1.291a7.766,7.766,0,0,0,.093-.958c0-.085,0-.493.011-.9C137.161,23.255,137.193,21.481,137.174,21.429Zm-1.32.6c-.467.575-1.458,1.861-2.27,2.994a34.718,34.718,0,0,0-2.048,3.318,30.2,30.2,0,0,0-1.724,3.778,1.905,1.905,0,0,1-.242.839c-.416,1.077-.341,1.136.106.077.192-.474.513-1.168.677-1.576.151-.373.444-1,.627-1.354.2-.39.453-.975.586-1.255a31.649,31.649,0,0,1,4.721-6.921,7.443,7.443,0,0,0,1.028-1.327C137.276,20.352,137.218,20.4,135.854,22.026Zm-2.137,18.958c-.009-.025-.061.051-.156.144-.087.119-.16.2-.151.229s.082-.06.178-.152A.351.351,0,0,0,133.717,40.984Zm1.94-3.972c-.074-.06-.219.254-.448.915-.124.3-.233.576-.247.609a3.01,3.01,0,0,0-.247.467,12.381,12.381,0,0,1-.577,1.135,3.062,3.062,0,0,0-.358.736c.01.026.057.009.083-.059.051-.075.285-.507.55-.922A15.945,15.945,0,0,0,135.657,37.012Zm.182-.644a4.967,4.967,0,0,0-.206.509c.018.05.2-.306.294-.628S136.018,35.928,135.839,36.368Zm.022-1.8c-.036.186-.045.3-.017.237a3.293,3.293,0,0,0,.113-.331C136.03,34.1,135.971,34.153,135.861,34.568Zm.233.926c-.059.2-.081.348-.035.332a1.6,1.6,0,0,0,.127-.366C136.277,34.994,136.231,35.011,136.094,35.494Zm.045-1.953a.758.758,0,0,0-.064.255c.037.1.116-.041.143-.254C136.231,33.364,136.231,33.364,136.139,33.541Zm.222-.89c-.044.161-.1.356-.122.45,0,.084.041.043.086-.119a1.442,1.442,0,0,0,.1-.441C136.444,32.448,136.407,32.49,136.361,32.651Zm.239,1.156c-.086.407-.086.407.019.2a2.754,2.754,0,0,0,.132-.425C136.774,33.282,136.687,33.4,136.6,33.807Zm.21-25.829c-.075-.2-.015-.4.123-.45a.535.535,0,0,0,.17-.177c.041-.1.1-.152.266-.125.235,0,.452.095.5.222a.208.208,0,0,0,.162.086.22.22,0,0,1,.153.206c0,.143.064.177.2.187a.251.251,0,0,1,.235.145.983.983,0,0,1,.113.594c-.032.129-.345.271-.589.245a.967.967,0,0,1-.327-.113.266.266,0,0,0-.24-.086C137.457,8.754,136.884,8.182,136.81,7.978Zm.152,23.674c-.023.009-.041.1-.036.187-.018.094-.023.152,0,.144s.05-.075.045-.16C136.99,31.729,136.984,31.644,136.962,31.652Zm.259-1.076s-.028.067-.055.135c-.018.093-.009.119.014.11a.128.128,0,0,0,.078-.144C137.263,30.617,137.244,30.567,137.221,30.576Zm.393-3.641a1.447,1.447,0,0,0-.085.552c.028.076.082-.06.11-.272C137.639,27.071,137.647,26.952,137.614,26.935Zm1.262-7.772a.113.113,0,0,0-.12.1c-.027.066,0,.059.1-.009C138.918,19.206,138.954,19.164,138.876,19.163Zm3.718-2.451c.16-.059.312-.143.3-.169.014-.033-.065-.033-.124.017-.129.075-.161.059-.157,0s-.1-.052-.327.032-.382.168-.387.227c.005.085-.017.093-.068.025-.083-.084-.266-.017-.229.084a.121.121,0,0,1-.088.118,10.073,10.073,0,0,0-1.264.895l-.17.177.207-.076a2.237,2.237,0,0,0,.373-.193A10.725,10.725,0,0,1,142.594,16.712Z"/><path class="cls-1" d="M149.4,18.945a5.939,5.939,0,0,1-1.5,1.963c-.023.007-.161.058-.345.125a2.37,2.37,0,0,1-2.253-.393,2.463,2.463,0,0,1-.476-.376,29.276,29.276,0,0,1-.561-2.976c-.019-.194-.072-.551-.076-.781-.029-.221-.053-.645-.068-.9,0-.29-.016-.833-.031-1.232a10.675,10.675,0,0,1,.01-1.189c.018-.237.052-.857.078-1.357a15.583,15.583,0,0,1,.26-2.581c.131-.569.159-.635.357-.737.174-.093.308-.082.778.064l.548.147.135.3a1.959,1.959,0,0,1,.076.637c-.028.212-.045.594-.077.866a8.142,8.142,0,0,1-.079.926c-.018.236-.076.72-.1,1.077-.04.39-.094.815-.108.993s-.039.535-.047.8-.021.586-.039.679A18.05,18.05,0,0,0,146.1,18.9c.037.246.037.391-.009.407a.118.118,0,0,0-.078.144c.019.052.042.044.079,0,.087-.119.208.068.162.229a1.152,1.152,0,0,0,.148.408l.135.3.271-.186a5.467,5.467,0,0,0,1.32-1.955,39.093,39.093,0,0,0,2.886-9.171,3.166,3.166,0,0,1,.2-.883c.046-.017.083-.2.109-.416s.05-.364.082-.348a1.606,1.606,0,0,1-.1.935.053.053,0,0,0-.019.092c.056.009.029.366-.044.739-.053.425-.112.763-.1.789.041.043.059-.051.067-.17.032-.126.046-.3.073-.372,0-.06.059-.34.09-.612.091-.611.136-.772.229-.661a.261.261,0,0,1,.028.222,3.522,3.522,0,0,0-.173.813c-.1.585-.325,1.825-.439,2.3a.6.6,0,0,0,0,.289c.023.136.037.1.119-.1a14,14,0,0,0,.508-2.469c-.064-.034-.041-.042,0-.059.087.026.128-.364.031-.416-.032-.017-.047-.128,0-.229l.026-.212.117.246c.148.408.118.97-.426,4.058a16.453,16.453,0,0,1-.76,2.992,9.262,9.262,0,0,1-.579,1.628.17.17,0,0,0-.036.187A8.53,8.53,0,0,1,149.4,18.945ZM144.611,4.5A18.979,18.979,0,0,1,145.622.7c.361-.8.467-.864.86-.429.208.214.268.308.259.426a1.024,1.024,0,0,0,.042.332,2.029,2.029,0,0,1-.09.755,14.647,14.647,0,0,0-.4,2.4c-.093,1.1-.2,1.518-.373,1.406a.818.818,0,0,0-.285.076.447.447,0,0,1-.466-.062,1.08,1.08,0,0,1-.295-.24c-.032-.017-.106-.076-.171-.112C144.559,5.215,144.563,5.156,144.611,4.5Zm6.058,7.912c.019.05.1.052.189.018a.712.712,0,0,0,.119-.1c-.023.008-.111-.018-.211-.01S150.651,12.363,150.669,12.414Z"/></g></g></svg>