<svg xmlns="http://www.w3.org/2000/svg" viewBox="0 0 80.04 101.6"><defs><style>.cls-1{font-size:21px;font-family:YuGo-Medium-83pv-RKSJ-H, YuGothic;}</style></defs><g id="レイヤー_2" data-name="レイヤー 2"><g id="レイヤー_1-2" data-name="レイヤー 1"><text class="cls-1" transform="translate(17.01 25.94) rotate(-29.21)">e</text><text class="cls-1" transform="translate(26.52 20.8) rotate(-15.68)">t</text><text class="cls-1" transform="translate(32.78 18.69) rotate(-2.13)">o</text><text class="cls-1" transform="translate(43.78 18.52) rotate(10.08)">i</text><text class="cls-1" transform="matrix(0.95, 0.31, -0.31, 0.95, 48.8, 19.38)">l</text><text class="cls-1" transform="translate(53.56 20.51) rotate(30.29)">e</text><text class="cls-1" transform="translate(6.16 77.38) rotate(48.24)">d</text><text class="cls-1" transform="matrix(0.9, 0.44, -0.44, 0.9, 17.22, 88.64)">e</text><text class="cls-1" transform="translate(31.06 94.62) rotate(5.21)">s</text><text class="cls-1" transform="matrix(0.99, -0.17, 0.17, 0.99, 44.12, 95.16)">i</text><text class="cls-1" transform="matrix(0.9, -0.44, 0.44, 0.9, 52.3, 93.79)">g</text><text class="cls-1" transform="matrix(0.67, -0.74, 0.74, 0.67, 65.62, 86.61)">n</text><polygon points="40.04 27.26 44.69 42.31 59.75 42.31 47.57 51.62 52.22 66.67 40.04 57.37 27.86 66.67 32.51 51.62 20.34 42.31 35.39 42.31 40.04 27.26"/></g></g></svg>