<svg xmlns="http://www.w3.org/2000/svg" width="196.248" height="257.556" viewBox="0 0 196.248 257.556"><defs><style>.cls-1,.cls-2,.cls-3,.cls-4,.cls-5{isolation:isolate;font-family:YuKyo-Medium-83pv-RKSJ-H, YuKyokasho;}.cls-1{font-size:52.176px;}.cls-2{font-size:52.176px;}.cls-3{font-size:51.904px;}.cls-4{font-size:52.387px;}.cls-5{font-size:52.085px;}</style></defs><g id="レイヤー_2" data-name="レイヤー 2"><g id="レイヤー_1-2" data-name="レイヤー 1"><g id="レイヤー_2-2" data-name="レイヤー 2"><g id="レイヤー_5" data-name="レイヤー 5"><text class="cls-1" transform="matrix(0.871, -0.492, 0.492, 0.871, 40.929, 65.291)">e</text><text class="cls-2" transform="translate(64.495 52.408) rotate(-15.951)">t</text><text class="cls-2" transform="matrix(0.999, -0.042, 0.042, 0.999, 80.024, 47.092)">o</text><text class="cls-1" transform="translate(107.353 46.542) rotate(9.809)">i</text><text class="cls-1" transform="translate(119.835 48.62) rotate(17.759)">l</text><text class="cls-3" transform="matrix(0.867, 0.499, -0.499, 0.867, 131.675, 51.372)">e</text><text class="cls-1" transform="matrix(0.67, 0.743, -0.743, 0.67, 14.572, 193.225)">d</text><text class="cls-1" transform="matrix(0.9, 0.436, -0.436, 0.9, 42.187, 221.071)">e</text><text class="cls-4" transform="translate(76.642 235.763) rotate(4.872)">s</text><text class="cls-1" transform="matrix(0.985, -0.174, 0.174, 0.985, 109.099, 236.954)">i</text><text class="cls-1" transform="translate(129.406 233.452) rotate(-26.131)">g</text><text class="cls-5" transform="translate(162.438 215.458) rotate(-48.113)">n</text><polygon points="98.162 68.3 86.786 105.747 49.394 105.924 75.351 125.578 108.278 100.502 98.162 68.3"/><polygon points="147.31 105.461 112.377 105.626 79.642 129.235 68.364 166.359 98.516 143.109 128.887 166.073 117.157 128.735 147.31 105.461"/></g></g></g></g></svg>