<svg xmlns="http://www.w3.org/2000/svg" width="114.032" height="163.102" viewBox="0 0 114.032 163.102"><g id="レイヤー_2" data-name="レイヤー 2"><g id="レイヤー_1-2" data-name="レイヤー 1"><path d="M10.248,31.714l.017.025a15.039,15.039,0,0,0,4.96,5.163,5.037,5.037,0,0,0,5.02.289q.244-.12.7-.41a7.61,7.61,0,0,0,2.608-2.746,6.666,6.666,0,0,0,.768-3.85.26.26,0,0,1,.112-.214.245.245,0,0,1,.263-.007.294.294,0,0,1,.13.29,7.166,7.166,0,0,1-.844,4.2,8.174,8.174,0,0,1-2.768,2.971,4.759,4.759,0,0,1-.547.313,7.653,7.653,0,0,1-6.6.72q-3.049-1.188-5.79-5.489A15.042,15.042,0,0,1,6.06,27.677a8.417,8.417,0,0,1,.321-4.633,6.8,6.8,0,0,1,2.8-3.345,8.073,8.073,0,0,1,4.2-1.415,6.609,6.609,0,0,1,3.7,1.026,9.231,9.231,0,0,1,2.844,2.9,10.582,10.582,0,0,1,.65,1.187,1.624,1.624,0,0,1,.111,1.209,1.736,1.736,0,0,1-.765.949ZM7.739,22.607A8.743,8.743,0,0,0,7.907,26.5a16.746,16.746,0,0,0,1.939,4.58l8.628-5.5a.345.345,0,0,0,.12-.539,33.946,33.946,0,0,0-3.1-4.2,5.194,5.194,0,0,0-2.79-1.727,4.494,4.494,0,0,0-3.352.962A3.852,3.852,0,0,0,7.739,22.607Z"/><path d="M39.337,24.846a.174.174,0,0,1,.1-.092c.115-.035.2.033.251.206a4.28,4.28,0,0,1-.124,3.456,4,4,0,0,1-2.407,1.829,6.034,6.034,0,0,1-.669.173,4.919,4.919,0,0,1-2.575-.064,3.051,3.051,0,0,1-1.538-1.241,10.051,10.051,0,0,1-1.046-2.457l-4.575-15.04-1.177.359-.113-.373a4.2,4.2,0,0,0,1.775-1.795,3.957,3.957,0,0,0,.071-3.063q-.087-.287.142-.357a.185.185,0,0,1,.166.028.364.364,0,0,1,.123.2l1.2,3.932L34.76,8.772a.3.3,0,0,1-.123.367,2.252,2.252,0,0,1-.624.268l-4.966,1.511,4.925,16.188q.779,2.554,2.3,2.594a3.8,3.8,0,0,0,1.266-.166,2.753,2.753,0,0,0,1.812-1.57,4.181,4.181,0,0,0-.013-2.928A.245.245,0,0,1,39.337,24.846Z"/><path d="M48.745,26.545a8.244,8.244,0,0,1-2.951-3.629,14.767,14.767,0,0,1-1.168-5.591,14.84,14.84,0,0,1,.811-5.683,8.331,8.331,0,0,1,2.716-3.823,7.309,7.309,0,0,1,4.32-1.458,7.43,7.43,0,0,1,4.45,1.18,8.309,8.309,0,0,1,2.967,3.643,14.851,14.851,0,0,1,1.168,5.621,14.727,14.727,0,0,1-.812,5.654,8.193,8.193,0,0,1-2.73,3.808,7.49,7.49,0,0,1-4.366,1.444A7.37,7.37,0,0,1,48.745,26.545Zm8.616-1.879a14.156,14.156,0,0,0,1.232-7.033l-.06-.928a15.844,15.844,0,0,0-1.944-7.367,4.755,4.755,0,0,0-4.343-2.549,4.575,4.575,0,0,0-4.1,2.7,14.333,14.333,0,0,0-1.232,7.078l.06.928A15.7,15.7,0,0,0,48.915,24.8a4.754,4.754,0,0,0,4.343,2.549A4.581,4.581,0,0,0,57.361,24.666Z"/><path d="M66.188,28.381a.179.179,0,0,1-.017-.142c.02-.1.161-.165.425-.2a2.137,2.137,0,0,0,.669-.2.824.824,0,0,0,.372-.613L71.178,10.16a.528.528,0,0,0-.119-.53,2.174,2.174,0,0,0-.557-.346q-.363-.167-.339-.285c.016-.078.1-.122.243-.133a1.751,1.751,0,0,1,.247-.01,15.079,15.079,0,0,0,3.144-.39c.13-.034.18.018.152.155L69.988,27.714a.849.849,0,0,0,.083.707,1.828,1.828,0,0,0,.535.447q.352.212.323.359a.179.179,0,0,1-.071.123.146.146,0,0,1-.112.023l-4.464-.927A.138.138,0,0,1,66.188,28.381ZM72.412,2.955a1.849,1.849,0,0,1-.265-1.449A1.818,1.818,0,0,1,72.961.312,1.855,1.855,0,0,1,74.41.046a1.82,1.82,0,0,1,1.2.814,1.82,1.82,0,0,1,.272,1.42A1.854,1.854,0,0,1,75.056,3.5a1.823,1.823,0,0,1-1.42.272A1.857,1.857,0,0,1,72.412,2.955Z"/><path d="M75.492,30.673a.192.192,0,0,1,0-.143c.036-.093.186-.139.452-.137a2.088,2.088,0,0,0,.691-.1.825.825,0,0,0,.459-.55L86.124,5.386a.526.526,0,0,0-.039-.542,2.164,2.164,0,0,0-.5-.425c-.223-.146-.32-.257-.293-.332s.114-.107.26-.1a1.789,1.789,0,0,1,.246.027,14.047,14.047,0,0,0,3.055.044c.133-.014.176.045.127.175l-9.745,26.3a.852.852,0,0,0-.024.711,1.839,1.839,0,0,0,.462.523c.212.175.3.31.267.4a.184.184,0,0,1-.089.111.142.142,0,0,1-.114.006l-4.165-1.543A.146.146,0,0,1,75.492,30.673Z"/><path d="M92.22,26.465l-.017.025a15.023,15.023,0,0,0-2.694,6.634,5.041,5.041,0,0,0,1.782,4.7q.21.174.659.472a7.624,7.624,0,0,0,3.571,1.263,6.671,6.671,0,0,0,3.828-.868.26.26,0,0,1,.242.015.243.243,0,0,1,.113.237c-.008.1-.079.182-.212.238a7.157,7.157,0,0,1-4.181.94,8.164,8.164,0,0,1-3.841-1.316,5.184,5.184,0,0,1-.509-.372A7.646,7.646,0,0,1,87.615,32.7q-.16-3.27,2.652-7.525a15.064,15.064,0,0,1,3.932-4.18A8.421,8.421,0,0,1,98.561,19.4a6.8,6.8,0,0,1,4.194,1.19,8.058,8.058,0,0,1,3,3.262,6.6,6.6,0,0,1,.568,3.792,9.22,9.22,0,0,1-1.49,3.779,10.5,10.5,0,0,1-.82,1.077,1.621,1.621,0,0,1-1.058.595,1.731,1.731,0,0,1-1.178-.312Zm7.293-6a8.75,8.75,0,0,0-3.487,1.74,16.8,16.8,0,0,0-3.393,3.637l8.534,5.641a.346.346,0,0,0,.541-.111,34.026,34.026,0,0,0,2.57-4.541,5.19,5.19,0,0,0,.44-3.251,4.5,4.5,0,0,0-2.245-2.67A3.849,3.849,0,0,0,99.513,20.462Z"/><path d="M24.737,124.8a2.223,2.223,0,0,0-.234-.612c-.125-.236-.157-.379-.1-.432s.151-.039.273.041a1.65,1.65,0,0,1,.2.142,14.787,14.787,0,0,0,2.658,1.506c.124.052.133.123.028.215L7.716,142.886a.86.86,0,0,0-.362.612,1.877,1.877,0,0,0,.154.681c.1.255.115.416.04.481a.185.185,0,0,1-.132.055.151.151,0,0,1-.1-.05l-.1-.113a4.47,4.47,0,0,1-1.267-2.238,2.142,2.142,0,0,1,.93-1.721l1.247-1.081q.046-.039,0-.117c-.031-.052-.069-.073-.112-.061a6.954,6.954,0,0,1-3.744.468,4.645,4.645,0,0,1-2.816-1.529,6.083,6.083,0,0,1-1.42-3.514,8.879,8.879,0,0,1,.918-4.55,14.342,14.342,0,0,1,3.771-4.74,14.08,14.08,0,0,1,5.128-3.039,7.712,7.712,0,0,1,4.371-.158,6.4,6.4,0,0,1,3.115,1.943,5.884,5.884,0,0,1,1.378,3.214,5.693,5.693,0,0,1-.457,3.3L24.51,125.3A.529.529,0,0,0,24.737,124.8Zm-7.932,7.179a3.814,3.814,0,0,0,1.236-2.146,5.876,5.876,0,0,0-.062-2.7,5.635,5.635,0,0,0-1.2-2.36,3.687,3.687,0,0,0-2.32-1.164,7.177,7.177,0,0,0-3.647.6,16.493,16.493,0,0,0-4.6,2.981A19.457,19.457,0,0,0,2.4,131.418a7.082,7.082,0,0,0-1.253,3.568,3.9,3.9,0,0,0,.946,2.694,4.717,4.717,0,0,0,2.4,1.511,5.788,5.788,0,0,0,2.923,0,6.429,6.429,0,0,0,2.706-1.413Z"/><path d="M22.949,143.289l-.013.027a15.025,15.025,0,0,0-1.963,6.885,5.038,5.038,0,0,0,2.278,4.483c.152.1.387.233.707.4a7.606,7.606,0,0,0,3.686.87,6.657,6.657,0,0,0,3.712-1.275.264.264,0,0,1,.242-.011.244.244,0,0,1,.138.224.293.293,0,0,1-.185.259,7.151,7.151,0,0,1-4.056,1.385,8.157,8.157,0,0,1-3.96-.894,4.644,4.644,0,0,1-.546-.316,7.652,7.652,0,0,1-3.946-5.341q-.511-3.234,1.827-7.766a15.052,15.052,0,0,1,3.458-4.58,8.432,8.432,0,0,1,4.164-2.055,6.8,6.8,0,0,1,4.3.731,8.048,8.048,0,0,1,3.339,2.92,6.6,6.6,0,0,1,.974,3.708,9.226,9.226,0,0,1-1.075,3.918,10.584,10.584,0,0,1-.7,1.159,1.622,1.622,0,0,1-.988.705,1.735,1.735,0,0,1-1.2-.183Zm6.6-6.755a8.774,8.774,0,0,0-3.279,2.107,16.826,16.826,0,0,0-2.982,3.981l9.093,4.688a.345.345,0,0,0,.525-.168,33.833,33.833,0,0,0,2.066-4.791,5.2,5.2,0,0,0,.088-3.28,4.5,4.5,0,0,0-2.52-2.413A3.858,3.858,0,0,0,29.554,136.534Z"/><path d="M53.281,141.559a8.377,8.377,0,0,1,1.632.6q.633.328,2.149,1.247l-.5,5.557-.791-.251a7.217,7.217,0,0,0-.919-4.886q-1.206-1.689-4.253-1.961a4.813,4.813,0,0,0-2.343.439,5.959,5.959,0,0,0-2.091,1.485,3.5,3.5,0,0,0-.951,2.054A3.009,3.009,0,0,0,45.764,148a5.165,5.165,0,0,0,1.694,1.431A26.264,26.264,0,0,0,50.3,150.69a28.993,28.993,0,0,1,3.413,1.584,6.162,6.162,0,0,1,2.126,2,4.818,4.818,0,0,1,.665,3.176,5.681,5.681,0,0,1-2.382,4.426,7.843,7.843,0,0,1-5.316,1.183,16.258,16.258,0,0,1-3.3-.641,19.236,19.236,0,0,1-3.267-1.361l.615-6.9.734.215a9.527,9.527,0,0,0,.383,3.815,6.187,6.187,0,0,0,1.824,2.843,5.288,5.288,0,0,0,3.081,1.253,5.386,5.386,0,0,0,2.594-.371,4.5,4.5,0,0,0,1.963-1.587,5.282,5.282,0,0,0,.914-2.644,3.273,3.273,0,0,0-.55-2.277,5.219,5.219,0,0,0-1.746-1.527,31.5,31.5,0,0,0-2.906-1.358,28.829,28.829,0,0,1-3.234-1.569,6.008,6.008,0,0,1-1.945-1.83,4.243,4.243,0,0,1-.62-2.84,4.7,4.7,0,0,1,1.242-2.782,7.055,7.055,0,0,1,2.756-1.862,7.338,7.338,0,0,1,3.327-.486A15.532,15.532,0,0,1,53.281,141.559Z"/><path d="M61.821,136.3a1.854,1.854,0,0,1-.789-1.244,1.82,1.82,0,0,1,.309-1.413,1.849,1.849,0,0,1,1.244-.788,1.9,1.9,0,0,1,2.2,1.523,1.861,1.861,0,0,1-.3,1.442,1.825,1.825,0,0,1-1.215.784A1.856,1.856,0,0,1,61.821,136.3Zm3.735,25.909a.18.18,0,0,1-.068-.125c-.018-.1.087-.214.318-.348a2.109,2.109,0,0,0,.547-.433.826.826,0,0,0,.116-.707l-3.1-17.153a.53.53,0,0,0-.309-.447,2.2,2.2,0,0,0-.646-.112c-.266-.013-.406-.059-.421-.137s.044-.15.175-.215a1.7,1.7,0,0,1,.226-.1,15.138,15.138,0,0,0,2.77-1.537c.108-.08.174-.052.2.086l3.466,19.189a.855.855,0,0,0,.342.624,1.839,1.839,0,0,0,.663.216q.408.063.435.211a.18.18,0,0,1-.02.14.144.144,0,0,1-.095.064l-4.488.81A.144.144,0,0,1,65.556,162.212Z"/><path d="M89.845,152.372a9,9,0,0,1,3.441.168,2.673,2.673,0,0,1,1.753,1.25,2.322,2.322,0,0,1-.109,2.054,7.829,7.829,0,0,1-2.128,2.547,20.968,20.968,0,0,1-4.16,2.644,11.143,11.143,0,0,1-5.149,1.547,2.642,2.642,0,0,1-2.431-1.263,2.59,2.59,0,0,1-.231-1.394,1.817,1.817,0,0,1,.936-1.545,1.1,1.1,0,0,1,.778-.089.835.835,0,0,1,.577.448,1.505,1.505,0,0,1,.03,1.127,2.133,2.133,0,0,0-.106.691,1.53,1.53,0,0,0,.162.691q.351.7,1.585.648a10.262,10.262,0,0,0,3.673-1.277,15.659,15.659,0,0,0,2.935-1.843,5.817,5.817,0,0,0,1.539-1.748,1.516,1.516,0,0,0,.1-1.395q-.444-.885-2.289-.948a13.059,13.059,0,0,0-4.66.949,15.989,15.989,0,0,1-3.769.92,6.814,6.814,0,0,1-2.7-.169,2.218,2.218,0,0,1-1.4-1.057,2.271,2.271,0,0,1,.458-2.362,9.7,9.7,0,0,1,3.261-2.663,8.035,8.035,0,0,1-4.757-.547,6.756,6.756,0,0,1-4.039-6.9A7.63,7.63,0,0,1,74.53,139.2a8.2,8.2,0,0,1,3.086-2.642,8.286,8.286,0,0,1,4.318-.9q-.15-1.233,1.888-2.258a1.03,1.03,0,0,1,.623-.129.474.474,0,0,1,.37.235.486.486,0,0,1-.033.47,1.157,1.157,0,0,1-.516.443,4.944,4.944,0,0,1-.644.257l-.6.269c-.447.225-.616.49-.509.792a7.587,7.587,0,0,1,3.176,1.242,6.756,6.756,0,0,1,2.911,6.159,7.59,7.59,0,0,1-1.247,3.564,8.135,8.135,0,0,1-2.893,2.662l.027-.012a15.736,15.736,0,0,0-3.8,2.449q-1.125,1.1-.788,1.772.324.645,1.752.648a10.483,10.483,0,0,0,3.4-.685A21.621,21.621,0,0,1,89.845,152.372Zm-11.614-4.2a6.74,6.74,0,0,0,2.994,1.316,4.6,4.6,0,0,0,2.857-.395,4.278,4.278,0,0,0,1.935-2,6.4,6.4,0,0,0,.624-3.067,7.826,7.826,0,0,0-.859-3.312,7.937,7.937,0,0,0-2.247-2.766,6.462,6.462,0,0,0-2.947-1.322,4.578,4.578,0,0,0-2.837.4,4.45,4.45,0,0,0-1.968,2,6.263,6.263,0,0,0-.671,3.074,7.752,7.752,0,0,0,.859,3.345A7.593,7.593,0,0,0,78.231,148.17Z"/><path d="M112.835,132.56a1.88,1.88,0,0,0,.654-.247c.238-.137.395-.172.47-.107a.184.184,0,0,1,.073.123.148.148,0,0,1-.036.109l-3,3.437a.143.143,0,0,1-.1.05.188.188,0,0,1-.132-.055c-.075-.065-.065-.222.032-.469a2.111,2.111,0,0,0,.155-.681.825.825,0,0,0-.351-.624l-10.9-9.5a4.825,4.825,0,0,0-3.17-1.43,3.276,3.276,0,0,0-2.5,1.182,5.021,5.021,0,0,0-.931,1.616,5.953,5.953,0,0,0-.355,1.959,6.341,6.341,0,0,0,.877,3.491,12.656,12.656,0,0,0,2.636,3.073l7.961,6.937a.852.852,0,0,0,.656.274,1.854,1.854,0,0,0,.654-.247c.238-.136.4-.173.47-.106a.181.181,0,0,1,.073.122.139.139,0,0,1-.036.108l-3,3.439a.143.143,0,0,1-.1.05.186.186,0,0,1-.131-.056c-.076-.065-.065-.222.031-.47a2.092,2.092,0,0,0,.156-.68.832.832,0,0,0-.352-.624L89.5,131.781a.526.526,0,0,0-.52-.156,2.169,2.169,0,0,0-.573.317c-.217.156-.355.209-.415.156s-.06-.145,0-.278a1.974,1.974,0,0,1,.113-.219,15.929,15.929,0,0,0,1.2-2.932c.034-.13.1-.149.209-.058l3.686,3.213A7.7,7.7,0,0,1,92.2,128a6.136,6.136,0,0,1,.452-2.391,7.5,7.5,0,0,1,1.319-2.153,5.687,5.687,0,0,1,3.446-1.991,4.647,4.647,0,0,1,3.866,1.319l10.9,9.5A.856.856,0,0,0,112.835,132.56Z"/><polygon points="55.28 43.004 47.082 69.536 20.55 69.536 38.907 83.559 62.35 65.882 55.28 43.004"/><polygon points="90.011 69.536 65.23 69.536 41.943 86.164 33.816 112.465 55.28 96.068 76.745 112.465 68.546 85.933 90.011 69.536"/></g></g></svg>