<svg xmlns="http://www.w3.org/2000/svg" width="335.08" height="122.463" viewBox="0 0 335.08 122.463"><defs><style>.cls-1{fill:#1b333f;}</style></defs><g id="レイヤー_2" data-name="レイヤー 2"><g id="レイヤー_1-2" data-name="レイヤー 1"><path class="cls-1" d="M1,69.417c-.522-.724-1.121-5.5-.975-7.359.315-3.967,1.939-8.118,5.97-14.421,2.775-4.384,4.541-6.738,4.805-6.543.1.145-.1.6-.38,1.075l-.54,1.023.716-.893c.334-.567.684-1.053.739-1.148a6.474,6.474,0,0,1,.933-.937c1.059-1.045,3.606-3.973,4.761-5.289A138.669,138.669,0,0,1,29.062,23.09c.454-.342.82-.749.788-.909-.016-.08-.432.088-.886.43-.438.422-.853.589-.957.444-.209-.29.03-.588,2.086-2.252,3.586-2.972,3.586-2.972,5.167-3.294a6.2,6.2,0,0,0,2.18-.694c.454-.342,1.435-1.04,2.232-1.534.869-.51,1.922-1.223,2.376-1.564a29.735,29.735,0,0,1,11.509-4.5c5.766-1.093,7.18-1.132,9.868-.433a10.311,10.311,0,0,1,5.72,4.563c2.508,4.224,1.219,8.556-7.027,23.192-1.264,2.25-3.067,5.524-4.052,7.3A151.027,151.027,0,0,1,47.04,61.365c-1.416,1.867-1.727,2.18-2.606,2.275a2.005,2.005,0,0,1-1.864-.7c-1.9-1.607-2.873-3.816-2.343-5.254.325-.979,1.122-1.473,1-.618-.023.254.01.413.153.384s.2-.123.167-.283c-.049-.24.023-.254.287-.059.706.522,3.61-3.227,8.62-10.974A29.963,29.963,0,0,1,53.6,41.759c.161.05.216-.044.079-.349-.225-.369.259-1.3,3.62-7.215.111-.188.311-.312.4-.247.1.144-.03.587-.364,1.153-.262.552-.151.364.367-.406,1.628-2.658,6.273-11.826,5.842-11.738a8.618,8.618,0,0,0-1.064,2.128c-.507,1.182-1.215,2.489-1.476,3.041-.445.755-1.62,3.07-2.572,5.008-.1.269-.294.392-.383.328-.176-.131.482-1.677,2.063-4.573,3.351-6.331,5.877-13.406,5.638-15.682-.13-.638-1.413-1.788-1.619-1.331-.039.174-.327.232-.719.146-.96-.3-9.958,2.2-12.885,3.622a24.561,24.561,0,0,1-2.419.991,14.9,14.9,0,0,0-3.255,1.659A12.456,12.456,0,0,1,42.6,19.749c-4.236,2.358-14.867,11.168-16.163,13.259a27.538,27.538,0,0,1-3.424,3.77c-3.273,3.407-3.2,3.393-5.86,6.509-4.33,5.2-8.743,11.83-10.639,16.119a29.261,29.261,0,0,0-1.971,7.959,13.348,13.348,0,0,0,.761,5.575,7.477,7.477,0,0,0,2.143,2.8,13.776,13.776,0,0,0,6.1,3.49,24.368,24.368,0,0,0,5.885.96c2.805.177,4.651.05,12.719-.765,2.492-.257,5.736-.5,7.3-.572a53.108,53.108,0,0,1,9.007.49c.463.073,1.077-.219,2.624-1.448a26.137,26.137,0,0,1,2.831-1.905c.4-.247.924-.6,1.2-.742.4-.247.4-.247.192.21-.239.3-.206.457.009.413.144-.03.256-.218.334-.566.008-.334.174-.617.406-.581.216-.044.487-.181.526-.356A50.3,50.3,0,0,1,63.165,70.7c.951-.112.528.389-.683,1.052-1.517.641-2.968,1.6-2.776,1.811.089.066.559-.2,1.1-.474,3.263-1.993,13.415-5.8,13.976-5.254.264.2.264.2-1.523.973-.686.307-1.373.613-1.412.786-.127.11-.654.466-1.18.823a15.632,15.632,0,0,0-1.85,1.208c-.454.34-2.376,1.562-4.226,2.77-3.644,2.32-9.273,6.29-9.552,6.763-.11.188.379.753,1.292,1.563A19.222,19.222,0,0,1,60.1,87.606a10.6,10.6,0,0,1,.729,2.841,8.626,8.626,0,0,1-.234,4.365c-.623,2.453-3.372,7.331-4.679,8.262a45.491,45.491,0,0,0-4.777,5.209c.215-.043.231.036.191.21-.134.443-5.472,5.1-6.852,6.047a19.467,19.467,0,0,0-2.288,1.629,65.313,65.313,0,0,1-9.556,5.268c-2.418.991-3.872,1.2-5.207.895-1.192-.338-2.017-1.083-3.207-3.249a6.418,6.418,0,0,1-1.14-3.755,29.831,29.831,0,0,1-.091-3.387c.132-1.189.227-1.458.73-1.56a.815.815,0,0,0,.589-.785,7,7,0,0,1,.466-1.755l.435-1.168-.651,1.211c-.429.835-.684,1.053-.677.72-.113-.558,2.779-5.466,3.044-5.27a.592.592,0,0,1-.014.667c-.524,1.1.264.195,1.72-1.846a11.651,11.651,0,0,1,1.838-2.367c.376.007,3.074-3.284,3.247-3.9.112-.189.223-.378.366-.407.376.007,1.387-1.278,2.843-3.319a7.131,7.131,0,0,1,1.776-1.94c.463.072,1.706-1.178,2.645-2.448a19.215,19.215,0,0,1,1.981-2.4c.932-.938,1.155-1.315.89-1.51-.48-.151-8.94.575-16.848,1.438-5.256.657-6.223.688-6.808.391a5.313,5.313,0,0,0-1.743-.476c-3.965-.354-4.605-.555-8.359-2.448C7.533,81.29,3.28,75.844,1.932,71.8A24.792,24.792,0,0,0,1,69.417ZM1.575,60.5c.033.16.207-.457.491-1.263A33.435,33.435,0,0,1,5.86,51.4l1.368-2.1L5.68,52.352a47.75,47.75,0,0,0-3.442,8.092c-.489,2.01-.574,2.691-.06,1.175.262-.552.777-2.069,1.34-3.345a59.773,59.773,0,0,1,5.789-10.9c2.274-3.536,5.146-7.444,5.816-7.828.2-.125,1.17-1.236,2.214-2.363,1.027-1.2,2.436-2.738,3.13-3.378.676-.718,1.919-1.968,2.851-2.906a14.326,14.326,0,0,1,1.824-1.7,2.951,2.951,0,0,0,.749-.734,21.97,21.97,0,0,1,2.518-2.339c1.529-1.309,2.278-2.043,1.831-2.035-.072.015-.837.669-1.746,1.353s-2.089,1.5-2.687,1.875a5.659,5.659,0,0,0-1.634,1.164,143.812,143.812,0,0,0-9.915,10.491c-3.885,4.446-9,12.047-10.854,16.163C2.428,57.333,1.477,60.017,1.575,60.5ZM8.446,52.7l-.962,1.524c-.589.784-1.066,1.38-1.1,1.221a2.922,2.922,0,0,1,.23-.711c.095-.269.039-.174-.271.139-.279.471-.318.645-.07.76.424.247.424.247,1.354-1.438Zm1.905-3.876c-.048-.239-.447.008-.51.436-.078.348.009.413.232.036C10.256,49.094,10.368,48.906,10.351,48.826Zm3.667-5.149c.056-.094-.271.139-.565.531-.367.407-.606.7-.589.784s.271-.138.566-.53A1.7,1.7,0,0,0,14.018,43.677Zm1.95-2.556a.88.88,0,0,0-.35.486c-.112.19-.207.458-.135.443s.239-.3.35-.487C15.929,41.3,16.039,41.106,15.968,41.121Zm8.4-9.1a1.375,1.375,0,0,1-.494.516c-.055.095.016.08.176.131.145-.03.383-.327.478-.6C24.734,31.611,24.734,31.611,24.368,32.018Zm24.9,53.89C48.211,86.954,45.91,89.25,44.245,91c-1.737,1.765-3.146,3.3-3.218,3.313a27.251,27.251,0,0,0-2.253,2.535c-1.21,1.41-2.658,3.117-3.32,3.915a65,65,0,0,0-7.845,12.561c-.944,2.351-1.006,2.779-.382,2.9.391.087.32.1-.063.428-.526.356-.454.342.5.231a8.726,8.726,0,0,0,2-.489c2.075-.839,2.434-.912,2.482-.673.065.32-1.761,1.273-3.692,2.082l-1.39.532,1.67-.257a13.61,13.61,0,0,0,3.728-1.175,62.206,62.206,0,0,0,10.965-6.8c2.2-1.693,2.822-2.318,1.3-1.344-.526.357-1.014.54-1.118.394-.088-.064-.048-.239.007-.333a39.878,39.878,0,0,0,4.447-3.895c-.089-.066-.726.479-1.436,1.039a29.451,29.451,0,0,1-4.743,3.541c-.5.1.469-1.009,1.959-2.143a16.446,16.446,0,0,0,2.135-2.013,9.875,9.875,0,0,1,1.554-1.562,13.621,13.621,0,0,0,1.655-2.164A22.283,22.283,0,0,1,52.305,97.5a21.7,21.7,0,0,0,4.033-8.13c.574-2.692.092-3.59-2.445-4.651C51.621,83.851,51.389,83.815,49.27,85.908ZM27.231,103.021a1.287,1.287,0,0,1,.158-.7c.628-.959,4.137-5.411,4.52-5.738.765-.655.32.1-1.446,2.454-.939,1.27-1.989,2.73-2.411,3.231C27.646,102.853,27.264,103.18,27.231,103.021Zm1.182-75.4c-.718.145-1.379.944-1.122,1.473.137.3.209.289.248.116a.5.5,0,0,1,.367-.408,1.3,1.3,0,0,0,.621-.624C28.861,27.615,28.861,27.615,28.413,27.624Zm4.363-5.042A22.972,22.972,0,0,1,35.407,20.8c.415-.167.758-.32.8-.5.23-.711-5.048,2.773-5.621,3.637C30.361,24.32,31.014,23.854,32.776,22.582ZM42.3,88.822c-.955,1.191-3.059,3.363-4.539,4.911a79.074,79.074,0,0,0-6.733,8.1c-.573.863.28.275,1.179-.822A34.355,34.355,0,0,1,36.989,95.8c.653-.464,1.147-.981,1.043-1.126-.209-.29.246-.631.981-.7.5-.1.63-.212.565-.53a.555.555,0,0,1,.174-.617c.215-.044.287-.059.192.21s-.078.348.1.145a.678.678,0,0,0,.191-.537c-.082-.4.762-1.4,1.138-1.394a5.176,5.176,0,0,0,1.082-1.3,3.467,3.467,0,0,1,1.027-1.2c.216-.044.343-.154.311-.313s.1-.268.311-.312a.873.873,0,0,0,.493-.516,1.461,1.461,0,0,1,.654-.466,1.453,1.453,0,0,0,.654-.466,6.1,6.1,0,0,1,1.353-1.438c1.108-.807,1.5-1.468,1.146-1.728C48.127,83.234,44.135,86.788,42.3,88.822ZM34.072,23.065c-.111.19.1.146.415-.167.327-.232,1.38-.945,2.216-1.614.853-.589,1.419-1.12,1.259-1.17A21.1,21.1,0,0,0,34.072,23.065ZM37.287,116c-.176-.13-1.3.6-1.269.756.017.081.36-.073.7-.225C37.048,116.3,37.3,116.084,37.287,116Zm.114-96.44c.144-.029.2-.124.167-.283s-.121-.225-.249-.116C37.08,19.463,37.113,19.623,37.4,19.564Zm.837-.669a.491.491,0,0,0,.31-.312c.039-.175-.032-.16-.231-.036C37.99,18.779,37.878,18.968,38.238,18.9Zm6.607,91.583a8.878,8.878,0,0,0-2.177,1.44,22.718,22.718,0,0,1-2.145,1.6c-.447.009-.718.147-.6.371.209.29-.278.473-.958.445-.231-.036-.287.058-.182.2.159.051.064.319-.262.552-.638.545-.351.486.663-.052C40.653,114.156,44.965,110.7,44.845,110.478ZM39.159,19.372a.913.913,0,0,0-.527.356c-.2.123-.255.218-.095.269a1.386,1.386,0,0,0,.526-.357C39.246,19.436,39.23,19.357,39.159,19.372ZM41.218,86.8a8.189,8.189,0,0,1,1.721-1.845c.071-.015.1.144.065.319A6.434,6.434,0,0,1,41.218,86.8Zm1.428,20.969c-.644.879-1.308.931-.663.052.239-.3.621-.625.853-.589C43.052,107.189,43.084,107.348,42.646,107.77Zm2.81,1.67a.706.706,0,0,0-.134.443c.081.4.209.29.255-.219C45.688,109.475,45.584,109.331,45.456,109.44Zm7.851-8.493c-.087-.064-.525.356-1,.952s-1.1,1.221-1.266,1.5c-.693.639-3.59,4.053-3.813,4.431a14.546,14.546,0,0,0,2.7-2.544A23.881,23.881,0,0,0,53.307,100.947Zm1.145-1.729c-.461.676-.955,1.192-.938,1.272.048.239.836-.669,1.337-1.519S55.352,98.122,54.452,99.218ZM66.559,21.6l-.389.662c-.206.457-.825,1.829-1.388,3.1A78.475,78.475,0,0,1,60.621,33.6c-3.3,5.823-4.925,8.893-4.686,8.595a9.932,9.932,0,0,0,1.2-1.822c.428-.834,1.469-2.707,2.3-4.123A32.068,32.068,0,0,1,61.5,32.759c.629-.959,4.129-8.4,4.738-10.183ZM61.4,74.55a1.837,1.837,0,0,0,.853-.589l.51-.436-.559.2c-.255.219-.671.386-.853.59C61.1,74.529,61.1,74.529,61.4,74.55Zm2.2-52.021c.065.319.216-.044.929-1.685a8.067,8.067,0,0,0,.554-1.689A22.551,22.551,0,0,0,63.606,22.529Zm1.65-3.657c.071-.015.167-.283.317-.647.1-.268.046-.508-.025-.493a3.711,3.711,0,0,0-.262.552C65.207,18.633,65.184,18.886,65.256,18.872ZM75.339,66.894q-1.078.22-5.077,1.533c-3.026.949-3.441,1.116-3.219.739.59-.784,8.2-3.083,8.535-2.57C75.682,66.742,75.555,66.85,75.339,66.894Z"/><path class="cls-1" d="M118.211,56.167c-.7,1.719-7.063,12.733-8.168,14.287a60.5,60.5,0,0,1-8,8.855c-1,.952-2.08,1.919-2.335,2.137-1.648,1.831-8.862,4.629-10.319,4.1-.336-.181-.64-.2-.768-.093-.493.516-5.226-2.507-6.622-4.215-.5-.644-.929-.891-1.378-.883-.751-.012-.783-.172-.217-.7.4-.247.422-.5.285-.8-1.183-2.5-1.411-6.19-.626-10.419a58.4,58.4,0,0,1,3.916-12.009c.278-.473.8-1.575,1.287-2.505,1.142-2.475,2.271-4.282,2.9-4.494a3.589,3.589,0,0,1,1.814-.286c.679.027,1.662.076,2.181.053a9.021,9.021,0,0,1,5.146,2.108c2.539,1.807,3.479,3.111,3.652,5.069a12.585,12.585,0,0,1-.875,5.991,30.39,30.39,0,0,1-4.418,7.71c-4.179,4.838-5.987,6.618-9.567,9.257a6.589,6.589,0,0,0-1.187,1.155c.179.878,2.481,1.157,4.445.507,4.5-1.415,8.64-4.252,12.574-8.458a11.665,11.665,0,0,1,1.769-1.606,2.638,2.638,0,0,0,1.25-1.583,7.474,7.474,0,0,1,1.55-2.309c.294-.392.366-.407.161.05-.413.915.137.305,1.664-1.751.8-1.241,1.972-2.81,2.561-3.595a62.819,62.819,0,0,0,3.936-6.033c.3-.726,1.247-2.33,1.954-3.637.779-1.321,1.764-3.1,2.192-3.935,1.732-3.259,2.533-4.834,2.71-4.7a7.977,7.977,0,0,1-.927,2.431c-.865,2-.921,2.1-.158.7.818-1.5,1.472-1.961.981-.7a1.794,1.794,0,0,0-.164,1.031c.064.318.136.3.3.02.533-.689.287-.058-.5,1.6a17.99,17.99,0,0,0-1.117,2.969,11.125,11.125,0,0,1-.839,2.495A18.545,18.545,0,0,1,118.211,56.167ZM84.05,76.248c.017.079.2-.124,2.325-2.55A40.309,40.309,0,0,0,90.1,69.2a13.189,13.189,0,0,1,1.344-1.852,62.527,62.527,0,0,0,4.512-7.978,12.009,12.009,0,0,0,.405-5.73c-.354-1.008-.707-1.267-2.01-1.418-1.822-.127-2.921,1.094-5.095,5.856a63.454,63.454,0,0,0-4.236,11.908A37.109,37.109,0,0,0,84.05,76.248Zm28.927-12.7c-.858,1.67-.953,1.937-.341.9a20.687,20.687,0,0,0,1.319-2.345C114.741,60.445,114.207,61.134,112.977,63.545Z"/><path class="cls-1" d="M156.415,47.137a7.482,7.482,0,0,1-1.13,3.636c-1.27,2.584-1.892,3.209-3.656,3.735-.99.284-1.493.386-1.9.221a10.808,10.808,0,0,0-1.048-.368c-1.336-.31-4.487-3.653-5.4-5.545a29.178,29.178,0,0,1-1.179-3.579,17.9,17.9,0,0,0-.84-2.652c-.176-.131-.32-.1-.758.319-.383.328-.494.516-.389.661s.1.146-.056.094c-.32-.1-1.06,1.047-.723,1.227.16.05.16.05-.055.094-.3-.02-1.378,1.694-2,3.065-.15.363-.317.646-.461.675a2.2,2.2,0,0,0-.69,1.387.763.763,0,0,1-.246.631.611.611,0,0,0-.246.631c.1.144.025.494-.069.762a32.146,32.146,0,0,0-1.639,4.818c-.458,1.423-.861,2.751-.884,3.005a4.479,4.479,0,0,0-.26,1.3,29.445,29.445,0,0,1-1.188,5.556c-.348,1.235-.79,2.737-.925,3.179-.063.428-.466,1.756-.773,2.815-.365,1.154-.7,2.467-.814,2.99-.276,1.218-1.284,3.251-1.715,3.339a1.482,1.482,0,0,1-.592.037.6.6,0,0,1-.5-.232,1.156,1.156,0,0,0-.656-.281.906.906,0,0,1-.656-.281,4.437,4.437,0,0,0-.8-1l-.522-.725-.014-1.907a76.921,76.921,0,0,1,1.471-14.085c.165-1.03.415-2.742.579-3.773.181-.95.415-2.741.635-3.866.2-1.2.493-3.091.7-4.3.424-2.328.723-3.8,1.362-6.173.2-.871.568-2.358.8-3.4a7.752,7.752,0,0,1,.672-2.213,1.668,1.668,0,0,0,.157-.7c-.016-.08.1-.269.311-.313,1.788-.779,1.788-.779,2.172-.36a1.051,1.051,0,0,0,.657.282c.359-.073.489.566.292,1.436a2.694,2.694,0,0,0-.037.921,8.766,8.766,0,0,1-.433,1.916,42,42,0,0,0-1.566,7.377c-.108.935-.484,3.5-.852,5.738-.6,4.025-.806,5.23-.662,5.2A8.87,8.87,0,0,0,130.429,57c.475-1.343.808-1.909.7-.973a1.83,1.83,0,0,1-.174.616c-.095.269-1.17,3.809-1.367,4.68-.339,1.646.034.906.92-2.1.569-1.61,1.281-4,1.734-5.087a86.388,86.388,0,0,1,5.411-11.649,5.654,5.654,0,0,0,.779-1.321,15.7,15.7,0,0,0-2.133,2.759,82.946,82.946,0,0,0-4.22,9.415c-.5,1.6-1.055,2.54-.875,1.589a100.542,100.542,0,0,1,3.973-9.529c1.326-2.679,2.248-4.029,3.213-4.807.837-.669,3.163-.644,3.685.08a2.263,2.263,0,0,0,.631.536,5.836,5.836,0,0,1,2.151,2.468c.257.529.99,2.289,1.563,4,1.137,3.007,1.876,4.434,2.445,4.651a3,3,0,0,0,1.222-.248c.846-.256,1.173-.489,2.455-1.912a37.045,37.045,0,0,0,2.41-3.233C156.326,44.5,156.487,44.549,156.415,47.137Zm-28.37,9.186c-.016-.08-.16-.051-.376-.007s-.31.313-.373.74a1.527,1.527,0,0,0-.03.588c.072-.014.049.24-.046.507a20.23,20.23,0,0,0-.651,3.787c.089.066.144-.029.2-.124.128-.108.128-.108.161.051-.04.174-.167.283-.255.218-.144.029-.2.124-.239.3-.024.253-.139,1.523-.4,2.822-.43,2.661-.546,3.931-.307,3.633.056-.094.144-.03.1.144s-.095.269-.239.3c-.088-.064-.16-.05.017.08.192.21.211,1.037-.037.921-.072.015-.056.095.048.239a.217.217,0,0,1-.15.364c-.144.029-.2.123-.079.347a2.029,2.029,0,0,1,.067,1.067c-.18.95-.148,1.109.137.3.079-.348.385-2.155.6-4.026s.483-3.5.522-3.677a5.718,5.718,0,0,0,.211-1.538c.014-.668.1-1.35.244-1.379a1.271,1.271,0,0,0,.03-.587,3.13,3.13,0,0,1,.148-1.11A22.981,22.981,0,0,0,128.045,56.323ZM125.6,74.093a1.07,1.07,0,0,0-.173.618.073.073,0,0,0,.087.065,4.61,4.61,0,0,0,.19-.537C125.841,73.8,125.769,73.81,125.6,74.093Zm1.859-18.067.016.08c.072-.014.095-.268.19-.537.134-.442.134-.442-.105-.144C127.467,55.693,127.356,55.882,127.461,56.026Zm.21-1.537a.643.643,0,0,0-.078.348c.136.3.192.21.254-.218C127.815,54.46,127.8,54.38,127.671,54.489Z"/><path class="cls-1" d="M196.5,23.442a32.721,32.721,0,0,1-1.278,7.319,29.874,29.874,0,0,0-.869,3.084c-.459,1.422-1.154,3.889-1.6,5.391s-.774,2.815-.758,2.9-3.605,11.7-4.467,14.446c-3.355,9.984-4.757,13.759-5.529,14.746a1.018,1.018,0,0,0-.374.741,5.988,5.988,0,0,1-1.121,1.474c-.621.624-1.282,1.424-1.521,1.721-.922,1.351-4.866,2.57-5.492,1.7-.209-.29-.369-.34-.944-.223a1.551,1.551,0,0,1-1.3-.15,11.642,11.642,0,0,1-2.8-2.337c-2.48-2.983-3.443-9.181-3.411-23.721,0-3.321-.07-4.387-.23-4.438a3.009,3.009,0,0,1-.673-.361.767.767,0,0,0-.783-.172c-.614.291-.494-2.058.383-7.3.486-2.757,1.193-6.638,1.522-8.7.416-1.994.794-3.815.905-4,.295-.392,1.6-.576,1.814-.286a.612.612,0,0,0,.591-.038.617.617,0,0,1,.712.188,1.008,1.008,0,0,0,.871.237c.448-.008.608.043.954.637a2.789,2.789,0,0,1,.206,2.117,4.138,4.138,0,0,0-.2,1.2,18.565,18.565,0,0,1-.38,3.648,41.792,41.792,0,0,0-.432,7.065c-.035,1.668-.034,4.242-.029,5.736-.147,11.407.785,22.6,2.244,26.449a9.239,9.239,0,0,0,.685,1.523c.176.13,1.546-1.229,2.357-2.391A53.993,53.993,0,0,0,179.8,62.72a27.633,27.633,0,0,1,1.261-3,27.492,27.492,0,0,0,1.261-3c.435-1.168,1.172-3.061,1.569-4.055a9.611,9.611,0,0,0,.815-2.244,2,2,0,0,0-.042-.572,5.515,5.515,0,0,1,.5-.849,3.357,3.357,0,0,0,.4-1.329c.062-.427.141-.776.357-.82.127-.108.255-.218.223-.377a9.225,9.225,0,0,1,.393-1.741c.735-2.641.774-2.814.932-3.512a1.107,1.107,0,0,1,.3-.725,24.338,24.338,0,0,0,1.383-4.6,3.487,3.487,0,0,1,.364-1.154,19.711,19.711,0,0,0,1.266-4.077c-.017-.08.314-1.393.685-2.88,1.239-4.572,1.439-7.27.567-7.507-.552-.137-.1-.479.653-.466,1.055.034,1.552.266,1.169.593-.128.108.032.159.535.057C195.72,20.362,196.242,21.086,196.5,23.442ZM166.713,59.49c-.154-2.958-.078-6.628.138-6.672.16.05.179.877.109,1.639-.055.093.049.239.137.3.248.117.238-2.872-.036-6.054-.077-1.479-.17-3.038-.2-3.531,0-.748-.018-.827-.169-.464-.135.443-.381,8.05-.4,13.453-.007,2.908.874,10.535,1.487,12.071.419,1.326.433.659-.069-1.066-.347-1.341-.412-1.66-.19-2.037.167-.284.167-.284-.032-.16-.255.218-.336-.18-.472-2.312a20.559,20.559,0,0,1-.176-2.7C166.825,61.876,166.829,60.8,166.713,59.49Zm.453-2.916c.145-.029.168-.283.119-.523.007-.334-.081-.4-.176-.129C166.9,56.379,166.879,56.633,167.166,56.574Zm-.034,1.668c-.072.015-.127.109-.078.349s.12.224.159.049A.4.4,0,0,0,167.132,58.242Zm.037,1.653c-.072.015-.127.11-.078.349s.12.224.16.05C167.218,60.134,167.258,59.961,167.169,59.9Zm-.009-2.987c-.1-.146-.072.015-.079.348.081.4.169.463.209.29C167.241,57.306,167.192,57.067,167.16,56.908Zm.149,4.039c-.033-.16-.072.015.009.413-.006.333.1.479.065.318A1.185,1.185,0,0,0,167.309,60.947Zm.054,1.732c-.089-.064-.056.095-.063.428.065.319.153.385.121.225A1.015,1.015,0,0,0,167.363,62.679Zm.188,1.291c-.1-.145-.089-.065-.095.268.048.239.153.385.192.21A.562.562,0,0,0,167.551,63.97Zm1.005-7.928a34.951,34.951,0,0,0-.347-5.743c-.306-.768-.306-.768-.262.551.06,1.4.187,8.268.23,11.414a35.305,35.305,0,0,0,1.691,9.04,5.108,5.108,0,0,0,.652,1.362,2.488,2.488,0,0,0-.267-.942C169.214,69.195,168.745,65.055,168.556,56.042ZM168.349,71.2c-.087-.064-.055.1-.023.254-.023.254.065.319.105.145A.4.4,0,0,0,168.349,71.2Zm25.736-49.673c-.136-.3-.209-.29-.294.392a8.923,8.923,0,0,0-.227,1.458,1.014,1.014,0,0,1-.23.711.989.989,0,0,0-.1.6,1.02,1.02,0,0,1-.03.588c-.2.123-.562,1.277-1.526,4.63-.758,2.894-1.161,4.222-1.6,5.724a3.806,3.806,0,0,0-.316,1.393c-.039.174-.078.348-.151.362-.088-.064-.238.3-.333.567-.078.348-.331,1.313-.6,2.2a7.167,7.167,0,0,0-.45,1.835.591.591,0,0,1-.262.552,14.766,14.766,0,0,0-.665,1.88c-.213.791-1.035,3.366-1.818,5.768-1.8,5.515-2.1,6.573-1.382,5.347.167-.283.826-1.829,1.452-3.534,1.267-3.331,2.2-6.1,2.588-7.5.1-.6.6-2.2,1.059-3.621,1.723-5.5,2.009-6.306,2.98-9.991a26.546,26.546,0,0,1,.75-2.562c.151-.363,1.151-4.636,1.26-5.572A2.434,2.434,0,0,0,194.085,21.525ZM189.15,46.531c-.145.029-.407.581-.564,1.277-.245.632-.507,1.184-.595,1.118-.248-.115-.475,1.343-.434,1.916.1.478.226.369.629-.958a24.231,24.231,0,0,1,.8-2.323C189.175,47.024,189.221,46.516,189.15,46.531Zm.02-1c-.207.458-.246.632.042.573.159.051.183-.2.135-.442C189.337,45.248,189.265,45.262,189.17,45.53Zm.4-.994c-.1-.145-.143.029-.094.268s.12.225.159.051C189.615,44.775,189.638,44.521,189.566,44.536ZM191.037,40c-.071.014-.167.283-.134.443a1.584,1.584,0,0,1-.2.87,9.305,9.305,0,0,0-.743,2.228,4.62,4.62,0,0,0,.579-1.2C191.105,41.067,191.365,39.768,191.037,40Zm-.526.356a.246.246,0,0,0,.167-.283c-.016-.079-.1-.145-.231-.035C190.191,40.257,190.223,40.416,190.511,40.357Zm1.065-2.127c-.207.457-.325.98-.38,1.074.016.08.032.16.175.13a2.627,2.627,0,0,0,.436-1.168C192.155,37.033,191.979,36.9,191.576,38.23Zm.625-1.7c-.088-.064-.144.029-.254.218-.008.334-.008.334.175.131C192.234,36.685,192.273,36.51,192.2,36.525Zm1.161-4.223a17.711,17.711,0,0,0-1.036,3.368c-.095.268-.062.427.009.413a3.23,3.23,0,0,0,.436-1.168c.118-.523.371-1.488.545-2.1C193.545,32.1,193.584,31.925,193.362,32.3Z"/><path class="cls-1" d="M218.849,58.585c-1.185,1.9-4.451,4.976-5.314,5.152l-1.078.219c-2.139.519-4.467-.252-6.5-2.163a7.275,7.275,0,0,1-1.243-1.325,87.626,87.626,0,0,1-.348-9.064c.029-.587.034-1.668.12-2.35.013-.667.129-1.936.2-2.7.125-.856.319-2.473.451-3.663a31.9,31.9,0,0,1,.557-3.519c.157-.7.534-2.517.833-3.99a46.544,46.544,0,0,1,1.91-7.53c.642-1.626.753-1.814,1.383-2.026.559-.2.951-.111,2.279.532l1.561.679.267.942a5.783,5.783,0,0,1-.058,1.922c-.174.616-.393,1.741-.607,2.532a24.862,24.862,0,0,1-.646,2.705c-.158.7-.545,2.1-.781,3.15-.292,1.138-.64,2.372-.757,2.894s-.355,1.567-.5,2.344-.322,1.726-.417,1.995A54.458,54.458,0,0,0,209.1,57c0,.747-.06,1.174-.2,1.2a.347.347,0,0,0-.294.392c.032.16.1.145.231.036.311-.313.584.3.378.753a3.481,3.481,0,0,0,.26,1.276l.267.942.885-.429c1.1-.474,2.75-2.3,4.778-5.208,4.407-6.3,10.145-18.179,12.613-25.907a9.328,9.328,0,0,1,.982-2.525c.144-.029.334-.567.508-1.184s.308-1.058.4-.994c.248.116-.375,2.568-.718,2.722a.159.159,0,0,0-.095.268c.16.05-.077,1.095-.456,2.169-.348,1.234-.673,2.213-.656,2.293.1.145.2-.124.278-.471.151-.364.269-.886.38-1.075.039-.174.324-.979.537-1.77.538-1.771.745-2.229.969-1.859a.771.771,0,0,1-.014.667,10.727,10.727,0,0,0-.871,2.337c-.553,1.691-1.772,5.261-2.319,6.619a1.821,1.821,0,0,0-.125.855c.009.413.064.319.4-.247a41.954,41.954,0,0,0,2.6-7.09c-.176-.13-.1-.144.04-.174.247.116.54-1.024.275-1.219-.088-.065-.081-.4.086-.682l.174-.616.234.782c.26,1.276-.078,2.923-3.054,11.834-.711,2.387-1.163,3.475-3.576,8.534a27.761,27.761,0,0,1-2.438,4.566.515.515,0,0,0-.19.538A25.334,25.334,0,0,1,218.849,58.585Zm-7.8-44.916a56.779,56.779,0,0,1,4.679-10.836c1.423-2.2,1.767-2.354,2.738-.891.523.725.659,1.028.58,1.377a3.111,3.111,0,0,0-.02,1,6.108,6.108,0,0,1-.6,2.2,43.7,43.7,0,0,0-2.255,6.938c-.764,3.227-1.272,4.411-1.729,4.006a2.267,2.267,0,0,0-.878.095,1.334,1.334,0,0,1-1.353-.388,3.3,3.3,0,0,1-.77-.84c-.088-.066-.28-.275-.456-.405C210.573,15.758,210.612,15.584,211.045,13.669ZM225.5,39.79c.033.159.265.2.552.136a2.179,2.179,0,0,0,.4-.247c-.072.015-.32-.1-.624-.122S225.467,39.631,225.5,39.79Z"/><path class="cls-1" d="M288.735,21.342a27.568,27.568,0,0,1-1.7,4.5,15.406,15.406,0,0,0-1.34,3.345c-.021,1-3.915,7.608-6.541,10.884-1.178,1.568-3.47,4.277-4.991,6-1.592,1.736-3.3,3.661-3.757,4.337-2.277,2.789-9.308,7.958-13.043,9.467-.758.32-1.787.779-2.275.962a16.707,16.707,0,0,1-5.86,1.359,14.067,14.067,0,0,1-8.763-3.695c-.577-.63-1.363-1.549-1.748-1.969-2.766-2.925-3.864-6.106-3.96-10.986-.15-6.614,2.5-16.038,6.752-24.546,2.405-4.725,5.792-10.149,6.471-10.121a1.888,1.888,0,0,0,1-.952c1.128-1.808,4.476-4.483,7.22-5.707,3.36-1.514,5.869-1.693,8.118-.574a6.1,6.1,0,0,1,3.537,3.764c.508,1.391.452,1.486.237,4.1a23.657,23.657,0,0,1-.776,4.643,14.781,14.781,0,0,0-.56,2.024,39.121,39.121,0,0,1-1.338,4.092c-1.464,4.2-3.251,7.556-4.749,9.024a4.943,4.943,0,0,1-5.863.613,4.232,4.232,0,0,1-2.319-2.933l-.123-.971,1.294-.264a2.429,2.429,0,0,1,2.3.278,4.472,4.472,0,0,0,1.169.593c.359-.072,1.854-2.287,2.862-4.32a56.282,56.282,0,0,0,3.974-11.357c.709-3.135.716-3.468.423-4.9a15.791,15.791,0,0,0-.582-2.123c-.378-.754-1.481-1.027-3.278-.661a7.4,7.4,0,0,0-4.187,2.6c-.494.517-1.5,1.469-2.191,2.108a23.255,23.255,0,0,0-2.031,2.157,6.153,6.153,0,0,1-.859.923c-.36.073-5.382,8.488-7.042,11.733-1.866,3.7-4.581,11.315-4.616,12.982-.007.333-.178,1.7-.366,2.981-.2,1.2-.412,3.489-.479,5a19.253,19.253,0,0,0,.426,5.395c.568,2.791,1.22,4.152,2.567,5.622.77.84,3.346,1.727,5.169,1.853,2.661.2,6.19-.844,9.4-2.744,9.093-5.341,18.984-15.577,25.6-26.474a51.445,51.445,0,0,0,2.732-4.958c.341-.9.96-2.273,1.372-3.187a18.251,18.251,0,0,0,.888-2.257c.062-.427.229-.711.373-.74s.35-.487.556-.944c.475-1.342.74-1.147.369.34-.22,1.125-.2,1.2.058.653.317-.647.317-.647.343-.153-.023.253.1.478.17.463C289.133,18.521,289.129,19.6,288.735,21.342Zm-51.6,15.663c.561-2.025.732-3.388.454-2.916-.517.769-1.561,6.3-1.863,9.6a14.056,14.056,0,0,0,.076,3.308l.237,1.529-.055-1.733c-.035-.906-.007-2.24.007-2.908A59.258,59.258,0,0,1,237.131,37.005Zm1.316-5.666c.016.08.183-.2.389-.661.191-.537.324-.979.324-.979C239.112,29.46,238.4,31.1,238.447,31.339Zm.8-2.323c.065.32.589-.784.73-1.56.1-.268-.016-.079-.294.392A4.9,4.9,0,0,0,239.246,29.016Zm1.546-3.8c.049.239.883-1.176,1.231-2.41.151-.363-.088-.065-.462.675A7.376,7.376,0,0,0,240.792,25.214Zm44.48,2.647c-.066-.318-.654.466-1.734,2.513-.945,1.6-2.1,3.666-2.582,4.6a4.356,4.356,0,0,0-.841,1.749c.032.16.032.16-.056.095s-.47.262-.765.654-1.232,1.663-2.116,2.839c-2.038,2.492-3.127,4.125-3.062,4.445a2.145,2.145,0,0,1-.3.725c-.571.865-.023.254,1.626-1.577.771-.987,1.966-2.476,2.666-3.449.716-.894,1.416-1.866,1.671-2.085a58.86,58.86,0,0,0,3.353-5.582C284.489,30.263,285.314,28.434,285.272,27.861Zm1.578-3.643a14.645,14.645,0,0,0-1.094,2.714c.065.319.589-.784.9-1.843C286.844,24.551,286.922,24.2,286.85,24.218Z"/><path class="cls-1" d="M331.3,12.756c-.7,1.719-7.063,12.732-8.168,14.287a60.5,60.5,0,0,1-8,8.854c-1,.952-2.08,1.919-2.335,2.137-1.648,1.831-8.862,4.629-10.319,4.1-.336-.181-.64-.2-.768-.093-.493.515-5.226-2.507-6.622-4.215-.5-.645-.93-.891-1.378-.883-.751-.013-.783-.172-.217-.7.4-.248.422-.5.284-.806-1.182-2.5-1.41-6.19-.625-10.42A58.366,58.366,0,0,1,297.061,13c.278-.472.8-1.576,1.286-2.5,1.143-2.476,2.271-4.283,2.9-4.5a3.607,3.607,0,0,1,1.814-.287c.679.029,1.662.078,2.181.054a9.011,9.011,0,0,1,5.145,2.109c2.54,1.807,3.479,3.111,3.653,5.068a12.591,12.591,0,0,1-.875,5.992,30.4,30.4,0,0,1-4.418,7.709c-4.179,4.838-5.988,6.618-9.567,9.258A6.553,6.553,0,0,0,298,37.062c.179.877,2.481,1.155,4.445.506,4.5-1.415,8.64-4.251,12.574-8.458a11.614,11.614,0,0,1,1.769-1.606,2.645,2.645,0,0,0,1.25-1.583,7.474,7.474,0,0,1,1.55-2.309c.294-.393.366-.407.16.05-.412.915.137.3,1.665-1.751.794-1.241,1.972-2.81,2.561-3.6a63.01,63.01,0,0,0,3.936-6.033c.3-.726,1.247-2.33,1.954-3.637.779-1.321,1.763-3.1,2.192-3.934,1.732-3.26,2.533-4.835,2.71-4.7a8.018,8.018,0,0,1-.927,2.43c-.865,2-.921,2.1-.158.7.818-1.5,1.472-1.96.981-.7a1.791,1.791,0,0,0-.165,1.03c.065.319.137.3.3.021.533-.689.287-.059-.5,1.6a17.98,17.98,0,0,0-1.117,2.968,11.142,11.142,0,0,1-.839,2.5A18.619,18.619,0,0,1,331.3,12.756ZM297.134,32.837c.017.079.2-.124,2.325-2.551a40.327,40.327,0,0,0,3.726-4.5,13.232,13.232,0,0,1,1.344-1.853,62.458,62.458,0,0,0,4.512-7.978,12.01,12.01,0,0,0,.405-5.73c-.354-1.008-.707-1.267-2.011-1.418-1.821-.126-2.921,1.094-5.094,5.856a63.334,63.334,0,0,0-4.236,11.908A37.116,37.116,0,0,0,297.134,32.837Zm28.927-12.7c-.858,1.668-.953,1.937-.341.9a20.773,20.773,0,0,0,1.319-2.345C327.825,17.033,327.291,17.723,326.061,20.134Z"/></g></g></svg>