<svg xmlns="http://www.w3.org/2000/svg" width="209.538" height="65.205" viewBox="0 0 209.538 65.205"><defs><style>.cls-1{fill:#1b333f;}</style></defs><g id="レイヤー_2" data-name="レイヤー 2"><g id="レイヤー_1-2" data-name="レイヤー 1"><g id="レイヤー_2-2" data-name="レイヤー 2"><path class="cls-1" d="M.091,29.805a13.863,13.863,0,0,1,.316-4.55c.676-2.35,2.163-4.65,5.362-7.95,2.207-2.3,3.56-3.5,3.694-3.351.045.1-.134.351-.36.6l-.45.55.54-.45c.27-.3.541-.55.586-.6a3.982,3.982,0,0,1,.676-.451c.766-.5,2.659-1.949,3.514-2.6a85.389,85.389,0,0,1,8.7-5.65c.315-.15.585-.35.585-.45,0-.05-.27,0-.585.15-.316.2-.585.25-.631.15-.09-.2.09-.35,1.532-1.1,2.523-1.35,2.523-1.35,3.515-1.35a3.778,3.778,0,0,0,1.4-.15c.315-.15.992-.45,1.532-.65.586-.2,1.307-.5,1.622-.65A18.287,18.287,0,0,1,39.113,0c3.6.05,4.461.2,5.992.95A6.333,6.333,0,0,1,47.989,4.4c.991,2.85-.316,5.3-7.074,13.1-1.037,1.2-2.524,2.95-3.334,3.9a92.828,92.828,0,0,1-8.788,9.2c-1.081.949-1.306,1.1-1.846,1.05a1.234,1.234,0,0,1-1.037-.65c-.946-1.2-1.261-2.651-.766-3.451.315-.55.856-.75.676-.25-.045.15-.045.25.045.25s.135-.05.135-.149c0-.151.045-.151.18,0,.361.4,2.569-1.5,6.534-5.551a18.523,18.523,0,0,1,2.433-2.25c.091.05.136,0,.091-.2-.091-.25.315-.75,3.063-3.9.09-.1.226-.15.271-.1.045.1-.09.35-.361.65-.225.3-.135.2.271-.2,1.307-1.4,5.226-6.351,4.956-6.351a5.292,5.292,0,0,0-.9,1.151c-.451.65-1.037,1.349-1.262,1.65-.36.4-1.352,1.649-2.162,2.7-.091.15-.226.2-.271.15-.09-.1.5-.951,1.8-2.5,2.794-3.4,5.183-7.351,5.317-8.751,0-.4-.63-1.25-.81-1-.046.1-.226.1-.451,0-.541-.3-6.263.1-8.2.6a15.166,15.166,0,0,1-1.578.3,9.1,9.1,0,0,0-2.163.6,7.648,7.648,0,0,1-1.532.6c-2.839.9-10.318,4.9-11.354,6a16.867,16.867,0,0,1-2.524,1.85c-2.389,1.651-2.344,1.651-4.326,3.2a49.787,49.787,0,0,0-8.381,8.4,17.927,17.927,0,0,0-2.163,4.551,8.209,8.209,0,0,0-.225,3.45,4.59,4.59,0,0,0,.947,1.95,8.43,8.43,0,0,0,3.244,2.85,14.972,14.972,0,0,0,3.424,1.3c1.668.45,2.794.6,7.751,1.1,1.531.15,3.514.4,4.461.55a32.523,32.523,0,0,1,5.361,1.4c.27.1.676,0,1.758-.55a15.9,15.9,0,0,1,1.937-.8c.271-.1.631-.25.811-.3.27-.1.27-.1.091.15-.181.15-.181.25-.046.25q.135,0,.27-.3c.045-.2.181-.35.316-.3.135,0,.315-.05.36-.15a30.989,30.989,0,0,1,4.416-1.4c.586.05.27.3-.541.55-.991.2-1.982.6-1.892.75.045.05.361-.05.721-.15,2.208-.8,8.786-1.85,9.057-1.45.135.15.135.15-1.036.4a2.474,2.474,0,0,0-.947.3c-.09.05-.45.2-.811.35a9.694,9.694,0,0,0-1.262.5c-.315.15-1.622.65-2.884,1.15a60.6,60.6,0,0,0-6.578,2.9c-.09.1.135.5.586,1.1a11.816,11.816,0,0,1,1.667,3.4,6.523,6.523,0,0,1,.09,1.8,5.3,5.3,0,0,1-.676,2.6,13.8,13.8,0,0,1-3.83,4.4,28.086,28.086,0,0,0-3.515,2.55c.136,0,.136.051.09.15a37.8,37.8,0,0,1-4.866,2.8,11.945,11.945,0,0,0-1.577.7,40.227,40.227,0,0,1-6.4,2,5.166,5.166,0,0,1-3.244-.1c-.675-.351-1.081-.9-1.532-2.351a3.947,3.947,0,0,1-.225-2.4,17.968,17.968,0,0,1,.361-2.051c.225-.7.315-.85.631-.85a.5.5,0,0,0,.45-.4,4.277,4.277,0,0,1,.5-1l.4-.65-.541.65c-.36.45-.54.55-.5.35a10.806,10.806,0,0,1,2.479-2.8.363.363,0,0,1-.091.4c-.45.6.136.15,1.262-.9a7.087,7.087,0,0,1,1.4-1.2,9.563,9.563,0,0,0,2.433-1.95c.089-.1.18-.2.27-.2.226.05.991-.6,2.118-1.65a4.375,4.375,0,0,1,1.307-.951c.27.1,1.171-.5,1.892-1.15a11.992,11.992,0,0,1,1.487-1.2c.676-.449.856-.65.721-.8-.27-.149-5.452-.75-10.319-1.2-3.244-.25-3.83-.35-4.145-.6a3.257,3.257,0,0,0-.992-.5,10.292,10.292,0,0,1-4.73-2.5c-1.577-1.25-3.47-5.05-3.785-7.65A15.607,15.607,0,0,0,.091,29.805Zm1.442-5.3c0,.1.18-.25.451-.7a20.493,20.493,0,0,1,3.244-4.25l1.081-1.1L5,20.105a29.259,29.259,0,0,0-3.063,4.45c-.541,1.15-.676,1.55-.181.7.226-.3.721-1.15,1.217-1.85A36.73,36.73,0,0,1,7.8,17.555a30.6,30.6,0,0,1,4.461-4c.135-.05.857-.6,1.622-1.15.766-.6,1.8-1.35,2.3-1.651.5-.35,1.4-.949,2.073-1.4a8.714,8.714,0,0,1,1.307-.8,1.8,1.8,0,0,0,.54-.35,13.63,13.63,0,0,1,1.8-1.1c1.081-.6,1.622-.95,1.351-1-.044,0-.585.3-1.216.6s-1.442.65-1.847.8a3.486,3.486,0,0,0-1.127.5,88.4,88.4,0,0,0-7.255,5.1,51.8,51.8,0,0,0-8.515,8.4A13.268,13.268,0,0,0,1.533,24.505Zm5.092-3.85-.766.8c-.451.4-.812.7-.812.6a1.8,1.8,0,0,1,.226-.4c.09-.15.045-.1-.181.05-.224.25-.269.35-.134.45.225.2.225.2.991-.7Zm1.622-2.1c0-.15-.271-.05-.361.2-.09.2-.045.25.136.05C8.157,18.7,8.247,18.605,8.247,18.555Zm18.879,27.1c-.765.5-2.432,1.6-3.649,2.45-1.262.85-2.3,1.6-2.343,1.6a16.738,16.738,0,0,0-1.668,1.25c-.9.7-1.982,1.55-2.477,1.95a39.9,39.9,0,0,0-6.264,6.6c-.856,1.3-.946,1.55-.586,1.7.226.1.181.1-.09.25-.36.15-.315.15.271.2a5.343,5.343,0,0,0,1.262-.051c1.351-.25,1.577-.25,1.577-.1,0,.2-1.217.549-2.479.8l-.9.15,1.036.051a8.45,8.45,0,0,0,2.389-.25,38.281,38.281,0,0,0,7.434-2.751c1.532-.75,1.983-1.05.946-.65-.36.15-.675.2-.72.1-.045-.049,0-.15.045-.2a24.21,24.21,0,0,0,3.154-1.8,3.941,3.941,0,0,0-.991.45,18.144,18.144,0,0,1-3.29,1.55c-.316,0,.406-.55,1.442-1.05a10.081,10.081,0,0,0,1.532-.95,6.091,6.091,0,0,1,1.126-.75,8.22,8.22,0,0,0,1.262-1.1,13.714,13.714,0,0,1,2.389-2.1,13.328,13.328,0,0,0,3.424-4.4c.675-1.551.5-2.151-.9-3.1C28.793,44.706,28.659,44.657,27.126,45.657ZM11.085,15.905c.045-.05-.179.05-.405.25-.27.2-.45.35-.45.4s.18-.05.4-.25A1.043,1.043,0,0,0,11.085,15.905Zm.676,37.352a.8.8,0,0,1,.181-.4c.495-.5,3.154-2.75,3.425-2.9.54-.3.179.1-1.172,1.3-.721.65-1.532,1.4-1.848,1.65C12.032,53.207,11.761,53.357,11.761,53.257Zm.812-38.652a.538.538,0,0,0-.271.25c-.09.1-.18.25-.135.25s.18-.151.27-.25C12.528,14.7,12.618,14.605,12.573,14.605Zm10,31.951c-.721.6-2.253,1.651-3.334,2.4a48.647,48.647,0,0,0-5.047,4.05c-.451.45.135.2.81-.35a21.189,21.189,0,0,1,3.515-2.55c.451-.2.812-.45.767-.55-.09-.2.224-.35.675-.3.316,0,.406-.05.406-.25a.342.342,0,0,1,.18-.35c.135,0,.18,0,.09.149s-.09.2.045.1a.417.417,0,0,0,.181-.3c0-.25.631-.75.855-.7a3.143,3.143,0,0,0,.812-.65,2.135,2.135,0,0,1,.765-.6c.136,0,.226-.05.226-.15s.09-.15.226-.15a.535.535,0,0,0,.36-.25.9.9,0,0,1,.45-.2.9.9,0,0,0,.451-.2,3.721,3.721,0,0,1,.991-.7c.766-.35,1.082-.7.9-.9C26.766,43.907,23.927,45.556,22.576,46.556ZM16.222,62.307c-.09-.1-.855.2-.855.3,0,.05.224,0,.45-.051C16.042,62.457,16.222,62.358,16.222,62.307Zm5.228-2.4a5.394,5.394,0,0,0-1.488.6,13.9,13.9,0,0,1-1.487.7c-.27-.049-.45,0-.405.15.09.2-.226.25-.631.151-.135-.051-.181,0-.135.1.09.051,0,.2-.225.3-.452.25-.271.25.405.049A21.781,21.781,0,0,0,21.45,59.908Zm-2.7-49.754a.832.832,0,0,1-.361.25c-.045.05,0,.05.09.1.091,0,.271-.15.36-.3C19.016,9.954,19.016,9.954,18.746,10.154Zm1.712,47.853c-.5.45-.9.4-.406-.05.181-.15.451-.3.586-.25C20.773,57.707,20.773,57.807,20.458,58.007ZM21.719,8c-.45,0-.946.4-.855.75.045.2.09.2.135.1a.3.3,0,0,1,.27-.2.8.8,0,0,0,.45-.3C21.99,8.054,21.99,8.054,21.719,8Zm.226,51.353a.438.438,0,0,0-.135.25c0,.25.09.2.18-.1C22.081,59.408,22.035,59.307,21.945,59.357Zm.225-14.151a5.02,5.02,0,0,1,1.262-.9c.045,0,.045.1,0,.2A3.963,3.963,0,0,1,22.17,45.206Zm5.542,10c-.045-.05-.36.15-.72.45s-.812.6-.947.75c-.5.3-2.658,2-2.838,2.2a8.906,8.906,0,0,0,1.937-1.2A14.722,14.722,0,0,0,27.712,55.207ZM24.964,5.5a14.006,14.006,0,0,1,1.8-.75c.271-.05.5-.1.541-.2.226-.4-3.38,1.05-3.83,1.5C23.3,6.254,23.748,6.054,24.964,5.5Zm.721.45c-.091.1.045.1.271-.05.224-.1.946-.4,1.531-.7.586-.25.991-.5.9-.55A12.969,12.969,0,0,0,25.685,5.954Zm2.929,48.353c-.361.35-.721.6-.721.65,0,.15.585-.3.991-.75S29.29,53.757,28.614,54.307Zm-.5-50.053q.135,0,.135-.15c0-.1-.045-.15-.135-.1C27.938,4.154,27.938,4.254,28.118,4.254Zm.586-.3a.3.3,0,0,0,.225-.15c.045-.1,0-.1-.136-.05C28.569,3.854,28.478,3.954,28.7,3.954Zm.5.4a.564.564,0,0,0-.361.15c-.135.05-.18.1-.09.15a.848.848,0,0,0,.36-.15C29.245,4.4,29.245,4.354,29.2,4.354Zm6.623,35.952a1.132,1.132,0,0,0,.586-.25l.36-.2-.36.05c-.18.1-.451.15-.586.25C35.643,40.256,35.643,40.256,35.823,40.306Zm9.6-31.252-.315.35c-.18.25-.721,1-1.216,1.7a48.6,48.6,0,0,1-3.514,4.451c-2.7,3.1-4.056,4.75-3.875,4.6a6.2,6.2,0,0,0,.945-.95c.361-.45,1.217-1.45,1.892-2.2a19.69,19.69,0,0,1,1.668-1.85c.495-.5,3.515-4.551,4.1-5.551Zm-.269,28.352q-.676,0-3.245.3c-1.938.2-2.208.25-2.028.05.451-.4,5.318-.85,5.453-.5C45.375,37.356,45.286,37.406,45.151,37.406ZM43.528,9.254c0,.2.136,0,.766-.9a4.966,4.966,0,0,0,.541-.95A13.879,13.879,0,0,0,43.528,9.254Zm1.442-2c.045,0,.135-.15.271-.35.09-.15.09-.3.045-.3a2.355,2.355,0,0,0-.226.3C44.97,7.1,44.925,7.254,44.97,7.254Z"/><path class="cls-1" d="M72.279,36.206c-.631.95-5.813,6.8-6.669,7.6a37.241,37.241,0,0,1-5.9,4.351c-.722.45-1.488.9-1.667,1-1.217.9-5.9,1.7-6.714,1.2-.181-.15-.362-.2-.452-.15-.36.25-2.838-2.151-3.469-3.35-.225-.45-.45-.651-.721-.7-.45-.1-.45-.2-.045-.451.271-.1.316-.25.271-.449a10.893,10.893,0,0,1,.9-6.351,35.809,35.809,0,0,1,3.83-6.75c.225-.25.676-.851,1.081-1.351.991-1.35,1.893-2.3,2.3-2.35a2.216,2.216,0,0,1,1.127.051c.4.1.991.25,1.307.3a5.543,5.543,0,0,1,2.838,1.9c1.307,1.4,1.712,2.3,1.577,3.5a7.744,7.744,0,0,1-1.261,3.5A18.692,18.692,0,0,1,57,41.806a30.948,30.948,0,0,1-6.893,4.4,3.96,3.96,0,0,0-.857.551c0,.549,1.352,1,2.614.85a18.117,18.117,0,0,0,8.606-3.551,7.207,7.207,0,0,1,1.262-.75,1.623,1.623,0,0,0,.946-.8c0-.15.586-.7,1.217-1.2.226-.2.27-.2.09.05-.361.5.045.2,1.217-.85.63-.65,1.532-1.45,1.982-1.85a38.569,38.569,0,0,0,3.109-3.15c.271-.4,1.037-1.25,1.622-1.95.631-.7,1.442-1.65,1.8-2.1,1.443-1.75,2.118-2.6,2.208-2.5a4.883,4.883,0,0,1-.855,1.35c-.767,1.1-.812,1.15-.181.4.676-.8,1.127-1,.676-.3a1.1,1.1,0,0,0-.225.6c0,.2.045.2.18.049.405-.35.181,0-.495.9a11.007,11.007,0,0,0-1.037,1.65,6.793,6.793,0,0,1-.811,1.4A11.383,11.383,0,0,1,72.279,36.206Zm-23.026,7.9c0,.051.136-.05,1.712-1.25a24.612,24.612,0,0,0,2.794-2.25,8.212,8.212,0,0,1,1.036-.95,38.347,38.347,0,0,0,3.7-4.25,7.388,7.388,0,0,0,.946-3.4c-.09-.65-.27-.85-1.036-1.1-1.082-.3-1.893.3-3.785,2.9a38.98,38.98,0,0,0-4.011,6.65A22.736,22.736,0,0,0,49.253,44.106Zm18.97-4.1c-.721.9-.81,1.05-.315.5a12.81,12.81,0,0,0,1.082-1.25C69.666,38.356,69.26,38.706,68.223,40.006Z"/><path class="cls-1" d="M96.386,35.456a4.584,4.584,0,0,1-1.126,2.05c-1.082,1.4-1.532,1.7-2.658,1.8-.631.05-.946.05-1.172-.1a6.722,6.722,0,0,0-.586-.35c-.765-.35-2.253-2.75-2.568-4a18.005,18.005,0,0,1-.271-2.3,11.071,11.071,0,0,0-.179-1.7c-.091-.1-.181-.1-.5.1-.271.151-.361.25-.316.35s.045.1-.045.051c-.18-.1-.765.5-.586.65.09.049.09.049-.045.049-.18-.049-1.036.851-1.577,1.6-.135.2-.27.35-.36.35a1.35,1.35,0,0,0-.586.75.466.466,0,0,1-.226.35.376.376,0,0,0-.224.35c.045.1-.045.3-.136.45a19.836,19.836,0,0,0-1.577,2.7c-.45.8-.856,1.55-.9,1.7a2.781,2.781,0,0,0-.315.75,18.176,18.176,0,0,1-1.4,3.2c-.361.7-.811,1.55-.947,1.8-.09.25-.5,1-.81,1.6-.361.649-.722,1.4-.857,1.7-.315.7-1.172,1.8-1.441,1.8a.9.9,0,0,1-.361-.05.37.37,0,0,1-.27-.2.714.714,0,0,0-.361-.25.557.557,0,0,1-.361-.25,2.7,2.7,0,0,0-.36-.7l-.225-.5.225-1.151a47.263,47.263,0,0,1,2.613-8.3c.226-.6.586-1.6.812-2.2.225-.55.586-1.6.856-2.25.27-.7.676-1.8.947-2.5.54-1.35.9-2.2,1.576-3.549.225-.5.631-1.35.9-1.951a4.781,4.781,0,0,1,.676-1.25,1.023,1.023,0,0,0,.181-.4.221.221,0,0,1,.225-.15c1.171-.25,1.171-.25,1.352.05a.644.644,0,0,0,.36.25c.226,0,.226.4,0,.9a1.664,1.664,0,0,0-.135.55,5.378,5.378,0,0,1-.5,1.1,25.819,25.819,0,0,0-1.847,4.251c-.18.55-.721,2.05-1.217,3.35a16.2,16.2,0,0,0-1.036,3.05,5.625,5.625,0,0,0,.5-.8c.45-.75.72-1.05.54-.5a1.106,1.106,0,0,1-.18.35c-.09.15-1.172,2.15-1.4,2.65-.407.95-.091.55.81-1.15.541-.9,1.262-2.25,1.667-2.85a52.948,52.948,0,0,1,4.687-6.35,3.467,3.467,0,0,0,.63-.7,9.7,9.7,0,0,0-1.622,1.4,51.3,51.3,0,0,0-3.7,5.151c-.5.9-.946,1.4-.721.85a62.057,62.057,0,0,1,3.56-5.251,8.716,8.716,0,0,1,2.523-2.5c.586-.3,1.983,0,2.208.5a1.377,1.377,0,0,0,.316.4,3.6,3.6,0,0,1,.991,1.751c.09.349.315,1.5.45,2.6.316,1.95.586,2.9.9,3.1a1.839,1.839,0,0,0,.766,0c.54-.05.766-.15,1.712-.85a22.75,22.75,0,0,0,1.848-1.65C96.657,33.856,96.747,33.906,96.386,35.456ZM74.533,47.907a.656.656,0,0,0-.18.35.045.045,0,0,0,.045.049,2.835,2.835,0,0,0,.18-.3C74.713,47.757,74.668,47.757,74.533,47.907Zm3.65-10.4c0-.05-.091-.05-.225-.05s-.226.15-.316.4a.941.941,0,0,0-.09.35c.045,0,0,.15-.091.3a12.5,12.5,0,0,0-.855,2.2c.045.05.09,0,.135-.05.09-.05.09-.05.09.05-.045.1-.135.15-.18.1-.091,0-.136.05-.181.15a17.261,17.261,0,0,1-.586,1.65c-.585,1.551-.81,2.3-.631,2.151.046-.051.091,0,.046.1s-.091.151-.18.151c-.045-.051-.09-.051,0,.049.089.15,0,.65-.135.55-.046,0-.046.051,0,.151a.133.133,0,0,1-.136.2c-.09,0-.135.051-.09.2a1.242,1.242,0,0,1-.09.649c-.225.551-.225.65.045.2.09-.2.5-1.25.856-2.35s.722-2.051.766-2.151a3.593,3.593,0,0,0,.316-.9c.09-.4.224-.8.315-.8a.783.783,0,0,0,.09-.35,1.927,1.927,0,0,1,.226-.65A14.258,14.258,0,0,0,78.183,37.506Zm-.315-.25v.05c.045,0,.09-.15.179-.3.136-.25.136-.25-.045-.1C77.913,37.056,77.822,37.156,77.868,37.256Zm.315-.9a.391.391,0,0,0-.091.2c.045.2.091.15.181-.1C78.273,36.356,78.273,36.306,78.183,36.356Z"/><path class="cls-1" d="M123.423,26.105a20.057,20.057,0,0,1-1.667,4.251,18.6,18.6,0,0,0-.9,1.75c-.45.8-1.172,2.2-1.622,3.05s-.812,1.6-.812,1.65-3.6,6.6-4.46,8.15c-3.245,5.6-4.551,7.7-5.136,8.2a.621.621,0,0,0-.316.4,3.712,3.712,0,0,1-.856.75c-.451.3-.946.7-1.127.85-.721.7-3.244.95-3.515.35-.09-.2-.179-.25-.54-.25a.951.951,0,0,1-.766-.25,7.179,7.179,0,0,1-1.4-1.75c-1.127-2.1-.946-5.951.857-14.7.4-2,.495-2.65.4-2.7a1.912,1.912,0,0,1-.361-.3c-.135-.15-.315-.25-.451-.2-.405.1-.045-1.3,1.127-4.35.631-1.6,1.532-3.85,1.983-5.051.5-1.15.946-2.2,1.036-2.3.225-.2,1.037-.15,1.127.05a.375.375,0,0,0,.36.05.376.376,0,0,1,.405.2.622.622,0,0,0,.5.25c.271.05.361.1.5.5a1.719,1.719,0,0,1-.135,1.3,2.525,2.525,0,0,0-.271.7,11.353,11.353,0,0,1-.675,2.15,25.605,25.605,0,0,0-1.127,4.2c-.225,1-.54,2.55-.721,3.45-1.486,6.85-2.3,13.7-1.893,16.2a5.765,5.765,0,0,0,.226,1c.09.1,1.081-.55,1.712-1.15a33.192,33.192,0,0,0,3.65-4.85,16.977,16.977,0,0,1,1.126-1.651,16.936,16.936,0,0,0,1.127-1.649c.405-.651,1.081-1.7,1.442-2.251a5.923,5.923,0,0,0,.766-1.25,1.244,1.244,0,0,0,.045-.35,3.359,3.359,0,0,1,.405-.45,2.043,2.043,0,0,0,.406-.75c.09-.25.18-.45.315-.45.091-.05.181-.1.181-.2a5.615,5.615,0,0,1,.45-1c.766-1.5.811-1.6.991-2,.091-.25.226-.4.271-.4a15.079,15.079,0,0,0,1.4-2.6,2.158,2.158,0,0,1,.36-.651,12.065,12.065,0,0,0,1.262-2.3c0-.051.36-.8.766-1.651,1.306-2.6,1.757-4.2,1.261-4.45-.315-.15,0-.3.451-.2.631.15.9.35.631.5-.09.05,0,.1.315.1C123.333,24.155,123.559,24.655,123.423,26.105ZM101.074,44.157a19.034,19.034,0,0,1,.9-4c.09.05,0,.55-.135,1-.045.05,0,.15.045.2a12.556,12.556,0,0,0,.721-3.65c.136-.9.27-1.85.315-2.15.09-.45.09-.5-.045-.3-.134.25-1.216,4.8-1.892,8.05a38.677,38.677,0,0,0-.586,7.451c.091.85.181.45.091-.65-.046-.85-.046-1.05.135-1.25.134-.15.134-.15,0-.1-.181.1-.181-.15,0-1.451a12.434,12.434,0,0,1,.225-1.649C100.849,45.606,100.984,44.956,101.074,44.157Zm-.45,7.25c-.045-.05-.045.05-.045.15-.045.15,0,.2.045.1A.249.249,0,0,0,100.624,51.407Zm.405-4.451c-.045-.1-.045-.049-.09.151,0,.15.045.25.09.15A.348.348,0,0,0,101.029,46.956Zm.045-.8c-.045-.05-.045.049-.09.25,0,.2.045.25.045.149A.617.617,0,0,0,101.074,46.157Zm.18-1.051c0-.1-.045,0-.045.25-.044.2,0,.3,0,.2A.735.735,0,0,0,101.254,45.106Zm.045-.65c-.045,0-.09.051-.09.2s.045.149.09.049C101.3,44.606,101.344,44.507,101.3,44.456Zm1.307-2.15a21.457,21.457,0,0,0,.5-3.5c-.091-.5-.091-.5-.226.3-.134.85-.9,5-1.261,6.9a21.658,21.658,0,0,0-.09,5.65,3.122,3.122,0,0,0,.225.9,1.542,1.542,0,0,0-.045-.6C101.389,50.307,101.615,47.757,102.606,42.306Zm-1.126,1.15c-.046,0-.091.05-.091.2s.045.149.091.049A.244.244,0,0,0,101.48,43.456Zm.18-.8c-.045-.1-.045,0-.09.2,0,.25.045.3.09.2Zm.045-.2c.09,0,.135-.15.135-.3.045-.2,0-.25-.09-.1C101.57,42.306,101.525,42.456,101.705,42.456Zm20.5-17.8c-.045-.2-.09-.2-.225.2a5.269,5.269,0,0,0-.315.85.63.63,0,0,1-.226.4.6.6,0,0,0-.136.35.629.629,0,0,1-.09.35,12.788,12.788,0,0,0-1.486,2.6c-.812,1.649-1.217,2.4-1.668,3.25a2.335,2.335,0,0,0-.36.8c-.045.1-.09.2-.135.2-.045-.05-.181.15-.271.3-.089.2-.36.75-.63,1.25a4.378,4.378,0,0,0-.5,1.05.362.362,0,0,1-.224.3,8.845,8.845,0,0,0-.631,1.05c-.226.45-1.036,1.9-1.8,3.25-1.757,3.1-2.072,3.7-1.486,3.051.135-.151.721-1,1.307-1.951,1.17-1.85,2.072-3.4,2.477-4.2.136-.35.631-1.25,1.082-2.05,1.712-3.1,1.983-3.55,3.019-5.651a16.112,16.112,0,0,1,.766-1.45c.135-.2,1.261-2.65,1.442-3.2A1.514,1.514,0,0,0,122.207,24.655Zm-6.039,14.451c-.089,0-.315.3-.5.7-.225.35-.45.65-.5.6-.135-.1-.45.75-.5,1.1,0,.3.09.25.5-.5a14.927,14.927,0,0,1,.767-1.3C116.124,39.406,116.214,39.106,116.168,39.106Zm.136-.6c-.18.25-.225.35-.045.35.09.05.135-.1.135-.25C116.439,38.356,116.394,38.356,116.3,38.506Zm.361-.55c-.045-.1-.09,0-.09.15s.045.15.09.05C116.665,38.106,116.709,37.956,116.665,37.956Zm1.442-2.55c-.046,0-.136.15-.136.25a.978.978,0,0,1-.225.5,5.714,5.714,0,0,0-.721,1.25,2.86,2.86,0,0,0,.5-.65C118.016,36.056,118.332,35.306,118.107,35.406Zm-.361.15a.151.151,0,0,0,.135-.15c0-.05-.045-.1-.135-.05C117.566,35.456,117.566,35.556,117.746,35.556Zm.9-1.15c-.18.25-.315.55-.36.6,0,.05,0,.1.089.1a1.625,1.625,0,0,0,.407-.65C119.143,33.756,119.052,33.656,118.647,34.406Zm.586-.95c-.045-.05-.09,0-.181.1-.045.2-.045.2.091.1C119.233,33.556,119.278,33.456,119.233,33.456Zm1.217-2.4a10.844,10.844,0,0,0-1.036,1.9c-.091.15-.091.25-.046.25a2,2,0,0,0,.406-.651c.135-.3.405-.849.586-1.2C120.584,30.955,120.629,30.856,120.45,31.055Z"/><path class="cls-1" d="M132.571,50.007a10.929,10.929,0,0,1-3.83,2.45h-.676a4.362,4.362,0,0,1-3.649-2.1,4.42,4.42,0,0,1-.586-.95,53.745,53.745,0,0,1,.9-5.5c.09-.351.226-1,.36-1.4.09-.4.316-1.15.451-1.6.18-.5.5-1.45.721-2.15a19.382,19.382,0,0,1,.766-2.05c.18-.4.631-1.45.991-2.3a28.618,28.618,0,0,1,2.073-4.3c.585-.9.676-1,1.081-1.051.361-.049.586.05,1.307.6l.856.6.045.6a3.568,3.568,0,0,1-.27,1.15c-.181.35-.45,1-.676,1.45a15.577,15.577,0,0,1-.721,1.55c-.18.4-.586,1.2-.856,1.8-.316.65-.676,1.35-.812,1.65s-.405.9-.585,1.35-.406,1-.5,1.15a33.526,33.526,0,0,0-2.072,6.9c-.091.449-.181.7-.27.7a.215.215,0,0,0-.226.2c0,.1.045.1.135.049.225-.149.315.251.135.5a2.184,2.184,0,0,0,0,.8l.045.6.586-.15c.721-.15,1.938-1.05,3.515-2.55a71.989,71.989,0,0,0,10.769-14.051,5.783,5.783,0,0,1,.9-1.4c.091,0,.27-.3.451-.649s.315-.6.36-.55c.135.1-.541,1.5-.766,1.55-.09,0-.135.1-.09.15.09.05-.18.65-.541,1.25-.36.7-.676,1.25-.676,1.3.045.1.136-.05.226-.25.135-.2.27-.5.36-.6.045-.1.316-.55.541-1,.541-1,.721-1.25.811-1a.478.478,0,0,1-.09.4,6.612,6.612,0,0,0-.811,1.3c-.541.95-1.713,2.95-2.208,3.7a1.113,1.113,0,0,0-.18.5c-.045.25,0,.2.27-.1a25.758,25.758,0,0,0,2.434-3.95c-.091-.1-.046-.1.045-.1.134.1.45-.55.315-.7-.045-.05,0-.25.135-.4l.18-.35.045.5c0,.8-.405,1.75-3.289,6.75a30.756,30.756,0,0,1-3.2,4.7,17.115,17.115,0,0,1-2.028,2.449.316.316,0,0,0-.18.3A15.554,15.554,0,0,1,132.571,50.007Zm.811-28a34.835,34.835,0,0,1,4.146-5.95c1.126-1.15,1.351-1.2,1.757-.2.225.5.27.7.18.9a1.905,1.905,0,0,0-.135.6,3.763,3.763,0,0,1-.631,1.25,26.75,26.75,0,0,0-2.207,3.9c-.857,1.85-1.308,2.5-1.533,2.2a1.4,1.4,0,0,0-.541-.05.817.817,0,0,1-.765-.4,2,2,0,0,1-.361-.6c-.045-.05-.135-.2-.225-.3C132.841,23.205,132.886,23.105,133.382,22.005Zm5.5,17.5c0,.1.135.15.316.15a1.357,1.357,0,0,0,.27-.1c-.045,0-.18-.1-.36-.15S138.879,39.406,138.879,39.506Z"/><path class="cls-1" d="M179.208,36.156a16.792,16.792,0,0,1-1.577,2.5,9.444,9.444,0,0,0-1.216,1.85c-.135.6-3.29,4.1-5.272,5.751-.9.8-2.613,2.15-3.74,3-1.171.85-2.433,1.8-2.793,2.15a28.3,28.3,0,0,1-9.013,4.1c-.5.1-1.171.25-1.486.3a10.26,10.26,0,0,1-3.695.1,8.644,8.644,0,0,1-4.822-3.3c-.27-.45-.631-1.1-.81-1.4-1.307-2.1-1.577-4.151-1.037-7.1.721-4,3.469-9.35,7.074-13.95,2.028-2.551,4.731-5.4,5.137-5.3a1.156,1.156,0,0,0,.721-.45,11.985,11.985,0,0,1,5.047-2.55c2.207-.5,3.739-.3,4.956.65a3.75,3.75,0,0,1,1.667,2.7c.136.9.09.95-.36,2.5a14.644,14.644,0,0,1-1.036,2.7,9.021,9.021,0,0,0-.586,1.149,23.933,23.933,0,0,1-1.307,2.3,15.991,15.991,0,0,1-3.965,4.85,3.037,3.037,0,0,1-3.6-.35,2.6,2.6,0,0,1-1.036-2.05l.045-.6h.811a1.492,1.492,0,0,1,1.352.45,2.81,2.81,0,0,0,.63.5,9.376,9.376,0,0,0,2.253-2.25,34.6,34.6,0,0,0,3.786-6.351c.81-1.8.855-2,.855-2.9a9.744,9.744,0,0,0-.09-1.35c-.135-.5-.765-.8-1.892-.8a4.546,4.546,0,0,0-2.839,1.05c-.361.25-1.081.7-1.577,1a14.17,14.17,0,0,0-1.487,1.05,3.758,3.758,0,0,1-.631.45,71.765,71.765,0,0,0-5.677,6.2c-1.577,2-4.146,6.25-4.37,7.25-.046.2-.316,1-.586,1.75-.271.7-.676,2.05-.9,2.95a11.854,11.854,0,0,0-.405,3.3,6.308,6.308,0,0,0,.855,3.7,6.079,6.079,0,0,0,2.884,1.75,10.651,10.651,0,0,0,5.993-.5c6.128-2.1,13.338-7.05,18.655-12.8a31.583,31.583,0,0,0,2.253-2.65c.315-.5.856-1.25,1.216-1.75a11.3,11.3,0,0,0,.812-1.25c.09-.25.225-.4.315-.4s.27-.25.451-.5c.45-.75.586-.6.18.25-.27.65-.27.7-.046.4.271-.35.271-.35.226-.05-.045.15,0,.3.045.3C179.794,34.506,179.659,35.156,179.208,36.156Zm-32.983,3.1c.586-1.15.857-1.95.631-1.7a27.345,27.345,0,0,0-2.3,5.55,8.591,8.591,0,0,0-.36,2l-.045.95.18-1.049c.09-.551.27-1.35.36-1.751A36.209,36.209,0,0,1,146.225,39.256Zm1.487-3.25c0,.05.135-.1.316-.35.18-.3.315-.55.315-.55C148.343,34.956,147.712,35.856,147.712,36.006Zm.766-1.3c0,.2.451-.4.631-.85.09-.15,0-.05-.226.2A3.036,3.036,0,0,0,148.478,34.706Zm1.4-2.1c0,.15.676-.6,1.037-1.3.134-.2-.045-.049-.361.351A4.528,4.528,0,0,0,149.875,32.606Zm26.45,7.05c0-.2-.45.2-1.352,1.3-.766.85-1.712,1.951-2.118,2.451a2.671,2.671,0,0,0-.721.949c0,.1,0,.1-.045.051s-.315.1-.541.3-.946.85-1.622,1.451a9.966,9.966,0,0,0-2.387,2.3,1.325,1.325,0,0,1-.271.4c-.451.45-.045.15,1.171-.75.586-.5,1.487-1.25,2.028-1.75.54-.45,1.081-.95,1.262-1.051a36.183,36.183,0,0,0,2.7-2.95A10.448,10.448,0,0,0,176.325,39.656Zm1.4-2a8.968,8.968,0,0,0-.991,1.5c0,.2.451-.4.767-1C177.676,37.856,177.767,37.656,177.721,37.656Z"/><path class="cls-1" d="M205.885,36.206c-.631.95-5.812,6.8-6.669,7.6a37.15,37.15,0,0,1-5.9,4.351c-.722.45-1.487.9-1.667,1-1.217.9-5.9,1.7-6.714,1.2-.181-.15-.361-.2-.451-.15-.36.25-2.839-2.151-3.47-3.35-.224-.45-.45-.651-.72-.7-.451-.1-.451-.2-.045-.451.27-.1.315-.25.27-.449a10.9,10.9,0,0,1,.9-6.351,35.807,35.807,0,0,1,3.831-6.75c.224-.25.675-.851,1.081-1.351.991-1.35,1.892-2.3,2.3-2.35a2.216,2.216,0,0,1,1.127.051c.406.1.992.25,1.307.3a5.545,5.545,0,0,1,2.839,1.9c1.307,1.4,1.712,2.3,1.576,3.5a7.744,7.744,0,0,1-1.261,3.5,18.662,18.662,0,0,1-3.6,4.1,30.951,30.951,0,0,1-6.894,4.4,3.939,3.939,0,0,0-.856.551c0,.549,1.351,1,2.613.85a18.116,18.116,0,0,0,8.607-3.551,7.215,7.215,0,0,1,1.261-.75,1.622,1.622,0,0,0,.947-.8c0-.15.586-.7,1.216-1.2.226-.2.271-.2.09.05-.36.5.045.2,1.217-.85.631-.65,1.532-1.45,1.982-1.85a38.579,38.579,0,0,0,3.11-3.15c.27-.4,1.036-1.25,1.622-1.95.631-.7,1.441-1.65,1.8-2.1,1.442-1.75,2.118-2.6,2.208-2.5a4.9,4.9,0,0,1-.856,1.35c-.766,1.1-.811,1.15-.18.4.675-.8,1.126-1,.675-.3a1.107,1.107,0,0,0-.224.6c0,.2.045.2.179.049.406-.35.181,0-.5.9a11.089,11.089,0,0,0-1.037,1.65,6.835,6.835,0,0,1-.81,1.4A11.391,11.391,0,0,1,205.885,36.206Zm-23.025,7.9c0,.051.136-.05,1.712-1.25a24.707,24.707,0,0,0,2.794-2.25,8.212,8.212,0,0,1,1.036-.95,38.437,38.437,0,0,0,3.7-4.25,7.388,7.388,0,0,0,.946-3.4c-.089-.65-.27-.85-1.036-1.1-1.082-.3-1.892.3-3.785,2.9a39.044,39.044,0,0,0-4.011,6.65A22.8,22.8,0,0,0,182.86,44.106Zm18.97-4.1c-.721.9-.811,1.05-.316.5a12.674,12.674,0,0,0,1.082-1.25C203.272,38.356,202.867,38.706,201.83,40.006Z"/></g></g></g></svg>