<svg xmlns="http://www.w3.org/2000/svg" width="142" height="106.005" viewBox="0 0 142 106.005"><defs><style>.cls-1{fill:#1b333f;}</style></defs><g id="レイヤー_2" data-name="レイヤー 2"><g id="レイヤー_1-2" data-name="レイヤー 1"><path class="cls-1" d="M17.176,77.514H124.824a7.405,7.405,0,0,0,7.439-7.371V7.371A7.409,7.409,0,0,0,124.824,0H17.176A7.407,7.407,0,0,0,9.74,7.371V70.143A7.4,7.4,0,0,0,17.176,77.514ZM21.111,9.9h99.778V65.876H21.111Z"/><path class="cls-1" d="M140.9,97.971,127.628,86.3a5.159,5.159,0,0,0-3.374-1.172H17.746A5.163,5.163,0,0,0,14.372,86.3L1.1,97.971A3.006,3.006,0,0,0,0,100.223v4.067a2.028,2.028,0,0,0,2.238,1.715H139.762A2.026,2.026,0,0,0,142,104.29v-4.067A3.01,3.01,0,0,0,140.9,97.971ZM55.785,99.347l3.84-5.145h24.33l3.837,5.145Z"/></g></g></svg>