<svg xmlns="http://www.w3.org/2000/svg" width="233.758" height="143.995" viewBox="0 0 233.758 143.995"><defs><style>.cls-1{fill:#1b333f;}</style></defs><g id="レイヤー_2" data-name="レイヤー 2"><g id="レイヤー_1-2" data-name="レイヤー 1"><path class="cls-1" d="M97.166,17.285c.663,2.942.261,10.445-1.159,19.367-.837,5.434-3.9,19.434-5.076,22.944-.426,1.4-.927,3.218-1.121,4.243a13.2,13.2,0,0,1-.88,2.632c-.147.439-.512,1.329-.645,1.847-.119.6-.41,1.063-.555,1.088s-.112-.64.095-1.586a3.428,3.428,0,0,0,.114-2.332L87.6,64.8l-.279.958a6.608,6.608,0,0,1-.643,1.433,1.4,1.4,0,0,0-.149.852,1.5,1.5,0,0,1-.294.878,6.913,6.913,0,0,0-.556,1.5,1.974,1.974,0,0,1-.4,1.144.334.334,0,0,0-.233.371c.156.468-.531,2.075-.848,1.965-.259-.2.582-3.488,1.209-4.59a2.748,2.748,0,0,0,.5-1.408.675.675,0,0,1,.177-.691c.319-.3.5-1,1.544-5.227.37-1.717.724-3.1.783-3.193a59.463,59.463,0,0,0,2.151-8.141,6.611,6.611,0,0,0,.25-3.265.592.592,0,0,1,.149-.852.789.789,0,0,0,.221-.865,4.711,4.711,0,0,1,.517-2.155,18.965,18.965,0,0,0,.943-3.552c.179-1.106.431-2.223.447-2.557a3.416,3.416,0,0,0-.136-1.627c-.112-.642-.138-1.217.065-1.334.145-.025.12-.6-.037-1.067-.313-.937-.385-.924-.669.86-.121,1.013-.493,3.143-.805,4.767-.327,1.544-.744,3.846-.966,5.126s-.669,3.42-.979,4.631-.973,3.8-1.446,5.787c-1.742,7.078-3.167,11.7-7.365,24.334-1.13,3.336-1.7,5.584-1.532,5.719.244.123.5-.088.811-.471.276-.545.421-.571.478-.249a27.4,27.4,0,0,1-2,6.048,1.673,1.673,0,0,0-.122,1.013,6,6,0,0,1,.051,1.147c-.03.254.2-.117.5-.995a4.873,4.873,0,0,0,.514-1.742c-.069-.4.646-1.847,1.007-1.912.434-.074,1.121-1.681,2.018-4.646.822-2.539,1.157-3.177,1.356-2.468a8.349,8.349,0,0,1-.531,2.075,14.992,14.992,0,0,0-.618,2.008c.1.148-.118.6-.338,1.051A27.569,27.569,0,0,0,80.588,89.9c-.089.346-.673,1.686-1.258,3.028s-1.857,4.29-2.793,6.6c-2.342,5.778-6.74,12.99-9.805,16.334-3.007,3.25-3.195,3.449-4.9,4.326a9.755,9.755,0,0,1-5.942,1.368c-2.712-.186-4.153-.762-6.83-2.442a16.369,16.369,0,0,1-6.255-7.25c-1.4-3.308-2.286-9.679-2.1-15,.034-.667.321-5.839.683-11.437s.707-10.45.65-10.77c.048-.586-2.753,7.254-6.229,17.2-.982,2.9-1.39,3.548-1.588,2.839a21.335,21.335,0,0,1,.927-3.218,10.275,10.275,0,0,0,.707-2.768c-.115.186-.98,2.484-1.905,5.29-.938,2.724-2.625,7.562-3.725,10.645s-1.98,5.716-1.952,5.876a13.021,13.021,0,0,0,1.448-3.226c1.555-4.733,2.652-7.4,2.853-7.108.142.388-.138,1.347-3.641,11.128a162.256,162.256,0,0,1-8.846,20.545c-2.917,5.466-4.14,7.413-6.464,9.885-1.945,2.074-2.988,2.5-5.064,2.124a12.539,12.539,0,0,1-6-3.661C.978,138.42.383,136.293.089,132.049c-.412-6.619.674-25.974,1.98-35.123A237.357,237.357,0,0,1,6.7,73.564c.5-1.821,1.415-5.119,1.99-7.368,1.786-7.251,4.083-15.417,6.565-23.368,4.38-14.146,5.039-15.914,6.271-16.956.639-.607,1.839-.982,2.126-.619.1.147.39.1.592-.021a.262.262,0,0,1,.462.084,1.488,1.488,0,0,0,.993.571c.995.156,1.627.79,1.277,1.345a2.014,2.014,0,0,0,.008,1.321c.24.95-.219,3.013-1.111,5.15C25,35.51,21.75,45.906,18.9,55.574c-3.058,10.2-8.409,33.273-9.7,42.089-1.257,8.15-2.61,23.421-2.669,29.048a61.332,61.332,0,0,0,.988,12.055c.282,1.189.4,1.416.716,1.113.261-.211.869-.565,1.261-.881,1.058-.764,2.976-3,2.892-3.479-.115-.228-.3-.03-.667.446-.277.545-.654.941-.871.978s.512-1.328,1.605-3.172c1.034-1.75,2.434-4.389,3.091-5.744a8.5,8.5,0,0,1,1.515-2.412c.476.165,1.424-1.652,2.463-4.23.454-1.235,1.039-2.576,1.2-2.936a6.857,6.857,0,0,0,.558-1.5,21.959,21.959,0,0,1,1.67-4.5,23.988,23.988,0,0,0,1.5-4.226,7.478,7.478,0,0,1,.6-1.674c1.51-4.147,1.92-5.209,1.892-5.369-.014-.08.382-1.224.822-2.539a80.182,80.182,0,0,0,2.815-7.762c.528-1.662,1.716-5.091,2.611-7.643.908-2.472,1.656-4.584,1.628-4.745-.014-.08.573-1.835,1.277-3.776.689-2.02,1.73-5.01,2.287-6.512a18.07,18.07,0,0,1,1.2-2.935.313.313,0,0,0,.219-.451A20.048,20.048,0,0,1,41,61.049,13.968,13.968,0,0,0,42.131,57.3c-.112-.642,1.307-1.467,2.767-1.64s1.545-.105,1.048.891c-.407.649-.335.637.634.22.9-.406,1.042-.43.954-.084-.016.333.084.481.373.43.361-.062.461.084.487.658a22.119,22.119,0,0,0,.3,2.59,31.422,31.422,0,0,1-.055,4.8c-.154,1.68-.388,5.025-.416,7.426-.1,2.412-.2,5.652-.313,7.158-.037,1.494-.09,3.32-.181,4.08-.018.746-.15,3.826-.369,6.838-.49,7.851-.488,10-.082,12.322.255,1.03.731,3.755,1.2,5.988.645,3.687.8,4.155,1.831,5.792a12.783,12.783,0,0,0,2.008,2.541c.79.688,1.021.73,2.51.3A12.914,12.914,0,0,0,58.415,116c2.144-1.366,4.6-3.943,3.964-4.162-.3-.029.266-1.037,1.459-2.732,3.244-4.45,7.547-12.636,7.1-13.467-.115-.229.016-.334.233-.371.158.054.638-.608.96-1.325A271.944,271.944,0,0,0,83.771,62.085c5.366-17.871,8.74-38.2,7.286-44.394-.41-1.5-.41-1.5-1.091-1.13a2.473,2.473,0,0,0-1.075,1.1c-.393.73-.668.861-.766.3-.156-.469-.459-.5-.8.139-.7,1.113-.907-.5-.334-2.338.676-2.1,4.179-3.787,5.834-2.837.317.11.893.423,1.383.667A5.844,5.844,0,0,1,97.166,17.285ZM1.864,129.426c-.086-.068-.13.105-.074.426.128.308.214.376.244.123S2.023,129.48,1.864,129.426Zm.191-8.707a1.185,1.185,0,0,0,.019-.746c-.172-.136-.23-.043-.233.371C1.781,120.85,1.882,121,2.055,120.719Zm-.149-1.709c.056.32.143.388.173.135.044-.172,0-.413-.157-.468C1.836,118.609,1.792,118.783,1.906,119.01Zm.428-4.369a1.161,1.161,0,0,0-.01-.909c-.2-.294-.258-.2-.232.372S2.218,114.826,2.334,114.641Zm.076-3.4c.056.321.187.215.189-.2a3.08,3.08,0,0,0,.049-1c-.056-.321-.187-.216-.261.21A4.454,4.454,0,0,0,2.41,111.24Zm.223-3.839c.042.241.172.135.262-.212a1.662,1.662,0,0,0,.09-.758c-.028-.16-.159-.054-.261.211C2.694,106.9,2.619,107.32,2.633,107.4Zm.492-2.729a7.215,7.215,0,0,0,.211-1.772c-.156-.468-.468,1.155-.43,2.223C2.831,105.549,3.02,105.351,3.125,104.672ZM4.537,126.4a168.619,168.619,0,0,1,.987-16.941c.633-7.463.9-9.74,1.675-13.428a14.785,14.785,0,0,0,.348-2.7.769.769,0,0,1,.176-.692c.131-.105.147-.439.091-.759-.042-.241-.026-.574.046-.587.392-.315,1.962-4.968,1.7-5.171-.086-.068-.333.223-.494.582-.219.451-.277.543-.42.156-.1-.562.534-2.489.9-2.552.145-.026.161-.359-.026-.574a.736.736,0,0,1,.077-.838,7.767,7.767,0,0,0,1.074-3.659,1.5,1.5,0,0,1,.293-.877,1.161,1.161,0,0,0,.28-.957c-.04-.654.2-2.265,2.049-10.436,1.274-5.923,1.427-7.6.476-7.931-.231-.043-.231-.043-.131.106.159.054.17.549.024.986-.264.625-.222.865.009.908.593-.021.518.405-.118.6-.708.207-1.044.844-.657,1.354.1.148-.091.759-.31,1.21a3.2,3.2,0,0,0-.427,1.4,9.323,9.323,0,0,1-.663,2.595c-1.041,2.991-1.174,3.508-.787,4.02.114.227.142.387-.016.333-.331-.19-.883.483-.813.886.042.24.258.2.447,0,.333-.224.361-.064.1.56-.219.451-.394.731-.538.756-.318-.109-.886.9-.818,1.712l.009.907.38-.81c.527-1.248.581-.514.138,1.215-.47,1.57-1.142,2.843-1.034,1.751.088-.346.162-.773.265-1.039.233-.371.147-.438-.028-.16a3.113,3.113,0,0,0-.547,2.41c.272.282-.173,2.424-.562,2.328-.086-.068-.13.1-.074.425.312.937.338,1.511-.023,1.574-.217.038-.522.422-.7.7a8.625,8.625,0,0,0-.435,3.049,2.3,2.3,0,0,1-.331,2.371c-.524.834-.6,1.261-.3,1.7.228.456.184.628.025.573s-.391.316-.524.836c-.177.691-.135.932.182,1.042.144-.025.187.215-.06.507a7.121,7.121,0,0,0-.787,4.019,18.437,18.437,0,0,1-.018,3.307c-.157,2.093-.361,2.625-.723,2.688-.447,0-.491.167-.121,1.011.33.6.313.938.155.882a.428.428,0,0,0-.478.249c-.031.253-.031.253.172.135.319-.3.448,0,.357.764a.456.456,0,0,1-.377.4c-.245-.121-.231-.042-.044.174.358.349.231,2.6-.117,2.746-.216.037-.174.277.027.574.214.375.241.535,0,.412-.39-.095-.376-.016-.138,1.346.084.481.285.777.4.592.13-.106.187.215.2.709a2.374,2.374,0,0,1-.194,1.024,11.24,11.24,0,0,0-.269,4.425c.159.056.07.4-.177.691s-.363.478-.219.453.173.135.07.4a7.513,7.513,0,0,0,.059,2.469,4.232,4.232,0,0,1-.037,1.493c-.782,3.193.8,13.078,2.009,12.783.073-.012.031-.253-.084-.48a5.214,5.214,0,0,1-.377-2.164c-.094-1.389-.236-1.778-.481-1.9-.317-.109-.331-.189-.084-.48C4.567,134.241,4.557,133.334,4.537,126.4Zm-1.11-24.257c.2-.119.219-.452.177-.692-.156-.469-.156-.469-.3-.03C3.052,102.123,3.108,102.444,3.427,102.141Zm.323-3.692c.028.16.189-.2.307-.8a7.8,7.8,0,0,0,.022-1.16C3.834,96.37,3.652,97.889,3.75,98.449Zm.331-2.37a50.094,50.094,0,0,0,1.3-6.177c.386-2.048.132-3.078-.2-1.121C4.744,90.924,4.025,95.758,4.081,96.079Zm1.552-9.44c.143.387.347-.144.482-1.076A5.686,5.686,0,0,0,6.2,84.31,6.427,6.427,0,0,0,5.633,86.639Zm.86-4.034q.1.6.217-.037a1.015,1.015,0,0,0,.176-.691c-.028-.162-.172-.137-.3-.031A.875.875,0,0,0,6.493,82.605Zm.281-1.371c.028.161.247-.291.424-.982s.6-2.088.942-3.138a9.653,9.653,0,0,0,.647-2.26A3.006,3.006,0,0,1,9.1,73.643a72.069,72.069,0,0,0,1.822-8.332,22.872,22.872,0,0,0-1.309,4.441c-.664,2.6-1.239,4.844-1.225,4.924a5.7,5.7,0,0,1-.28.957A26.289,26.289,0,0,0,6.774,81.234ZM11.2,63.94c.07.4.464-.329.746-1.7.235-.783.268-1.451.1-1.586A9.582,9.582,0,0,0,11.2,63.94ZM12.627,58.9a.332.332,0,0,0,.233-.37c-.028-.161-.172-.135-.3-.03C12.238,58.8,12.28,59.043,12.627,58.9Zm.282-1.37c.07.4.449-.41.967-2.564.309-1.211.445-2.144.3-2.118A17.924,17.924,0,0,0,12.909,57.529Zm2.262-7.088a6.793,6.793,0,0,0,.517-2.154,15.472,15.472,0,0,0-1.408,3.881C14.392,52.809,14.568,52.531,15.171,50.441Zm-.339,6.586c-.029-.16-.217.038-.305.385-.161.358-.308.8-.208.944.028.162.145-.025.306-.383A2.168,2.168,0,0,0,14.832,57.027Zm.519-2.568c-.086-.068-.2.117-.291.464,0,.413,0,.413.244.122C15.407,54.779,15.437,54.526,15.351,54.459Zm27.122,14.18c.217-2.6.23-5.08,0-4.709-.13.1-1.038,2.578-2.022,5.474-1,2.819-2.506,6.965-3.24,9.159-.806,2.2-2.551,7.136-3.885,11s-3.346,9.836-4.548,13.186c-1.129,3.336-2.683,7.656-3.315,9.582a10.328,10.328,0,0,0-.885,3.461c.217-.039.683-.781.933-1.485a17.463,17.463,0,0,1,1.081-2.337c.64-1.02,3.382-8.77,7.049-19.323,1.365-4.121,2.655-7.816,2.83-8.093.555-1.089.828-.806.446.418-.177.691-.515,1.742-.634,2.341-.265,1.038-.337,1.049,0,.413.568-1.008.964-2.151,2.988-8.04,1-2.818,2.039-5.808,2.391-6.777A18.554,18.554,0,0,0,42.473,68.639Zm-9.633,30.1c-.084-.481,1.043-3.4,1.244-3.109.186.215.009.907-.24,1.611C33.273,98.662,33,99.207,32.84,98.738Zm9.591,1.628c.129.308.2.3.159.056a.759.759,0,0,0-.1-.562C42.347,99.885,42.376,100.045,42.431,100.366Zm.082.895c-.114-.228-.144.025,0,.413.056.321.156.469.2.3A.835.835,0,0,0,42.513,101.261Zm.142-4.734a1.482,1.482,0,0,0,.063-.919c-.057-.321-.115-.227-.189.2C42.38,96.658,42.449,97.06,42.655,96.527Zm.036,6.6c-.159-.055-.131.105-.075.427s.215.375.173.134A.758.758,0,0,0,42.691,103.13Zm.459-18.254c.1.561.247-.291.331-2.371.007-1.239.012-2.067-.105-1.882A22.474,22.474,0,0,0,43.15,84.876Zm1.94-3.4a33.564,33.564,0,0,1,.134-3.492c.046-.587.046-.587-.289.051-.438.9-1.319,11.63-1.049,12.326a1.928,1.928,0,0,1-.009,1.654,12.356,12.356,0,0,0-.407,3.21,48.508,48.508,0,0,0,.91,13.306c.749,3.008,2.088,6.408,2.52,6.332,0,0-.41-1.5-.877-3.314a25.174,25.174,0,0,1-.994-5.693c-.065-1.227-.143-2.948-.182-3.6C44.7,100.549,44.8,91.773,45.09,81.48ZM78.045,87.7a10.569,10.569,0,0,0-.587,1.754c-.3,1.291-.3,1.291.1.561a17.872,17.872,0,0,0,.587-1.754C78.32,87.572,78.292,87.412,78.045,87.7Zm5.358-11.1c.173.135-.035,1.081-.5,2.237-.745,1.7-1.211,2.441-1.266,2.121a5.513,5.513,0,0,1,.647-2.262c.482-1.074.833-2.045.905-2.057C83.173,76.563,83.245,76.551,83.4,76.605Zm1.778-.475a23.381,23.381,0,0,1,1.471-4.8c.8-1.793.769-.713-.084,2.08C85.745,75.949,85.366,76.758,85.181,76.13ZM95.714,24.313c-.087-.067-.178.693-.182,1.519-.144,2.586-1.271,10.63-2.179,15.662-1.085,5.725-3.536,15.983-4.061,16.819a.991.991,0,0,0-.249.7c.014.08-.282,1.371-.636,2.754-.515,1.743-.636,2.754-.421,3.129.429.752.617.554,1.177-1.361a4.443,4.443,0,0,0,.286-2.2c-.187-.216-.084-.482.1-.68.609-.353,1.212-2.441.853-2.793-.172-.135-.114-.226.058-.092.462.084.786-1.047.471-1.57a.4.4,0,0,1-.026-.572c.188-.2.2-.119.2.3-.075.425,0,.414.231.042.188-.2.149-.853.05-1.413-.285-.777-.168-.961.194-1.026s.405-.235.235-.784-.068-.813.149-.852c.419-.157.892-2.139.652-3.088-.07-.4-.04-.654.046-.586.317.11.895-2.552.8-3.114a1.451,1.451,0,0,1,.251-1.117,4.567,4.567,0,0,0,.329-1.957c-.04-.654.065-1.333.268-1.451a.515.515,0,0,0,.19-.612.7.7,0,0,1,.005-.827,11.273,11.273,0,0,0,.757-3.766,10.258,10.258,0,0,1,.079-1.254c.756-3.767.97-5.951.734-7.728C95.882,25.275,95.727,24.393,95.714,24.313Z"/><path class="cls-1" d="M116.117,61.887c.014.08.53.9,1.073,1.879a16.419,16.419,0,0,1,2.1,6.9,9.932,9.932,0,0,1-.2,4.412,23.283,23.283,0,0,1-3.625,8.234,10.757,10.757,0,0,1-4.512,4.009c-.9.405-1.839.983-2.113,1.113a3.484,3.484,0,0,1-2.688.386c-1.141-.131-3.283-1.74-3.351-2.552a3.465,3.465,0,0,0-.846-1.01c-1.708-1.684-3.048-7.645-2.566-11.281A36.775,36.775,0,0,1,105.32,58.9l1.135-1.6-.646-.713c-.359-.351-.588-.807-.529-.9.088-.346,1.358-.321,2.165.033.648.3.879.342,1.343.013a2.732,2.732,0,0,1,2.5-.188c.793.274,2.632,1.854,2.644,2.347.126.722,4.517.285,9.563-1.092a65.365,65.365,0,0,0,9.416-3.214l.868-.151.578-.1c.072-.012.447,0,.52-.008a.6.6,0,0,1,.374.018.243.243,0,0,1,.159.054.213.213,0,0,1,.158.055l.072-.013.174.136c-.218.037-.348.143-.493.168-.694.286-1.244.547-1.157.615a7.022,7.022,0,0,0,1.822-.648.073.073,0,0,0,.086.066.077.077,0,0,0,.087.069c.014.08.128.307.2.3a3.885,3.885,0,0,0,.142.388c-.1-.148.042.241.056.321l.1.561a3.872,3.872,0,0,1,0,.413l-.058.092c.014.081-.044.174-.03.254-.059.093-.059.093-.045.174l-.072.012a.435.435,0,0,1-.1.265l-.073.013.014.08c-6.642,2.895-13.9,4.823-18.623,5.071A4.4,4.4,0,0,0,116.117,61.887Zm-1.967.674c-.674-.873-.832-.928-1.482-.815a1.5,1.5,0,0,1-.909-.088.852.852,0,0,0-.562-.232c-.434.075-.907-.5-.774-1.022-.028-.161-.056-.321-.187-.216a25.4,25.4,0,0,0-2.694,4.188,5.485,5.485,0,0,1-.6,1.261c-.83,1.218-2.856,7.521-3.3,10.078-.565,3.154-.4,7.091.415,8.765.257.618.329.6,1.557.39a7.985,7.985,0,0,0,3.358-1.661,16.4,16.4,0,0,0,5.058-6.005C116.681,72.363,116.759,65.988,114.15,62.561ZM133,54.973a2.692,2.692,0,0,0,.883-.486c.189-.2-1.272.388-1.461.586C132.295,55.18,132.583,55.129,133,54.973Z"/><path class="cls-1" d="M172.783,55.955a7.486,7.486,0,0,1-1.232,3.6c-1.342,2.547-1.98,3.154-3.759,3.631-1,.255-1.5.343-1.906.167a10.7,10.7,0,0,0-1.038-.4c-1.327-.347-4.383-3.778-5.239-5.694a29.216,29.216,0,0,1-1.077-3.612,17.924,17.924,0,0,0-.766-2.673c-.172-.137-.317-.112-.766.3-.392.316-.508.5-.408.649s.1.148-.058.094c-.317-.111-1.089,1.015-.758,1.2.159.054.159.054-.058.093-.3-.03-1.423,1.653-2.081,3.006-.161.36-.335.637-.479.662a2.2,2.2,0,0,0-.73,1.368.758.758,0,0,1-.263.623.612.612,0,0,0-.263.625c.1.148.011.494-.091.759a32.183,32.183,0,0,0-1.773,4.77c-.5,1.409-.939,2.725-.969,2.978a4.538,4.538,0,0,0-.3,1.291,29.435,29.435,0,0,1-1.344,5.522c-.381,1.223-.866,2.712-1.013,3.15-.074.426-.514,1.742-.852,2.793-.4,1.143-.764,2.447-.9,2.965-.31,1.211-1.374,3.214-1.808,3.289a1.469,1.469,0,0,1-.592.022.608.608,0,0,1-.49-.245,1.146,1.146,0,0,0-.648-.3.907.907,0,0,1-.648-.3,4.462,4.462,0,0,0-.774-1.021l-.5-.739.04-1.907a76.89,76.89,0,0,1,1.866-14.039c.193-1.024.491-2.729.685-3.754.207-.944.491-2.729.742-3.847.239-1.2.581-3.075.818-4.272.489-2.317.828-3.78,1.535-6.133.221-.865.633-2.342.9-3.379a7.742,7.742,0,0,1,.733-2.193,1.676,1.676,0,0,0,.177-.694c-.014-.078.1-.265.319-.3,1.809-.729,1.809-.729,2.182-.3a1.06,1.06,0,0,0,.648.3c.362-.065.474.578.253,1.442a2.648,2.648,0,0,0-.063.919,8.827,8.827,0,0,1-.487,1.9,42.1,42.1,0,0,0-1.773,7.331c-.134.932-.581,3.489-1.012,5.711-.715,4.008-.952,5.206-.808,5.181a8.869,8.869,0,0,0,.571-1.421c.512-1.33.862-1.887.728-.953a1.856,1.856,0,0,1-.192.611c-.1.266-1.277,3.776-1.5,4.64-.384,1.636.01.907.979-2.071.615-1.594,1.393-3.961,1.875-5.036a86.4,86.4,0,0,1,5.736-11.494,5.528,5.528,0,0,0,.816-1.3,15.757,15.757,0,0,0-2.21,2.7,82.873,82.873,0,0,0-4.482,9.291c-.542,1.582-1.125,2.509-.918,1.564a100.577,100.577,0,0,1,4.238-9.414c1.4-2.64,2.361-3.964,3.346-4.715.855-.644,3.18-.554,3.681.184a2.267,2.267,0,0,0,.617.553,5.838,5.838,0,0,1,2.08,2.529c.242.535.926,2.316,1.451,4.041,1.051,3.039,1.751,4.485,2.313,4.718a3.007,3.007,0,0,0,1.228-.214c.853-.233,1.187-.455,2.508-1.843a37.13,37.13,0,0,0,2.5-3.163C172.768,53.313,172.927,53.369,172.783,55.955ZM144.166,64.34c-.014-.08-.158-.055-.375-.018s-.32.3-.394.73a1.529,1.529,0,0,0-.047.587c.073-.013.042.24-.06.506a20.286,20.286,0,0,0-.757,3.767c.087.068.145-.025.2-.119.131-.1.131-.1.159.057-.045.171-.175.277-.261.21-.145.025-.2.118-.248.29a28.142,28.142,0,0,1-.477,2.81c-.5,2.649-.656,3.914-.409,3.623.058-.092.145-.025.1.149s-.1.265-.247.291c-.086-.069-.158-.055.014.08.187.215.183,1.042-.063.919-.072.012-.058.092.042.241a.216.216,0,0,1-.16.358c-.145.025-.2.117-.089.345a2.024,2.024,0,0,1,.038,1.068c-.208.946-.179,1.106.128.308.089-.346.445-2.143.715-4.007s.582-3.488.626-3.662a5.816,5.816,0,0,0,.254-1.531c.032-.666.137-1.346.281-1.371a1.26,1.26,0,0,0,.047-.586,3.159,3.159,0,0,1,.179-1.106A22.954,22.954,0,0,0,144.166,64.34Zm-2.94,17.695a1.071,1.071,0,0,0-.191.611.074.074,0,0,0,.086.069,4.981,4.981,0,0,0,.2-.531C141.473,81.744,141.4,81.757,141.226,82.035Zm2.365-18.008.014.08c.072-.012.1-.265.205-.531.146-.439.146-.439-.1-.148C143.607,63.693,143.49,63.879,143.591,64.027Zm.253-1.531a.639.639,0,0,0-.088.346c.128.308.186.215.26-.211C143.989,62.471,143.974,62.391,143.844,62.5Z"/><path class="cls-1" d="M233.063,48.977c.861,1.089.844,1.421.374,2.992a25.206,25.206,0,0,1-5.229,8.429c-1.307,1.467-1.642,2.1-.393.73,1.205-1.2,1.175-.948,0,.413a64.554,64.554,0,0,1-15.283,12.252c-1.361.734-3.069,1.611-3.75,1.977a27.71,27.71,0,0,1-4.412,1.6,18.984,18.984,0,0,1-6,1.047,28.879,28.879,0,0,1-7.4-.606c-1.629-.376-3.574-1.276-3.629-1.6-.029-.16-.273-.282-.5-.324a4.615,4.615,0,0,1-1.481-1.229l-1.163-1.119-.223,1.278a8.874,8.874,0,0,0-.287,2.2,15.7,15.7,0,0,1-.344,2.29,38.485,38.485,0,0,0-.741,6,14.821,14.821,0,0,1-.272,2.277,15.591,15.591,0,0,0-.306,3.358c-.021,1.16-.16,2.919-.237,3.759a23.35,23.35,0,0,0-.249,5.826l.08,1.307.865.262c.865.263.865.263,1.089,1.545a2.375,2.375,0,0,1-.095,1.586c-.364.476-.566.595-1.518.265-1.557-.388-1.96-.566-2.52-1.213-.359-.349-.79-.687-1.006-.649-.665.034-1.593-1.87-1.957-3.954a62.64,62.64,0,0,1-.1-10.391c.311-4.183,1.31-12.537,1.817-15.6.252-1.117.624-3.248.806-4.766s.656-3.916.925-5.366a17.5,17.5,0,0,0,.549-2.821,2.481,2.481,0,0,1,.221-.866,1,1,0,0,0,.077-.84.228.228,0,0,1,.1-.265.36.36,0,0,0,.161-.359,33.043,33.043,0,0,1,1.132-6.311c.087-.345.575-2.248.975-4.217.46-2.064,1.244-5.67,1.791-8.078.489-2.316.934-4.459.92-4.539a3.657,3.657,0,0,1,.265-1.037,4.112,4.112,0,0,0,.326-1.545c-.047-1.974,4.015-16.231,7.08-25.109.895-2.553,1.671-4.506,1.83-4.451.085.068.233-.371.279-.958.133-.518.18-1.105.224-1.277-.014-.08-.145.024-.261.211-.305.383-.305.383-.145.025l.291-.465a1.944,1.944,0,0,0,.522-.421c.32-.3.464-.329.837.1a.871.871,0,0,0,1.11.385c.361-.063.592-.02.647.3a.334.334,0,0,0,.346.269c.708-.206,1.984,1.553,1.461,1.975-.058.094-.423.982-.833,2.046-2.654,7.4-3.182,9.064-3.333,10.331-.164.771-.459,2.061-.681,2.926-.294.877-.619,2.421-.871,3.539a36.8,36.8,0,0,1-.842,3.7c-.69,2.021-1.046,3.818-.846,4.113.1.149.042.24-.1.266-.217.038-.334.224-.247.291a22.9,22.9,0,0,1-.606,2.5c-.3,1.291-.694,2.847-.74,3.433a13.874,13.874,0,0,1-.855,3.2,37.742,37.742,0,0,0-1.081,4.9,25.828,25.828,0,0,1-.654,3.5,1.769,1.769,0,0,0-.307.8,18.064,18.064,0,0,1-.564,2.741c-.34,1.465-.638,3.168-.728,3.928a16.228,16.228,0,0,1-.448,2.556,63.1,63.1,0,0,0-1.447,8.762c.417.257,6.811-7.469,10.637-12.846A150.8,150.8,0,0,0,207.192,35.57c1.082-2.336,2.547-6.31,2.244-6.34a1.347,1.347,0,0,1-.184-.628c0-.414-.012-.5-.345-.27-.189.2-.1-.148.191-.611l.582-.928-.58.514c-.958.911-.781.218.251-1.119a8.466,8.466,0,0,0,1.855-3.875c.107-1.092.729-1.367,1.375-.653.2.295.4.59.257.615-.073.014.1.149.344.271.476.165.6.473.914,1.823a6.235,6.235,0,0,1,0,3.387,65.7,65.7,0,0,1-3.89,11.832A99.209,99.209,0,0,1,204.312,50.2c-.305.383-.771,1.125-1.076,1.51-1.515,2.412-1.995,3.074-2.855,4.547C197.294,61.172,190,70.13,188.928,70.4a10.829,10.829,0,0,0-1.377,1.067l-1.1.937,1.8.51a27.549,27.549,0,0,0,11.72.6,56.131,56.131,0,0,0,9.211-2.683c.275-.131.753-.379,1.028-.51.347-.143.825-.392,1.173-.535s.824-.392,1.172-.535a49.386,49.386,0,0,0,10.886-8.015,40.983,40.983,0,0,0,7.31-8.876,7.159,7.159,0,0,1,1.237-1.869c.086.069.189-.2.35-.556l.263-.625-.35.556c-.466.744-.522.423-.053-.732l.279-.959Zm-54.34,31.63-.177.692a90.618,90.618,0,0,0-.994,15.621c.117,2.375.441,3.807.38,1.752-.053-.734.012-2.068.016-2.895s.072-2.574.064-3.893a23.989,23.989,0,0,0,0-2.562.58.58,0,0,1,.046-.586,3.561,3.561,0,0,0,.056-2.24c-.028-.16-.042-.24.1-.266.244.124.684-3.753.56-4.888Zm1.348-8.909c-.156-.468-.259-.2-.468,1.156a33.951,33.951,0,0,0-.365,3.451,5.167,5.167,0,0,1-.329,1.957,2.244,2.244,0,0,0-.183,1.931c.286.364.463-.328,1.02-4.39A18.893,18.893,0,0,0,180.071,71.7Zm5.023-26.237a10.343,10.343,0,0,0,.393-3.291,11.4,11.4,0,0,0-.576,2.248c-.237,1.2-.636,2.756-.813,3.447s-.814,3.86-1.439,7.108-1.308,7-1.6,8.293c-.8,3.939-1.08,7.457-.647,7.381.073-.012.045-.172-.042-.24-.1-.147-.114-.227.031-.253.289-.05.617-2.008.519-2.568a5.24,5.24,0,0,1,.3-1.7,19.791,19.791,0,0,0,.666-3.007C182.316,59.824,184.9,46.072,185.094,45.461ZM229.927,54.9a3,3,0,0,0-.61.766,75.209,75.209,0,0,1-7.956,8.163c-1.363,1.148-2.655,2.281-2.771,2.467-.566.6.97-.416,2.941-1.918a52.8,52.8,0,0,0,6.648-6.7C229.329,56.154,230.217,54.844,229.927,54.9Z"/></g></g></svg>