<svg xmlns="http://www.w3.org/2000/svg" width="150.187" height="70.913" viewBox="0 0 150.187 70.913"><defs><style>.cls-1{fill:#1b333f;}</style></defs><g id="レイヤー_2" data-name="レイヤー 2"><g id="レイヤー_1-2" data-name="レイヤー 1"><g id="レイヤー_2-2" data-name="レイヤー 2"><path class="cls-1" d="M71.006,3.42c.09,1.849-.946,6.349-2.749,11.6-1.081,3.2-4.415,11.351-5.5,13.351-.405.8-.9,1.851-1.126,2.45a8.141,8.141,0,0,1-.812,1.5c-.134.25-.45.75-.586,1.049-.134.351-.36.6-.45.6s0-.4.226-.951a2.112,2.112,0,0,0,.315-1.4l-.136-.449-.27.55a4.073,4.073,0,0,1-.54.8.861.861,0,0,0-.181.5.919.919,0,0,1-.27.5,4.255,4.255,0,0,0-.495.85,1.2,1.2,0,0,1-.361.65.2.2,0,0,0-.18.2c.045.3-.541,1.2-.721,1.1a7.184,7.184,0,0,1,1.217-2.65,1.7,1.7,0,0,0,.45-.8c-.045-.1.045-.3.181-.4.224-.15.405-.55,1.486-3,.406-1,.767-1.8.811-1.851a36.625,36.625,0,0,0,2.164-4.7,4.078,4.078,0,0,0,.495-1.95.365.365,0,0,1,.18-.5.482.482,0,0,0,.225-.5,2.894,2.894,0,0,1,.541-1.25,11.641,11.641,0,0,0,.946-2.05c.226-.651.5-1.3.541-1.5a2.106,2.106,0,0,0,.09-1c0-.4.045-.75.181-.8.09,0,.134-.351.09-.65-.09-.6-.136-.6-.5.449-.179.6-.63,1.85-.991,2.8-.36.9-.855,2.25-1.126,3s-.766,2-1.082,2.7-.991,2.2-1.486,3.35c-1.8,4.1-3.154,6.75-7.029,13.952a13.73,13.73,0,0,0-1.533,3.3c.135.1.316,0,.541-.2.225-.3.316-.3.316-.1a16.826,16.826,0,0,1-1.848,3.449,1.036,1.036,0,0,0-.18.6,3.739,3.739,0,0,1-.09.7c-.045.15.134-.051.405-.551a2.994,2.994,0,0,0,.5-1c0-.25.586-1.049.811-1.049.27,0,.856-.9,1.712-2.6.766-1.449,1.037-1.8,1.082-1.349a5.158,5.158,0,0,1-.541,1.2,9,9,0,0,0-.585,1.15c.044.1-.136.35-.316.6a16.826,16.826,0,0,0-1.532,2.5c-.09.2-.586.949-1.082,1.7s-1.576,2.4-2.388,3.7a39.681,39.681,0,0,1-7.66,8.85c-2.163,1.65-2.3,1.75-3.425,2.1a5.983,5.983,0,0,1-3.739.2,7.746,7.746,0,0,1-3.875-2.2,10.057,10.057,0,0,1-3.02-5.05,25.457,25.457,0,0,1,.316-9.3c.09-.4.811-3.5,1.622-6.852s1.532-6.25,1.532-6.449c.09-.35-2.433,4.1-5.587,9.75-.9,1.651-1.217,2-1.261,1.55a13.167,13.167,0,0,1,.9-1.851,6.408,6.408,0,0,0,.722-1.6c-.091.1-.857,1.4-1.713,3-.856,1.551-2.388,4.3-3.379,6.051s-1.8,3.25-1.8,3.349a7.969,7.969,0,0,0,1.217-1.8c1.441-2.7,2.388-4.2,2.478-4,.045.25-.225.8-3.379,6.351a99.592,99.592,0,0,1-7.525,11.5c-2.344,3-3.29,4.051-4.957,5.3-1.4,1.05-2.072,1.2-3.289.75a7.7,7.7,0,0,1-3.244-2.85c-.767-1.25-.9-2.6-.631-5.2A160.932,160.932,0,0,1,5.039,41.572a145.51,145.51,0,0,1,5.273-13.65c.5-1.051,1.4-2.951,1.982-4.251,1.848-4.2,4.1-8.9,6.443-13.45,4.146-8.1,4.732-9.1,5.587-9.6.451-.3,1.217-.4,1.353-.149.045.1.224.1.36.049a.162.162,0,0,1,.271.1.916.916,0,0,0,.54.451c.586.2.9.65.631.949a1.241,1.241,0,0,0-.135.8,6.485,6.485,0,0,1-1.217,3c-.721,1-3.785,6.95-6.533,12.5-2.93,5.851-8.607,19.252-10.32,24.452-1.622,4.8-4.054,13.9-4.685,17.3a37.587,37.587,0,0,0-.676,7.4c.045.75.09.9.316.75.179-.1.585-.25.855-.4.722-.35,2.118-1.5,2.118-1.8-.045-.15-.18-.049-.45.2a1.183,1.183,0,0,1-.631.5c-.136,0,.45-.75,1.307-1.75.81-.951,1.937-2.4,2.477-3.151.586-.75,1.082-1.35,1.172-1.3.271.151,1.036-.849,1.938-2.3.4-.7.9-1.45,1.036-1.65a4.243,4.243,0,0,0,.5-.85,13.524,13.524,0,0,1,1.487-2.55,14.755,14.755,0,0,0,1.352-2.4,4.588,4.588,0,0,1,.54-.951c1.352-2.349,1.713-2.949,1.713-3.05,0-.049.36-.7.765-1.45a48.9,48.9,0,0,0,2.524-4.4c.5-.949,1.577-2.9,2.387-4.35.812-1.4,1.488-2.6,1.488-2.7,0-.049.541-1.049,1.172-2.149.631-1.151,1.577-2.851,2.072-3.7a11.171,11.171,0,0,1,1.036-1.65.193.193,0,0,0,.181-.25,12.381,12.381,0,0,1,1.127-2.15,8.544,8.544,0,0,0,1.081-2.151c0-.4.946-.75,1.847-.7s.947.1.54.65c-.315.35-.269.35.362.2.585-.151.676-.151.585.05-.045.2,0,.3.18.3.226,0,.271.1.226.451a13.347,13.347,0,0,0-.091,1.6,19.391,19.391,0,0,1-.54,2.9c-.27,1-.766,3-1.037,4.451-.315,1.45-.721,3.4-.946,4.3-.18.9-.406,2-.54,2.452-.091.449-.5,2.3-.947,4.1-1.127,4.7-1.351,6-1.351,7.45.045.651.045,2.351.09,3.751,0,2.3.045,2.6.495,3.7a7.869,7.869,0,0,0,.946,1.75c.406.5.541.55,1.487.451a7.924,7.924,0,0,0,2.343-.6c1.443-.6,3.2-1.9,2.839-2.1-.18-.049.271-.6,1.172-1.5,2.433-2.35,5.9-6.85,5.723-7.4-.045-.15.044-.2.179-.2.091.049.451-.3.722-.7A167.254,167.254,0,0,0,58.164,29.121c5.137-10.25,9.327-22.2,9.1-26.1-.09-.949-.09-.949-.54-.8a1.516,1.516,0,0,0-.767.549c-.315.4-.5.451-.5.1-.045-.3-.226-.35-.5,0-.54.6-.5-.4.045-1.449.631-1.2,2.929-1.85,3.83-1.1.181.1.5.35.766.549A3.6,3.6,0,0,1,71.006,3.42ZM1.48,61.224c-.045-.05-.09.049-.09.25.045.2.09.25.134.1S1.569,61.273,1.48,61.224Zm1.937-1.55A103.36,103.36,0,0,1,5.806,49.522a59.627,59.627,0,0,1,2.432-7.95,9.073,9.073,0,0,0,.5-1.6.474.474,0,0,1,.18-.4c.091-.051.136-.25.136-.45,0-.149.045-.351.09-.351a10.473,10.473,0,0,0,1.577-2.949c-.045-.051-.226.1-.36.3-.181.25-.226.3-.271.05,0-.35.586-1.45.811-1.45.09,0,.135-.2.045-.351-.045-.25,0-.4.135-.5a4.753,4.753,0,0,0,1.036-2.1.928.928,0,0,1,.271-.5.71.71,0,0,0,.27-.549c.045-.4.361-1.351,2.343-6.1,1.4-3.45,1.667-4.45,1.127-4.75-.136-.051-.136-.051-.09.05.09.05.045.35-.091.6-.224.35-.224.5-.089.549.36.051.27.3-.135.351-.451.05-.722.4-.541.75.045.1-.136.45-.316.7a1.964,1.964,0,0,0-.4.8,5.707,5.707,0,0,1-.677,1.5c-.945,1.7-1.081,2-.9,2.349.045.151.045.25-.045.2-.181-.15-.586.2-.586.451,0,.149.135.149.271.049.224-.1.224,0,0,.35-.181.25-.316.4-.407.4-.179-.1-.631.451-.675.951l-.09.55.315-.451c.45-.7.4-.25-.045.75-.451.9-.991,1.6-.811.951.09-.2.18-.451.27-.6.181-.2.135-.25,0-.1-.315.2-.72,1.2-.586,1.4s-.36,1.449-.586,1.349c-.045-.049-.09.051-.09.25.09.6.045.951-.179.951-.136,0-.362.2-.5.35a5.285,5.285,0,0,0-.586,1.8c.136.5,0,.851-.45,1.4-.407.452-.5.7-.361,1,.09.3.045.4-.046.351s-.269.149-.405.45c-.18.4-.18.55,0,.651.091,0,.091.149-.09.3a4.392,4.392,0,0,0-.9,2.351,11.273,11.273,0,0,1-.361,2c-.315,1.25-.5,1.549-.72,1.549-.271-.049-.316.051-.181.6.136.4.09.6,0,.55a.261.261,0,0,0-.315.1c-.045.149-.045.149.09.1.225-.149.27.05.135.5a.28.28,0,0,1-.27.2c-.135-.1-.135-.05-.045.1a2.249,2.249,0,0,1-.36,1.651c-.136,0-.136.15-.045.349.089.25.089.351-.045.25-.226-.1-.226-.049-.226.8,0,.3.09.5.18.4.091-.05.091.15.046.45a1.459,1.459,0,0,1-.226.6,6.877,6.877,0,0,0-.631,2.651c.09.05,0,.25-.18.4s-.271.25-.18.25.09.1,0,.25a4.568,4.568,0,0,0-.226,1.5,2.608,2.608,0,0,1-.18.9c-.811,1.85-.9,8-.135,7.951.045,0,.045-.15,0-.3a3.2,3.2,0,0,1,0-1.35c.09-.85.045-1.1-.09-1.2-.181-.1-.181-.149,0-.3C2.607,64.424,2.7,63.873,3.417,59.674Zm-.9-3.7a.726.726,0,0,0,.091-.45c-.091-.1-.136-.05-.181.2C2.336,56.023,2.381,56.123,2.516,55.973Zm.091-1.05c0,.2.044.25.089.1.045-.1.045-.25-.045-.3C2.607,54.673,2.561,54.773,2.607,54.923Zm.72-2.6a.711.711,0,0,0,.09-.549c-.09-.2-.135-.15-.18.2S3.237,52.423,3.327,52.322Zm.405-2.049c0,.2.09.15.136-.1a1.888,1.888,0,0,0,.135-.6c0-.2-.09-.149-.181.1A2.756,2.756,0,0,0,3.732,50.273Zm.542-2.3c0,.15.089.1.179-.1a1.017,1.017,0,0,0,.136-.451c0-.1-.09-.049-.181.1C4.363,47.672,4.274,47.922,4.274,47.973Zm.585-1.6a4.436,4.436,0,0,0,.316-1.051c-.046-.3-.406.651-.5,1.3C4.589,46.873,4.724,46.772,4.859,46.373Zm.451-1.5c.134-.051.18-.25.18-.4-.046-.3-.046-.3-.18-.051C5.084,44.822,5.084,45.022,5.31,44.873Zm.586-2.2c0,.1.134-.1.27-.449a4.8,4.8,0,0,0,.135-.7C6.166,41.422,5.9,42.322,5.9,42.672Zm.45-1.4a30.63,30.63,0,0,0,1.442-3.6c.45-1.2.4-1.85,0-.7C7.292,38.223,6.346,41.072,6.346,41.271Zm1.937-5.549c.045.25.226-.05.407-.6a3.5,3.5,0,0,0,.179-.75A3.967,3.967,0,0,0,8.283,35.722Zm.947-2.351c0,.25.044.25.135,0a.623.623,0,0,0,.18-.4c0-.1-.09-.1-.18-.05A.534.534,0,0,0,9.23,33.371Zm.315-.8c0,.1.181-.15.36-.551s.586-1.2.9-1.8a6.011,6.011,0,0,0,.631-1.3,1.85,1.85,0,0,1,.315-.7,44.448,44.448,0,0,0,1.982-4.85,14.088,14.088,0,0,0-1.261,2.551c-.676,1.5-1.262,2.8-1.262,2.849a3.492,3.492,0,0,1-.27.55A16.107,16.107,0,0,0,9.545,32.572Zm4.506-10c0,.251.315-.149.631-.949.225-.45.315-.85.225-.95A5.881,5.881,0,0,0,14.051,22.57Zm1.4-2.9a.206.206,0,0,0,.18-.2c0-.1-.09-.1-.18-.05C15.223,19.57,15.223,19.721,15.448,19.671Zm.316-.8c0,.25.315-.2.855-1.45.316-.7.5-1.251.406-1.251A11.051,11.051,0,0,0,15.764,18.871Zm1.216-.1c0-.1-.135,0-.225.2-.136.2-.271.45-.226.55,0,.1.09,0,.226-.2A1.317,1.317,0,0,0,16.98,18.771Zm15.5,9.95c.405-1.549.675-3.049.495-2.85-.09.051-.9,1.45-1.8,3.1-.9,1.6-2.253,3.951-2.929,5.2-.721,1.25-2.3,4.051-3.514,6.25s-3.065,5.6-4.146,7.5c-1.037,1.9-2.434,4.351-3.02,5.451a6.35,6.35,0,0,0-.9,2c.136,0,.5-.4.722-.8a10.825,10.825,0,0,1,.9-1.3c.5-.55,2.974-4.951,6.308-10.951,1.262-2.349,2.433-4.45,2.568-4.6.451-.6.586-.4.226.3-.181.4-.5,1-.631,1.351-.271.6-.316.6-.045.25a36.1,36.1,0,0,0,2.658-4.55c.9-1.6,1.848-3.3,2.163-3.85A11.416,11.416,0,0,0,32.481,28.721Zm-14.6-13.9a4.2,4.2,0,0,0,.541-1.25,9.513,9.513,0,0,0-1.262,2.2C17.16,16.17,17.3,16.02,17.881,14.82Zm-.316,2.45c-.044-.049-.134.05-.224.25-.046.25-.046.25.135.1C17.565,17.471,17.61,17.32,17.565,17.27Zm5.9,28.652c0-.3.991-1.949,1.081-1.75.09.15-.09.551-.316.951C23.739,45.922,23.514,46.223,23.469,45.922Zm5.5,3.7c-.09-.051-.09.05-.09.25s.09.25.09.1A.466.466,0,0,0,28.966,49.623Zm.09-1.15c-.045-.151-.09,0-.045.25,0,.2.045.3.09.2A.513.513,0,0,0,29.056,48.473Zm.045-.551c.045.2.09.2.09.051a.471.471,0,0,0,0-.35C29.1,47.623,29.1,47.723,29.1,47.922Zm3.605-11.151a20.674,20.674,0,0,1,.45-2.1c.09-.35.09-.35-.18,0a45.561,45.561,0,0,0-1.938,7.35,1.183,1.183,0,0,1-.18,1,7.6,7.6,0,0,0-.585,1.9,29.833,29.833,0,0,0-.857,8.15c.136,1.9.586,4.1.857,4.1,0,0-.09-.951-.181-2.1a15.437,15.437,0,0,1,0-3.55c.091-.75.225-1.8.27-2.2C30.453,48.272,31.444,42.973,32.706,36.771Zm-3.064,8.852a.9.9,0,0,0,.134-.551c0-.2-.044-.15-.134.1C29.461,45.672,29.461,45.922,29.642,45.623Zm1.532-7c0,.351.18-.149.45-1.4.136-.75.226-1.25.136-1.15A13.751,13.751,0,0,0,31.174,38.622Zm20.817,5.4a6.613,6.613,0,0,0-.541,1c-.315.75-.315.75,0,.351a10.912,10.912,0,0,0,.541-1C52.171,43.973,52.171,43.873,51.991,44.022Zm4.416-6.15c.09.1-.135.649-.541,1.3-.631.95-.991,1.349-.991,1.15a3.435,3.435,0,0,1,.631-1.3c.405-.6.721-1.149.766-1.149C56.272,37.822,56.316,37.822,56.407,37.872Zm1.126-.1a14.411,14.411,0,0,1,1.4-2.75c.676-1,.541-.349-.27,1.25C57.894,37.723,57.578,38.172,57.533,37.771ZM69.384,7.519c-.045-.048-.181.4-.271.9-.36,1.551-1.892,6.3-2.973,9.251A97.347,97.347,0,0,1,61.9,27.422a.608.608,0,0,0-.225.4c0,.05-.316.8-.676,1.6-.5,1-.676,1.6-.586,1.849.181.5.315.4.857-.7a2.729,2.729,0,0,0,.405-1.3c-.09-.15,0-.3.135-.4.406-.15.991-1.35.811-1.6-.09-.1-.045-.15.045-.05.27.1.586-.549.45-.9a.248.248,0,0,1,.046-.35c.135-.1.135-.049.09.2-.09.25-.045.25.135.049.135-.1.18-.5.18-.85-.089-.5,0-.6.226-.6s.269-.1.225-.45.044-.5.18-.5c.271-.05.766-1.2.721-1.8,0-.25.045-.4.09-.35.18.1.811-1.45.811-1.8a.892.892,0,0,1,.271-.65A2.835,2.835,0,0,0,66.5,18.07c.045-.4.181-.8.315-.849a.316.316,0,0,0,.181-.35.426.426,0,0,1,.09-.5,6.908,6.908,0,0,0,.856-2.2,6.356,6.356,0,0,1,.18-.75,14.887,14.887,0,0,0,1.262-4.6Z"/><path class="cls-1" d="M77.768,32.422c0,.05.225.6.451,1.25a10.1,10.1,0,0,1,.541,4.4,6.138,6.138,0,0,1-.586,2.651,14.3,14.3,0,0,1-3.065,4.6,6.592,6.592,0,0,1-3.154,1.95c-.586.15-1.217.4-1.4.451a2.145,2.145,0,0,1-1.667-.051c-.676-.2-1.8-1.4-1.758-1.9a2.173,2.173,0,0,0-.405-.7c-.857-1.2-1.037-4.95-.361-7.1a22.593,22.593,0,0,1,5.182-8.5l.856-.851-.315-.5c-.181-.25-.271-.55-.226-.6.09-.2.857-.05,1.307.25.36.25.5.3.811.151a1.676,1.676,0,0,1,1.532.149c.451.25,1.4,1.4,1.352,1.7,0,.451,2.7.651,5.9.35a39.969,39.969,0,0,0,6.038-.949h.9c.045,0,.271.05.315.05a.378.378,0,0,1,.225.049.153.153,0,0,1,.091.05.133.133,0,0,1,.09.05h.045l.09.1c-.135,0-.225.049-.316.049-.45.1-.81.2-.766.25a4.265,4.265,0,0,0,1.172-.2,6.877,6.877,0,0,1,.09.1c0,.05.045.2.09.2a2.33,2.33,0,0,0,.045.25c-.045-.1,0,.15,0,.2v.351a2.482,2.482,0,0,1-.045.25l-.045.05c0,.049-.045.1-.045.149-.045.051-.045.051-.045.1h-.045a.267.267,0,0,1-.09.149H90.52v.051a37.06,37.06,0,0,1-11.806,1.1A2.683,2.683,0,0,0,77.768,32.422Zm-1.262.2c-.315-.6-.405-.649-.811-.649a.93.93,0,0,1-.541-.15c-.045-.1-.179-.15-.315-.2a.505.505,0,0,1-.36-.7c0-.1,0-.2-.09-.151a15.575,15.575,0,0,0-2.074,2.25,3.287,3.287,0,0,1-.5.7,29.462,29.462,0,0,0-3.064,5.751,10.91,10.91,0,0,0-.676,5.349c.09.4.136.4.9.4a4.916,4.916,0,0,0,2.208-.651,10.084,10.084,0,0,0,3.694-3.1C77,38.822,77.723,34.972,76.506,32.621Zm12.212-2.6a1.637,1.637,0,0,0,.585-.2c.136-.1-.811.1-.946.2C88.267,30.071,88.447,30.071,88.718,30.021Z"/><path class="cls-1" d="M112.69,34.822a4.609,4.609,0,0,1-1.127,2.05c-1.081,1.4-1.532,1.7-2.659,1.8-.63.051-.946.051-1.172-.1a6.676,6.676,0,0,0-.584-.349c-.767-.351-2.253-2.751-2.569-4a17.882,17.882,0,0,1-.27-2.3,10.957,10.957,0,0,0-.181-1.7c-.09-.1-.18-.1-.5.1-.271.151-.361.25-.316.351s.045.1-.045.05c-.18-.1-.766.5-.585.649.089.051.089.051-.045.051-.181-.051-1.037.849-1.577,1.6-.136.2-.271.35-.362.35a1.361,1.361,0,0,0-.585.75.472.472,0,0,1-.225.351.375.375,0,0,0-.226.35c.045.1-.045.3-.135.449a19.836,19.836,0,0,0-1.577,2.7c-.451.8-.856,1.548-.9,1.7a2.762,2.762,0,0,0-.316.75,18.026,18.026,0,0,1-1.4,3.2c-.36.7-.812,1.55-.946,1.8-.091.25-.5,1-.812,1.6-.36.65-.721,1.4-.855,1.7-.316.7-1.172,1.8-1.443,1.8a.9.9,0,0,1-.36-.05.372.372,0,0,1-.271-.2.708.708,0,0,0-.36-.251.545.545,0,0,1-.36-.25,2.762,2.762,0,0,0-.361-.7l-.225-.5.225-1.15a47.283,47.283,0,0,1,2.614-8.3c.225-.6.586-1.6.81-2.2.226-.55.586-1.6.857-2.25.27-.7.675-1.8.946-2.5.541-1.351.9-2.2,1.577-3.551.226-.5.631-1.35.9-1.949a4.686,4.686,0,0,1,.676-1.25,1.043,1.043,0,0,0,.18-.4.223.223,0,0,1,.225-.15c1.172-.25,1.172-.25,1.352.051a.656.656,0,0,0,.36.25c.226,0,.226.4,0,.9a1.646,1.646,0,0,0-.134.55,5.439,5.439,0,0,1-.5,1.1A25.746,25.746,0,0,0,97.6,31.972c-.181.549-.721,2.049-1.217,3.35a16.089,16.089,0,0,0-1.036,3.05,5.639,5.639,0,0,0,.5-.8c.451-.75.722-1.051.541-.5a1.083,1.083,0,0,1-.181.35c-.09.15-1.171,2.15-1.4,2.65-.405.949-.09.55.811-1.15.54-.9,1.262-2.25,1.667-2.85a52.951,52.951,0,0,1,4.686-6.35,3.4,3.4,0,0,0,.631-.7,9.6,9.6,0,0,0-1.622,1.4,50.89,50.89,0,0,0-3.7,5.15c-.5.9-.946,1.4-.72.85a61.132,61.132,0,0,1,3.559-5.25,8.639,8.639,0,0,1,2.524-2.5,2.139,2.139,0,0,1,2.207.5,1.415,1.415,0,0,0,.315.4,3.574,3.574,0,0,1,.991,1.751,26.371,26.371,0,0,1,.452,2.6c.315,1.95.585,2.9.9,3.1a1.8,1.8,0,0,0,.766,0c.541-.049.765-.149,1.711-.849a22.4,22.4,0,0,0,1.848-1.651C112.96,33.222,113.05,33.271,112.69,34.822ZM90.836,47.272a.654.654,0,0,0-.181.351.045.045,0,0,0,.045.049,2.9,2.9,0,0,0,.181-.3C91.016,47.123,90.971,47.123,90.836,47.272Zm3.649-10.4c0-.05-.089-.05-.225-.05s-.225.15-.316.4a.95.95,0,0,0-.089.35c.044,0,0,.151-.09.3a12.359,12.359,0,0,0-.857,2.2c.045.05.09,0,.136-.051.09-.048.09-.048.09.051-.045.1-.136.151-.181.1-.09,0-.135.051-.179.15a17.441,17.441,0,0,1-.586,1.651c-.586,1.549-.812,2.3-.631,2.15.045-.051.09,0,.045.1s-.09.15-.181.15c-.045-.051-.09-.051,0,.049.091.15,0,.65-.135.551-.045,0-.045.049,0,.15a.132.132,0,0,1-.135.2c-.09,0-.135.051-.09.2a1.234,1.234,0,0,1-.09.65c-.226.551-.226.65.045.2.091-.2.5-1.25.856-2.351s.721-2.049.766-2.15a3.54,3.54,0,0,0,.315-.9c.091-.4.226-.8.316-.8a.779.779,0,0,0,.09-.35,1.949,1.949,0,0,1,.225-.65A14.108,14.108,0,0,0,94.485,36.872Zm-.315-.25v.05c.045,0,.09-.151.181-.3.134-.25.134-.25-.046-.1C94.215,36.422,94.125,36.521,94.17,36.622Zm.315-.9a.391.391,0,0,0-.089.2c.044.2.089.15.179-.1C94.575,35.722,94.575,35.672,94.485,35.722Z"/><path class="cls-1" d="M149.909,36.972c.406.751.361.95-.09,1.85a15.5,15.5,0,0,1-4.055,4.55c-.947.751-1.217,1.1-.316.4.857-.6.811-.45-.045.25a39.62,39.62,0,0,1-10.544,5.8c-.9.3-2.027.651-2.478.8a17.023,17.023,0,0,1-2.839.5,11.737,11.737,0,0,1-3.739,0,17.756,17.756,0,0,1-4.416-1.15,5.2,5.2,0,0,1-2.028-1.35c0-.1-.135-.2-.27-.25a2.848,2.848,0,0,1-.767-.9l-.586-.8-.269.75a5.441,5.441,0,0,0-.406,1.3,9.57,9.57,0,0,1-.451,1.349,23.777,23.777,0,0,0-1.081,3.551,9.264,9.264,0,0,1-.406,1.35,9.535,9.535,0,0,0-.54,2c-.136.7-.406,1.75-.541,2.25a14.346,14.346,0,0,0-.766,3.5l-.09.8.5.25c.5.25.5.25.5,1.051a1.455,1.455,0,0,1-.225.949c-.27.25-.406.3-.946,0-.9-.4-1.127-.549-1.4-1-.179-.25-.405-.5-.54-.5-.406-.049-.766-1.3-.766-2.6a38.408,38.408,0,0,1,1.037-6.3c.63-2.5,2.117-7.451,2.748-9.25.27-.65.721-1.9.991-2.8s.812-2.3,1.127-3.15a10.707,10.707,0,0,0,.631-1.651,1.565,1.565,0,0,1,.225-.5.608.608,0,0,0,.135-.5.143.143,0,0,1,.09-.149c.045,0,.135-.1.135-.2a20.225,20.225,0,0,1,1.353-3.7c.089-.2.585-1.3,1.036-2.451.5-1.2,1.351-3.3,1.937-4.7.541-1.35,1.036-2.6,1.036-2.65a2.257,2.257,0,0,1,.271-.6,2.519,2.519,0,0,0,.36-.9c.181-1.2,4.146-9.4,6.94-14.45a12.5,12.5,0,0,1,1.577-2.5c.045.049.179-.2.27-.55.135-.3.225-.651.27-.75,0-.05-.09,0-.18.1-.226.2-.226.2-.09,0,.09-.1.18-.2.225-.25a1.223,1.223,0,0,0,.36-.2c.226-.15.316-.15.5.15a.537.537,0,0,0,.631.35c.226,0,.361.05.361.25a.2.2,0,0,0,.18.2c.45-.049,1.036,1.151.676,1.351-.045.05-.36.55-.721,1.149-2.388,4.2-2.884,5.151-3.109,5.9-.181.451-.5,1.2-.721,1.7-.27.5-.631,1.4-.9,2.05a22.579,22.579,0,0,1-.9,2.149,6.215,6.215,0,0,0-.946,2.4c.045.1,0,.15-.09.15-.135,0-.225.1-.18.15a14.256,14.256,0,0,1-.631,1.45c-.316.75-.721,1.65-.811,2a8.578,8.578,0,0,1-.856,1.85,22.918,22.918,0,0,0-1.172,2.851,16.136,16.136,0,0,1-.766,2.05,1.082,1.082,0,0,0-.27.45,11.184,11.184,0,0,1-.631,1.6c-.36.85-.721,1.851-.857,2.3a9.909,9.909,0,0,1-.54,1.5,38.85,38.85,0,0,0-1.8,5.151c.225.2,4.911-3.8,7.8-6.651a92.721,92.721,0,0,0,8.651-9.951c.9-1.3,2.208-3.551,2.028-3.6a.831.831,0,0,1-.045-.4c.045-.25.045-.3-.18-.2-.135.1-.045-.1.18-.351l.451-.5-.406.25c-.675.451-.5.051.271-.649a5.214,5.214,0,0,0,1.531-2.15c.181-.65.586-.751.9-.25.09.2.181.4.09.4-.045,0,.046.1.181.2.27.15.315.35.36,1.2a3.844,3.844,0,0,1-.36,2.051,40.4,40.4,0,0,1-3.6,6.75,60.932,60.932,0,0,1-4.686,5.8c-.226.2-.586.6-.811.8-1.171,1.3-1.532,1.65-2.208,2.45-2.388,2.65-7.75,7.3-8.426,7.35a6.567,6.567,0,0,0-.946.5l-.766.451,1.036.5a16.93,16.93,0,0,0,7.029,1.6,34.564,34.564,0,0,0,5.859-.65c.179-.049.5-.15.675-.2.225-.051.54-.151.766-.2s.541-.149.766-.2a30.325,30.325,0,0,0,7.435-3.7,25.168,25.168,0,0,0,5.361-4.6c.5-.6.9-1.048.947-1s.135-.1.27-.3l.226-.351-.271.3c-.36.4-.36.2.045-.45l.271-.55Zm-36.227,13.4-.181.4a55.673,55.673,0,0,0-2.253,9.35c-.18,1.45-.135,2.351.045,1.1.046-.451.226-1.251.315-1.751s.316-1.549.452-2.35a15,15,0,0,0,.27-1.55.354.354,0,0,1,.09-.35,2.2,2.2,0,0,0,.27-1.35c0-.1,0-.15.09-.15a9.479,9.479,0,0,0,.857-2.9Zm1.757-5.25c-.045-.3-.135-.15-.406.649a21.176,21.176,0,0,0-.586,2.05,3.164,3.164,0,0,1-.405,1.151,1.378,1.378,0,0,0-.315,1.15c.134.25.315-.15,1.081-2.551A11.659,11.659,0,0,0,115.439,45.123Zm5.812-15.352a6.272,6.272,0,0,0,.586-1.95,7.135,7.135,0,0,0-.586,1.3c-.269.7-.676,1.6-.855,2s-.9,2.25-1.622,4.15-1.533,4.1-1.848,4.851c-.9,2.3-1.443,4.4-1.172,4.4.045,0,.045-.1,0-.149-.045-.1-.045-.15.045-.15.181,0,.586-1.151.586-1.5a3.235,3.235,0,0,1,.36-1,12.223,12.223,0,0,0,.722-1.75C118.052,38.172,121.071,30.121,121.251,29.771Zm26.135,10.452a1.831,1.831,0,0,0-.45.4,46.461,46.461,0,0,1-5.678,4.1,22.732,22.732,0,0,0-1.938,1.2c-.405.3.631-.15,1.983-.85a32.57,32.57,0,0,0,4.731-3.349C146.89,40.922,147.566,40.223,147.386,40.223Z"/></g></g></g></svg>